/* XPM */
static char * demon3_xpm[] = {
"65 64 40 1",
" 	c #FFFFFF",
".	c #939393",
"+	c #430000",
"@	c #9B0000",
"#	c #AB6F43",
"$	c #9F9F9F",
"%	c #730000",
"&	c #4F0000",
"*	c #5B0000",
"=	c #BF0000",
"-	c #B37347",
";	c #ABABAB",
">	c #670000",
",	c #4B371B",
"'	c #8B0000",
")	c #6B4727",
"!	c #B7B7B7",
"~	c #533F1F",
"{	c #5F4323",
"]	c #875733",
"^	c #8F5F37",
"/	c #7F532F",
"(	c #9B633B",
"_	c #774F2B",
":	c #7F0000",
"<	c #2B230F",
"[	c #A36B3F",
"}	c #3F2F17",
"|	c #6B6B6B",
"1	c #7F7F7F",
"2	c #A7A7A7",
"3	c #332B13",
"4	c #B30000",
"5	c #A70000",
"6	c #979797",
"7	c #CBCBCB",
"8	c #BF7B4B",
"9	c #43331B",
"0	c #000000",
"a	c #1F170B",
"                                                                 ",
"                                                                 ",
"                                                                 ",
"                                                                 ",
"                                                                 ",
"                                                                 ",
"                                                                 ",
"                                                                 ",
"                                                                 ",
"                                                                 ",
"                                                                 ",
"                                                                 ",
"                                                                 ",
"                                                                 ",
"                                                                 ",
"                                                                 ",
"                                                                 ",
"                                                                 ",
"                                                                 ",
"                                                                 ",
"                                                                 ",
"                                                                 ",
"                                                                 ",
"                                                                 ",
"                                                                 ",
"                                                                 ",
"                                                                 ",
"                                                                 ",
"                                                                 ",
"                                                                 ",
"                                                                 ",
"                                                                 ",
"                                                                 ",
"                                                                 ",
"                                                                 ",
"                                                                 ",
"                                                                 ",
"                                                                 ",
"                                                                 ",
"                                                                 ",
"                                                                 ",
"                            .       +++.@#                       ",
"                            $     %%+&&$*=-                      ",
"                            ;.  >%,,,'.;+,@                      ",
"                           )!.*>~,{]^^$!@'/(                     ",
"                         ~,>)&*]%_@&{/__')*~:/~                  ",
"                      _)~,<<%'[)'[%*<}~)),*~/'{~|12              ",
"                    __{3<3*%'44''4':*<<},3,*)>,,~|               ",
"                  ^^]_~}>'@55@(@(@54@:,<}<6*&&~{,                ",
"            !    (]^/)]@''^'@)_)'):@#(@(<<7*+{]/}                ",
"             !2 _,~([5#55'>)*&&>>,']'''^^'7*+,~,3}               ",
"             [!285[##/5^:_>&&}3}&*{,*~{%_{%/<3}333}^             ",
"    6~/      )/[[('^^'^_>>~,<<<3,*{*~&,,**/((<336<)6~            ",
" 6< <<)/    )~{_//')/_)>&~,9<003}&,+}+}}+{_{{/<3<<~<<^^^^        ",
" <3<33,)/  _//{{){~&,~,,&,}}000<+3}+}+3}+}{{_^{<}}<<<]/)         ",
" <}3,~,)^]_/^]/]_~,}<3}}+333+++++<<+3+3+~__]^_~<,,}}<))](^^      ",
"  3,~,}~_/{)]_]^^),3<+33+**>%%%%>**+<+}+{/^//{,<}},,<]^^^)~      ",
"  3,}3}}_/)~_/^])~3<%%%''@@@555@@':%%%%+,{_/),}<<<}})~~~))       ",
"   <<<}}{____))~~}3     @@@@@@@         3},~{,}aaaa<             ",
"    3},}})){{~~3                         <3}},<a}<a3             ",
"     ,}<<~~~,3                             <3}a<<<3              ",
"     33<<9~9                                <<a<<<3              ",
"      <<<}~                                  }aaaa               ",
"                                                                 "};
