/* XPM */
static char * demon_xpm[] = {
"64 64 40 1",
" 	c #FFFFFF",
".	c #774F2B",
"+	c #7F532F",
"@	c #9B633B",
"#	c #875733",
"$	c #8F5F37",
"%	c #B37347",
"&	c #6B4727",
"*	c #AB6F43",
"=	c #BF7B4B",
"-	c #A36B3F",
";	c #5F4323",
">	c #4B371B",
",	c #730000",
"'	c #FF1F1F",
")	c #332B13",
"!	c #3F2F17",
"~	c #4F0000",
"{	c #8B8B8B",
"]	c #2B230F",
"^	c #838383",
"/	c #B3B3B3",
"(	c #6F6F6F",
"_	c #ABABAB",
":	c #8B0000",
"<	c #9F9F9F",
"[	c #533F1F",
"}	c #670000",
"|	c #E7E7E7",
"1	c #979797",
"2	c #9B0000",
"3	c #777777",
"4	c #CB7F4F",
"5	c #D78B5B",
"6	c #B7B7B7",
"7	c #474747",
"8	c #6B6B6B",
"9	c #FEFEFE",
"0	c #DBDBDB",
"a	c #DFDFDF",
"                                                                ",
"                                                                ",
"                                                                ",
"                                                                ",
"                                                                ",
"                          .+@@+.                                ",
"                         .#$$$$#.                               ",
"                        .$$####$$.                              ",
"                        .%@+&&+@%$                              ",
"                       +*=%-##-%=*+                             ",
"                       #;>#@**@#>;#                             ",
"                       #&,')!>)',&#                             ",
"                        #&~>&&>~&#                              ",
"                        .$;&$$&;$.           {                  ",
"                       $.-]^ /^]-.$+       {/(                  ",
"           ^_        @$#.@!:]]:!@.#$$.   (_<(                   ",
"            ^<^(  #@-@#&[$>:}}:>$[&#@-@$_|_(                    ",
"              1_|#@-$#;>!#[:22:[#!>;#$-@$#(                     ",
"               3_.#@-$.;>+;^ /^;+>;.$-@$#+.                     ",
"                &&.$@$#&[&[4554[&;+#@@$#+.&                     ",
"                ;[;+#+++![.;[[;.[&#$$$#.&&;>                    ",
"               !>>!&&&^6;![;&&;[>.#_|#&;>;[>|_{                 ",
"           ^^_|>!))>;;;![>!>)])>;.+.!&[>!>>>>>                  ",
"            [[;[>)])>[[![[>!!]!>[;&;![>!))!!!)                  ",
"            [;;>!]]])!>![;[!)))>[[;>!!))]!>>>!)                 ",
"            [[>!]]]>!)!!!!))))))!!!!!!>)]>[;[>)                 ",
"           [>!)]])!)>!!>[;[!)>)![;[>!)!]]>;&;>)                 ",
"           [!)]]!>  )!>[>!>;[][;>!>[>))  )[;[!]                 ",
"        _|[;&>)]>    !>>)![[!]![[!)>>!    7!!]]!                ",
"          [&&[!)>     >)]]])!!!)))))>      )))>>                ",
"          ;.&[!)      !])![&[);&[!))!      ]])[;[               ",
"          &+;[!)      >!))>>!)!>>))!>      ])!;&&               ",
"          .#[>!       [>!))!!>!!)!!>[      )!>;.&               ",
"          .+[!)      ![>>[;&;[&.&[>>[>     )>>&.8               ",
"          ..[!       ![>!>;&[![&[>!![>     !>[&.                ",
"          ..[)       >;[>![[>)>[>!!>[>     ![;&;     9          ",
"          &&[)       >&;[>!>[[[>!!>[;[>   &++&.                 ",
"          &;&>      >[&&;[>!>>>!!>[;;[>  [>&&&.                 ",
"          [;..!     ![&.&;>)!!!!!>[&&;>! !!>;&                  ",
"          [&&>!     )[&+.&[)]]]!>[;.&;>! ))!;[                  ",
"          ;[!)]     )>&#+.[)]]]!>;&.&[>!  ]]]                   ",
"           ]]]      )>&+#.>)!  )>;&.;[>!                        ",
"                    )[;.#&>)>  )![&&;>!!                        ",
"                    !&[;&;!![  ))>&;[>)!                        ",
"                    !&;[;>>>[  !)![[>!)                         ",
"                    ![&;!!![[  >!)!>!))                         ",
"                     >[>))![[  >!))!!)!                         ",
"                     )>!]])!>   !)>>!)                          ",
"                      )]>[>)!   ))[0>)                          ",
"                      !];;;))   ))!_!)                          ",
"                       !;0;))   ))]^))                          ",
"                       !!a[!![  !)]])!                          ",
"                       !!))!>;  ))]])!                          ",
"                       >)))![;  ))!!)                           ",
"                        )))![[  )!>>!                           ",
"                        )!>>>   !>>>>                           ",
"                         >;&[   !>[>[>                          ",
"                         [&.;   >!> >>                          ",
"                        [&..;>  >_! _>                          ",
"                       &&.&;;[                                  ",
"                      &..> ;..[                                 ",
"                      &/!! >/>[                                 ",
"                                                                ",
"                                                                "};
