/* XPM */
static char * demon2_xpm[] = {
"64 64 41 1",
" 	c #FFFFFF",
".	c #774F2B",
"+	c #7F532F",
"@	c #9B633B",
"#	c #875733",
"$	c #8F5F37",
"%	c #B37347",
"&	c #6B4727",
"*	c #AB6F43",
"=	c #BF7B4B",
"-	c #A36B3F",
";	c #5F4323",
">	c #4B371B",
",	c #730000",
"'	c #FF1F1F",
")	c #332B13",
"!	c #3F2F17",
"~	c #4F0000",
"{	c #BFBFBF",
"]	c #838383",
"^	c #B3B3B3",
"/	c #7F7F7F",
"(	c #A7A7A7",
"_	c #2B230F",
":	c #8B0000",
"<	c #6B6B6B",
"[	c #B7B7B7",
"}	c #9F9F9F",
"|	c #636363",
"1	c #670000",
"2	c #533F1F",
"3	c #DBDBDB",
"4	c #777777",
"5	c #DFDFDF",
"6	c #9B0000",
"7	c #CB7F4F",
"8	c #D78B5B",
"9	c #575757",
"0	c #979797",
"a	c #E7E7E7",
"b	c #FEFEFE",
"                                                                ",
"                                                                ",
"                                                                ",
"                            .+@@+.                              ",
"                           .#$$$$#.                             ",
"                          .$######$.                            ",
"                          .%@+&&+@%$                            ",
"                         +*=%-##-%=*+                           ",
"                         #;>#@**@#>;#                           ",
"                         #&,')!>)',&#                           ",
"                          #&~>&&>~&#                            ",
"                          .#;&$$&;#.           {                ",
"                          >#>] ^]>#>;        /(                 ",
"             //         .;!+_:__:_+!;.&    </[                  ",
"               }}|  #$#+;>)._:11:_.)>&#$.;2(3                   ",
"                45}}$-$2!_)&2:66:2&))>;+@+&22                   ",
"                 4&+#$#+>!);_] ^]_;)!2+@$#.&;                   ",
"                  ;&..&&&2)>;7887;>)2+$#&&+.&                   ",
"                  >;;22;&;!)2>__>2!2+#+..>;&;2                  ",
"                 !)__>2][9>!!;&&;!!;&][&&>!22>50]               ",
"             ]](a>!__)>>!>2>!)___!>;;2!;2!__)>>>                ",
"              2222>)__)!!>22>!!_!>222>!2>)__)!!      b          ",
"              2;;>!__)_)!>2;2!)!)>2;;>!!))_!2;2>                ",
"              22>!___>!)__))!)!!!)!))))!>)_!;&;>                ",
"             2>!)__)!)>!!>2;2!!>!!2;2>))!__)>;2!                ",
"             2!)_)!>  )!>2>!>;2_2;>!>2>)) !_!>!)>               ",
"           (2&&>))>    !>>)!22!_!22!)>>!   !_))!2}              ",
"           2&+$.2>      >)___)!!!)))))>     !))>;2              ",
"           ;2&+.;2      !_)!2&2);&2!_)!     !2>2;>              ",
"           &22;;;;      >!))>>!)!>>))!>     >&2;2>              ",
"            ;>2;..2    !2>!))!!>!!))!>2     >;&;2>              ",
"             ;>2#+&;   >2>>2;&;&&.&2>>2      ;&;>               ",
"              2>#.>&   22>!>;&2!2&2>>22      2&;!               ",
"              2>2&.&   2;2>!22>2>2>!>;22    !>22!               ",
"               2>!>2   2&;2>>>!)!>!!;&;2    !!!!                ",
"                ))2   22..;2>!))))!2&.;2    !!!!                ",
"                      22+#.;>!)))!>;+.&;>   !!!!                ",
"                      >2+$#&2!__)>;.+.&;>                       ",
"                      >2.#+&;>  >2&.+.&;>                       ",
"                      >>;..&;>  >;;.+.&;>                       ",
"                      >!2;;;2!  >&;;.&;2>                       ",
"                      >!>222>!  >;.2&;;2>                       ",
"                      2!!>2>!>  >2;&>22>                        ",
"                      2>!>>>!>  >>22!!>>                        ",
"                       2>!>!>2   >>!))!>                        ",
"                       2>!!!2>&  !!!2>)>                        ",
"                       >>!))>>;  )!;;;>>                        ",
"                        >)__)>;  ))2^;>                         ",
"                        9!>.))>; ))!]!!                         ",
"                         !2^2))> !>!!!!;                        ",
"                         >!])__> ;2!!>!;                        ",
"                         2>____> ;>!!>!2                        ",
"                          2____2 >>!!>!!                        ",
"                           !)__2  >!!>!                         ",
"                           !)__2  !!!>!                         ",
"                           )>>)2  !!!!                          ",
"                           >>>!2  >!!!                          ",
"                          >2>2>!  >!!!                          ",
"                          >> >!>  >;;;                          ",
"                          4! !4> >2..&2                         ",
"                                 2;;&.&&                        ",
"                                2..; >..&                       ",
"                                2>^> !!^&                       ",
"                                                                "};
