/* XPM */
static char * door1_xpm[] = {
"64 64 214 2",
"  	c None",
". 	c #866C4B",
"+ 	c #DFB57C",
"@ 	c #DEB47C",
"# 	c #CF6B32",
"$ 	c #7C3F21",
"% 	c #FABE7F",
"& 	c #ED7A37",
"* 	c #EB7839",
"= 	c #E26F38",
"- 	c #ED7B39",
"; 	c #CB5436",
"> 	c #B74B31",
", 	c #631E20",
"' 	c #651F20",
") 	c #FBBE7F",
"! 	c #CB5234",
"~ 	c #2F2C45",
"{ 	c #564D75",
"] 	c #544B72",
"^ 	c #494164",
"/ 	c #060813",
"( 	c #F19152",
"_ 	c #302C45",
": 	c #443859",
"< 	c #392845",
"[ 	c #342440",
"} 	c #110C1C",
"| 	c #392946",
"1 	c #352540",
"2 	c #332443",
"3 	c #7D644A",
"4 	c #8E734F",
"5 	c #7E3C21",
"6 	c #422237",
"7 	c #534141",
"8 	c #8F734F",
"9 	c #875332",
"0 	c #5D2229",
"a 	c #352844",
"b 	c #B49481",
"c 	c #7F3F2D",
"d 	c #9A3535",
"e 	c #261C32",
"f 	c #D1AA7E",
"g 	c #927760",
"h 	c #83333E",
"i 	c #937860",
"j 	c #747195",
"k 	c #4E476C",
"l 	c #272038",
"m 	c #A63832",
"n 	c #1C1628",
"o 	c #E0B67F",
"p 	c #6D6C8F",
"q 	c #4E486D",
"r 	c #3A304D",
"s 	c #6B262C",
"t 	c #682220",
"u 	c #8E734E",
"v 	c #9B8077",
"w 	c #49475F",
"x 	c #302C46",
"y 	c #1C192F",
"z 	c #A73A37",
"A 	c #E2B886",
"B 	c #4A4968",
"C 	c #231D32",
"D 	c #6F2D3B",
"E 	c #757295",
"F 	c #4F486D",
"G 	c #473F62",
"H 	c #30223B",
"I 	c #30223C",
"J 	c #151227",
"K 	c #E0B680",
"L 	c #413D63",
"M 	c #24172D",
"N 	c #7D654A",
"O 	c #AA895E",
"P 	c #844322",
"Q 	c #7D3C22",
"R 	c #98322B",
"S 	c #CEA773",
"T 	c #855131",
"U 	c #7D2925",
"V 	c #5D222A",
"W 	c #534142",
"X 	c #875333",
"Y 	c #2A263E",
"Z 	c #3C314F",
"` 	c #31233D",
" .	c #2B233D",
"..	c #2E223D",
"+.	c #2F233D",
"@.	c #2A1F3D",
"#.	c #2D2038",
"$.	c #0E0B1A",
"%.	c #1A1325",
"&.	c #25182F",
"*.	c #131026",
"=.	c #B63934",
"-.	c #7E592F",
";.	c #1E1127",
">.	c #B53934",
",.	c #75252C",
"'.	c #C48C3B",
").	c #110726",
"!.	c #190F23",
"~.	c #040914",
"{.	c #1C192B",
"].	c #261E35",
"^.	c #0D0D1B",
"/.	c #1D1629",
"(.	c #1D1628",
"_.	c #1A1425",
":.	c #080A16",
"<.	c #45385A",
"[.	c #3A2947",
"}.	c #342540",
"|.	c #352541",
"1.	c #2D1F3E",
"2.	c #B28B5E",
"3.	c #FCBE7F",
"4.	c #F8B072",
"5.	c #A65427",
"6.	c #302540",
"7.	c #C49E6D",
"8.	c #F29153",
"9.	c #D45E34",
"0.	c #813F1F",
"a.	c #D45F35",
"b.	c #EE7C39",
"c.	c #91312C",
"d.	c #271A3B",
"e.	c #DE6E36",
"f.	c #5F2D40",
"g.	c #392F4C",
"h.	c #2B1B34",
"i.	c #581B22",
"j.	c #DE6E37",
"k.	c #A5372E",
"l.	c #2C233D",
"m.	c #CF6B30",
"n.	c #4A476E",
"o.	c #392F4D",
"p.	c #0B0C27",
"q.	c #4A476D",
"r.	c #0F0D27",
"s.	c #332540",
"t.	c #1D1226",
"u.	c #110D1C",
"v.	c #180F21",
"w.	c #24142C",
"x.	c #1C1527",
"y.	c #201229",
"z.	c #070B1C",
"A.	c #0E0E2B",
"B.	c #0F0428",
"C.	c #0F0B2A",
"D.	c #100928",
"E.	c #107E7E",
"F.	c #10434A",
"G.	c #102836",
"H.	c #104F54",
"I.	c #0F0B29",
"J.	c #201228",
"K.	c #4E456A",
"L.	c #352743",
"M.	c #1A1025",
"N.	c #1E1227",
"O.	c #3C2D4B",
"P.	c #2F1F39",
"Q.	c #181324",
"R.	c #372844",
"S.	c #1D1528",
"T.	c #120D1C",
"U.	c #131127",
"V.	c #BA1A35",
"W.	c #B91A35",
"X.	c #181227",
"Y.	c #961136",
"Z.	c #961237",
"`.	c #23132B",
" +	c #271B3C",
".+	c #000020",
"++	c #1D1428",
"@+	c #090A16",
"#+	c #0E0C1A",
"$+	c #080916",
"%+	c #2B1F37",
"&+	c #D86F33",
"*+	c #59435F",
"=+	c #4C4165",
"-+	c #291932",
";+	c #411D23",
">+	c #D87034",
",+	c #171728",
"'+	c #221D32",
")+	c #171323",
"!+	c #1F1127",
"~+	c #120D1D",
"{+	c #1F1227",
"]+	c #ED7A38",
"^+	c #E3A86F",
"/+	c #1C182B",
"(+	c #A5372F",
"_+	c #0C1223",
":+	c #FCBF7F",
"<+	c #CC5334",
"[+	c #896745",
"}+	c #6E2B20",
"|+	c #412018",
"1+	c #824222",
". + @ @ @ @ @ @ @ @ @ @ @ @ @ @ @ @ @ @ @ @ @ @ @ @ @ @ @ @ @ @ @ @ @ @ @ @ @ @ @ @ @ @ @ @ @ @ @ @ @ @ @ @ @ @ @ @ @ @ @ @ # $ ",
"% & * = = = = = = = = = = = = = = = = = = = = = = = = = = = = = = = = = = = = = = = = = = = = = = = = = = = = = = = = = = * - ; ",
"% & > , ' ' ' ' ' ' ' ' ' ' ' ' ' ' ' ' ' ' ' ' ' ' ' ' ' ' ' ' ' ' ' ' ' ' ' ' ' ' ' ' ' ' ' ' ' ' ' ' ' ' ' ' ' ' ' ' , > - ; ",
") ! ~ { ] ] ] ] ] ] ] ] ] ] ] ] ] ] ] ] ] ] ] ] ] ] ] ] ] ] ] ] ] ] ] ] ] ] ] ] ] ] ] ] ] ] ] ] ] ] ] ] ] ] ] ] ] ] ] ] ^ / ( ; ",
") ! _ : < < < < < < < < < < < < < < < < < < < < < < < < < < < < < < < < < < < < < < < < < < < < < < < < < < < < < < < < [ } ) ! ",
") ! _ : | | | | | | | | | | | | | | | | | | | | | | | | | | | | | | | | | | | | | | | | | | | | | | | | | | | | | | | | 1 } ) ! ",
") ! _ : | | | | | | | | | | | | | | | | | | | | | | | | | | | | | | | | | | | | | | | | | | | | | | | | | | | | | | | | 1 } ) ! ",
") ! _ : | | | | | | | | 2 3 4 4 4 4 4 4 4 4 4 4 4 4 5 6 | | | | | | | | 7 8 4 4 4 4 4 4 4 4 4 4 4 9 0 a | | | | | | | | 1 } ) ! ",
") ! _ : | | | | | | | | 3 b 4 4 4 4 4 4 4 4 4 4 4 4 c d e | | | | | | e f g 4 4 4 4 4 4 4 4 4 4 4 9 h 0 | | | | | | | | 1 } ) ! ",
") ! _ : | | | | | | | | 4 i j k k k k k k k k k k k l m n | | | | | | n o p k k k k k k k k k k q r s t | | | | | | | | 1 } ) ! ",
") ! _ : | | | | | | | | 4 i j k k k k k k k k k k k l m n | | | | | | n o p k k k k k k k k k k q r s t | | | | | | | | 1 } ) ! ",
") ! _ : | | | | | | | | u v w ~ x x x x x x x x x x y z n | | | | | | n A B x x x x x x x x x x x C D t | | | | | | | | 1 } ) ! ",
") ! _ : | | | | | | | | u v w ~ x x x x x x x x x x y z n | | | | | | n A B x x x x x x x x x x x C D t | | | | | | | | 1 } ) ! ",
") ! _ : | | | | | | | | 4 i E k F F F F F F F F F F l m n | | | | | | n o p F F F F F F F F F F F r s t | | | | | | | | 1 } ) ! ",
") ! _ : | | | | | | | | 4 i G H I I I I I I I I I I J m n | | | | | | n K L I I I I I I I I I I I M s t | | | | | | | | 1 } ) ! ",
") ! _ : | | | | | | | | N O P P P P P P P P P P P P Q R e | | | | | | e S T P P P P P P P P P P P P U V | | | | | | | | 1 } ) ! ",
") ! _ : | | | | | | | | 2 N P P P P P P P P P P P P 5 6 | | | | | | | | W X P P P P P P P P P P P P V a | | | | | | | | 1 } ) ! ",
") ! _ : | | | | | | | | | | | | | | | | | | | | | | | | | | | | | | | | | | | | | | | | | | | | | | | | | | | | | | | | 1 } ) ! ",
") ! _ : | | | | | | | | | | | | | | | | | | | | | | | | | | | | | | | | | | | | | | | | | | | | | | | | | | | | | | | | 1 } ) ! ",
") ! _ : | | | | | | | | | | | | | | | | | | | | | | | | | | | | | | | | | | | | | | | | | | | | | | | | | | | | | | | | 1 } ) ! ",
") ! _ : | | | | | | | | | | | | | | | | | | | | | | | | | | | | | | | | | | | | | | | | | | | | | | | | | | | | | | | | 1 } ) ! ",
") ! Y Z `  ..... .` ` ` ` ` `  ..... .` ` ` ` ` ` ` ` ` `  ..... . ..... .` ` ` ` ` ` ` `  ..... .` ` ` ` ` `  .+.+.@.` #.$.) ! ",
") ! %.&.*.=.-.-.=.*.;.;.;.;.*.=.-.-.=.*.;.;.;.;.;.;.;.;.*.=.-.-.>.>.-.-.=.*.;.;.;.;.;.;.*.=.-.-.=.*.;.;.;.;.*.=.,.,.'.).!.~.) ! ",
") ! {.].n n n n n n ^.n n n n n n n n /.(.(.(.(.(.(.(.(.(.(.(.(.(.(.(.(.(.(.(.(.(.(.(.(./.n n n n n n n n n n n n n n n _.:.) ! ",
") ! x <.| | | | | | n [.| | | | | | }.n (.(.(.(.(.(.(.(.(.(.(.(.(.(.(.(.(.(.(.(.(.(.(.(.n }.| | | | | | | | | | | | | | |.} ) ! ",
") ! _ : | | | | | | n | | | | | | 1.2.3.) ) ) ) ) ) ) ) ) ) ) ) ) ) ) ) ) ) ) ) ) ) ) ) 4.5.6.| | | | | | | | | | | | | 1 } ) ! ",
") ! _ : | | | | | | n | | | | | 1.7.8.9.0.0.0.0.0.0.0.0.0.0.0.0.0.0.0.0.0.0.0.0.0.0.0.0.a.b.c.6.| | | | | | | | | | | | 1 } ) ! ",
") ! _ : | | | | | | n | | | | | d.+ e.f.] ] ] ] ] ] ] ] ] ] ] ] { g.h.h.h.h.h.h.h.h.h.h.i.j.k.l.| | | | | | | | | | | | 1 } ) ! ",
") ! _ : | | | | | | n | | | | | d.+ m.n.< < < < < < < < < < < < : o.| | | | | | | | | | p.# k.l.| | | | | | | | | | | | 1 } ) ! ",
") ! _ : | | | | | | n | | | | | d.+ m.q.| | | | | | | | | | | | : o.| | | | | | | | | | r.# k.l.| s.` ` ` ` ` ` ` ` s.| 1 } ) ! ",
") ! _ : | | | | | | n | | | | | d.+ m.q.| | | | | | | | | | | | : o.| | | | | | | | | | r.# k.l.s.t.;.;.;.;.;.;.;.;.t.s.1 } ) ! ",
") ! _ : | s.u.u.} } } } u.u.s.| d.+ m.q.| | | | | | | | | | | | : o.| | | | | | | | | | r.# k.l.` ;.v.w.w.w.w.w.w.v.;.` 1 } ) ! ",
") ! _ : | x.y.y.w.w.w.w.y.y.x.| d.+ m.q.| | | | | | | | | | | | : o.| | | | | | | | | | r.# k.l.` ;.y.} } } } } } y.;.` 1 } ) ! ",
") ! _ : | n w.w.w.w.w.w.w.w.n | d.+ m.q.| | | | | | | | | | | | : o.| | | | | | | | | | r.# k.l.` ;.z.A.B.C.B.C.A.z.;.` 1 } ) ! ",
") ! _ : | n w.w.w.w.w.w.w.w.n | d.+ m.q.| | | | | | | | | | | | : o.| | | | | | | | | | r.# k.l.` ;.z.D.E.F.E.F.D.z.;.` 1 } ) ! ",
") ! _ : | n w.w.w.w.w.w.w.w.n | d.+ m.q.| | | | | | | | | | | | : o.| | | | | | | | | | r.# k.l.` ;.z.D.F.F.G.H.D.z.;.` 1 } ) ! ",
") ! _ : | n w.w.w.w.w.w.w.w.n | d.+ m.q.| | | | | | | | | | | | : o.| | | | | | | | | | r.# k.l.` ;.z.D.F.F.G.H.D.z.;.` 1 } ) ! ",
") ! _ : | n w.w.w.w.w.w.w.w.n | d.+ m.q.| | | | | | | | | | | | : o.| | | | | | | | | | r.# k.l.` ;.z.I.D.D.D.D.I.z.;.` 1 } ) ! ",
") ! _ : | n J.J.w.w.w.w.J.J.n | d.+ m.q.| | | | | | | | | | | | K.L.| | | | | | | | | | r.# k.l.` ;.M.z.z.z.z.z.z.M.;.` 1 } ) ! ",
") ! _ : | e ;.;.;.;.N.;.;.;.e | d.+ m.q.| | | | | | | | | | O.K.P.| | | | | | | | | | | r.# k.l.` ;.J.J.N.N.N.N.J.J.;.` 1 } ) ! ",
") ! _ : | | ` ` ` ` Q.` ` ` | | d.+ m.q.| | | | | | | | | | : g.| | | | | | | | | | | | r.# k.l.` ;.J.J.N.N.N.N.J.J.;.` 1 } ) ! ",
") ! _ : | s.u.u.} } } } u.u.s.| d.+ m.q.| | | | | | | | | | : o.| | | | | | | | | | | | r.# k.l.| e n n n n n n n n e | 1 } ) ! ",
") ! _ : | x.y.y.w.w.w.w.y.y.x.| d.+ m.q.| | | | | | | | | | : o.| | | | | | | | | | | | r.# k.l.| | | | | | | | | | | | 1 } ) ! ",
") ! _ : | n w.w.w.w.w.w.w.w.n | d.+ m.q.| | | | | | | | | | : o.| | | | | | | | | | | | r.# k.l.R.S.T.T.T.T.T.T.T.T.S.R.1 } ) ! ",
") ! _ : | n w.w.w.w.w.w.w.w.n | d.+ m.q.| | | | | | | | | | : o.| | | | | | | | | | | | r.# k.l.` ;.v.v.T.T.T.T.v.v.;.` 1 } ) ! ",
") ! _ : | n w.w.w.w.w.w.w.w.n | d.+ m.q.| | | | | | | | | | : o.| | | | | | | | | | | | r.# k.l.` ;.U.V.W.W.W.W.V.U.;.` 1 } ) ! ",
") ! _ : | n w.w.w.w.w.w.w.w.n | d.+ m.q.| | | | | | | | | | : o.| | | | | | | | | | | | r.# k.l.` ;.X.Y.Z.Z.Z.Z.Y.X.;.` 1 } ) ! ",
") ! _ : | n `.`.w.w.w.w.`.`.n | d.+ m.q.| | | | | | | | | | : o.| | | | | | | | | | | | r.# k.l.` ;.v.v.T.T.T.T.v.v.;.` 1 } ) ! ",
") ! _ : | n `.`.w.w.w.w.`.`.n | d.+ m.q.| | | | | | | | | | : o.| | | | | | | | | | | | r.# k.l.R.S.T.T.T.T.T.T.T.T.S.R.1 } ) ! ",
") ! _ : | | n n n n ^.n n n | | d.+ m.q.| | | | | | | | | | : g.| | | | | | | | | | | | r.# k.l.| | | | | | | | | | | | 1 } ) ! ",
") ! _ : | | | | | | n [.| | | | d.+ m.q.| | | | | | | | | | O.K.P.| | | | | | | | | | | r.# k.l.| | | | | | | | | | | | 1 } ) ! ",
") ! _ : | | | | | | n | | | | | d.+ m.q.| | | | | | | | | | | | K.L.| | | | | | | | | | r.# k.l.| | | | | | | | | | | | 1 } ) ! ",
") ! _ : | | | | | | n | | | | | d.+ m.q.| | | | | | | | | | | | : o.| | | | | | | | | | r.# k.l.| | | | | | | | | | | | 1 } ) ! ",
") ! _ : | | | | | | n [.| | | |  ++ m.q.| | | | | | | | | | | | : o.| | | | | | | | | | r.# k.l.| | | | | | | | | | | | 1 } ) ! ",
") ! _ : | | | | | | ^.n n n n n .++ m.q.| | | | | | | | | | | | : o.| | | | | | | | | | r.# k.l.| | | | | | | | | | | | 1 } ) ! ",
") ! _ : | | | | | | | | | | | | d.+ m.q.| | | | | | | | | | | | : o.| | | | | | | | | | r.# k.l.| | | | | | | | | | | | 1 } ) ! ",
") ! _ : | | | | | | | | | | | | d.+ m.q.| | | | | | | | | | | | : o.| | | | | | | | | | r.# k.l.| | | | | | | | | | | | 1 } ) ! ",
") ! _ : | | | | | | | | | | | | d.+ m.q.| | | | | | | | | | | | : o.| | | | | | | | | | r.# k.l.| | | | | | | | | | | | 1 } ) ! ",
") ! _ : | | | | | | | | | | | | d.+ m.q.| | | | | | | | | | | | : o.| | | | | | | | | | r.# k.l.| | | | | | | | | | | | 1 } ) ! ",
") ! x <.R.++@+@+#+#+$+%+| | | |  ++ &+*+: : : : : : : : : : : : =+o.1 1 1 1 1 1 1 1 |.-+;+>+k.l.| | | | %+$+#+#+@+@+++R.|.} ) ! ",
") ! ,+'+)+!+~+~+{+{+~+} n n n n .++ ]+^+_ _ _ _ _ _ _ _ _ _ _ _ _ /+} } } } } } } } } } ^+]+(+_+n n n n } ~+{+{+~+~+!+)+_.:.) ! ",
":+<+x <.` ;.~+~+{+{+~+~+| | | | [.e >+b.) ) ) ) ) ) ) ) ) ) ) ) ) ) ) ) ) ) ) ) ) ) ) ) b.>+e [.| | | | ~+~+{+{+~+~+;.` |.} ) ! ",
"[+}+,+'+Q.$.@+@+#+#+@+@+n n n n n (.|+1+0.0.0.0.0.0.0.0.0.0.0.0.0.0.0.0.0.0.0.0.0.0.0.0.1+|+(.n n n n n @+@+#+#+@+@+$.Q._.:.) ! ",
"                                                                                                                                "};
