/* XPM */
static char * door2_xpm[] = {
"64 64 472 2",
"  	c None",
". 	c #F0EFEF",
"+ 	c #6D6359",
"@ 	c #726960",
"# 	c #72675F",
"$ 	c #695450",
"% 	c #BC986D",
"& 	c #FAB172",
"* 	c #F9B071",
"= 	c #FAB071",
"- 	c #F8AC6D",
"; 	c #F17C38",
"> 	c #F4C184",
", 	c #ED7835",
"' 	c #E87638",
") 	c #BC4534",
"! 	c #BD4734",
"~ 	c #EE7C39",
"{ 	c #E46F35",
"] 	c #953730",
"^ 	c #343959",
"/ 	c #383959",
"( 	c #14253E",
"_ 	c #98392A",
": 	c #EF7C38",
"< 	c #D96134",
"[ 	c #451E2A",
"} 	c #51476D",
"| 	c #3E304F",
"1 	c #31233E",
"2 	c #5A4632",
"3 	c #F8A86A",
"4 	c #4F456A",
"5 	c #392946",
"6 	c #2F1F3A",
"7 	c #5B4935",
"8 	c #F9AD6E",
"9 	c #312342",
"0 	c #110834",
"a 	c #120834",
"b 	c #151436",
"c 	c #25203A",
"d 	c #3A2947",
"e 	c #3A2A47",
"f 	c #1A1037",
"g 	c #1A1B37",
"h 	c #342642",
"i 	c #382845",
"j 	c #907453",
"k 	c #EABE83",
"l 	c #E9BD82",
"m 	c #E0965E",
"n 	c #A63B31",
"o 	c #2D2038",
"p 	c #2E2138",
"q 	c #DDB37C",
"r 	c #D06735",
"s 	c #692327",
"t 	c #292028",
"u 	c #DEB584",
"v 	c #4F5174",
"w 	c #2D2D51",
"x 	c #1D203F",
"y 	c #502537",
"z 	c #862B24",
"A 	c #372844",
"B 	c #B59363",
"C 	c #74626B",
"D 	c #4B4C6C",
"E 	c #071732",
"F 	c #A43937",
"G 	c #221425",
"H 	c #2A2129",
"I 	c #DEB587",
"J 	c #43425F",
"K 	c #29263C",
"L 	c #29263D",
"M 	c #1F1C2F",
"N 	c #56293D",
"O 	c #842B25",
"P 	c #B49263",
"Q 	c #7C6975",
"R 	c #3A394E",
"S 	c #1B182D",
"T 	c #A43A39",
"U 	c #221525",
"V 	c #DCB37F",
"W 	c #696789",
"X 	c #494366",
"Y 	c #3B324F",
"Z 	c #50212F",
"` 	c #852B25",
" .	c #73605F",
"..	c #686587",
"+.	c #271F37",
"@.	c #A33833",
"#.	c #DBB27C",
"$.	c #737195",
"%.	c #514A70",
"&.	c #514A71",
"*.	c #423858",
"=.	c #4E1E29",
"-.	c #6F5C56",
";.	c #737095",
">.	c #2A213A",
",.	c #A23731",
"'.	c #DEB484",
").	c #52516F",
"!.	c #36324D",
"~.	c #2B253C",
"{.	c #542739",
"].	c #79666E",
"^.	c #4D4B65",
"/.	c #36314D",
"(.	c #1F1B30",
"_.	c #A33937",
":.	c #444360",
"<.	c #2A273E",
"[.	c #211D30",
"}.	c #56283D",
"|.	c #7B6873",
"1.	c #3C3B51",
"2.	c #DCB279",
"3.	c #34365C",
"4.	c #231E3B",
"5.	c #231F3B",
"6.	c #151430",
"7.	c #46171A",
"8.	c #852C25",
"9.	c #B59364",
"0.	c #624F3B",
"a.	c #3B395B",
"b.	c #000722",
"c.	c #A2362E",
"d.	c #362741",
"e.	c #A7885E",
"f.	c #D8854E",
"g.	c #D36D33",
"h.	c #D46E33",
"i.	c #A43A2E",
"j.	c #462133",
"k.	c #5A4741",
"l.	c #D9AE77",
"m.	c #D36B2F",
"n.	c #CB6432",
"o.	c #7A2724",
"p.	c #352540",
"q.	c #31233F",
"r.	c #141329",
"s.	c #15142A",
"t.	c #1F192E",
"u.	c #1B132D",
"v.	c #151529",
"w.	c #32253F",
"x.	c #461E2A",
"y.	c #4F456B",
"z.	c #431820",
"A.	c #302741",
"B.	c #1D1629",
"C.	c #1B1629",
"D.	c #1C1629",
"E.	c #191429",
"F.	c #1A1429",
"G.	c #1A1629",
"H.	c #181123",
"I.	c #5B4934",
"J.	c #43171E",
"K.	c #2D1E37",
"L.	c #1F1127",
"M.	c #922E2F",
"N.	c #65212B",
"O.	c #A93132",
"P.	c #CD943D",
"Q.	c #080227",
"R.	c #1F1227",
"S.	c #79262D",
"T.	c #77262D",
"U.	c #C68F3C",
"V.	c #B43634",
"W.	c #271327",
"X.	c #511B29",
"Y.	c #962A30",
"Z.	c #D0963E",
"`.	c #9B2B30",
" +	c #61202A",
".+	c #9F2D31",
"++	c #92282F",
"@+	c #571D2A",
"#+	c #B43934",
"$+	c #B83A35",
"%+	c #0E1027",
"&+	c #BF3C35",
"*+	c #B78439",
"=+	c #672E2B",
"-+	c #140D1E",
";+	c #441C26",
">+	c #443B5C",
",+	c #2F223C",
"'+	c #2B223C",
")+	c #2E223C",
"!+	c #29223C",
"~+	c #251C3C",
"{+	c #30233C",
"]+	c #141120",
"^+	c #30223C",
"/+	c #2D223C",
"(+	c #261C3C",
"_+	c #28223C",
":+	c #2A223C",
"<+	c #27223C",
"[+	c #281D3C",
"}+	c #271A32",
"|+	c #392947",
"1+	c #191425",
"2+	c #2F2140",
"3+	c #806849",
"4+	c #816949",
"5+	c #79482D",
"6+	c #302541",
"7+	c #2D1F3F",
"8+	c #B99668",
"9+	c #F49E61",
"0+	c #F59F60",
"a+	c #F69F60",
"b+	c #F69F61",
"c+	c #F08444",
"d+	c #AC582E",
"e+	c #2F2441",
"f+	c #876E4D",
"g+	c #F49C5E",
"h+	c #DB6936",
"i+	c #6D2E39",
"j+	c #362A3E",
"k+	c #433A47",
"l+	c #210B15",
"m+	c #26141B",
"n+	c #682323",
"o+	c #DB6937",
"p+	c #E16E38",
"q+	c #621F20",
"r+	c #886F4D",
"s+	c #6D2E3B",
"t+	c #463F62",
"u+	c #483C5F",
"v+	c #473C5E",
"w+	c #7C7793",
"x+	c #110023",
"y+	c #33233F",
"z+	c #281E38",
"A+	c #682223",
"B+	c #E26E38",
"C+	c #621E20",
"D+	c #332A40",
"E+	c #473B5D",
"F+	c #382844",
"G+	c #7B7691",
"H+	c #180029",
"I+	c #34243F",
"J+	c #1F111B",
"K+	c #22192D",
"L+	c #21192D",
"M+	c #31233D",
"N+	c #352641",
"O+	c #342641",
"P+	c #171222",
"Q+	c #1E172A",
"R+	c #23132B",
"S+	c #22132B",
"T+	c #23142B",
"U+	c #23142C",
"V+	c #211329",
"W+	c #160E20",
"X+	c #31243E",
"Y+	c #1C1125",
"Z+	c #1B1024",
"`+	c #1B1023",
" @	c #1C1024",
".@	c #21182C",
"+@	c #22132A",
"@@	c #24142C",
"#@	c #1D1126",
"$@	c #150D1F",
"%@	c #2B1F37",
"&@	c #201229",
"*@	c #180F22",
"=@	c #170F21",
"-@	c #110D1C",
";@	c #130D1F",
">@	c #080B1A",
",@	c #080A1A",
"'@	c #25142C",
")@	c #0B0D26",
"!@	c #0F0728",
"~@	c #0F0024",
"{@	c #0F0A29",
"]@	c #0F0E2B",
"^@	c #0C0B1A",
"/@	c #160E1F",
"(@	c #103F47",
"_@	c #108584",
":@	c #103F46",
"<@	c #108684",
"[@	c #10172C",
"}@	c #0F0C2A",
"|@	c #0D0B1A",
"1@	c #103640",
"2@	c #104047",
"3@	c #106567",
"4@	c #10585C",
"5@	c #10686A",
"6@	c #0F0327",
"7@	c #101129",
"8@	c #10152B",
"9@	c #102031",
"0@	c #101D2F",
"a@	c #102131",
"b@	c #0F0B2A",
"c@	c #382744",
"d@	c #76718E",
"e@	c #0F0E2C",
"f@	c #170E20",
"g@	c #392A47",
"h@	c #5F5774",
"i@	c #78757A",
"j@	c #382745",
"k@	c #150E20",
"l@	c #0B0B1A",
"m@	c #0A0B19",
"n@	c #332540",
"o@	c #1A1124",
"p@	c #180F21",
"q@	c #261B31",
"r@	c #392845",
"s@	c #67617A",
"t@	c #362543",
"u@	c #1A1023",
"v@	c #342541",
"w@	c #807C95",
"x@	c #170028",
"y@	c #20182C",
"z@	c #181022",
"A@	c #33253F",
"B@	c #180E21",
"C@	c #170E21",
"D@	c #251A30",
"E@	c #281D34",
"F@	c #281D33",
"G@	c #372744",
"H@	c #2E213A",
"I@	c #22182D",
"J@	c #382945",
"K@	c #1D1628",
"L@	c #201228",
"M@	c #3D0D1C",
"N@	c #230B19",
"O@	c #3D0C1C",
"P@	c #250B19",
"Q@	c #3C0C1C",
"R@	c #2F1126",
"S@	c #130D1E",
"T@	c #040D1D",
"U@	c #D61E3C",
"V@	c #81152C",
"W@	c #D51E3C",
"X@	c #86152D",
"Y@	c #D41E3C",
"Z@	c #8C1328",
"`@	c #0D0D1D",
" #	c #9F103C",
".#	c #5E0D27",
"+#	c #9E103C",
"@#	c #620D28",
"##	c #9D103C",
"$#	c #670C29",
"%#	c #211229",
"&#	c #1E1127",
"*#	c #1E1126",
"=#	c #1C1528",
"-#	c #21132A",
";#	c #080F20",
">#	c #140F21",
",#	c #130F21",
"'#	c #1D1228",
")#	c #150D1E",
"!#	c #2C2038",
"~#	c #201329",
"{#	c #140E1F",
"]#	c #362743",
"^#	c #110E1D",
"/#	c #2A1E36",
"(#	c #271D33",
"_#	c #241A2F",
":#	c #241B30",
"<#	c #0E0E1B",
"[#	c #231A2F",
"}#	c #352642",
"|#	c #817C96",
"1#	c #00001B",
"2#	c #4C425D",
"3#	c #392B45",
"4#	c #3A2A55",
"5#	c #2F1C3D",
"6#	c #7A7590",
"7#	c #191325",
"8#	c #191324",
"9#	c #33243F",
"0#	c #070915",
"a#	c #0D0B19",
"b#	c #100C1B",
"c#	c #0A0A17",
"d#	c #070916",
"e#	c #1F162A",
"f#	c #80463C",
"g#	c #443C61",
"h#	c #463A5C",
"i#	c #45395B",
"j#	c #7C7792",
"k#	c #120024",
"l#	c #342440",
"m#	c #160A29",
"n#	c #7C3E23",
"o#	c #42181E",
"p#	c #272238",
"q#	c #1A1426",
"r#	c #0E0C1A",
"s#	c #1C1025",
"t#	c #150E1F",
"u#	c #0F0C1B",
"v#	c #171323",
"w#	c #1B1527",
"x#	c #F49B5D",
"y#	c #EC8C4F",
"z#	c #8C745C",
"A#	c #322D43",
"B#	c #423F4E",
"C#	c #888888",
"D#	c #878787",
"E#	c #848484",
"F#	c #140A17",
"G#	c #1B151D",
"H#	c #896F4E",
"I#	c #161121",
"J#	c #F5C284",
"K#	c #DA6234",
"L#	c #461F2A",
"M#	c #50456B",
"N#	c #1D1025",
"O#	c #B05B2F",
"P#	c #EE7B38",
"Q#	c #F7AC6E",
"R#	c #FCBD7E",
"S#	c #B15B2F",
"T#	c #846948",
"U#	c #753421",
"V#	c #24131D",
"W#	c #29253B",
"X#	c #1D1728",
"Y#	c #0E0E19",
"Z#	c #0B0D18",
"`#	c #100E1B",
" $	c #120F1C",
".$	c #0D0E19",
"+$	c #1A1526",
"@$	c #1E1729",
"#$	c #1E1829",
"$$	c #000C1D",
"%$	c #804123",
"&$	c #804021",
"*$	c #803F20",
"=$	c #191323",
"-$	c #5B4A35",
";$	c #F9AD6F",
". + @ @ @ @ @ @ @ @ @ @ @ @ @ @ @ @ @ @ @ @ @ @ @ @ @ @ @ @ @ @ @ @ @ @ @ @ @ @ @ @ @ @ @ @ @ @ @ @ @ @ @ @ @ @ @ @ @ @ @ @ # $ ",
"% & * = = = = = = = = = = = = = = = = = = = = = = = = = = = = = = = = = = = = = = = = = = = = = = = = = = = = = = = = = = = - ; ",
"> , ' ) ! ! ! ! ! ! ! ! ! ! ! ! ! ! ! ! ! ! ! ! ! ! ! ! ! ! ! ! ! ! ! ! ! ! ! ! ! ! ! ! ! ! ! ! ! ! ! ! ! ! ! ! ! ! ! ! ! ) ' ~ ",
"> { ] ^ / / / / / / / / / / / / / / / / / / / / / / / / / / / / / / / / / / / / / / / / / / / / / / / / / / / / / / / / / ( _ : ",
"> < [ } | | | | | | | | | | | | | | | | | | | | | | | | | | | | | | | | | | | | | | | | | | | | | | | | | | | | | | | | | 1 2 3 ",
"> < [ 4 5 5 5 5 5 5 5 5 5 5 5 5 5 5 5 5 5 5 5 5 5 5 5 5 5 5 5 5 5 5 5 5 5 5 5 5 5 5 5 5 5 5 5 5 5 5 5 5 5 5 5 5 5 5 5 5 5 6 7 8 ",
"> < [ 4 5 5 5 5 5 5 5 5 5 5 5 5 5 5 5 5 5 5 5 5 5 5 5 5 5 5 5 5 5 5 5 5 5 5 5 5 5 5 5 5 5 5 5 5 5 5 5 5 5 5 5 5 5 5 5 5 5 6 7 8 ",
"> < [ 4 5 5 5 5 5 5 5 5 5 9 0 a a a a a a a a a a a b c d 5 5 5 5 5 5 5 e f a a a a a a a a a a a a g h 5 5 5 5 5 5 5 5 5 6 7 8 ",
"> < [ 4 5 5 5 5 5 5 5 5 i j k l l l l l l l l l l l m n o 5 5 5 5 5 5 5 p q l l l l l l l l l l l l r s i 5 5 5 5 5 5 5 5 6 7 8 ",
"> < [ 4 5 5 5 5 5 5 5 5 t u v w w w w w w w w w w w x y z A 5 5 5 5 5 A B C D w w w w w w w w w w w E F G 5 5 5 5 5 5 5 5 6 7 8 ",
"> < [ 4 5 5 5 5 5 5 5 5 H I J K L L L L L L L L L L M N O A 5 5 5 5 5 A P Q R K L L L L L L L L L L S T U 5 5 5 5 5 5 5 5 6 7 8 ",
"> < [ 4 5 5 5 5 5 5 5 5 H V W X X X X X X X X X X X Y Z ` A 5 5 5 5 5 A P  ...X X X X X X X X X X X +.@.U 5 5 5 5 5 5 5 5 6 7 8 ",
"> < [ 4 5 5 5 5 5 5 5 5 H #.$.%.&.&.&.&.&.&.&.&.&.&.*.=.` A 5 5 5 5 5 A P -.;.%.&.&.&.&.&.&.&.&.&.&.>.,.U 5 5 5 5 5 5 5 5 6 7 8 ",
"> < [ 4 5 5 5 5 5 5 5 5 H '.).!.!.!.!.!.!.!.!.!.!.!.~.{.` A 5 5 5 5 5 A P ].^./.!.!.!.!.!.!.!.!.!.!.(._.U 5 5 5 5 5 5 5 5 6 7 8 ",
"> < [ 4 5 5 5 5 5 5 5 5 H I :.<.<.<.<.<.<.<.<.<.<.<.[.}.O A 5 5 5 5 5 A P |.1.<.<.<.<.<.<.<.<.<.<.<.S T U 5 5 5 5 5 5 5 5 6 7 8 ",
"> < [ 4 5 5 5 5 5 5 5 5 t 2.3.4.5.5.5.5.5.5.5.5.5.5.6.7.8.A 5 5 5 5 5 A 9.0.a.4.5.5.5.5.5.5.5.5.5.5.b.c.G 5 5 5 5 5 5 5 5 6 7 8 ",
"> < [ 4 5 5 5 5 5 5 5 5 d.e.f.g.g.g.g.g.g.g.g.g.g.g.h.i.j.5 5 5 5 5 5 5 k.l.m.g.g.g.g.g.g.g.g.g.g.g.n.o.p.5 5 5 5 5 5 5 5 6 7 8 ",
"> < [ 4 5 5 5 5 5 5 5 5 5 q.r.s.s.s.s.s.s.s.s.s.s.s.s.t.d 5 5 5 5 5 5 5 d u.s.s.s.s.s.s.s.s.s.s.s.s.v.w.5 5 5 5 5 5 5 5 5 6 7 8 ",
"> < [ 4 5 5 5 5 5 5 5 5 5 5 5 5 5 5 5 5 5 5 5 5 5 5 5 5 5 5 5 5 5 5 5 5 5 5 5 5 5 5 5 5 5 5 5 5 5 5 5 5 5 5 5 5 5 5 5 5 5 6 7 8 ",
"> < [ 4 5 5 5 5 5 5 5 5 5 5 5 5 5 5 5 5 5 5 5 5 5 5 5 5 5 5 5 5 5 5 5 5 5 5 5 5 5 5 5 5 5 5 5 5 5 5 5 5 5 5 5 5 5 5 5 5 5 6 7 8 ",
"> < [ 4 5 5 5 5 5 5 5 5 5 5 5 5 5 5 5 5 5 5 5 5 5 5 5 5 5 5 5 5 5 5 5 5 5 5 5 5 5 5 5 5 5 5 5 5 5 5 5 5 5 5 5 5 5 5 5 5 5 6 7 8 ",
"> < x.y.5 5 5 5 5 5 5 5 5 5 5 5 5 5 5 5 5 5 5 5 5 5 5 5 5 5 5 5 5 5 5 5 5 5 5 5 5 5 5 5 5 5 5 5 5 5 5 5 5 5 5 5 5 5 5 5 5 6 7 8 ",
"> < z.A.B.C.D.C.E.B.B.B.B.B.B.D.D.F.G.B.B.B.B.B.B.B.B.B.B.B.C.E.C.D.C.E.C.B.B.B.B.B.B.B.B.B.G.G.D.D.B.B.B.B.B.B.G.F.D.C.B.H.I.8 ",
"> < J.K.L.M.N.O.P.Q.R.L.L.L.L.S.T.U.V.W.L.L.L.L.L.L.L.L.L.X.Y.Z.`. +.+Z.++@+L.L.L.L.L.L.L.W.#+$+T.S.L.L.L.L.L.%+&+*+=+M.L.-+I.8 ",
"> < ;+>+,+'+)+!+~+{+]+{+^+^+^+/+/+(+_+{+{+{+{+{+{+{+{+{+{+,+'+~+'+)+:+~+'+,+{+{+{+{+{+{+{+{+_+_+/+/+^+^+^+^+^+^+<+[+)+'+^+}+I.8 ",
"> < [ 4 5 5 5 5 5 |+1+5 5 5 5 5 5 5 2+3+4+4+4+4+4+4+4+4+4+4+4+4+4+4+4+4+4+4+4+4+4+4+4+4+4+5+6+5 5 5 5 5 5 5 5 5 5 5 5 5 5 6 7 8 ",
"> < [ 4 5 5 5 5 5 |+1+5 5 5 5 5 5 7+8+9+0+a+a+a+a+a+a+a+a+a+a+a+a+a+a+a+a+a+a+a+a+a+a+a+b+c+d+e+5 5 5 5 5 5 5 5 5 5 5 5 5 6 7 8 ",
"> < [ 4 5 5 5 5 5 |+1+5 5 5 5 5 5 f+g+h+i+j+j+j+j+j+j+j+j+k+                l+m+m+m+m+m+n+o+p+q+5 5 5 5 5 5 5 5 5 5 5 5 5 6 7 8 ",
"> < [ 4 5 5 5 5 5 |+1+5 5 5 5 5 5 r+g+s+t+u+u+u+u+u+u+u+v+w+                x+y+y+y+y+y+z+A+B+C+5 5 5 5 5 5 5 5 5 5 5 5 5 6 7 8 ",
"> < [ 4 5 5 5 5 5 |+1+5 5 5 5 5 5 r+g+D+E+5 5 5 5 5 5 5 F+G+                H+5 5 5 5 5 I+J+B+C+5 5 5 5 5 5 5 5 5 5 5 5 5 6 7 8 ",
"> < [ 4 5 5 5 5 5 |+1+5 5 5 5 5 5 r+g+D+E+5 5 5 5 5 5 5 F+G+                H+5 5 5 5 5 I+J+B+C+5 5 K+L+L+L+L+L+L+L+L+M+5 6 7 8 ",
"> < [ 4 5 5 N+O+O+N+P+O+O+O+i 5 5 r+g+D+E+5 5 5 5 5 5 5 F+G+                H+5 5 5 5 5 I+J+B+C+5 Q+R+S+T+T+T+T+T+U+V+W+F+6 7 8 ",
"> < [ 4 5 X+Y+Z+`+`+ @`+`+Z+.@5 5 r+g+D+E+5 5 5 5 5 5 5 F+G+                H+5 5 5 5 5 I+J+B+C+5 B.+@+@@@@@@@@@@@@@#@$@A 6 7 8 ",
"> < [ 4 5 %@&@*@@@@@@@@@@@=@-@5 5 r+g+D+E+5 5 5 5 5 5 5 F+G+                H+5 5 5 5 5 I+J+B+C+5 B.T+;@>@>@>@>@>@,@V+$@A 6 7 8 ",
"> < [ 4 5 %@V+@@@@@@@@@@@@'@-@5 5 r+g+D+E+5 5 5 5 5 5 5 F+G+                H+5 5 5 5 5 I+J+B+C+5 B.R.)@!@~@!@~@{@]@^@/@A 6 7 8 ",
"> < [ 4 5 %@V+@@@@@@@@@@@@@@-@5 5 r+g+D+E+5 5 5 5 5 5 5 F+G+                H+5 5 5 5 5 I+J+B+C+5 B.R.)@(@_@:@<@[@}@|@/@A 6 7 8 ",
"> < [ 4 5 %@V+@@@@@@@@@@@@@@-@5 5 r+g+D+E+5 5 5 5 5 5 5 F+G+                H+5 5 5 5 5 I+J+B+C+5 B.R.)@1@2@3@4@5@6@|@/@A 6 7 8 ",
"> < [ 4 5 %@V+@@@@@@@@@@@@@@-@5 5 r+g+D+E+5 5 5 5 5 5 5 F+G+                H+5 5 5 5 5 I+J+B+C+5 B.R.)@7@8@9@0@a@b@|@/@A 6 7 8 ",
"> < [ 4 5 %@V+@@@@@@@@@@@@'@-@5 5 r+g+D+E+5 5 5 5 5 5 5 c@d@                H+5 5 5 5 5 I+J+B+C+5 B.R.)@}@}@}@}@}@e@^@/@A 6 7 8 ",
"> < [ 4 5 %@&@*@@@@@@@@@@@f@-@5 5 r+g+D+E+5 5 5 5 5 5 g@h@                i@j@5 5 5 5 5 I+J+B+C+5 B.@@k@l@l@l@l@l@m@+@$@A 6 7 8 ",
"> < [ 4 5 n@o@f@f@f@p@f@f@f@q@5 5 r+g+D+E+5 5 5 5 5 r@s@                  t@5 5 5 5 5 5 I+J+B+C+5 B.V+V+*@*@*@*@*@&@u@$@A 6 7 8 ",
"> < [ 4 5 5 N+v@v@O+P+O+v@v@i 5 5 r+g+D+E+5 5 5 5 5 F+w@                x@5 5 5 5 5 5 5 I+J+B+C+5 y@+@+@V+V+V+V+V++@V+z@i 6 7 8 ",
"> < [ 4 5 A@o@B@C@C@*@C@C@C@D@5 5 r+g+D+E+5 5 5 5 5 F+w@                x@5 5 5 5 5 5 5 I+J+B+C+5 |+E@E@E@E@E@E@E@E@F@A@5 6 7 8 ",
"> < [ 4 5 %@&@*@@@@@@@@@@@f@-@5 5 r+g+D+E+5 5 5 5 5 F+w@                x@5 5 5 5 5 5 5 I+J+B+C+5 5 G@G@G@G@G@G@G@G@G@i 5 6 7 8 ",
"> < [ 4 5 %@V+@@@@@@@@@@@@'@-@5 5 r+g+D+E+5 5 5 5 5 F+w@                x@5 5 5 5 5 5 5 I+J+B+C+5 H@f@f@C@C@C@C@C@f@f@I@J@6 7 8 ",
"> < [ 4 5 %@V+@@@@@@@@@@@@@@-@5 5 r+g+D+E+5 5 5 5 5 F+w@                x@5 5 5 5 5 5 5 I+J+B+C+5 K@L@#@M@N@O@P@Q@R@S@/@A 6 7 8 ",
"> < [ 4 5 %@V+@@@@@@@@@@@@@@-@5 5 r+g+D+E+5 5 5 5 5 F+w@                x@5 5 5 5 5 5 5 I+J+B+C+5 B.@@T@U@V@W@X@Y@Z@@@$@A 6 7 8 ",
"> < [ 4 5 %@V+@@@@@@@@@@@@@@-@5 5 r+g+D+E+5 5 5 5 5 F+w@                x@5 5 5 5 5 5 5 I+J+B+C+5 B.@@`@ #.#+#@###$#S+$@A 6 7 8 ",
"> < [ 4 5 %@%#&#@@@@@@@@@@*#-@5 5 r+g+D+E+5 5 5 5 5 F+w@                x@5 5 5 5 5 5 5 I+J+B+C+5 =#-#V+;#>#;#,#;#'#u@)#A 6 7 8 ",
"> < [ 4 5 !#~#-#T+T+T+T+T+-#{#5 5 r+g+D+E+5 5 5 5 5 F+w@                x@5 5 5 5 5 5 5 I+J+B+C+5 ]#^#^#^#^#^#^#^#^#-@/#5 6 7 8 ",
"> < [ 4 5 d (#_#_#:#<#:#_#[#}#5 5 r+g+D+E+5 5 5 5 5 F+|#                1#5 5 5 5 5 5 5 I+J+B+C+5 5 d d d d d d d d d 5 5 6 7 8 ",
"> < [ 4 5 5 5 5 5 d 1+5 5 5 5 5 5 r+g+D+E+5 5 5 5 5 5 2#                  3#5 5 5 5 5 5 I+J+B+C+5 5 5 5 5 5 5 5 5 5 5 5 5 6 7 8 ",
"> < [ 4 5 5 5 5 5 |+1+5 5 5 5 5 5 r+g+D+E+5 5 5 5 5 5 5 4#                  5#5 5 5 5 5 I+J+B+C+5 5 5 5 5 5 5 5 5 5 5 5 5 6 7 8 ",
"> < [ 4 5 5 5 5 5 |+1+5 5 5 5 5 5 r+g+D+E+5 5 5 5 5 5 5 F+6#                H+5 5 5 5 5 I+J+B+C+5 5 5 5 5 5 5 5 5 5 5 5 5 6 7 8 ",
"> < [ 4 5 5 5 5 5 |+1+e |+|+|+|+|+r+g+D+E+5 5 5 5 5 5 5 F+G+                H+5 5 5 5 5 I+J+B+C+5 5 5 5 5 5 5 5 5 5 5 5 5 6 7 8 ",
"> < [ 4 5 5 5 5 5 |+1+7#8#8#8#8#8#r+g+D+E+5 5 5 5 5 5 5 F+G+                H+5 5 5 5 5 I+J+B+C+5 5 5 5 5 5 5 5 5 5 5 5 5 6 7 8 ",
"> < [ 4 5 5 5 5 5 5 5 5 5 5 5 5 5 r+g+D+E+5 5 5 5 5 5 5 F+G+                H+5 5 5 5 5 I+J+B+C+5 5 5 5 5 5 5 5 5 5 5 5 5 6 7 8 ",
"> < [ 4 5 5 5 5 5 5 5 5 5 5 5 5 5 r+g+D+E+5 5 5 5 5 5 5 F+G+                H+5 5 5 5 5 I+J+B+C+5 5 5 5 5 5 5 5 5 5 5 5 5 6 7 8 ",
"> < [ 4 5 5 5 5 5 5 5 5 5 5 5 5 5 r+g+D+E+5 5 5 5 5 5 5 F+G+                H+5 5 5 5 5 I+J+B+C+5 5 5 5 5 5 5 5 5 5 5 5 5 6 7 8 ",
"> < [ 4 5 5 5 5 5 5 5 5 5 5 5 5 5 r+g+D+E+5 5 5 5 5 5 5 F+G+                H+5 5 5 5 5 9#J+B+C+5 5 5 5 5 5 5 5 5 5 5 5 5 6 7 8 ",
"> < x.y.5 q@0#a#b#c#d#e#F+5 5 5 5 r+g+f#g#h#h#h#h#h#h#h#i#j#                k#l#l#l#l#I+m#n#B+C+5 5 5 5 F+e#d#c#b#a#0#q@5 6 7 8 ",
"> < o#p#q#W+r#s#&@t#u##@v#w#w#w#w#r+x#y#z#A#A#A#A#A#A#A#A#B#C#D#D#  D#D#D#E#F#G#G#G#G#G#H#y#p+C+w#w#w#w#v##@u#t#&@s#r#W+q#I#I.8 ",
"J#K#L#M#i /@r#s#&@t#b#N#A@5 5 5 5 e+O#P#Q#R#R#R#R#R#R#R#R#R#R#R#R#R#R#R#R#R#R#R#R#R#R#R#Q#P#S#e+5 5 5 5 A@N#b#t#&@s#r#/@i 6 7 8 ",
"T#U#V#W#X#Y#Z#`# $.$Z#`#+$@$@$@$@$#$$$%$&$*$*$*$*$*$*$*$*$*$*$*$*$*$*$*$*$*$*$*$*$*$*$*$&$%$$$#$@$@$@$@$+$`#Z#.$ $`#Z#Y#X#=$-$;$"};
