/* XPM */
static char * door3_xpm[] = {
"64 64 403 2",
"  	c None",
". 	c #BB4533",
"+ 	c #534330",
"@ 	c #52402E",
"# 	c #4D2519",
"$ 	c #FAB072",
"% 	c #F9B071",
"& 	c #FAB071",
"* 	c #F8AC6D",
"= 	c #F17C38",
"- 	c #903828",
"; 	c #ED7835",
"> 	c #E87638",
", 	c #BC4534",
"' 	c #BD4734",
") 	c #EE7C39",
"! 	c #BA4533",
"~ 	c #E46F35",
"{ 	c #953730",
"] 	c #343959",
"^ 	c #383959",
"/ 	c #14253E",
"( 	c #98392A",
"_ 	c #EF7C38",
": 	c #D96134",
"< 	c #451E2A",
"[ 	c #51476D",
"} 	c #3E304F",
"| 	c #31233E",
"1 	c #5A4632",
"2 	c #F8A86A",
"3 	c #4F456A",
"4 	c #392946",
"5 	c #2F1F3A",
"6 	c #5B4935",
"7 	c #F9AD6E",
"8 	c #312342",
"9 	c #110834",
"0 	c #120834",
"a 	c #151436",
"b 	c #25203A",
"c 	c #3A2947",
"d 	c #3A2A47",
"e 	c #1A1037",
"f 	c #1A1B37",
"g 	c #342642",
"h 	c #382845",
"i 	c #907453",
"j 	c #EABE83",
"k 	c #E9BD82",
"l 	c #E0965E",
"m 	c #A63B31",
"n 	c #2D2038",
"o 	c #2E2138",
"p 	c #DDB37C",
"q 	c #D06735",
"r 	c #692327",
"s 	c #292028",
"t 	c #DEB584",
"u 	c #4F5174",
"v 	c #2D2D51",
"w 	c #1D203F",
"x 	c #502537",
"y 	c #862B24",
"z 	c #372844",
"A 	c #B59363",
"B 	c #74626B",
"C 	c #4B4C6C",
"D 	c #071732",
"E 	c #A43937",
"F 	c #221425",
"G 	c #2A2129",
"H 	c #DEB587",
"I 	c #43425F",
"J 	c #29263C",
"K 	c #29263D",
"L 	c #1F1C2F",
"M 	c #56293D",
"N 	c #842B25",
"O 	c #B49263",
"P 	c #7C6975",
"Q 	c #3A394E",
"R 	c #1B182D",
"S 	c #A43A39",
"T 	c #221525",
"U 	c #DCB37F",
"V 	c #696789",
"W 	c #494366",
"X 	c #3B324F",
"Y 	c #50212F",
"Z 	c #852B25",
"` 	c #73605F",
" .	c #686587",
"..	c #271F37",
"+.	c #A33833",
"@.	c #DBB27C",
"#.	c #737195",
"$.	c #514A70",
"%.	c #514A71",
"&.	c #423858",
"*.	c #4E1E29",
"=.	c #6F5C56",
"-.	c #737095",
";.	c #2A213A",
">.	c #A23731",
",.	c #DEB484",
"'.	c #52516F",
").	c #36324D",
"!.	c #2B253C",
"~.	c #542739",
"{.	c #79666E",
"].	c #4D4B65",
"^.	c #36314D",
"/.	c #1F1B30",
"(.	c #A33937",
"_.	c #444360",
":.	c #2A273E",
"<.	c #211D30",
"[.	c #56283D",
"}.	c #7B6873",
"|.	c #3C3B51",
"1.	c #DCB279",
"2.	c #34365C",
"3.	c #231E3B",
"4.	c #231F3B",
"5.	c #151430",
"6.	c #46171A",
"7.	c #852C25",
"8.	c #B59364",
"9.	c #624F3B",
"0.	c #3B395B",
"a.	c #000722",
"b.	c #A2362E",
"c.	c #362741",
"d.	c #A7885E",
"e.	c #D8854E",
"f.	c #D36D33",
"g.	c #D46E33",
"h.	c #A43A2E",
"i.	c #462133",
"j.	c #5A4741",
"k.	c #D9AE77",
"l.	c #D36B2F",
"m.	c #CB6432",
"n.	c #7A2724",
"o.	c #352540",
"p.	c #31233F",
"q.	c #141329",
"r.	c #15142A",
"s.	c #1F192E",
"t.	c #1B132D",
"u.	c #151529",
"v.	c #32253F",
"w.	c #461E2A",
"x.	c #4F456B",
"y.	c #431820",
"z.	c #302741",
"A.	c #1D1629",
"B.	c #1B1629",
"C.	c #1C1629",
"D.	c #1A1429",
"E.	c #1A1629",
"F.	c #191429",
"G.	c #1B1529",
"H.	c #181123",
"I.	c #5B4934",
"J.	c #43171E",
"K.	c #2D1E37",
"L.	c #1F1127",
"M.	c #922E2F",
"N.	c #672E2B",
"O.	c #B78439",
"P.	c #BF3C35",
"Q.	c #0E1027",
"R.	c #1F1227",
"S.	c #79262D",
"T.	c #77262D",
"U.	c #C68F3C",
"V.	c #B43634",
"W.	c #271327",
"X.	c #511B29",
"Y.	c #962A30",
"Z.	c #D0963E",
"`.	c #9B2B30",
" +	c #64362B",
".+	c #AC7C37",
"++	c #C13D36",
"@+	c #9E7235",
"#+	c #5D402B",
"$+	c #281927",
"%+	c #C28C3B",
"&+	c #B83834",
"*+	c #080227",
"=+	c #CD943D",
"-+	c #A93132",
";+	c #65212B",
">+	c #140D1E",
",+	c #441C26",
"'+	c #443B5C",
")+	c #2F223C",
"!+	c #2B223C",
"~+	c #2E223C",
"{+	c #281D3C",
"]+	c #27223C",
"^+	c #30233C",
"/+	c #141120",
"(+	c #30223C",
"_+	c #2D223C",
":+	c #261C3C",
"<+	c #28223C",
"[+	c #251C3C",
"}+	c #291E3C",
"|+	c #2B1F3C",
"1+	c #271D3C",
"2+	c #29223C",
"3+	c #271A32",
"4+	c #392947",
"5+	c #191425",
"6+	c #2F2140",
"7+	c #806849",
"8+	c #816949",
"9+	c #79482D",
"0+	c #302541",
"a+	c #2D1F3F",
"b+	c #B99668",
"c+	c #F49E61",
"d+	c #F59F60",
"e+	c #F69F60",
"f+	c #F69F61",
"g+	c #F08444",
"h+	c #AC582E",
"i+	c #2F2441",
"j+	c #876E4D",
"k+	c #F49C5E",
"l+	c #DA6937",
"m+	c #6F2522",
"n+	c #261415",
"o+	c #E16E38",
"p+	c #621F20",
"q+	c #886F4D",
"r+	c #6F2422",
"s+	c #E26E38",
"t+	c #621E20",
"u+	c #1E1015",
"v+	c #22192D",
"w+	c #21192D",
"x+	c #31233D",
"y+	c #352641",
"z+	c #342641",
"A+	c #171222",
"B+	c #1E172A",
"C+	c #23132B",
"D+	c #22132B",
"E+	c #23142B",
"F+	c #23142C",
"G+	c #211329",
"H+	c #160E20",
"I+	c #382844",
"J+	c #31243E",
"K+	c #1C1125",
"L+	c #1B1024",
"M+	c #1B1023",
"N+	c #1C1024",
"O+	c #21182C",
"P+	c #22132A",
"Q+	c #24142C",
"R+	c #1D1126",
"S+	c #150D1F",
"T+	c #2B1F37",
"U+	c #201229",
"V+	c #180F22",
"W+	c #170F21",
"X+	c #110D1C",
"Y+	c #130D1F",
"Z+	c #080B1A",
"`+	c #080A1A",
" @	c #25142C",
".@	c #0B0D26",
"+@	c #0F0728",
"@@	c #0F0024",
"#@	c #0F0A29",
"$@	c #0F0E2B",
"%@	c #0C0B1A",
"&@	c #160E1F",
"*@	c #103F47",
"=@	c #108584",
"-@	c #103F46",
";@	c #108684",
">@	c #10172C",
",@	c #0F0C2A",
"'@	c #0D0B1A",
")@	c #103640",
"!@	c #104047",
"~@	c #106567",
"{@	c #10585C",
"]@	c #10686A",
"^@	c #0F0327",
"/@	c #101129",
"(@	c #10152B",
"_@	c #102031",
":@	c #101D2F",
"<@	c #102131",
"[@	c #0F0B2A",
"}@	c #0F0E2C",
"|@	c #170E20",
"1@	c #150E20",
"2@	c #0B0B1A",
"3@	c #0A0B19",
"4@	c #332540",
"5@	c #1A1124",
"6@	c #180F21",
"7@	c #261B31",
"8@	c #1A1023",
"9@	c #342541",
"0@	c #20182C",
"a@	c #181022",
"b@	c #33253F",
"c@	c #180E21",
"d@	c #170E21",
"e@	c #251A30",
"f@	c #281D34",
"g@	c #281D33",
"h@	c #372744",
"i@	c #2E213A",
"j@	c #22182D",
"k@	c #382945",
"l@	c #1D1628",
"m@	c #201228",
"n@	c #3D0D1C",
"o@	c #230B19",
"p@	c #3D0C1C",
"q@	c #250B19",
"r@	c #3C0C1C",
"s@	c #2F1126",
"t@	c #130D1E",
"u@	c #040D1D",
"v@	c #D61E3C",
"w@	c #81152C",
"x@	c #D51E3C",
"y@	c #86152D",
"z@	c #D41E3C",
"A@	c #8C1328",
"B@	c #0D0D1D",
"C@	c #9F103C",
"D@	c #5E0D27",
"E@	c #9E103C",
"F@	c #620D28",
"G@	c #9D103C",
"H@	c #670C29",
"I@	c #211229",
"J@	c #1E1127",
"K@	c #1E1126",
"L@	c #1C1528",
"M@	c #21132A",
"N@	c #080F20",
"O@	c #140F21",
"P@	c #130F21",
"Q@	c #1D1228",
"R@	c #150D1E",
"S@	c #2C2038",
"T@	c #201329",
"U@	c #140E1F",
"V@	c #362743",
"W@	c #110E1D",
"X@	c #2A1E36",
"Y@	c #271D33",
"Z@	c #241A2F",
"`@	c #241B30",
" #	c #0E0E1B",
".#	c #231A2F",
"+#	c #352642",
"@#	c #191325",
"##	c #191324",
"$#	c #070915",
"%#	c #0D0B19",
"&#	c #100C1B",
"*#	c #0A0A17",
"=#	c #070916",
"-#	c #1F162A",
";#	c #854322",
">#	c #42181E",
",#	c #272238",
"'#	c #1A1426",
")#	c #0E0C1A",
"!#	c #1C1025",
"~#	c #150E1F",
"{#	c #0F0C1B",
"]#	c #171323",
"^#	c #1B1527",
"/#	c #F49B5D",
"(#	c #EC8C4F",
"_#	c #937853",
":#	c #181518",
"<#	c #161121",
"[#	c #DA6234",
"}#	c #461F2A",
"|#	c #50456B",
"1#	c #1D1025",
"2#	c #B05B2F",
"3#	c #EE7B38",
"4#	c #F7AC6E",
"5#	c #FCBD7E",
"6#	c #B15B2F",
"                                                                                                                              . ",
"+ + + + + + + + + + + + + + + + + + + + + + + + + + + + + + + + + + + + + + + + + + + + + + + + + + + + + + + + + + + + + @ #   ",
"$ % & & & & & & & & & & & & & & & & & & & & & & & & & & & & & & & & & & & & & & & & & & & & & & & & & & & & & & & & & & & * = - ",
"; > , ' ' ' ' ' ' ' ' ' ' ' ' ' ' ' ' ' ' ' ' ' ' ' ' ' ' ' ' ' ' ' ' ' ' ' ' ' ' ' ' ' ' ' ' ' ' ' ' ' ' ' ' ' ' ' ' ' , > ) ! ",
"~ { ] ^ ^ ^ ^ ^ ^ ^ ^ ^ ^ ^ ^ ^ ^ ^ ^ ^ ^ ^ ^ ^ ^ ^ ^ ^ ^ ^ ^ ^ ^ ^ ^ ^ ^ ^ ^ ^ ^ ^ ^ ^ ^ ^ ^ ^ ^ ^ ^ ^ ^ ^ ^ ^ ^ ^ ^ ^ / ( _ ! ",
": < [ } } } } } } } } } } } } } } } } } } } } } } } } } } } } } } } } } } } } } } } } } } } } } } } } } } } } } } } } } | 1 2 ! ",
": < 3 4 4 4 4 4 4 4 4 4 4 4 4 4 4 4 4 4 4 4 4 4 4 4 4 4 4 4 4 4 4 4 4 4 4 4 4 4 4 4 4 4 4 4 4 4 4 4 4 4 4 4 4 4 4 4 4 4 5 6 7 ! ",
": < 3 4 4 4 4 4 4 4 4 4 4 4 4 4 4 4 4 4 4 4 4 4 4 4 4 4 4 4 4 4 4 4 4 4 4 4 4 4 4 4 4 4 4 4 4 4 4 4 4 4 4 4 4 4 4 4 4 4 5 6 7 ! ",
": < 3 4 4 4 4 4 4 4 4 4 8 9 0 0 0 0 0 0 0 0 0 0 0 a b c 4 4 4 4 4 4 4 d e 0 0 0 0 0 0 0 0 0 0 0 0 f g 4 4 4 4 4 4 4 4 4 5 6 7 ! ",
": < 3 4 4 4 4 4 4 4 4 h i j k k k k k k k k k k k l m n 4 4 4 4 4 4 4 o p k k k k k k k k k k k k q r h 4 4 4 4 4 4 4 4 5 6 7 ! ",
": < 3 4 4 4 4 4 4 4 4 s t u v v v v v v v v v v v w x y z 4 4 4 4 4 z A B C v v v v v v v v v v v D E F 4 4 4 4 4 4 4 4 5 6 7 ! ",
": < 3 4 4 4 4 4 4 4 4 G H I J K K K K K K K K K K L M N z 4 4 4 4 4 z O P Q J K K K K K K K K K K R S T 4 4 4 4 4 4 4 4 5 6 7 ! ",
": < 3 4 4 4 4 4 4 4 4 G U V W W W W W W W W W W W X Y Z z 4 4 4 4 4 z O `  .W W W W W W W W W W W ..+.T 4 4 4 4 4 4 4 4 5 6 7 ! ",
": < 3 4 4 4 4 4 4 4 4 G @.#.$.%.%.%.%.%.%.%.%.%.%.&.*.Z z 4 4 4 4 4 z O =.-.$.%.%.%.%.%.%.%.%.%.%.;.>.T 4 4 4 4 4 4 4 4 5 6 7 ! ",
": < 3 4 4 4 4 4 4 4 4 G ,.'.).).).).).).).).).).).!.~.Z z 4 4 4 4 4 z O {.].^.).).).).).).).).).)./.(.T 4 4 4 4 4 4 4 4 5 6 7 ! ",
": < 3 4 4 4 4 4 4 4 4 G H _.:.:.:.:.:.:.:.:.:.:.:.<.[.N z 4 4 4 4 4 z O }.|.:.:.:.:.:.:.:.:.:.:.:.R S T 4 4 4 4 4 4 4 4 5 6 7 ! ",
": < 3 4 4 4 4 4 4 4 4 s 1.2.3.4.4.4.4.4.4.4.4.4.4.5.6.7.z 4 4 4 4 4 z 8.9.0.3.4.4.4.4.4.4.4.4.4.4.a.b.F 4 4 4 4 4 4 4 4 5 6 7 ! ",
": < 3 4 4 4 4 4 4 4 4 c.d.e.f.f.f.f.f.f.f.f.f.f.f.g.h.i.4 4 4 4 4 4 4 j.k.l.f.f.f.f.f.f.f.f.f.f.f.m.n.o.4 4 4 4 4 4 4 4 5 6 7 ! ",
": < 3 4 4 4 4 4 4 4 4 4 p.q.r.r.r.r.r.r.r.r.r.r.r.r.s.c 4 4 4 4 4 4 4 c t.r.r.r.r.r.r.r.r.r.r.r.r.u.v.4 4 4 4 4 4 4 4 4 5 6 7 ! ",
": < 3 4 4 4 4 4 4 4 4 4 4 4 4 4 4 4 4 4 4 4 4 4 4 4 4 4 4 4 4 4 4 4 4 4 4 4 4 4 4 4 4 4 4 4 4 4 4 4 4 4 4 4 4 4 4 4 4 4 5 6 7 ! ",
": < 3 4 4 4 4 4 4 4 4 4 4 4 4 4 4 4 4 4 4 4 4 4 4 4 4 4 4 4 4 4 4 4 4 4 4 4 4 4 4 4 4 4 4 4 4 4 4 4 4 4 4 4 4 4 4 4 4 4 5 6 7 ! ",
": < 3 4 4 4 4 4 4 4 4 4 4 4 4 4 4 4 4 4 4 4 4 4 4 4 4 4 4 4 4 4 4 4 4 4 4 4 4 4 4 4 4 4 4 4 4 4 4 4 4 4 4 4 4 4 4 4 4 4 5 6 7 ! ",
": w.x.4 4 4 4 4 4 4 4 4 4 4 4 4 4 4 4 4 4 4 4 4 4 4 4 4 4 4 4 4 4 4 4 4 4 4 4 4 4 4 4 4 4 4 4 4 4 4 4 4 4 4 4 4 4 4 4 4 5 6 7 ! ",
": y.z.A.B.C.D.E.A.A.A.A.A.A.C.C.D.E.A.A.A.A.A.A.A.A.A.A.A.B.F.B.C.G.E.G.C.A.A.A.A.A.A.A.A.D.E.C.C.A.A.A.A.A.A.F.B.C.B.A.H.I.7 ! ",
": J.K.L.M.N.O.P.Q.R.L.L.L.L.S.T.U.V.W.L.L.L.L.L.L.L.L.L.X.Y.Z.`. +.+++@+#+L.L.L.L.L.L.L.$+%+&+T.S.L.L.L.L.L.*+=+-+;+M.L.>+I.7 ! ",
": ,+'+)+!+~+{+]+^+/+^+(+(+(+_+_+:+<+^+^+^+^+^+^+^+^+^+^+)+!+[+!+~+}+]+|+~+^+^+^+^+^+^+^+^+1+<+_+_+(+(+(+(+(+^+[+2+~+!+(+3+I.7 ! ",
": < 3 4 4 4 4 4 4+5+4 4 4 4 4 4 4 6+7+8+8+8+8+8+8+8+8+8+8+8+8+8+8+8+8+8+8+8+8+8+8+8+8+8+9+0+4 4 4 4 4 4 4 4 4 4 4 4 4 4 5 6 7 ! ",
": < 3 4 4 4 4 4 4+5+4 4 4 4 4 4 a+b+c+d+e+e+e+e+e+e+e+e+e+e+e+e+e+e+e+e+e+e+e+e+e+e+e+f+g+h+i+4 4 4 4 4 4 4 4 4 4 4 4 4 5 6 7 ! ",
": < 3 4 4 4 4 4 4+5+4 4 4 4 4 4 j+k+l+m+n+n+n+n+n+n+n+n+n+n+n+n+n+n+n+n+n+n+n+n+n+n+n+m+l+o+p+4 4 4 4 4 4 4 4 4 4 4 4 4 5 6 7 ! ",
": < 3 4 4 4 4 4 4+5+4 4 4 4 4 4 q+k+r+                                                  r+s+t+4 4 4 4 4 4 4 4 4 4 4 4 4 5 6 7 ! ",
": < 3 4 4 4 4 4 4+5+4 4 4 4 4 4 q+k+u+                                                  u+s+t+4 4 4 4 4 4 4 4 4 4 4 4 4 5 6 7 ! ",
": < 3 4 4 4 4 4 4+5+4 4 4 4 4 4 q+k+u+                                                  u+s+t+4 4 v+w+w+w+w+w+w+w+w+x+4 5 6 7 ! ",
": < 3 4 4 y+z+z+y+A+z+z+z+h 4 4 q+k+u+                                                  u+s+t+4 B+C+D+E+E+E+E+E+F+G+H+I+5 6 7 ! ",
": < 3 4 J+K+L+M+M+N+M+M+L+O+4 4 q+k+u+                                                  u+s+t+4 A.P+P+Q+Q+Q+Q+Q+Q+R+S+z 5 6 7 ! ",
": < 3 4 T+U+V+Q+Q+Q+Q+Q+W+X+4 4 q+k+u+                                                  u+s+t+4 A.E+Y+Z+Z+Z+Z+Z+`+G+S+z 5 6 7 ! ",
": < 3 4 T+G+Q+Q+Q+Q+Q+Q+ @X+4 4 q+k+u+                                                  u+s+t+4 A.R..@+@@@+@@@#@$@%@&@z 5 6 7 ! ",
": < 3 4 T+G+Q+Q+Q+Q+Q+Q+Q+X+4 4 q+k+u+                                                  u+s+t+4 A.R..@*@=@-@;@>@,@'@&@z 5 6 7 ! ",
": < 3 4 T+G+Q+Q+Q+Q+Q+Q+Q+X+4 4 q+k+u+                                                  u+s+t+4 A.R..@)@!@~@{@]@^@'@&@z 5 6 7 ! ",
": < 3 4 T+G+Q+Q+Q+Q+Q+Q+Q+X+4 4 q+k+u+                                                  u+s+t+4 A.R..@/@(@_@:@<@[@'@&@z 5 6 7 ! ",
": < 3 4 T+G+Q+Q+Q+Q+Q+Q+ @X+4 4 q+k+u+                                                  u+s+t+4 A.R..@,@,@,@,@,@}@%@&@z 5 6 7 ! ",
": < 3 4 T+U+V+Q+Q+Q+Q+Q+|@X+4 4 q+k+u+                                                  u+s+t+4 A.Q+1@2@2@2@2@2@3@P+S+z 5 6 7 ! ",
": < 3 4 4@5@|@|@|@6@|@|@|@7@4 4 q+k+u+                                                  u+s+t+4 A.G+G+V+V+V+V+V+U+8@S+z 5 6 7 ! ",
": < 3 4 4 y+9@9@z+A+z+9@9@h 4 4 q+k+u+                                                  u+s+t+4 0@P+P+G+G+G+G+G+P+G+a@h 5 6 7 ! ",
": < 3 4 b@5@c@d@d@V+d@d@d@e@4 4 q+k+u+                                                  u+s+t+4 4+f@f@f@f@f@f@f@f@g@b@4 5 6 7 ! ",
": < 3 4 T+U+V+Q+Q+Q+Q+Q+|@X+4 4 q+k+u+                                                  u+s+t+4 4 h@h@h@h@h@h@h@h@h@h 4 5 6 7 ! ",
": < 3 4 T+G+Q+Q+Q+Q+Q+Q+ @X+4 4 q+k+u+                                                  u+s+t+4 i@|@|@d@d@d@d@d@|@|@j@k@5 6 7 ! ",
": < 3 4 T+G+Q+Q+Q+Q+Q+Q+Q+X+4 4 q+k+u+                                                  u+s+t+4 l@m@R+n@o@p@q@r@s@t@&@z 5 6 7 ! ",
": < 3 4 T+G+Q+Q+Q+Q+Q+Q+Q+X+4 4 q+k+u+                                                  u+s+t+4 A.Q+u@v@w@x@y@z@A@Q+S+z 5 6 7 ! ",
": < 3 4 T+G+Q+Q+Q+Q+Q+Q+Q+X+4 4 q+k+u+                                                  u+s+t+4 A.Q+B@C@D@E@F@G@H@D+S+z 5 6 7 ! ",
": < 3 4 T+I@J@Q+Q+Q+Q+Q+K@X+4 4 q+k+u+                                                  u+s+t+4 L@M@G+N@O@N@P@N@Q@8@R@z 5 6 7 ! ",
": < 3 4 S@T@M@E+E+E+E+E+M@U@4 4 q+k+u+                                                  u+s+t+4 V@W@W@W@W@W@W@W@W@X+X@4 5 6 7 ! ",
": < 3 4 c Y@Z@Z@`@ #`@Z@.#+#4 4 q+k+u+                                                  u+s+t+4 4 c c c c c c c c c 4 4 5 6 7 ! ",
": < 3 4 4 4 4 4 c 5+4 4 4 4 4 4 q+k+u+                                                  u+s+t+4 4 4 4 4 4 4 4 4 4 4 4 4 5 6 7 ! ",
": < 3 4 4 4 4 4 4+5+4 4 4 4 4 4 q+k+u+                                                  u+s+t+4 4 4 4 4 4 4 4 4 4 4 4 4 5 6 7 ! ",
": < 3 4 4 4 4 4 4+5+4 4 4 4 4 4 q+k+u+                                                  u+s+t+4 4 4 4 4 4 4 4 4 4 4 4 4 5 6 7 ! ",
": < 3 4 4 4 4 4 4+5+d 4+4+4+4+4+q+k+u+                                                  u+s+t+4 4 4 4 4 4 4 4 4 4 4 4 4 5 6 7 ! ",
": < 3 4 4 4 4 4 4+5+@###########q+k+u+                                                  u+s+t+4 4 4 4 4 4 4 4 4 4 4 4 4 5 6 7 ! ",
": < 3 4 4 4 4 4 4 4 4 4 4 4 4 4 q+k+u+                                                  u+s+t+4 4 4 4 4 4 4 4 4 4 4 4 4 5 6 7 ! ",
": < 3 4 4 4 4 4 4 4 4 4 4 4 4 4 q+k+u+                                                  u+s+t+4 4 4 4 4 4 4 4 4 4 4 4 4 5 6 7 ! ",
": < 3 4 4 4 4 4 4 4 4 4 4 4 4 4 q+k+u+                                                  u+s+t+4 4 4 4 4 4 4 4 4 4 4 4 4 5 6 7 ! ",
": < 3 4 4 4 4 4 4 4 4 4 4 4 4 4 q+k+u+                                                  u+s+t+4 4 4 4 4 4 4 4 4 4 4 4 4 5 6 7 ! ",
": w.x.4 7@$#%#&#*#=#-#I+4 4 4 4 q+k+;#                                                  ;#s+t+4 4 4 4 I+-#=#*#&#%#$#7@4 5 6 7 ! ",
": >#,#'#H+)#!#U+~#{#R+]#^#^#^#^#q+/#(#_#:#:#:#:#:#:#:#:#:#:#:#:#:#:#:#:#:#:#:#:#:#:#:#_#(#o+t+^#^#^#^#]#R+{#~#U+!#)#H+'#<#I.7 ! ",
"[#}#|#h &@)#!#U+~#&#1#b@4 4 4 4 i+2#3#4#5#5#5#5#5#5#5#5#5#5#5#5#5#5#5#5#5#5#5#5#5#5#5#4#3#6#i+4 4 4 4 b@1#&#~#U+!#)#&@h 5 6 7 ! "};
