/* XPM */
static char * door_xpm[] = {
"64 64 636 2",
"  	c None",
". 	c #A43535",
"+ 	c #A43636",
"@ 	c #A53A37",
"# 	c #A74039",
"$ 	c #A43736",
"% 	c #A53836",
"& 	c #A63C38",
"* 	c #AE5341",
"= 	c #B6684B",
"- 	c #A74C3D",
"; 	c #A43F38",
"> 	c #A43836",
", 	c #AB4B3E",
"' 	c #AB4C3E",
") 	c #BE7653",
"! 	c #D09664",
"~ 	c #BD7653",
"{ 	c #B25F47",
"] 	c #AC4F3F",
"^ 	c #AD5140",
"/ 	c #AB4D3F",
"( 	c #AE5441",
"_ 	c #B86A4C",
": 	c #BE7853",
"< 	c #C8895D",
"[ 	c #C98A5D",
"} 	c #B77952",
"| 	c #AC5943",
"1 	c #A94C3E",
"2 	c #A43B37",
"3 	c #A34339",
"4 	c #B36148",
"5 	c #CE9463",
"6 	c #CB9261",
"7 	c #B48255",
"8 	c #A1734B",
"9 	c #A35A41",
"0 	c #A44038",
"a 	c #A9463C",
"b 	c #C17C56",
"c 	c #D19664",
"d 	c #CF9563",
"e 	c #C38C5D",
"f 	c #C38D5D",
"g 	c #C68E5E",
"h 	c #CA9261",
"i 	c #CD9463",
"j 	c #CA9161",
"k 	c #AC7C51",
"l 	c #C08A5C",
"m 	c #B4704E",
"n 	c #A3453A",
"o 	c #A53736",
"p 	c #A8453B",
"q 	c #B46449",
"r 	c #C6865B",
"s 	c #D19764",
"t 	c #CD9462",
"u 	c #B38054",
"v 	c #BE895A",
"w 	c #BE885A",
"x 	c #C18B5C",
"y 	c #C8905F",
"z 	c #CC9362",
"A 	c #D29765",
"B 	c #B38154",
"C 	c #C08A5B",
"D 	c #B48155",
"E 	c #B97B53",
"F 	c #A2523D",
"G 	c #A43936",
"H 	c #A73F39",
"I 	c #B15C45",
"J 	c #BF8A5B",
"K 	c #A7784E",
"L 	c #B58256",
"M 	c #BA8658",
"N 	c #9F7149",
"O 	c #A3754C",
"P 	c #AE7D52",
"Q 	c #CB9362",
"R 	c #C78F5F",
"S 	c #A6774D",
"T 	c #C99160",
"U 	c #C18258",
"V 	c #AA5E44",
"W 	c #A43E38",
"X 	c #A9473C",
"Y 	c #C68F5F",
"Z 	c #B07E53",
"` 	c #BD885A",
" .	c #AF7E52",
"..	c #9D7049",
"+.	c #9E7149",
"@.	c #B28054",
"#.	c #8A6444",
"$.	c #936946",
"%.	c #B38155",
"&.	c #A9794F",
"*.	c #B58255",
"=.	c #B7724F",
"-.	c #A54139",
";.	c #A8433A",
">.	c #A7413A",
",.	c #C48D5E",
"'.	c #B27F54",
").	c #9D7048",
"!.	c #9D7149",
"~.	c #A8794F",
"{.	c #A2744B",
"].	c #A3764F",
"^.	c #8B6444",
"/.	c #AD7C51",
"(.	c #A53936",
"_.	c #A53837",
":.	c #AC4F40",
"<.	c #9C7048",
"[.	c #926946",
"}.	c #825F42",
"|.	c #906846",
"1.	c #896344",
"2.	c #9C7049",
"3.	c #BB8659",
"4.	c #8C6647",
"5.	c #886344",
"6.	c #8D6645",
"7.	c #9E714A",
"8.	c #AF7E53",
"9.	c #996E49",
"0.	c #936A46",
"a.	c #B86C4D",
"b.	c #C28B5C",
"c.	c #946A46",
"d.	c #8F6745",
"e.	c #9F7249",
"f.	c #996E48",
"g.	c #926846",
"h.	c #9A6E48",
"i.	c #876244",
"j.	c #846043",
"k.	c #8C6544",
"l.	c #BE895B",
"m.	c #C89060",
"n.	c #916948",
"o.	c #A63C37",
"p.	c #A63E38",
"q.	c #BB8759",
"r.	c #AF7D52",
"s.	c #966C47",
"t.	c #986D48",
"u.	c #946A47",
"v.	c #876143",
"w.	c #936E42",
"x.	c #8B6943",
"y.	c #A37F43",
"z.	c #BEA35A",
"A.	c #BA9C54",
"B.	c #9A7541",
"C.	c #866344",
"D.	c #996F4D",
"E.	c #876243",
"F.	c #856143",
"G.	c #7A5A41",
"H.	c #C99060",
"I.	c #9F724B",
"J.	c #7E5C41",
"K.	c #A43635",
"L.	c #A9453B",
"M.	c #8E6645",
"N.	c #9B6F48",
"O.	c #8A6543",
"P.	c #815F42",
"Q.	c #A9894B",
"R.	c #D4BA67",
"S.	c #C6A654",
"T.	c #AA823E",
"U.	c #937044",
"V.	c #B38D44",
"W.	c #D7BB65",
"X.	c #D2B35C",
"Y.	c #A68041",
"Z.	c #9A7441",
"`.	c #CEB263",
" +	c #A27B40",
".+	c #7F5D42",
"++	c #815E42",
"@+	c #9A6F48",
"#+	c #A2744C",
"$+	c #A0734B",
"%+	c #805D42",
"&+	c #926F43",
"*+	c #A48851",
"=+	c #AA8442",
"-+	c #926F44",
";+	c #BE9A4B",
">+	c #DABF6A",
",+	c #CBAA55",
"'+	c #AC833E",
")+	c #D5B760",
"!+	c #D1B25B",
"~+	c #9C7641",
"{+	c #CAA853",
"]+	c #A67F41",
"^+	c #7B5A41",
"/+	c #916846",
"(+	c #8E6745",
"_+	c #9F724A",
":+	c #7C5B41",
"<+	c #A54039",
"[+	c #866343",
"}+	c #866444",
"|+	c #CEB161",
"1+	c #CAAA57",
"2+	c #AF8841",
"3+	c #D5B861",
"4+	c #CAA954",
"5+	c #A23C37",
"6+	c #977547",
"7+	c #B59650",
"8+	c #A27C41",
"9+	c #CFAF58",
"0+	c #C19F4E",
"a+	c #AB833F",
"b+	c #B38D45",
"c+	c #D1B259",
"d+	c #CDAC56",
"e+	c #AA8443",
"f+	c #856144",
"g+	c #8A6546",
"h+	c #886346",
"i+	c #876245",
"j+	c #C68F60",
"k+	c #A55F45",
"l+	c #A36247",
"m+	c #A37651",
"n+	c #9A704C",
"o+	c #957043",
"p+	c #BB984A",
"q+	c #AF8D4C",
"r+	c #A47D40",
"s+	c #CFAE57",
"t+	c #936F44",
"u+	c #A68144",
"v+	c #C3A14F",
"w+	c #C0A054",
"x+	c #BA984E",
"y+	c #9B7541",
"z+	c #C48D5D",
"A+	c #D29865",
"B+	c #B16147",
"C+	c #A0734D",
"D+	c #B69046",
"E+	c #9E7941",
"F+	c #A47D41",
"G+	c #D3B55D",
"H+	c #C2A356",
"I+	c #D0B464",
"J+	c #D2B560",
"K+	c #8E6746",
"L+	c #A1453A",
"M+	c #976D48",
"N+	c #906645",
"O+	c #C4AA60",
"P+	c #AF8842",
"Q+	c #9F7942",
"R+	c #D1B25A",
"S+	c #CBAA54",
"T+	c #B58F46",
"U+	c #835F42",
"V+	c #A14539",
"W+	c #946B47",
"X+	c #906746",
"Y+	c #BD9E52",
"Z+	c #AE8741",
"`+	c #D6B963",
" @	c #D1B158",
".@	c #A57E40",
"+@	c #A43735",
"@@	c #D0B058",
"#@	c #C4A85E",
"$@	c #986D47",
"%@	c #A0483A",
"&@	c #9D7A4E",
"*@	c #D3B867",
"=@	c #BD9E53",
"-@	c #9E4C3C",
";@	c #A07D4F",
">@	c #A8958C",
",@	c #BD9D5F",
"'@	c #967243",
")@	c #A33635",
"!@	c #9F4B3B",
"~@	c #CFB05A",
"{@	c #AF9C92",
"]@	c #A68971",
"^@	c #987447",
"/@	c #A33836",
"(@	c #B69650",
"_@	c #AD8640",
":@	c #B38E45",
"<@	c #D3B45C",
"[@	c #D8BD69",
"}@	c #B9A9A0",
"|@	c #D1C1B3",
"1@	c #C0B0A5",
"2@	c #AE8D60",
"3@	c #A23836",
"4@	c #A0734A",
"5@	c #856043",
"6@	c #AA823F",
"7@	c #AB833E",
"8@	c #926E43",
"9@	c #C7A95B",
"0@	c #D8BD66",
"a@	c #C4A353",
"b@	c #A48C7D",
"c@	c #CDBDB0",
"d@	c #B3A098",
"e@	c #D0C0B2",
"f@	c #936544",
"g@	c #A03B37",
"h@	c #946B46",
"i@	c #866143",
"j@	c #CAAA54",
"k@	c #C09F54",
"l@	c #CFB567",
"m@	c #CDAE5A",
"n@	c #B48E44",
"o@	c #9A7644",
"p@	c #A48053",
"q@	c #CCBBAE",
"r@	c #907F74",
"s@	c #B4A198",
"t@	c #A15F42",
"u@	c #A03D38",
"v@	c #9F3E37",
"w@	c #A24D3C",
"x@	c #866243",
"y@	c #D3B65F",
"z@	c #D2B561",
"A@	c #A57F42",
"B@	c #916E44",
"C@	c #AD8844",
"D@	c #A17C3F",
"E@	c #A39489",
"F@	c #85746A",
"G@	c #B09C93",
"H@	c #A3483B",
"I@	c #A13B37",
"J@	c #A0463A",
"K@	c #906C43",
"L@	c #C19F52",
"M@	c #D3B661",
"N@	c #AF8B47",
"O@	c #967447",
"P@	c #C09C4C",
"Q@	c #A67F3F",
"R@	c #B6A291",
"S@	c #CAB8AC",
"T@	c #CBBBAE",
"U@	c #7E5C42",
"V@	c #A3754D",
"W@	c #9B704C",
"X@	c #7D5B41",
"Y@	c #956645",
"Z@	c #A33636",
"`@	c #9E4E3C",
" #	c #AD8540",
".#	c #CFB566",
"+#	c #D3B763",
"@#	c #BA974A",
"##	c #AE8944",
"$#	c #8E6B44",
"%#	c #735B44",
"&#	c #AE8A45",
"*#	c #D1B159",
"=#	c #A78040",
"-#	c #957A6B",
";#	c #BFAEA3",
">#	c #A88659",
",#	c #B98659",
"'#	c #C08B5D",
")#	c #9B6A46",
"!#	c #9B543E",
"~#	c #C7A655",
"{#	c #D1B563",
"]#	c #CAAA55",
"^#	c #BB984C",
"/#	c #977343",
"(#	c #765D43",
"_#	c #B28D45",
":#	c #A78041",
"<#	c #8E6B45",
"[#	c #A88143",
"}#	c #9F6D47",
"|#	c #A15940",
"1#	c #964A3B",
"2#	c #946545",
"3#	c #A37C40",
"4#	c #D5B963",
"5#	c #C5A352",
"6#	c #9D7842",
"7#	c #9B7642",
"8#	c #B9964B",
"9#	c #BD994B",
"0#	c #AD843E",
"a#	c #947044",
"b#	c #9D7742",
"c#	c #BC994B",
"d#	c #A57F41",
"e#	c #99473A",
"f#	c #9F7941",
"g#	c #C5AA60",
"h#	c #CDAE59",
"i#	c #B28C43",
"j#	c #715A44",
"k#	c #9B7542",
"l#	c #C9A853",
"m#	c #9F3F38",
"n#	c #B6934C",
"o#	c #C7A85A",
"p#	c #CEAF5A",
"q#	c #8F6C44",
"r#	c #8B6945",
"s#	c #755C44",
"t#	c #A15D41",
"u#	c #A34B3C",
"v#	c #D3B762",
"w#	c #CEAF5B",
"x#	c #A37F44",
"y#	c #A27D43",
"z#	c #B49049",
"A#	c #9E7842",
"B#	c #AC843E",
"C#	c #A2553F",
"D#	c #A06645",
"E#	c #AF8943",
"F#	c #A47F44",
"G#	c #A17B41",
"H#	c #C29F4E",
"I#	c #AC833F",
"J#	c #C9A753",
"K#	c #956B47",
"L#	c #916946",
"M#	c #A24E3C",
"N#	c #8A6845",
"O#	c #7B5F44",
"P#	c #9D7940",
"Q#	c #AC843F",
"R#	c #976D47",
"S#	c #9D503D",
"T#	c #836445",
"U#	c #A17C40",
"V#	c #A8813F",
"W#	c #9C7742",
"X#	c #AE8742",
"Y#	c #A57F40",
"Z#	c #836043",
"`#	c #836141",
" $	c #A07A42",
".$	c #A4824A",
"+$	c #D3B864",
"@$	c #9F7A42",
"#$	c #7E5D42",
"$$	c #8C6545",
"%$	c #846241",
"&$	c #B08C47",
"*$	c #BF9D4E",
"=$	c #7D5C41",
"-$	c #856241",
";$	c #947143",
">$	c #D1B15A",
",$	c #D5BA66",
"'$	c #C09D4E",
")$	c #977344",
"!$	c #A0453A",
"~$	c #B17F53",
"{$	c #B68356",
"]$	c #A47E41",
"^$	c #CEAD56",
"/$	c #B2904B",
"($	c #A77F40",
"_$	c #B38E46",
":$	c #D4B760",
"<$	c #D8BC66",
"[$	c #C09E4F",
"}$	c #957143",
"|$	c #A24038",
"1$	c #956B46",
"2$	c #996D48",
"3$	c #947144",
"4$	c #BF9F54",
"5$	c #CDB060",
"6$	c #D6B962",
"7$	c #916F43",
"8$	c #8C6C43",
"9$	c #997443",
"0$	c #986143",
"a$	c #A23F38",
"b$	c #D5B966",
"c$	c #C2A050",
"d$	c #C3A458",
"e$	c #D6BC69",
"f$	c #C9A956",
"g$	c #866744",
"h$	c #8F7041",
"i$	c #A33A37",
"j$	c #A15A40",
"k$	c #B28B42",
"l$	c #CEB05B",
"m$	c #D5B862",
"n$	c #D0B25E",
"o$	c #C5A350",
"p$	c #947043",
"q$	c #B38E47",
"r$	c #A67F40",
"s$	c #A06343",
"t$	c #906D43",
"u$	c #C2A254",
"v$	c #D1B25D",
"w$	c #A98545",
"x$	c #977647",
"y$	c #C6A450",
"z$	c #A34239",
"A$	c #D5BB69",
"B$	c #D4B762",
"C$	c #B59047",
"D$	c #A88242",
"E$	c #8D6A45",
"F$	c #705943",
"G$	c #B18B45",
"H$	c #9F4439",
"I$	c #CBAC5B",
"J$	c #C5A451",
"K$	c #B59249",
"L$	c #987342",
"M$	c #977243",
"N$	c #987443",
"O$	c #7C6143",
"P$	c #A37D41",
"Q$	c #9E463A",
"R$	c #955E42",
"S$	c #A37D40",
"T$	c #D6BA65",
"U$	c #BF9C4E",
"V$	c #B58358",
"W$	c #9C493B",
"X$	c #98513D",
"Y$	c #A37D43",
"Z$	c #C9AF63",
"`$	c #CAAA56",
" %	c #AC8541",
".%	c #957244",
"+%	c #6E5743",
"@%	c #AE8E4E",
"#%	c #B28C44",
"$%	c #CFAF57",
"%%	c #8C6A45",
"&%	c #9C4A3B",
"*%	c #976C47",
"=%	c #886744",
"-%	c #CCAE5E",
";%	c #A07B42",
">%	c #B5944D",
",%	c #C09D4D",
"'%	c #976846",
")%	c #9F4339",
"!%	c #9D483A",
"~%	c #8B6C46",
"{%	c #CBAB57",
"]%	c #9E7A44",
"^%	c #A88243",
"/%	c #A37C41",
"(%	c #926E44",
"_%	c #BE9B4B",
":%	c #96503D",
"<%	c #846443",
"[%	c #A68143",
"}%	c #CDAD56",
"|%	c #BC984A",
"1%	c #9F4239",
"2%	c #6E5341",
"3%	c #BB9F53",
"4%	c #8A6945",
"5%	c #A33E38",
"6%	c #7B5C42",
"7%	c #C0A153",
"8%	c #B48F45",
"9%	c #A57D3F",
"0%	c #906845",
"a%	c #9C6F48",
"b%	c #9D473A",
"c%	c #805E42",
"d%	c #C1A154",
"e%	c #AA833F",
"f%	c #A14439",
"g%	c #A13D37",
"h%	c #9E5D41",
"i%	c #A27B41",
"j%	c #A1463A",
"k%	c #A33736",
"l%	c #9F4D3C",
"m%	c #826043",
"n%	c #936F43",
"o%	c #9C4439",
"p%	c #7F5F43",
"q%	c #9E7943",
"r%	c #9D4038",
"s%	c #705642",
"t%	c #9D7A40",
"u%	c #A23736",
"v%	c #8B6544",
"w%	c #715642",
"x%	c #886844",
"y%	c #6F5843",
"z%	c #9F3D38",
"A%	c #866244",
"B%	c #6F5642",
"C%	c #635243",
"D%	c #795A41",
"E%	c #9C3F38",
"F%	c #96463A",
"G%	c #6C5542",
"H%	c #615143",
"I%	c #665243",
"J%	c #9A3E38",
"K%	c #9F3A37",
"L%	c #794C40",
"M%	c #675343",
"N%	c #645243",
"O%	c #685343",
"P%	c #625143",
"Q%	c #635143",
"R%	c #91413B",
"S%	c #90413B",
". . . . . . . . . . . . . . . . . . . . . . + @ # $ + $ + + % & * = - ; > . . . . . . . . . . . . . . . . . . . . . . . . . . . ",
". . . . . . . . . . . . . . . . . . . . , ' ) ! ~ { ] ^ / ^ ( _ : < [ } | 1 2 3 + . . . . . . . . . . . . . . . . . . . . . . . ",
". . . . . . . . . . . . . . . . . + 4 ! ! ! ! ! ! ! ! ! ! ! ! ! ! 5 ! ! ! ! 6 7 8 9 0 . . . . . . . . . . . . . . . . . . . . . ",
". . . . . . . . . . . . . . . + $ a b ! ! c ! d e f g h i ! ! ! j k l ! c ! ! ! c ! m n $ + . . . . . . . . . . . . . . . . . . ",
". . . . . . . . . . . . . . o p q r ! s t u u 7 v w x y z ! ! ! ! A x B B t s C D ! A E F G . . . . . . . . . . . . . . . . . . ",
". . . . . . . . . . . . . H I : ! 5 J K K L z z ! ! ! d i i i i 5 M j f N O P Q 6 R S T U V W . . . . . . . . . . . . . . . . . ",
". . . . . . . . . . . . X r ! ! Y Z ` c ! s ! e e e e M  .k ..+...@.e Y C P #.$.` Y A %.&.*.=.-.+ . . . . . . . . . . . . . . ;.",
". . . . . . . . . . . >.r ! ! ! ,.! s c t '.@.+.).!...~.%. .+.+.+.!.).{.B D J ].^.O @.5 t C {./.+.. . . . . . . . . . . . . (.o ",
". . . . . . . . . . _.:.! ! ! ! 5 t ` O O ..<.+.[.}.}.|.+.+.+.+.+.+.!.1.2.2.O 3.4.5.6.7.8.i j 9.0.+.. . . . . . . . . . . H o o ",
". . . . . . . . . . % a.! ! d b.~...+.+.c.d.5.!.+.e.e.f.c.0.g.[.0.f.+.h.i.5.0.f.+.j.#.#.k.[.l.m.n.[.. . . . . . . . . . . o.$ $ ",
". . . . . . . . . . p.: s q.r.).+.+.s.5.0.t.e.+.u.v.i.w.x.y.z.A.B.C.v.6.e.+.0.6.1.K D.E.F.G.!.H.I.J.. . . . . . . . . . . K.K.K.",
". . . . . . . . . . L.! l.e.+.+.2.j.M.<.N.<.O.P.Q.R.S.T.U.V.W.X.Y.Z.`. +.+++N.h.@+#.M #+8 $+e 8 ..%+. . . . . . . . . . . K.. K.",
". . . . . . . . . . a l.).+.!.0.k.+.h.0.&+*+=+-+;+>+,+'+U.V.)+!+Y.~+{+]+    ^+G./+/+(+_+x x {.N.j.:+. . . . . . . . . . . K.. . ",
". . . . . . . . . . <+N +.+.5.F.2.1.[+}+|+1+2+-+;+>+,+'+U.V.3+!+Y.~+4+]+            ++i.!.+.#.j.:+^+. . . . . . . . . . . . . . ",
". . . . . . . . . . 5+h.N.5.%+N.5.6+7+8+9+0+a+-+;+>+,+'+U.b+c+d+e+~+4+]+              :+f+g+h+h+i+j+. . . . . . . . . . . . . . ",
". . . . . . . . . . # k+l+m+m+n+o+p+q+r+s+0+a+-+;+>+,+'+t+u+v+w+x+y+4+]+                &.z z+A A+x . . . . . . . . . . . + . . ",
". . . . . . . . . . G H B+R 5 C+ +D+E+F+s+0+a+-+;+G+,+'+U.H+I+J+]+~+4+]+                6.&.K+P P _+. . . . . . . . . . . > % . ",
". . . . . . . . . . $ > L+M+8 N+O+P+Q+F+s+0+a+-+;+R+S+'+U.T+R+9+Y.~+4+]+                E.e.U++.+.+.. . . . . . . . . . . $ $ . ",
". . . . . . . . . . > > V+W++.X+Y+Z+Q+F+s+0+a+-+;+`+,+'+U.b+ @9+Y.~+4+.@                E.e.}.+.+.+.. . . . . . . . . . . $ +@. ",
". . . . . . . . . . > > V+W++.X+Y+Z+Q+F+s+0+a+-+;+@@S+'+U.b+ @9+Y.~+,+#@                E.N $@+.+.+.. . . . . . . . . . . $ K.. ",
". . . . . . . . . . > > %@W++.X+Y+Z+Q+F+s+0+a+-+;+@@S+'+U.b+ @9+Y.&@*@=@                E.N N.+.+.+.. . . . . . . . . . . $ +@. ",
". . . . . . . . . . + 2 -@W++.X+Y+Z+Q+F+s+0+a+-+;+@@S+'+U.b+ @9+;@>@,@'@                E.e.}.+.+.+.. . . . . . . . . . . )@G . ",
". . . . . . . . . . + > !@W++.X+Y+Z+Q+F+s+0+a+-+;+@@S+'+U.b+ @~@{@]@^@.@                E.e.U++.+.+.. . . . . . . . . . . /@+@. ",
". . . . . . . . . . + $ !@W++.[.(@_@Q+F+s+0+a+-+;+@@S+'+U.:@<@[@}@|@1@2@                E.e.U++.+.+.. . . . . . . . . . . 3@+@. ",
". . . . . . . . . . + $ !@W+4@Z 5@6@Q+F+s+0+a+-+;+@@S+7@8@9@0@a@b@c@d@e@                E.e.U++.+.f@. . . . . . . . . . . g@K.. ",
". . . . . . . . . . . + !@h@x S i@6@Q+F+s+0+a+-+;+@@j@k@l@m@n@o@p@q@r@s@                E.e.U++.t@u@. . . . . . . . . . . v@K.. ",
". . . . . . . . . . . + w@2._+N x@6@Q+F+s+0+a+-+;+X.y@z@4+A@B@C@D@E@F@G@                1...U++.H@+ . . . . . . . . . . . I@K.. ",
". . . . . . . . . . . + J@W++.N x@6@Q+F+s+0+a+K@L@W.M@N@~+O@P@d+Q@R@S@T@              U@V@W@X@Y@0 . . . . . . . . . . . . Z@. . ",
". . . . . . . . . . . + `@W++.N x@6@Q+F+s+0+ #.#+#@###$#%#&#*#9+=#-#;#>#              U@8 ,#'#)#3 Z@. . . . . . . . . . . . K.. ",
". . . . . . . . . . . $ !#W++.N x@6@Q+F+9+~#{#]#^#/#t+U.(#_# @9+:#<#[#.@              U@+.N _+}#|#1#. . . . . . . . . . . . . . ",
". . . . . . . . . . . G 2#W++.N x@6@Q+3#4#W.5#6#7#8#9#0#a#b+ @9+Y.b#c#d#              U@+.+.+.+.+.e#. . . . . . . . . . . . . . ",
". . . . . . . . . . . W 2.2.+.N x@6@f#g#h#i#o@j#k#l#S+'+U.b+ @9+Y.~+4+]+              U@+.M.N.+.+.m#. . . . . . . . . . . . . . ",
". . . . . . . . . . . 3 +.+.+.N i@n#o#p#A@q#r#s#f#l#S+'+U.b+ @9+Y.~+4+]+              U@N #.N.+.t#+ . . . . . . . . . . . . . . ",
". . . . . . . . . . . u#+.+.+.N i@v#w#x#y#z#A#-+B#l#S+'+U.b+ @9+Y.~+4+]+              U@f.(+..+.C#+ . . . . . . . . . . . . . . ",
". . . . . . . . . . . 3 D#+.+.N x@E#F#G#,+H#I#-+'+l#S+'+U.b+ @9+Y.~+J#]+              U@K#L#+.+.M#+ . . . . . . . . . . . . . . ",
". . . . . . . . . . . $ t#+.+.N E.N#O#P#s+0+a+-+'+l#S+'+U.b+ @9+Y.6#Q#.@              U@R#K#+.W+S#+ . . . . . . . . . . . . . . ",
". . . . . . . . . . . + C#+.+.N x@7#T#U#s+0+a+-+'+l#S+'+U.b+ @9+Y.6#Q#.@              U@+.+.+.W+S#+ . . . . . . . . . . . . . . ",
". . . . . . . . . . . + C#+.+.N x@V#W#F+s+0+a+-+'+l#S+'+U.b+ @9+Y.b#X#Y#              U@s.0.+.W+S#+ . . . . . . . . . . . . . . ",
". . . . . . . . . . . + C#+.+.N.Z#`# $F+s+0+Q#-+'+l#S+'+U.b+ @9+]+.$+$@$              #$$@K#+.W+S#+ . . . . . . . . . . . . . . ",
". . . . . . . . . . . + C#+.2.j.$$%$ $F+s+H#6#B@'+l#S+'+U.b+ @9+&$`.*$r#              =$/+N +.W+-@+ . . . . . . . . . . . . . . ",
". . . . . . . . . . . + C#+.5.!...-$ $F+s+0+;$B@'+l#S+'+U.b+ @>$,$'$)$8+              :+E.N +.W+!$+ . . . . . . . . . . . . . . ",
". . . . . . . . . . . + C#+.~${$+.-$ $]$^$/$($-+'+l#S+'+U._$:$<$[$}$=#=#              :+E.N +.W+|$. . . . . . . . . . . . K.. . ",
". . . . . . . . . . . + C#+.Z 1$2$-$ $3$^#4$Q#-+'+l#S+7@&+5$6$*$7$8$6@9$              :+E.N +.0$a$. . . . . . . . . . . . . . . ",
". . . . . . . . . . . + C#+.+.L#K#-$ $8+b$c$a+-+'+l#,+d$e$f$X#)$g$h$a+r#              :+E.N +.0$i$+ . . . . . . . . . . . . . . ",
". . . . . . . . . . . + j$+.+.L#K#-$ $F+s+0+a+-+k$l$m$n$o$G#p$q$r$6#a+r#              X@d.+.+.0$a$. . . . . . . . . . . . . . . ",
". . . . . . . . . . . + s$+.+.L#K#-$ $F+s+0+a+t$u$`+v$w$'@x$y$^$Y.6#a+r#              #$+.+.+.N.z$. . . . . . . . . . . . . . . ",
". . . . . . . . . . . + }#+.+.L#K#-$ $F+s+0+E#A$B$C$D$E$F$G$ @9+Y.6#a+r#              U@+.+.+.+.H$+ . . . . . . . . . . . . . . ",
". . . . . . . . . . . + +.+.+.L#K#-$ $F+9+I$+#J$K$L$M$N$O$_# @9+Y.6#P$r#              X@+.+.+.+.Q$+ . . . . . . . . . . . . . . ",
". . . . . . . . . . . + R$+.+.L#K#-$ $S$T$3+'$/#B.U$H#B#U.b+ @9+Y.A#B@                V$!.+.+.+.W$+ . . . . . . . . . . . . . . ",
". . . . . . . . . . . + X$+.+.L#K#-$Y$Z$`$ %.%+%@%@@S+'+U.#%$%d+:#%%                ^+$+v ).+.+.Q$+ . . . . . . . . . . . . . . ",
". . . . . . . . . . . + &%+.W+*%|.=%-%`$;%B@N#O#>%@@S+'+U.a+,%V.A#                  ^+@+..+.!.'%)%+ . . . . . . . . . . . . . . ",
". . . . . . . . . . . K.!%N }.e.x@~%{%]%^%8#/%(%_%@@S+'+U.a+i#Z+                    ^+@++.+.2.:%5++ . . . . . . . . . . . . . . ",
". . . . . . . . . . . K.!%N U+e.x@$@<%[%}%H#a+-+|%9+S+6@-+F+6#                      ^+@++.+.2.1%$ + . . . . . . . . . . . . . . ",
". . . . . . . . . . . K.!%N }.e.x@f.2%3%@@0+a+-+7@l#S+~+4%                          ^+@++.+.+.5%+ . . . . . . . . . . . . . . . ",
". . . . . . . . . . . K.&%+.K#|.E.f.6%7%@@0+a+-+Q#8%4+9%                            ^+@++.0%a%5%. . . . . . . . . . . . . . . . ",
". . . . . . . . . . . + b%+.N.^.E.f.c%d%@@0+I#B@e%Q#Z+                              ^+@++.#.N.f%. . . . . . . . . . . . . . . . ",
". . . . . . . . . . . . g%h%N.#.[.(+P.n#9+H#i%%%7#                                  ^+@++.#.N.j%k%. . . . . . . . . . . . . . . ",
". . . . . . . . . . . . + l%..f.+.J.m%r+s+H#n%                                      ^+@++.#.f.o%+ . . . . . . . . . . . . . . . ",
". . . . . . . . . . . . K.f%N.^.N.J.p%P$ #q%                                        ^+@++.#.f.r%+ . . . . . . . . . . . . . . . ",
". . . . . . . . . . . . . |$N.^.E.:+s%t%A#                                          ^+h.u.u.(+r%+ . . . . . . . . . . . . . . u%",
". . . . . . . . . . . . . a$F.v%E.:+w%x%y%                                          ^+t.x@e.c%r%+ . . . . . . . . . . . . . . )@",
". . . . . . . . . . . . . z%:+A%F.:+B%C%                                            :+=$E.$$D%E%+ . . . . . . . . . . . . . . 3@",
". . . . . . . . . . . . K.F%G.G%X@B%H%                                                J.d.j.I%J%+ . . . . . . . . . . . . . . K%",
". . . . . . . . . . . . + L%M%N%O%P%                                                    }.s%Q%R%+ . . . . . . . . . . . . . . S%"};
