/* XPM */
static char *_c17c77cb9b245b0f671ef6d37185373lLjiwG3xiri6ahhP[] = {
/* columns rows colors chars-per-pixel */
"64 64 256 2 ",
"   c black",
".  c blue",
"X  c green",
"o  c red",
"O  c cyan",
"+  c yellow",
"@  c magenta",
"#  c white",
"$  c #7B7B7B",
"%  c #7B7B7B",
"&  c #7B7B7B",
"*  c #7B7B7B",
"=  c #7B7B7B",
"-  c #7B7B7B",
";  c #7B7B7B",
":  c #7B7B7B",
">  c #7B7B7B",
",  c #7B7B7B",
"<  c #7B7B7B",
"1  c #7B7B7B",
"2  c #7B7B7B",
"3  c #7B7B7B",
"4  c #7B7B7B",
"5  c #7B7B7B",
"6  c #7B7B7B",
"7  c #7B7B7B",
"8  c #7B7B7B",
"9  c #7B7B7B",
"0  c #7B7B7B",
"q  c #7B7B7B",
"w  c #7B7B7B",
"e  c #7B7B7B",
"r  c #7B7B7B",
"t  c #7B7B7B",
"y  c #7B7B7B",
"u  c #7B7B7B",
"i  c #7B7B7B",
"p  c #7B7B7B",
"a  c #7B7B7B",
"s  c #7B7B7B",
"d  c #7B7B7B",
"f  c #7B7B7B",
"g  c #7B7B7B",
"h  c #7B7B7B",
"j  c #7B7B7B",
"k  c #7B7B7B",
"l  c #7B7B7B",
"z  c #7B7B7B",
"x  c #7B7B7B",
"c  c #7B7B7B",
"v  c #7B7B7B",
"b  c #7B7B7B",
"n  c #7B7B7B",
"m  c #7B7B7B",
"M  c #7B7B7B",
"N  c #7B7B7B",
"B  c #7B7B7B",
"V  c #7B7B7B",
"C  c #7B7B7B",
"Z  c #7B7B7B",
"A  c #7B7B7B",
"S  c #7B7B7B",
"D  c #7B7B7B",
"F  c #7B7B7B",
"G  c #7B7B7B",
"H  c #7B7B7B",
"J  c #7B7B7B",
"K  c #7B7B7B",
"L  c #7B7B7B",
"P  c #7B7B7B",
"I  c #7B7B7B",
"U  c #7B7B7B",
"Y  c #7B7B7B",
"T  c #7B7B7B",
"R  c #7B7B7B",
"E  c #7B7B7B",
"W  c #7B7B7B",
"Q  c #7B7B7B",
"!  c #7B7B7B",
"~  c #7B7B7B",
"^  c #7B7B7B",
"/  c #7B7B7B",
"(  c #7B7B7B",
")  c #7B7B7B",
"_  c #7B7B7B",
"`  c #7B7B7B",
"'  c #7B7B7B",
"]  c #7B7B7B",
"[  c #7B7B7B",
"{  c #7B7B7B",
"}  c #7B7B7B",
"|  c #7B7B7B",
" . c #7B7B7B",
".. c #7B7B7B",
"X. c #7B7B7B",
"o. c #7B7B7B",
"O. c #7B7B7B",
"+. c #7B7B7B",
"@. c #7B7B7B",
"#. c #7B7B7B",
"$. c #7B7B7B",
"%. c #7B7B7B",
"&. c #7B7B7B",
"*. c #7B7B7B",
"=. c #7B7B7B",
"-. c #7B7B7B",
";. c #7B7B7B",
":. c #7B7B7B",
">. c #7B7B7B",
",. c #7B7B7B",
"<. c #7B7B7B",
"1. c #7B7B7B",
"2. c #7B7B7B",
"3. c #7B7B7B",
"4. c #7B7B7B",
"5. c #7B7B7B",
"6. c #7B7B7B",
"7. c #7B7B7B",
"8. c #7B7B7B",
"9. c #7B7B7B",
"0. c #7B7B7B",
"q. c #7B7B7B",
"w. c #7B7B7B",
"e. c #7B7B7B",
"r. c #7B7B7B",
"t. c #7B7B7B",
"y. c #7B7B7B",
"u. c #7B7B7B",
"i. c #7B7B7B",
"p. c #7B7B7B",
"a. c #7B7B7B",
"s. c #7B7B7B",
"d. c #7B7B7B",
"f. c #7B7B7B",
"g. c #7B7B7B",
"h. c #7B7B7B",
"j. c #7B7B7B",
"k. c #7B7B7B",
"l. c #7B7B7B",
"z. c #7B7B7B",
"x. c #7B7B7B",
"c. c #7B7B7B",
"v. c #7B7B7B",
"b. c #7B7B7B",
"n. c #7B7B7B",
"m. c #7B7B7B",
"M. c #7B7B7B",
"N. c #7B7B7B",
"B. c #7B7B7B",
"V. c #7B7B7B",
"C. c #7B7B7B",
"Z. c #7B7B7B",
"A. c #7B7B7B",
"S. c #7B7B7B",
"D. c #7B7B7B",
"F. c #7B7B7B",
"G. c #7B7B7B",
"H. c #7B7B7B",
"J. c #7B7B7B",
"K. c #7B7B7B",
"L. c #7B7B7B",
"P. c #7B7B7B",
"I. c #7B7B7B",
"U. c #7B7B7B",
"Y. c #7B7B7B",
"T. c #7B7B7B",
"R. c #7B7B7B",
"E. c #7B7B7B",
"W. c #7B7B7B",
"Q. c #7B7B7B",
"!. c #7B7B7B",
"~. c #7B7B7B",
"^. c #7B7B7B",
"/. c #7B7B7B",
"(. c #7B7B7B",
"). c #7B7B7B",
"_. c #7B7B7B",
"`. c #7B7B7B",
"'. c #7B7B7B",
"]. c #7B7B7B",
"[. c #7B7B7B",
"{. c #7B7B7B",
"}. c #7B7B7B",
"|. c #7B7B7B",
" X c #7B7B7B",
".X c #7B7B7B",
"XX c #7B7B7B",
"oX c #7B7B7B",
"OX c #7B7B7B",
"+X c #7B7B7B",
"@X c #7B7B7B",
"#X c #7B7B7B",
"$X c #7B7B7B",
"%X c #7B7B7B",
"&X c #7B7B7B",
"*X c #7B7B7B",
"=X c #7B7B7B",
"-X c #7B7B7B",
";X c #7B7B7B",
":X c #7B7B7B",
">X c #7B7B7B",
",X c #7B7B7B",
"<X c #7B7B7B",
"1X c #7B7B7B",
"2X c #7B7B7B",
"3X c #7B7B7B",
"4X c #7B7B7B",
"5X c #7B7B7B",
"6X c #7B7B7B",
"7X c #7B7B7B",
"8X c #7B7B7B",
"9X c #7B7B7B",
"0X c #7B7B7B",
"qX c #7B7B7B",
"wX c #7B7B7B",
"eX c #7B7B7B",
"rX c #7B7B7B",
"tX c #7B7B7B",
"yX c #7B7B7B",
"uX c #7B7B7B",
"iX c #7B7B7B",
"pX c #7B7B7B",
"aX c #7B7B7B",
"sX c #7B7B7B",
"dX c #7B7B7B",
"fX c #7B7B7B",
"gX c #7B7B7B",
"hX c #7B7B7B",
"jX c #7B7B7B",
"kX c #7B7B7B",
"lX c #7B7B7B",
"zX c #7B7B7B",
"xX c #7B7B7B",
"cX c #7B7B7B",
"vX c #620808",
"bX c #523918",
"nX c #5A0000",
"mX c #AC7B18",
"MX c #6A0808",
"NX c #835231",
"BX c #C59C29",
"VX c #D5BD41",
"CX c #831818",
"ZX c #FFFF20",
"AX c #A46A39",
"SX c #731010",
"DX c #EEDE52",
"FX c #FFFF41",
"GX c #6A4120",
"HX c #5A4120",
"JX c #100800",
"KX c #732900",
"LX c #520000",
"PX c #9C5A10",
"IX c #410000",
"UX c #834100",
/* pixels */
"IXIXIXIXIXMXKXMXMXKXSXSXSXIXIXIXIXIXIXIXIXvXvXvXMXKXKXKXKXKXSXSXKXUXUXUXUXKXKXKXKXKXSXIXIXIXIXIXIXIXvXMXKXMXLXLXIXKXvXIXvXIXIXIX",
"IXIXIXIXIXKXKXKXKXKXvXKXKXMXIXIXIXIXIXIXIXvXMXKXKXUXUXUXKXKXKXKXSXKXUXUXKXvXKXKXKXKXKXvXvXvXIXLXvXLXMXvXMXMXLXLXLXKXMXvXvXLXIXIX",
"IXIXIXIXKXKXKXLXIXvXLXvXMXMXMXIXIXIXIXIXLXvXMXKXUXUXUXPXUXSXKXKXKXUXKXKXMXLXLXLXMXvXSXvXSXKXUXKXMXKXKXKXMXvXLXLXLXvXvXIXLXLXIXIX",
"IXIXIXvXSXSXIXIXLXLXLXvXSXKXKXKXLXvXIXIXIXLXMXKXUXUXNXAXUXKXIXKXKXKXMXIXIXIXIXIXIXLXvXMXSXUXPXPXKXKXKXMXIXIXIXIXLXvXKXKXIXLXIXIX",
"IXIXvXvXIXIXIXLXvXvXIXLXIXvXKXKXKXMXLXLXIXLXMXKXUXNXPXmXPXUXMXKXKXMXIXIXIXIXIXIXIXIXLXvXKXUXPXPXUXUXUXKXIXIXIXIXvXKXUXKXvXLXIXLX",
"IXSXvXIXvXvXvXLXLXLXIXIXLXIXKXUXUXKXLXLXIXIXLXKXPXBXmXmXmXUXUXKXMXIXIXIXIXIXIXIXIXIXIXvXMXUXPXmXmXUXPXUXKXvXIXMXUXUXPXUXKXvXLXLX",
"LXvXKXvXMXMXMXvXMXIXIXIXIXIXKXUXUXKXLXIXIXIXvXMXUXmXPXPXmXPXUXUXKXvXIXIXIXIXIXIXIXIXIXIXMXKXPXBXmXmXmXmXPXKXKXKXUXUXmXPXUXUXvXLX",
"IXKXMXMXMXMXvXMXMXMXIXIXIXLXMXKXKXvXMXKXKXKXvXvXKXPXmXmXmXPXKXKXUXKXvXIXIXIXIXIXIXIXIXIXIXKXPXBXVXBXBXBXBXmXPXPXPXPXmXmXPXPXUXIX",
"MXMXMXLXIXIXLXLXMXvXIXIXLXIXvXIXvXKXKXUXKXKXvXvXKXUXPXmXmXPXKXKXUXKXMXLXIXIXIXIXIXIXIXIXMXUXPXBXVXVXBXVXVXBXBXmXmXPXmXPXmXmXPXKX",
"MXLXIXIXIXIXIXLXMXMXLXIXIXLXLXLXvXKXUXKXvXvXLXLXSXKXUXUXPXPXUXUXKXvXMXvXLXIXIXIXIXIXIXvXUXUXPXBXDXDXVXBXVXBXmXmXPXUXCXmXPXPXUXKX",
"IXLXIXLXIXIXIXIXvXvXIXIXLXIXIXLXKXKXKXKXLXIXIXIXIXvXKXKXKXPXUXUXKXvXvXMXMXKXMXIXIXLXLXMXUXUXUXPXBXVXBXmXmXmXPXKXKXUXUXUXUXUXUXKX",
"IXvXvXLXIXIXIXIXIXIXLXIXIXIXLXIXKXKXKXLXIXIXIXIXIXIXIXMXKXUXUXMXKXMXKXKXKXUXKXKXKXLXIXIXKXUXKXUXmXPXmXPXPXKXKXKXKXKXKXKXMXKXKXvX",
"LXSXMXvXLXLXIXIXIXIXvXvXMXvXIXKXKXKXLXIXIXIXIXIXIXIXIXIXvXKXKXUXMXUXPXPXPXPXPXUXKXKXvXLXvXvXMXUXPXPXUXUXMXvXvXIXIXLXIXIXIXIXIXvX",
"MXKXKXKXvXIXIXIXIXvXMXMXKXKXKXSXMXvXIXIXIXIXIXIXIXIXIXIXIXvXUXPXPXPXmXmXmXBXmXPXUXKXKXLXvXvXvXUXPXPXUXSXMXLXIXIXIXIXIXIXIXIXIXLX",
"LXMXSXSXSXSXMXLXLXMXMXKXKXUXUXKXvXvXLXIXIXIXIXIXIXIXIXIXIXIXUXmXmXmXBXVXVXBXBXmXPXKXKXKXKXvXMXKXPXUXUXKXvXLXIXIXIXIXIXIXIXIXIXLX",
"KXvXvXSXSXKXKXSXMXMXKXUXPXAXmXUXMXvXIXIXIXIXIXIXIXIXIXIXIXvXUXPXmXBXVXVXVXBXBXmXPXPXUXKXMXLXMXKXUXUXUXUXMXLXLXIXIXIXIXIXIXIXIXLX",
"IXvXIXLXvXvXKXKXvXMXMXUXPXAXAXUXKXvXLXIXIXIXIXIXIXIXIXIXIXvXUXmXmXBXBXVXBXBXBXmXPXPXUXKXIXLXvXMXUXUXKXMXMXLXLXIXIXIXIXIXIXIXIXLX",
"IXIXIXIXLXLXKXUXKXMXvXMXKXUXUXUXMXvXLXIXIXIXLXIXIXIXIXIXLXLXUXPXPXPXPXmXmXmXBXmXPXPXUXKXvXIXIXMXKXKXMXMXMXvXLXLXIXIXIXIXIXIXvXIX",
"IXIXIXIXIXIXMXKXMXIXIXvXMXMXKXKXvXLXIXIXIXIXIXLXIXLXIXIXLXIXKXUXUXUXUXUXUXPXPXmXPXKXUXKXIXIXLXvXKXKXKXMXvXvXLXLXLXvXLXLXvXMXMXIX",
"IXIXIXIXIXIXvXvXLXLXIXIXLXIXMXMXMXIXIXIXIXIXIXIXMXKXMXIXLXSXMXMXMXKXMXIXKXUXUXPXPXPXKXUXKXMXLXKXKXKXUXKXIXIXIXIXLXvXKXKXKXKXKXMX",
"IXIXIXIXIXIXIXIXIXLXLXIXvXLXIXMXvXIXIXIXIXIXIXMXKXvXKXKXLXvXvXLXIXIXIXIXIXMXUXKXPXPXPXKXUXKXKXKXKXUXUXUXUXKXvXvXLXvXKXKXKXKXKXKX",
"LXvXKXvXIXIXIXIXLXLXMXKXKXKXvXKXMXMXLXIXLXLXKXKXKXUXSXKXvXvXIXIXIXIXIXIXIXIXKXUXUXmXmXPXPXUXUXUXUXKXKXUXKXMXLXIXIXIXIXKXKXKXUXKX",
"MXKXKXKXvXIXIXMXMXKXMXKXKXUXUXKXMXvXvXKXSXKXUXUXPXPXUXKXvXLXIXIXIXIXIXIXIXIXIXIXKXUXPXmXmXmXmXUXUXUXUXMXIXIXIXIXIXIXIXvXKXUXKXKX",
"KXUXUXUXKXMXKXKXNXPXMXUXKXUXKXIXIXLXMXMXSXKXUXPXPXPXKXKXvXvXvXIXIXIXIXIXIXIXIXIXMXKXUXPXmXmXPXPXKXKXKXIXIXIXIXIXIXIXIXIXKXKXKXKX",
"UXPXPXUXPXSXUXPXmXmXPXUXMXKXIXIXIXIXIXLXLXMXMXKXUXUXKXKXvXvXvXIXIXIXIXIXIXIXIXLXIXKXUXPXPXPXPXPXUXUXKXIXIXIXIXIXIXIXIXIXIXKXKXKX",
"UXPXmXPXPXPXPXPXmXmXPXSXMXKXvXIXIXIXIXIXIXIXLXMXMXMXKXvXvXLXLXIXIXIXIXIXIXIXIXIXIXUXUXPXPXmXPXPXUXKXLXLXIXIXIXIXIXIXIXIXIXIXKXKX",
"UXPXmXPXPXPXmXUXKXPXUXMXSXKXvXLXIXIXIXIXIXIXIXIXLXMXvXvXKXvXIXIXIXIXIXIXIXIXIXIXIXUXUXUXmXUXPXKXKXIXLXIXLXIXIXIXIXIXIXIXIXIXMXKX",
"KXUXPXPXPXPXUXKXMXMXKXSXKXMXMXLXLXIXIXIXIXIXIXIXIXvXKXKXKXvXIXIXIXIXIXLXLXLXIXIXKXUXvXPXPXPXPXKXKXIXIXIXIXIXLXIXIXIXIXIXIXIXvXKX",
"KXKXPXPXPXUXKXKXKXUXKXKXKXIXIXLXLXIXIXIXIXIXIXIXIXvXSXKXMXMXIXIXIXIXIXIXLXLXLXvXKXUXUXPXPXUXPXKXKXIXIXIXIXIXIXLXLXLXLXIXMXKXKXMX",
"KXUXPXUXUXMXMXKXUXKXKXUXKXIXIXIXLXLXLXLXLXIXIXIXIXMXvXKXKXSXvXLXIXIXIXIXIXLXLXLXvXKXUXUXUXUXKXKXMXIXIXIXIXIXIXIXIXLXMXKXKXKXMXMX",
"vXvXUXUXMXIXLXKXUXUXKXKXKXIXIXIXIXIXLXLXvXLXvXMXKXKXUXKXUXUXKXSXvXLXLXvXMXMXLXLXIXIXIXKXKXKXUXUXKXIXIXIXIXIXIXIXIXIXIXKXKXMXMXMX",
"LXKXUXUXIXLXLXvXUXUXUXKXKXIXIXIXIXIXIXLXvXKXUXPXmXPXPXPXPXPXUXKXSXvXvXSXKXMXIXIXLXLXIXIXIXKXKXKXUXvXIXIXIXIXIXIXIXIXIXLXKXMXMXvX",
"vXKXPXUXKXIXLXMXKXKXKXKXKXLXIXIXIXIXIXIXIXUXmXmXBXmXPXUXPXUXUXKXKXSXMXKXKXIXIXIXLXLXLXvXvXLXKXKXPXUXLXIXIXIXIXIXIXIXLXvXvXLXLXLX",
"LXKXKXUXKXMXvXvXMXLXSXKXSXvXIXIXIXIXIXIXMXKXPXPXmXUXUXUXUXUXKXSXKXKXKXSXUXUXKXIXIXLXvXMXMXMXUXUXPXUXvXMXvXIXLXLXLXLXvXvXIXIXIXLX",
"IXIXIXMXKXMXLXvXvXvXIXIXIXvXLXLXIXIXIXIXKXKXMXKXUXKXUXUXUXMXLXvXSXMXKXKXKXKXKXIXIXIXMXKXUXUXUXPXPXUXUXUXMXIXvXIXLXIXvXIXIXIXIXLX",
"IXIXIXIXIXIXIXIXLXLXLXLXIXIXIXIXLXMXKXKXKXKXKXUXUXKXUXMXIXIXIXIXIXIXLXKXKXMXIXIXLXLXKXUXUXUXUXmXmXmXPXUXKXUXUXKXMXMXMXIXIXIXIXIX",
"IXIXIXIXLXIXIXIXIXLXIXLXIXIXIXIXIXMXKXUXKXKXKXUXUXUXLXIXIXIXIXIXIXIXIXIXvXLXLXIXIXvXUXUXUXPXPXBXBXBXPXUXKXKXKXKXvXMXMXMXIXIXIXLX",
"IXIXIXIXIXIXIXIXIXIXIXIXLXLXLXIXIXIXKXUXUXKXUXPXUXKXKXIXIXIXIXIXIXIXIXIXLXIXLXIXIXvXKXUXPXPXPXBXBXmXPXKXvXKXKXKXKXMXvXSXKXMXMXLX",
"JXLXIXLXIXIXIXIXIXIXIXIXIXLXLXvXMXKXKXUXUXUXPXmXPXUXKXMXIXIXIXIXIXIXIXIXLXIXIXIXIXMXUXUXPXPXPXBXBXmXKXMXvXIXLXIXvXvXIXMXKXUXKXMX",
"KXMXIXIXIXIXIXIXIXIXIXIXIXIXLXvXKXMXKXUXUXPXmXmXmXPXUXKXLXIXIXIXIXIXIXIXLXIXIXIXIXMXMXUXUXPXmXmXmXUXKXIXIXIXIXIXIXIXLXvXvXUXUXKX",
"KXKXMXIXLXIXIXIXIXIXIXIXIXLXIXLXMXMXKXUXPXmXmXmXmXmXUXKXMXIXIXIXIXIXIXIXLXLXIXIXIXvXMXUXPXAXmXAXAXKXMXMXIXLXIXIXIXIXIXIXLXKXKXKX",
"KXKXKXKXIXIXIXIXIXIXIXLXvXvXLXIXLXKXKXKXPXmXmXmXmXPXUXKXvXMXMXIXIXIXIXvXvXLXIXIXIXvXKXKXPXPXPXAXPXKXMXKXIXIXIXIXIXIXIXIXIXIXKXvX",
"KXKXKXKXMXIXIXIXIXLXIXMXvXMXvXLXIXKXUXUXPXmXmXPXUXKXKXMXKXMXMXLXIXIXvXvXvXLXLXIXLXMXKXUXUXmXUXUXKXMXLXMXIXIXIXIXIXIXIXIXIXIXKXKX",
"KXKXUXKXKXKXLXLXLXvXMXKXMXKXKXIXKXKXKXKXUXPXUXKXKXKXKXUXUXUXIXLXvXvXvXIXLXIXIXIXIXMXUXPXUXUXUXKXMXvXIXLXLXIXIXIXIXIXIXIXIXIXKXKX",
"PXNXPXUXUXKXLXvXLXLXKXMXKXUXUXKXKXKXvXKXKXKXKXvXIXIXIXUXUXUXKXvXMXvXLXLXLXIXIXIXMXKXUXUXUXKXKXMXvXIXLXIXIXLXIXIXIXIXIXIXIXIXUXUX",
"mXPXPXPXPXUXKXKXMXMXKXMXKXPXUXUXMXMXvXKXMXMXMXLXIXIXIXIXUXUXKXIXIXLXIXLXvXvXvXIXKXKXUXUXKXKXvXvXvXLXIXIXIXIXLXIXIXIXIXIXIXIXUXUX",
"mXmXPXUXPXPXUXSXKXLXKXKXUXUXUXKXKXvXKXvXMXIXLXIXIXIXIXIXKXKXIXIXIXIXIXIXLXvXKXKXKXKXMXKXUXKXvXLXIXIXIXIXIXIXIXIXIXIXIXIXIXIXUXUX",
"PXmXmXUXPXKXKXIXMXKXKXKXUXUXUXKXMXvXKXMXIXLXIXIXIXIXIXIXIXSXIXIXIXIXIXIXIXIXKXUXvXMXMXKXKXKXLXIXIXIXIXIXIXIXIXIXIXIXIXIXIXKXUXUX",
"UXmXmXPXUXKXvXLXvXMXvXIXMXKXvXvXvXvXLXIXIXIXIXIXIXIXIXIXIXKXSXIXIXIXIXIXIXIXIXKXKXMXMXvXUXvXvXIXIXIXIXIXIXIXIXIXLXLXLXIXIXKXUXKX",
"UXmXPXUXvXMXMXLXIXIXIXIXIXIXvXLXvXvXvXvXIXLXIXIXIXIXIXIXvXKXKXMXvXLXIXIXIXIXIXIXKXKXKXvXUXUXMXvXLXIXIXIXIXIXIXIXIXvXMXKXUXUXUXKX",
"KXUXKXKXLXvXvXIXIXIXIXIXIXIXLXvXvXvXvXvXLXLXLXIXLXLXIXLXvXKXKXMXMXIXIXIXIXIXIXIXvXKXIXMXKXUXUXKXvXLXIXIXIXIXIXIXIXKXUXPXUXUXPXUX",
"UXKXKXKXvXvXLXIXIXIXIXIXIXIXIXKXKXKXvXIXIXIXIXIXIXIXIXvXSXKXUXUXUXMXMXMXIXIXIXIXIXMXMXLXUXKXUXKXSXvXLXvXLXLXIXLXKXUXmXBXBXmXPXUX",
"UXKXKXKXSXvXLXLXIXIXIXIXIXIXLXKXUXUXUXKXKXIXIXIXIXLXIXvXSXKXUXUXUXUXKXKXMXvXvXIXIXMXKXUXUXUXKXMXLXLXLXIXvXvXvXKXUXPXVXVXDXVXBXUX",
"KXKXKXMXIXIXIXIXIXLXIXIXIXIXLXUXPXPXPXPXUXKXKXIXIXIXLXMXSXKXKXUXUXUXUXUXUXKXKXMXMXKXUXUXUXKXvXLXIXIXIXIXIXIXvXSXPXBXVXZXZXZXBXPX",
"vXKXKXvXIXIXIXIXIXIXIXLXIXLXvXUXPXUXKXPXmXmXPXIXIXIXvXSXKXSXKXKXKXPXPXAXUXUXUXUXPXUXUXKXKXvXLXIXIXIXIXIXIXIXIXSXUXBXVXZXFXDXBXPX",
"MXKXKXIXIXIXIXIXIXIXIXIXIXLXMXPXPXPXKXUXmXmXPXPXUXKXKXKXKXSXLXLXMXKXPXmXAXAXAXBXmXmXPXUXKXvXIXIXIXIXIXIXIXIXIXIXKXPXBXDXDXVXBXUX",
"KXKXMXIXIXIXIXIXIXIXIXIXIXLXSXPXmXmXmXUXKXPXmXmXPXPXPXUXKXSXvXLXIXIXSXUXPXAXBXBXBXBXUXUXKXvXIXIXIXIXIXIXIXIXIXIXMXUXmXBXBXBXAXUX",
"KXKXMXIXIXIXIXIXIXIXIXIXIXIXMXUXPXmXmXPXUXUXUXPXPXmXPXUXKXKXKXIXIXIXIXUXPXPXBXBXBXUXUXKXKXvXIXIXIXIXIXIXIXIXIXIXvXKXPXPXPXPXPXUX",
"vXMXMXLXIXIXIXIXIXIXIXIXIXIXUXUXUXPXmXPXPXKXKXIXUXUXPXUXKXKXKXIXIXIXIXUXUXPXmXPXmXUXUXMXKXvXIXIXIXIXIXIXIXIXIXIXIXvXUXPXUXUXUXKX",
"HXKXvXKXKXIXIXIXIXIXIXIXKXUXUXUXKXUXUXUXUXUXKXKXUXKXKXPXUXKXKXIXIXIXIXUXUXPXmXmXPXKXKXMXMXvXIXLXIXIXIXIXIXIXIXIXIXvXUXUXKXMXUXKX",
"HXUXUXUXUXUXKXIXIXvXIXUXPXPXKXIXIXvXMXKXUXUXPXUXUXPXKXUXPXKXKXvXIXvXMXUXUXUXPXKXKXvXMXvXIXIXIXLXLXLXIXIXIXIXIXIXIXvXUXKXKXKXUXKX",
"HXKXKXLXUXUXKXKXKXUXUXPXPXUXIXIXIXIXIXMXKXKXUXUXUXUXUXUXUXUXKXSXSXMXKXUXUXPXPXUXKXIXIXIXIXIXIXIXIXLXLXIXIXIXIXIXvXUXUXMXLXMXKXKX",
"IXIXIXLXMXvXKXKXUXUXUXPXPXKXIXIXIXIXIXIXMXKXUXUXUXUXUXKXKXKXKXSXSXKXKXUXPXPXUXKXSXIXIXIXIXIXIXIXIXIXvXLXIXIXIXIXSXKXMXLXLXIXIXIX",
"IXIXIXIXIXKXvXvXvXUXUXGXUXIXIXIXIXIXIXIXvXMXMXUXUXUXUXMXKXKXUXKXMXKXKXUXPXPXUXKXvXvXLXIXIXIXIXIXIXIXMXMXvXLXIXLXvXvXLXIXLXIXIXIX"
};
