/* XPM */
static char * grave_xpm[] = {
"64 64 16 1",
" 	c #FFFFFF",
".	c #000000",
"+	c #BDBDBD",
"@	c #689F38",
"#	c #33691E",
"$	c #9E9E9E",
"%	c #558B2F",
"&	c #757575",
"*	c #E0AC69",
"=	c #FFDBAC",
"-	c #FFE39F",
";	c #C68642",
">	c #FFAD60",
",	c #FFCD94",
"'	c #8D5524",
")	c #FFE0BD",
"                                                                ",
"                                                                ",
"                                                                ",
"                                                                ",
"                                                                ",
"                                                                ",
"                                                                ",
"                                                                ",
"                                                                ",
"                                                                ",
"                            ..........                          ",
"                            ..........                          ",
"                        ....++@@++++##....                      ",
"                        ....++@@++++##....                      ",
"                      ..++++++@@$$########..                    ",
"                      ..++++++@@$$########..                    ",
"                    ..++++$$$$@@%%$$$$%%$$&&..                  ",
"                    ..++++$$$$@@%%$$$$%%$$&&..                  ",
"                    ..++$$$$$$$$@@$$$$%%$$&&..                  ",
"                    ..++$$$$$$$$@@$$$$%%$$&&..                  ",
"                  ..++++$$$$$$$$@@%%%%$$@@$$&&..                ",
"                  ..++++$$$$$$$$@@%%%%$$@@$$&&..                ",
"                  ..++....$$$$..@@%%$$%%..$$&&..                ",
"                  ..++....$$$$..@@%%$$%%..$$&&..                ",
"                  ..++..$$..$$$$..%%$$..@@%%&&..                ",
"                  ..++..$$..$$$$..%%$$..@@%%&&..                ",
"                  ..++....$$$$$$..$$$$....@@&&..                ",
"                  ..++....$$$$$$..$$$$....@@&&..                ",
"                  ..++..$$..$$......$$..$$@@&&..                ",
"                  ..++..$$..$$......$$..$$@@&&..                ",
"                  ..++$$$$$$$$$$$$$$$$$$$$$$&&..                ",
"                  ..++$$$$$$$$$$$$$$$$$$$$$$&&..                ",
"                  ..++$$$$$$$$$$$$$$$$$$$$$$&&..                ",
"                  ..++$$$$$$$$$$$$$$$$$$$$$$&&..                ",
"                  ..++$$$$$$$$$$$$$$$$$$$$..&&..                ",
"                  ..++$$$$$$$$$$$$$$$$$$$$..&&..                ",
"                  ..++......$$$$$$$$$$$$..**......              ",
"                  ..++......$$$$$$$$$$$$..**......              ",
"          ....    ....==----..$$$$......;;****;;;;....          ",
"          ....    ....==----..$$$$......;;****;;;;....          ",
"      ....;;>>......,,,,==----....'';;;;;;==****;;;;;;..        ",
"      ....;;>>......,,,,==----....'';;;;;;==****;;;;;;..        ",
"      ..;;>>>>,,,,,,,,))))==--))))'';;;;======**======>>..      ",
"      ..;;>>>>,,,,,,,,))))==--))))'';;;;======**======>>..      ",
"    ..;;;;>>>>>>,,))))======--''))'''';;;;****==========..      ",
"    ..;;;;>>>>>>,,))))======--''))'''';;;;****==========..      ",
"    ......................................................      ",
"    ......................................................      ",
"                                                                ",
"                                                                ",
"                                                                ",
"                                                                ",
"                                                                ",
"                                                                ",
"                                                                ",
"                                                                ",
"                                                                ",
"                                                                ",
"                                                                ",
"                                                                ",
"                                                                ",
"                                                                ",
"                                                                ",
"                                                                "};
