/* XPM */
static char * grave_xpm[] = {
"64 64 17 1",
" 	c None",
".	c #010101",
"+	c #FFE0BD",
"@	c #FFE39F",
"#	c #FFDBAC",
"$	c #FFCD94",
"%	c #BDBDBD",
"&	c #FFAD60",
"*	c #E0AC69",
"=	c #9E9E9E",
"-	c #C68642",
";	c #689F38",
">	c #757575",
",	c #558B2F",
"'	c #8D5524",
")	c #33691E",
"!	c #000000",
"                                                                ",
"                                                                ",
"                                                                ",
"                                                                ",
"                                                                ",
"                                                                ",
"                                                                ",
"                                                                ",
"                                                                ",
"                                                                ",
"                            !!!!!!!!!!                          ",
"                            !!!!!!!!!!                          ",
"                        !!!!%%;;%%%%))!!!!                      ",
"                        !!!!%%;;%%%%))!!!!                      ",
"                      !!%%%%%%;;==))))))))!!                    ",
"                      !!%%%%%%;;==))))))))!!                    ",
"                    !!%%%%====;;,,====,,==>>!!                  ",
"                    !!%%%%====;;,,====,,==>>!!                  ",
"                    !!%%========;;====,,==>>!!                  ",
"                    !!%%========;;====,,==>>!!                  ",
"                  !!%%%%========;;,,,,==;;==>>!!                ",
"                  !!%%%%========;;,,,,==;;==>>!!                ",
"                  !!%%!!!!====!!;;,,==,,!!==>>!!                ",
"                  !!%%!!!!====!!;;,,==,,!!==>>!!                ",
"                  !!%%!!==!!====!!,,==!!;;,,>>!!                ",
"                  !!%%!!==!!====!!,,==!!;;,,>>!!                ",
"                  !!%%!!!!======!!====!!!!;;>>!!                ",
"                  !!%%!!!!======!!====!!!!;;>>!!                ",
"                  !!%%!!==!!==!!!!!!==!!==;;>>!!                ",
"                  !!%%!!==!!==!!!!!!==!!==;;>>!!                ",
"                  !!%%======================>>!!                ",
"                  !!%%======================>>!!                ",
"                  !!%%======================>>!!                ",
"                  !!%%======================>>!!                ",
"                  !!%%====================!!>>!!                ",
"                  !!%%====================!!>>!!                ",
"                  !!%%!!!!!!============!!**!!!!!!              ",
"                  !!%%!!!!!!============!!**!!!!!!              ",
"          !!!!    !!!!##@@@@!!====!!!!!!--****----!!!!          ",
"          !!!!    !!!!##@@@@!!====!!!!!!--****----!!!!          ",
"      !!!!--&&!!!!!!$$$$##@@@@!!!!''------##****------!!        ",
"      !!!!--&&!!!!!!$$$$##@@@@!!!!''------##****------!!        ",
"      !!--&&&&$$$$$$$$++++##@@++++''----######**######&&!!      ",
"      !!--&&&&$$$$$$$$++++##@@++++''----######**######&&!!      ",
"    !!----&&&&&&$$++++######@@''++''''----****##########!!      ",
"    !!----&&&&&&$$++++######@@''++''''----****##########!!      ",
"    !!!!!!!!!!!!!!!!!!!!!!!!!!!!!!!!!!!!!!!!!!!!!!!!!!!!!!      ",
"    !!!!!!!!!!!!!!!!!!!!!!!!!!!!!!!!!!!!!!!!!!!!!!!!!!!!!!      ",
"                                                                ",
"                                                                ",
"                                                                ",
"                                                                ",
"                                                                ",
"                                                                ",
"                                                                ",
"                                                                ",
"                                                                ",
"                                                                ",
"                                                                ",
"                                                                ",
"                                                                ",
"                                                                ",
"                                                                ",
"                                                                "};
