/* XPM */
static char * Guard_Original_xpm[] = {
"64 64 539 2",
"  	c None",
". 	c #A8A8A8",
"+ 	c #A6A6A6",
"@ 	c #8C8C8C",
"# 	c #7B7B7B",
"$ 	c #545454",
"% 	c #393939",
"& 	c #A7A7A7",
"* 	c #6A6A6A",
"= 	c #707070",
"- 	c #565656",
"; 	c #494949",
"> 	c #2F2F2F",
", 	c #2C2C2C",
"' 	c #8E8E8E",
") 	c #818181",
"! 	c #737373",
"~ 	c #717171",
"{ 	c #575757",
"] 	c #555555",
"^ 	c #525252",
"/ 	c #444444",
"( 	c #BBBBBB",
"_ 	c #CBCBCB",
": 	c #BCBCBC",
"< 	c #A6A5A5",
"[ 	c #8B8A89",
"} 	c #6F6F6E",
"| 	c #555454",
"1 	c #515151",
"2 	c #2D2D2D",
"3 	c #787878",
"4 	c #343333",
"5 	c #55442F",
"6 	c #6F4E44",
"7 	c #8D5F3C",
"8 	c #895B36",
"9 	c #6B493D",
"0 	c #4D3B1F",
"a 	c #242322",
"b 	c #202020",
"c 	c #797979",
"d 	c #4A4A4A",
"e 	c #24160E",
"f 	c #A5664D",
"g 	c #4932F2",
"h 	c #F4AA82",
"i 	c #BA7755",
"j 	c #422CF1",
"k 	c #221309",
"l 	c #20201F",
"m 	c #121212",
"n 	c #262322",
"o 	c #764D29",
"p 	c #EC925D",
"q 	c #F7B79C",
"r 	c #C17D4F",
"s 	c #AF6E46",
"t 	c #252220",
"u 	c #222120",
"v 	c #513C1C",
"w 	c #CF8051",
"x 	c #F9AD7E",
"y 	c #EC935C",
"z 	c #EC925C",
"A 	c #4B3919",
"B 	c #9D6139",
"C 	c #B67246",
"D 	c #624625",
"E 	c #9B6038",
"F 	c #1B0E04",
"G 	c #9B5F38",
"H 	c #E38A57",
"I 	c #F7AC7C",
"J 	c #543C1C",
"K 	c #0C0702",
"L 	c #030303",
"M 	c #251913",
"N 	c #714A26",
"O 	c #A1663E",
"P 	c #A56840",
"Q 	c #9F633B",
"R 	c #221812",
"S 	c #232323",
"T 	c #020202",
"U 	c #B97347",
"V 	c #F8A16F",
"W 	c #6B6563",
"X 	c #313131",
"Y 	c #F1F1F1",
"Z 	c #1E1611",
"` 	c #704A26",
" .	c #D38250",
"..	c #332016",
"+.	c #757575",
"@.	c #C7C7C7",
"#.	c #362B26",
"$.	c #915C34",
"%.	c #925D35",
"&.	c #FCA36F",
"*.	c #F99B60",
"=.	c #F9A26F",
"-.	c #716763",
";.	c #3E3D3D",
">.	c #7A7978",
",.	c #252525",
"'.	c #1A0D04",
").	c #271509",
"!.	c #2A2624",
"~.	c #7C7876",
"{.	c #B37046",
"].	c #CF7F4F",
"^.	c #D08050",
"/.	c #CD7F4F",
"(.	c #AB6A41",
"_.	c #FBA36F",
":.	c #EF945D",
"<.	c #D28251",
"[.	c #F99B5F",
"}.	c #DA8856",
"|.	c #696361",
"1.	c #7D5134",
"2.	c #312A27",
"3.	c #554B47",
"4.	c #82512E",
"5.	c #4A341B",
"6.	c #81512D",
"7.	c #463229",
"8.	c #B57147",
"9.	c #EE935B",
"0.	c #EF945C",
"a.	c #ED925B",
"b.	c #CA7D4D",
"c.	c #A1633A",
"d.	c #DA8753",
"e.	c #F7995E",
"f.	c #57453E",
"g.	c #646160",
"h.	c #825230",
"i.	c #F8995E",
"j.	c #F89A5E",
"k.	c #F99A5F",
"l.	c #CB7E4D",
"m.	c #E58B57",
"n.	c #A86840",
"o.	c #80502C",
"p.	c #634322",
"q.	c #F4975D",
"r.	c #51423C",
"s.	c #4A3E39",
"t.	c #F6995E",
"u.	c #F89A5F",
"v.	c #81532E",
"w.	c #A3653B",
"x.	c #A3643B",
"y.	c #925D34",
"z.	c #7E512C",
"A.	c #C3794A",
"B.	c #C77B4C",
"C.	c #D18150",
"D.	c #EE935C",
"E.	c #CF7F50",
"F.	c #754D29",
"G.	c #3E2F16",
"H.	c #3F2F16",
"I.	c #A0643C",
"J.	c #B67145",
"K.	c #CB7D4E",
"L.	c #3F2D26",
"M.	c #504039",
"N.	c #CA7D4E",
"O.	c #573B21",
"P.	c #F6985E",
"Q.	c #F6985D",
"R.	c #F5985D",
"S.	c #604221",
"T.	c #754C29",
"U.	c #AC6A41",
"V.	c #D28252",
"W.	c #A3653C",
"X.	c #764D28",
"Y.	c #7E4F2C",
"Z.	c #382C14",
"`.	c #CE7F4F",
" +	c #423A38",
".+	c #433B38",
"++	c #CB7D4F",
"@+	c #8D5B32",
"#+	c #945E35",
"$+	c #47331A",
"%+	c #423119",
"&+	c #332610",
"*+	c #915D35",
"=+	c #E68B57",
"-+	c #734B27",
";+	c #F0945D",
">+	c #F7A06D",
",+	c #B97647",
"'+	c #443118",
")+	c #5E4121",
"!+	c #774D29",
"~+	c #B47044",
"{+	c #CF8050",
"]+	c #CA7C4D",
"^+	c #341E11",
"/+	c #222121",
"(+	c #483C38",
"_+	c #AD6C42",
":+	c #754D2A",
"<+	c #4E371C",
"[+	c #7C4E2B",
"}+	c #423018",
"|+	c #30240F",
"1+	c #8E5B33",
"2+	c #A76840",
"3+	c #E38956",
"4+	c #AA6941",
"5+	c #EF935C",
"6+	c #FAA26F",
"7+	c #B06E45",
"8+	c #85532F",
"9+	c #413017",
"0+	c #5F4221",
"a+	c #A1643C",
"b+	c #CD7E4F",
"c+	c #905C33",
"d+	c #C87B4D",
"e+	c #241309",
"f+	c #25140C",
"g+	c #2D2521",
"h+	c #413A37",
"i+	c #AD6C41",
"j+	c #7F502C",
"k+	c #2E230E",
"l+	c #3A2D14",
"m+	c #6A4723",
"n+	c #453218",
"o+	c #86532F",
"p+	c #AD6B42",
"q+	c #CC7E4E",
"r+	c #A6683F",
"s+	c #FAA26E",
"t+	c #F6A06D",
"u+	c #CC7E4F",
"v+	c #995E37",
"w+	c #3D2E15",
"x+	c #4C391A",
"y+	c #9D623B",
"z+	c #B16E43",
"A+	c #895932",
"B+	c #A16947",
"C+	c #382922",
"D+	c #C77C50",
"E+	c #25150C",
"F+	c #070606",
"G+	c #201208",
"H+	c #483718",
"I+	c #29200C",
"J+	c #614222",
"K+	c #E18855",
"L+	c #E48A56",
"M+	c #945E36",
"N+	c #E9905A",
"O+	c #6A4826",
"P+	c #604324",
"Q+	c #2D190B",
"R+	c #2C180B",
"S+	c #282320",
"T+	c #2C2522",
"U+	c #3F3A38",
"V+	c #474543",
"W+	c #D5D4D4",
"X+	c #B1B1B1",
"Y+	c #979594",
"Z+	c #3C3C3C",
"`+	c #2B2B2B",
" @	c #21201F",
".@	c #030302",
"+@	c #4A3919",
"@@	c #744C28",
"#@	c #965F37",
"$@	c #BA7747",
"%@	c #6F4A26",
"&@	c #624322",
"*@	c #B36F43",
"=@	c #ED935D",
"-@	c #F6AB7B",
";@	c #E18856",
">@	c #6A4727",
",@	c #EB915A",
"'@	c #EA9059",
")@	c #87542F",
"!@	c #2E2D2C",
"~@	c #3B3532",
"{@	c #7F7E7D",
"]@	c #7C7B7B",
"^@	c #524E4D",
"/@	c #2C2624",
"(@	c #2E2522",
"_@	c #2A2421",
":@	c #090604",
"<@	c #0A0501",
"[@	c #A5663F",
"}@	c #BB7748",
"|@	c #B47145",
"1@	c #F8AC7C",
"2@	c #99633C",
"3@	c #3D2E27",
"4@	c #4E4C4B",
"5@	c #6F4826",
"6@	c #B57044",
"7@	c #E99059",
"8@	c #B36F44",
"9@	c #52391F",
"0@	c #B47345",
"a@	c #805231",
"b@	c #2A1D15",
"c@	c #AF6D43",
"d@	c #B26E43",
"e@	c #9E633B",
"f@	c #4E3A1A",
"g@	c #593E1F",
"h@	c #413118",
"i@	c #2F230E",
"j@	c #905C34",
"k@	c #84522E",
"l@	c #7C512C",
"m@	c #EB925B",
"n@	c #CB7E4F",
"o@	c #534D4B",
"p@	c #A6A2A1",
"q@	c #F37928",
"r@	c #6E4621",
"s@	c #86542F",
"t@	c #B06E42",
"u@	c #52391E",
"v@	c #7D4E2B",
"w@	c #251308",
"x@	c #B26F43",
"y@	c #453219",
"z@	c #403018",
"A@	c #3E2D19",
"B@	c #553D1D",
"C@	c #533D1D",
"D@	c #9C623A",
"E@	c #7A4F2A",
"F@	c #774D2A",
"G@	c #2C2927",
"H@	c #727171",
"I@	c #AAA3A0",
"J@	c #C6611B",
"K@	c #67431F",
"L@	c #634323",
"M@	c #8C5A33",
"N@	c #7E4F2B",
"O@	c #211106",
"P@	c #9C6038",
"Q@	c #6B4824",
"R@	c #423118",
"S@	c #F6AB7C",
"T@	c #EA915B",
"U@	c #2E2725",
"V@	c #994F1B",
"W@	c #9F4D01",
"X@	c #C55D02",
"Y@	c #493218",
"Z@	c #32250F",
"`@	c #5A3E1F",
" #	c #1D0F05",
".#	c #9F643C",
"+#	c #6D4825",
"@#	c #543B22",
"##	c #32241F",
"$#	c #994B02",
"%#	c #9B4C02",
"&#	c #463218",
"*#	c #5A3F1F",
"=#	c #413018",
"-#	c #2B220D",
";#	c #1B0E05",
">#	c #9A5F37",
",#	c #6C4824",
"'#	c #503B1B",
")#	c #473217",
"!#	c #604120",
"~#	c #47341A",
"{#	c #5C4020",
"]#	c #3A2D15",
"^#	c #382B14",
"/#	c #463219",
"(#	c #433118",
"_#	c #3B2D15",
":#	c #2A210D",
"<#	c #BB7747",
"[#	c #A0633B",
"}#	c #83522D",
"|#	c #82512D",
"1#	c #5F4121",
"2#	c #BF7A49",
"3#	c #F9A26E",
"4#	c #734B28",
"5#	c #3D2E16",
"6#	c #A2653D",
"7#	c #604222",
"8#	c #2B210D",
"9#	c #F1955D",
"0#	c #A6673F",
"a#	c #483319",
"b#	c #D28151",
"c#	c #A1653D",
"d#	c #9B613A",
"e#	c #31240F",
"f#	c #BE7949",
"g#	c #FBA470",
"h#	c #A96840",
"i#	c #3C2D15",
"j#	c #A4673E",
"k#	c #F8A16D",
"l#	c #D08051",
"m#	c #EF9661",
"n#	c #FBC09F",
"o#	c #D28354",
"p#	c #403016",
"q#	c #8E5C34",
"r#	c #F8A16E",
"s#	c #EE945E",
"t#	c #FBC19F",
"u#	c #FAAF80",
"v#	c #F7A16E",
"w#	c #AB6B43",
"x#	c #392D14",
"y#	c #E98E5A",
"z#	c #A66840",
"A#	c #C97D4C",
"B#	c #FAAE7F",
"C#	c #AD6C43",
"D#	c #F39E6B",
"E#	c #82522E",
"F#	c #433119",
"G#	c #3C2E15",
"H#	c #594222",
"I#	c #F7AC7D",
"J#	c #FAB58D",
"K#	c #C47A4B",
"L#	c #583E1E",
"M#	c #EC925B",
"N#	c #523C1C",
"O#	c #BD794A",
"P#	c #AE6E45",
"Q#	c #976038",
"R#	c #83522E",
"S#	c #553C1C",
"T#	c #ED935B",
"U#	c #8F5B34",
"V#	c #E48A57",
"W#	c #563D1D",
"X#	c #BA7748",
"Y#	c #573D1D",
"Z#	c #392C14",
"`#	c #4D3A1A",
" $	c #895831",
".$	c #29210C",
"+$	c #120803",
"@$	c #1F101D",
"#$	c #180B0B",
"$$	c #130904",
"%$	c #0A0502",
"&$	c #020200",
"*$	c #070401",
"=$	c #160B04",
"-$	c #1B0D06",
";$	c #150A04",
">$	c #0E0703",
",$	c #050301",
"'$	c #00001B",
")$	c #0000A1",
"!$	c #01014E",
"~$	c #1F1F22",
"{$	c #1F1F1F",
"]$	c #010101",
"^$	c #010102",
"/$	c #1E1E2B",
"($	c #1F1F25",
"_$	c #1F1F20",
":$	c #000023",
"<$	c #00007D",
"[$	c #010150",
"}$	c #1F1F23",
"|$	c #00001A",
"1$	c #0101A1",
"2$	c #030371",
"3$	c #1F1F27",
"4$	c #0000A4",
"5$	c #0000B7",
"6$	c #010186",
"7$	c #010141",
"8$	c #010106",
"9$	c #000006",
"0$	c #000049",
"a$	c #0000A3",
"b$	c #03034F",
"c$	c #000015",
"d$	c #000088",
"e$	c #010172",
"f$	c #030308",
"g$	c #000000",
"h$	c #00001D",
"i$	c #010151",
"j$	c #1E1E21",
"k$	c #000029",
"l$	c #0000A5",
"m$	c #010155",
"n$	c #1F1F26",
"o$	c #1F1F21",
"p$	c #000074",
"q$	c #010119",
"r$	c #00001F",
"s$	c #0000CF",
"t$	c #010164",
"u$	c #03033F",
"v$	c #000005",
"w$	c #000045",
"x$	c #0000A6",
"y$	c #0000CE",
"z$	c #000071",
"A$	c #000012",
"B$	c #000009",
"C$	c #010157",
"D$	c #010188",
"E$	c #030341",
"F$	c #1E1E22",
"G$	c #00000C",
"H$	c #010160",
"I$	c #010154",
"J$	c #010165",
"K$	c #01013F",
"L$	c #1F1F28",
"M$	c #1F1F24",
"N$	c #1F1F2B",
"                                                                                                                                ",
"                                                                                                                                ",
"                                                                                                                                ",
"                                                                                                                                ",
"                                                                                                                                ",
"                                                                                                                                ",
"                                                                                                                                ",
"                                                                                                                                ",
"                                                                                                                                ",
"                                                                                                                                ",
"                                                                                                                                ",
"                                                                                                                                ",
"                                                                                                                                ",
"                                                                                                                                ",
"                                                                                                                                ",
"                                                                                                                                ",
"                                                          . + @ # $ %                                                           ",
"                                                        & + * = - ; > ,                                                         ",
"                                                        ' ) ! ~ { ] ^ >                                                         ",
"                                                      / ( _ : < [ } | 1 2                                                       ",
"                                                      3 4 5 6 7 8 9 0 a b                                                       ",
"                                                    c d e f g h i j f k l b                                                     ",
"                                                    m n o p q r s q p o t b                                                     ",
"                                                      u v w x y z x w v u                                                       ",
"                                                        A B C D D C E A                                                         ",
"                                                        F G H I I H J K                                                         ",
"                                                      L 2 M N O P Q R S T                                                       ",
"                                                U V W X Y 3 Z `  ...+.@.#.$.%.%.                                                ",
"                                              &.*.=.-.;.>.@.,.'.).!.@.~.{.].^./.(.                                              ",
"                                            _.:.<.[.}.|.1.2.3.4.5.6.7.8.9.0.a.b.].(.                                            ",
"                                          _.:.^.c.d.e.f.g.h.e.i.(.i.e.j.k.j.l.].m.^.                                            ",
"                                        _.:.^.n.o.p.d.q.r.s.t.u.v.e.w.x.y.z.A.z.B.m.C.                                          ",
"                                      _.D.E.n.F.G.H.I.J.K.L.M.N.O.P.x.Q.R.S.o.T.n.^.m.U.                                        ",
"                                      V.W.X.Y.G.Z.  o I.`.K.L. +.+++@+#+%.$+%+&+*+`.=+].-+                                      ",
"                                    ;+_.>+,+'+      )+!+~+{+]+^+/+(+_+:+<+[+}+|+1+2+J.3+4+                                      ",
"                                    5+6+7+8+9+        0+a+b+c+d+e+f+g+h+i+j+k+l+m+n+o+p+q+N                                     ",
"                                    r+s+t+u+v+w+      x+y+z+A+B+C+D+E+F+G+H+I+  k+J+K+L+`.N                                     ",
"                                    M+N+O+p.P+Q+    R+S+T+U+V+W+X+Y+Z+`+`+ @.@    +@@@#@$@%@                                    ",
"                                      &@*@=@-@;@>@,@'@)@%+!@~@{@]@^@/@(@_@:@<@    x+[@q+}@                                      ",
"                                      o |@1@2@3@4@5@6@7@8@9@0@a@b@c@B d@e@f@g@h@  i@j+j@k@                                      ",
"                                        l@m@n@o@p@q@r@s@K.t@u@v@w@x@`.].8@o.y@z@  A@B@C@D@                                      ",
"                                          E@F@G@H@I@J@K@L@1+M@N@O@P@].{+~+j@Q@R@  S@T@n.v                                       ",
"                                                U@V@W@X@Y@Z@Z@`@ #P@].{+~+.#+#R@  @#c.`.                                        ",
"                                                  ##$#%#&#*#=#-#;#>#q+b+x@e@,#h@'#K.].                                          ",
"                                                    )#!#~#)+{#]#^#9+/#/#(#H._#:#                                                ",
"                                                    <#[#n.G o.{#w+v@}#|#j+1#*#:#                                                ",
"                                                  2#D.3#a.(.E 4#5#!+3+`.6#y+7#8#                                                ",
"                                                  5+9#_.5+`.0#9+  a#3+b#`.c#d#e#                                                ",
"                                                f#0.g#:.{+h#o.i#  x+j#k#l#I.*#-#                                                ",
"                                                2#m#n#o#)@j+H.Z.  p#q#r#V.I.+#=#                                                ",
"                                              f#s#t#u#v#w#*#x#    j+,+y#=.z#|#|+                                                ",
"                                              A#:.B#z#C#D#E#F#    G#H#I#J#v#K#L#:#                                              ",
"                                              l.;+_.M#s@9@F#        N#O#P#Q#R#S#:#                                              ",
"                                              T#s+D.{+0#v@G#      w+U#V#>+/.e@W#:#                                              ",
"                                              8+X#B 6.Y#i@Z.      Z#`#$.n. $,#=#.$                                              ",
"                                              +$@$#$$$%$&$          *$=$-$;$>$,$                                                ",
"                                              '$)$!$~${$]$          ^$/$($_${$]$                                                ",
"                                              :$<$[$}${$]$          |$1$2$3$_$]$                                                ",
"                                            '$4$5$6$7$8$            9$0$a$b$~$]$                                                ",
"                                            c$d$e$/$f$g$              h$4$i$j$]$                                                ",
"                                            k$l$m$n$o$                h$l$p$q$                                                  ",
"                                          r$l$s$)$t$u$v$            v$w$x$y$z$A$                                                ",
"                                        B$C$6$D$i$E$F$]$            G$H$I$1$J$K$v$                                              ",
"                                        ^$}$L$3$~$o$b                 M$~$N$M$o$]$                                              "};
