/* XPM */
static char * marine_left_1_xpm[] = {
"64 64 74 1",
" 	c #FFFFFF",
".	c #A78F77",
"+	c #AF977F",
"@	c #9F876F",
"#	c #937B63",
"$	c #8B735B",
"%	c #B79F87",
"&	c #9B7F6B",
"*	c #BFA78F",
"=	c #373737",
"-	c #6B6B6B",
";	c #775F4B",
">	c #5B5B5B",
",	c #3B3B3B",
"'	c #6F5743",
")	c #574333",
"!	c #474747",
"~	c #43331B",
"{	c #5F4B37",
"]	c #3F2F17",
"^	c #67533F",
"/	c #272727",
"(	c #7B634F",
"_	c #575757",
":	c #636363",
"<	c #434343",
"[	c #332B13",
"}	c #4F4F4F",
"|	c #3F832F",
"1	c #5BBF4F",
"2	c #5FCF57",
"3	c #67DF5F",
"4	c #2F2F2F",
"5	c #232323",
"6	c #27531B",
"7	c #4B9F3F",
"8	c #6FEF67",
"9	c #131313",
"0	c #000000",
"a	c #53AF47",
"b	c #439337",
"c	c #37732B",
"d	c #13230B",
"e	c #2F6323",
"f	c #2B230F",
"g	c #4F3B23",
"h	c #1F4317",
"i	c #1B1B1B",
"j	c #DF9363",
"k	c #CB7F4F",
"l	c #BF7B4B",
"m	c #D78B5B",
"n	c #AB6F43",
"o	c #8F5F37",
"p	c #17330F",
"q	c #7F532F",
"r	c #875733",
"s	c #B37347",
"t	c #E79B6B",
"u	c #7B7F63",
"v	c #1F170B",
"w	c #6B4727",
"x	c #CF8353",
"y	c #5F4323",
"z	c #3F472B",
"A	c #6F7357",
"B	c #676B4F",
"C	c #474F33",
"D	c #373F27",
"E	c #5B6347",
"F	c #0B0B0B",
"G	c #4B371B",
"H	c #9B633B",
"I	c #53573B",
"                                                                ",
"                                                                ",
"                                                                ",
"                                                                ",
"                                                                ",
"                                                                ",
"                                                                ",
"                                                                ",
"                                                                ",
"                         .++.@#                                 ",
"                         $+%%%+@                                ",
"                        &****%%+@                               ",
"                       =@+%****%+@                              ",
"                       -=@@%****+&;                             ",
"                       >,@#+%%%+$')                             ",
"                      !!$@$''))~~{]                             ",
"                      $;+&^')))~/~'                             ",
"                     $++&(^))_>:_,                              ",
"                  </ '${~)[}}|1231|                             ",
"                 /45 {{//~}67228882|                            ",
"                 900    )}67a128882bc                           ",
"                 900     d1b7128881bce                          ",
"                <900    6|7c7a1232abc6                          ",
"               <5900    ebbe6=[~]ff~ghc                         ",
"              >}/4/i    e||6dcjjklmjndb                         ",
"              !!=l=4no  6|e6pljjlmjkqd|                         ",
"              //rsjsmo  4heb@@*%%jmogp6                         ",
"              i/ggronos njtjjju.%%+qv6p                         ",
"             5/=/~fggwnkmmmmxsnu@++ufhd                         ",
"             544if~~qy~~gywwwwqqzABC=6d                         ",
"             i/49999   g~~~~]f]fyD5ffE                          ",
"             94499F9  nogvCE~[vv~45f5/                          ",
"             i449i99 nnoy/BDdd5dd5d4DEh                         ",
"              54Fii9onoqg~D4f44/f/4phce                         ",
"              //99i~ynqy~whhff4ffffdhcc6                        ",
"              9iG9ig~rgo  hdpppppddphhhe                        ",
"              9i]9i~gn    hphhec6hpphc6                         ",
"               99i~F      hhecc|c66h66p                         ",
"               999        eee|qc|h6phh                          ",
"                          hcc|q|c6h64                           ",
"                          hb||Hb||pe5                           ",
"                          ec|b|b|e|hc5                          ",
"                          eb|ce666hchd                          ",
"                          6|bcppppphpp                          ",
"                          ee|b7epphppe                          ",
"                           |c||66ee6ddd                         ",
"                           c||eee66pdpd                         ",
"                           ue6e|c|6pdpp                         ",
"                           CEBuuuIzdphIIB                       ",
"                           DBBBBICz55CI.uu                      ",
"                           EIC4IuECD4CuuuuI                     ",
"                            4CICIEEz4zIBuuBI                    ",
"                            CzIuuAEC4DDIIBBz                    ",
"                             zBuuEIz zzDCIBBE                   ",
"                             CIIICCz  CzDCIBu                   ",
"                              zCCDz     zDIBuIC                 ",
"                              zCzDz      CuuBBBI                ",
"                              IICDz     uzCIB.uB!               ",
"                             .u.uuBI   uu##uBu!,                ",
"                              BBBIzz  IBBBBBI!,                 ",
"                           u%...uBBBz IEEI!!!                   ",
"                         u....uuBBI== !!!!!                     ",
"                         uuuBBBB}}==                            ",
"                         =!}}!<==                               "};
