/* XPM */
static char * marine_left_2_xpm[] = {
"64 64 76 1",
" 	c #FFFFFF",
".	c #9F876F",
"+	c #AF977F",
"@	c #9B7F6B",
"#	c #937B63",
"$	c #7B634F",
"%	c #BFA78F",
"&	c #474747",
"*	c #2F2F2F",
"=	c #4F4F4F",
"-	c #636363",
";	c #B79F87",
">	c #836B57",
",	c #3B3B3B",
"'	c #777777",
")	c #574333",
"!	c #8B735B",
"~	c #6F5743",
"{	c #533F2F",
"]	c #3F472B",
"^	c #775F4B",
"/	c #A78F77",
"(	c #272727",
"_	c #67533F",
":	c #9F8363",
"<	c #5B5B5B",
"[	c #434343",
"}	c #43331B",
"|	c #4F3B23",
"1	c #439337",
"2	c #53AF47",
"3	c #5FCF57",
"4	c #5BBF4F",
"5	c #4B9F3F",
"6	c #3F832F",
"7	c #1B1B1B",
"8	c #67DF5F",
"9	c #373737",
"0	c #37732B",
"a	c #131313",
"b	c #6FEF67",
"c	c #27531B",
"d	c #1F4317",
"e	c #2F6323",
"f	c #17330F",
"g	c #13230B",
"h	c #232323",
"i	c #A36B3F",
"j	c #B37347",
"k	c #AB6F43",
"l	c #9B633B",
"m	c #8F5F37",
"n	c #E79B6B",
"o	c #5F4323",
"p	c #BF7B4B",
"q	c #7F532F",
"r	c #CB7F4F",
"s	c #4B371B",
"t	c #774F2B",
"u	c #6B4727",
"v	c #332B13",
"w	c #3F2F17",
"x	c #875733",
"y	c #DF9363",
"z	c #7B7F63",
"A	c #CF8353",
"B	c #5B6347",
"C	c #2B230F",
"D	c #676B4F",
"E	c #474F33",
"F	c #1F170B",
"G	c #373F27",
"H	c #6F7357",
"I	c #2F371F",
"J	c #232B0F",
"K	c #53573B",
"                                                                ",
"                                                                ",
"                                                                ",
"                                                                ",
"                                                                ",
"                                                                ",
"                                                                ",
"                                                                ",
"                                                                ",
"                                                                ",
"                                                                ",
"                        .++.@#                                  ",
"                        $.%%%+.                                 ",
"                       .%%%%%%++                                ",
"                      &*.%+%%%%+.                               ",
"                      =-*+#%%%;%.>                              ",
"                      ,'*+>%%%%#>)                              ",
"                     =,=!+!)$~{{)]                              ",
"                     ;^/+>$({{)(]_                              ",
"                    #::#__)*,=<<[                               ",
"                    >__}}|,-123456                              ",
"                     (}(7[[14388456                             ",
"               ((       9[0243388450                            ",
"              (aa(      [111543b82560                           ",
"              (7a(      c10152483251c                           ",
"              (7a(     de0c015555166ce                          ",
"              77a(     cecdfgffggddfge                          ",
"              aaa(     ccc*hijklmnjogd                          ",
"             a(a9=p    ddd*qijjrjrlogf                          ",
"             as}ltpj    dd*q;%%rjmuvcf                          ",
"             awoxmimr ipryyym/%%%z[vcf                          ",
"             a}}souumrrrArrjjxzzzzBded                          ",
"             ah}}}}CC}usuuuutx*DDE]ef                           ",
"             ah(7a   ts}}wCCCC*]**[#.Ez                         ",
"              h*aa   osCFwwG(C(((CCBBHE                         ",
"              h7hhi mu}CFGC(hCCCChCGBDD                         ",
"              hah*h}iuCs Ew((hC(h(CgG00f                        ",
"              h7h*hsxs    G(hCCCC**gg0ed                        ",
"              hhohhho     c**fffgdedec6e                        ",
"              ohohss       ,,fffc666c0cg                        ",
"               hhso        cddfdde060ddf                        ",
"                           ffddcc0fqc0dd                        ",
"                          ddddddc00o00c                         ",
"                          gcdddcdc6t000                         ",
"                          dcdddcec0000c                         ",
"                          ccdfcdeeccffg                         ",
"                          dccdfcccdfgffg                        ",
"                          fcddgddccd0cce                        ",
"                         ]dcddfgdddcd010c                       ",
"                         ]EGGfggdcdc6dcef                       ",
"                         GEEGGIIIedcfdf]BB                      ",
"                         IGIIJJJJ GGGGBB[.E/                    ",
"                          G]E]GIJ GGGEGCDE.zK                   ",
"                          G]EGIIJ  GGGgBEHzHDK                  ",
"                          GEEEGIJ    gEIIEBDDE                  ",
"                          EKBE]IJ      JIIEEEE                  ",
"                          EBEE]I        JJI]]EE                 ",
"                          EBKE]I          JI]ED+D               ",
"                          EBEEI            JEz.EzzE             ",
"                         HzDBK]            GKD]DDD*             ",
"                       DDKBHzzE            ]zDzBB*              ",
"                     Dz...zBKEI           H.zzBE*               ",
"                    BHzzHDDDHDE          HzzDBE9                ",
"                    ,,,,G((,,,,          BDDB]*                 "};
