/* XPM */
static char * marine_back_2_xpm[] = {
"64 64 80 1",
" 	c #FFFFFF",
".	c #937B63",
"+	c #9F876F",
"@	c #AF977F",
"#	c #B79F87",
"$	c #A78F77",
"%	c #BFA78F",
"&	c #836B57",
"*	c #775F4B",
"=	c #8B735B",
"-	c #574333",
";	c #6F5743",
">	c #533F2F",
",	c #5F4B37",
"'	c #67533F",
")	c #232323",
"!	c #3F472B",
"~	c #5B5B5B",
"{	c #777777",
"]	c #8B8B8B",
"^	c #979797",
"/	c #6B6B6B",
"(	c #575757",
"_	c #7B634F",
":	c #636363",
"<	c #838383",
"[	c #9F9F9F",
"}	c #939393",
"|	c #6F6F6F",
"1	c #4B9F3F",
"2	c #5BBF4F",
"3	c #5FCF57",
"4	c #6FEF67",
"5	c #67DF5F",
"6	c #53AF47",
"7	c #37732B",
"8	c #3F832F",
"9	c #439337",
"0	c #2F6323",
"a	c #27531B",
"b	c #17330F",
"c	c #1B1B1B",
"d	c #1F4317",
"e	c #434343",
"f	c #13230B",
"g	c #4B371B",
"h	c #7F532F",
"i	c #5F4323",
"j	c #131313",
"k	c #272727",
"l	c #B37347",
"m	c #CF8353",
"n	c #D78B5B",
"o	c #4F3B23",
"p	c #2B230F",
"q	c #A36B3F",
"r	c #9B633B",
"s	c #AB6F43",
"t	c #000000",
"u	c #BF7B4B",
"v	c #6B4727",
"w	c #1F170B",
"x	c #43331B",
"y	c #8F5F37",
"z	c #875733",
"A	c #7B7F63",
"B	c #332B13",
"C	c #5B6347",
"D	c #3F2F17",
"E	c #3B3B3B",
"F	c #474747",
"G	c #4B4B4B",
"H	c #474F33",
"I	c #676B4F",
"J	c #373737",
"K	c #2F2F2F",
"L	c #6F7357",
"M	c #53573B",
"N	c #373F27",
"O	c #533F1F",
"                                                                ",
"                                                                ",
"                                                                ",
"                                                                ",
"                                                                ",
"                                                                ",
"                                                                ",
"                                                                ",
"                                                                ",
"                                                                ",
"                                                                ",
"                          .+@#####+                             ",
"                          $###%%%%#+                            ",
"                         $$$$$#%%@$.&                           ",
"                         *=&==.$$.**-;                          ",
"                        >-*;-*,',-,'-)                          ",
"                         !-~{{{{]^/(!_                          ",
"                          :{]<[[}<{|:                           ",
"                      1234455555552455521                       ",
"                    16344554444445453545317                     ",
"                   8635453444444454443552317                    ",
"                   9233565554455554453123310                    ",
"                  716332635555535355532abbb)                    ",
"           cc     bdae)02333555352325267fghi                    ",
"           j)kkc  lmmngo2232333232322667piqrs                   ",
"            ttckc,lulqvw123332322223661axgvrg                   ",
"               ttyyzzixw866355455326618dxgivx                   ",
"                 +AzzxpB07110dffbb92980dxgiix                   ",
"                C#%#CiDx77bbdEF((Gdb71a wxo-o                   ",
"                HIII+iJdabbKG:{{{:(Gbbd ggiiL                   ",
"                !HHHHKKdfa.@#%%%%%#@$7b/M.++AH                  ",
"                 NNNN  INL.$$@###@$$+.IL)FICMK                  ",
"                      +.IC86617a0777$$A+KK!!!                   ",
"                      +.776633678715526ixxxi                    ",
"                      ++8b78890808108880xxp                     ",
"                      718066617d07707878Oxx                     ",
"                      d0aa8980abdbdd0a07a)                      ",
"                      bdbdaaadbffbbbddb80a                      ",
"                     9fa0ddddbdbfdaa87a9d                       ",
"                     8a98a0ada7dd098a009d                       ",
"                     7819897770daa777702b                       ",
"                     a881877870daa700096)                       ",
"                      a0777770d f0077820a                       ",
"                      a0007700d fa007820a                       ",
"                       da07070d baa0011b                        ",
"                      a0988777! K081610d                        ",
"                      81122218M !7980adf                        ",
"                      00IAAAIIM !LMCM!!!                        ",
"                       IA.+@+HC CAAICHN!                        ",
"                       CA$@@+.CMC+.+++!                         ",
"                       M+####@.!NA.++.H                         ",
"                       H+@#%@$.!A$@#$+I                         ",
"                        I+$#$+C!A++$+AC                         ",
"                        H++%@A! IA++AAM                         ",
"                        !.@%@C  MIAAAIH                         ",
"                         C+.AH  MIIAA!                          ",
"                         M+%%H   IAAIM                          ",
"                         C$##A   A##H                           ",
"                         CEKKE  CHHII                           ",
"                         EKKKk  !A#@CM                          ",
"                         KKKKK  I$#+AM                          ",
"                         KKKKK !HCAAIH                          ",
"                          KKK  kKKkK)N                          ",
"                               kkkkkkk                          "};
