/* XPM */
static char * marine_right_1_xpm[] = {
"64 64 74 1",
" 	c #FFFFFF",
".	c #937B63",
"+	c #9F876F",
"@	c #A78F77",
"#	c #AF977F",
"$	c #B79F87",
"%	c #8B735B",
"&	c #BFA78F",
"*	c #9B7F6B",
"=	c #373737",
"-	c #775F4B",
";	c #6B6B6B",
">	c #574333",
",	c #6F5743",
"'	c #3B3B3B",
")	c #5B5B5B",
"!	c #3F2F17",
"~	c #5F4B37",
"{	c #43331B",
"]	c #474747",
"^	c #272727",
"/	c #67533F",
"(	c #575757",
"_	c #636363",
":	c #7B634F",
"<	c #3F832F",
"[	c #5BBF4F",
"}	c #67DF5F",
"|	c #5FCF57",
"1	c #4F4F4F",
"2	c #332B13",
"3	c #434343",
"4	c #6FEF67",
"5	c #4B9F3F",
"6	c #27531B",
"7	c #232323",
"8	c #2F2F2F",
"9	c #37732B",
"0	c #439337",
"a	c #53AF47",
"b	c #000000",
"c	c #131313",
"d	c #2F6323",
"e	c #13230B",
"f	c #1F4317",
"g	c #4F3B23",
"h	c #2B230F",
"i	c #AB6F43",
"j	c #DF9363",
"k	c #D78B5B",
"l	c #BF7B4B",
"m	c #CB7F4F",
"n	c #1B1B1B",
"o	c #7F532F",
"p	c #17330F",
"q	c #8F5F37",
"r	c #B37347",
"s	c #875733",
"t	c #1F170B",
"u	c #7B7F63",
"v	c #E79B6B",
"w	c #CF8353",
"x	c #6B4727",
"y	c #474F33",
"z	c #676B4F",
"A	c #6F7357",
"B	c #3F472B",
"C	c #5F4323",
"D	c #5B6347",
"E	c #373F27",
"F	c #0B0B0B",
"G	c #4B371B",
"H	c #9B633B",
"I	c #53573B",
"                                                                ",
"                                                                ",
"                                                                ",
"                                                                ",
"                                                                ",
"                                                                ",
"                                                                ",
"                                                                ",
"                                                                ",
"                                 .+@##@                         ",
"                                +#$$$#%                         ",
"                               +#$$&&&&*                        ",
"                              +#$&&&&$#+=                       ",
"                             -*#&&&&$++=;                       ",
"                             >,%#$$$#.+')                       ",
"                             !~{{>>,,%+%]]                      ",
"                             ,{^{>>>,/*#-%                      ",
"                              '(_)(>>/:*##%                     ",
"                             <[}|[<112>{~%, ^3                  ",
"                            <|444||561{^^~~ 78^                 ",
"                           90|444|[a561>    bbc                 ",
"                          d90[444|[50[e     bbc                 ",
"                          690a|}|[a595<6    bbc3                ",
"                         9fg{hh!{2=6d00d    bbc73               ",
"                         0eijklmjj9e6<<d    n^8^1)              ",
"                         <eomjkljjlp6d<6  qi8=l=]]              ",
"                         6pgqkj$$&++0df8  qkrjrs^^              ",
"                         p6to#$$@ujjjvji rqiqsgg^n              ",
"                         efhu##+uirwkkkkmixggh{^=^7             ",
"                         e6=yzABooxxxxCg{{Co{{hn887             ",
"                          Dhh7ECh!h!{{{{g   cccc8^n             ",
"                          ^7h78{tt2{Dytgqi  cFcc88c             ",
"                         fDE8e7ee7eeEz^Cqii ccnc88n             ",
"                         d9fp8^h^88h8E{goqiqcnnF87              ",
"                        699fehhhh8hhffx{CoiC{ncc^^              ",
"                        dfffpeepppppef  qgs{gncGnc              ",
"                         69fppf69dffpf    ig{nc!nc              ",
"                         p66f669<99dff      F{ncc               ",
"                          ffp6f<9o<ddd        ccc               ",
"                           86f69<o<99f                          ",
"                           7dp<<0H<<0f                          ",
"                          79f<d<0<0<9d                          ",
"                          ef9f666d9<0d                          ",
"                          ppfppppp90<6                          ",
"                          dppfppd50<dd                          ",
"                         eee6dd66<<9<                           ",
"                         epep66ddd<<9                           ",
"                         ppep6<9<d6du                           ",
"                       zIIfpeBIuuuzDy                           ",
"                      uu@Iy77ByIzzzzE                           ",
"                     Iuuuuy8EyDuI8yID                           ",
"                    IzuuzIB8BDDIyIy8                            ",
"                    BzzIIEE8yDAuuIBy                            ",
"                   DzzIyEBB BIDuuzB                             ",
"                   uzIyEBy  ByyIIIy                             ",
"                 yIuzIEB     BEyyB                              ",
"                Izzzuuy      BEByB                              ",
"               ]zu@zIyBu     BEyII                              ",
"                ']uzu..uu   Izuu@u@                             ",
"                 ']IzzzzzI  BBIzzz                              ",
"                   ]]]IDDI Bzzzu@@@$u                           ",
"                     ]]]]] ==Izzuu@@@@u                         ",
"                            ==11zzzzuuu                         ",
"                               ==3]11]=                         "};
