/* XPM */
static char * marine_face_1_xpm[] = {
"64 64 80 1",
" 	c #FFFFFF",
".	c #B79F87",
"+	c #AF977F",
"@	c #A78F77",
"#	c #9F876F",
"$	c #6F7357",
"%	c #53573B",
"&	c #5B6347",
"*	c #937B63",
"=	c #7B7F63",
"-	c #9B7F6B",
";	c #676B4F",
">	c #434343",
",	c #474747",
"'	c #4F4F4F",
")	c #636363",
"!	c #777777",
"~	c #8B8B8B",
"{	c #575757",
"]	c #6F6F6F",
"^	c #9F9F9F",
"/	c #6B6B6B",
"(	c #BFA78F",
"_	c #9F8363",
":	c #232323",
"<	c #474F33",
"[	c #836B57",
"}	c #5B5B5B",
"|	c #272727",
"1	c #3F472B",
"2	c #4B9F3F",
"3	c #3F832F",
"4	c #53AF47",
"5	c #5BBF4F",
"6	c #37732B",
"7	c #373737",
"8	c #373F27",
"9	c #5FCF57",
"0	c #439337",
"a	c #2F6323",
"b	c #67DF5F",
"c	c #6FEF67",
"d	c #2F2F2F",
"e	c #2B230F",
"f	c #27531B",
"g	c #3B3B3B",
"h	c #000000",
"i	c #1F4317",
"j	c #17330F",
"k	c #131313",
"l	c #7F532F",
"m	c #A36B3F",
"n	c #DF9363",
"o	c #CF8353",
"p	c #13230B",
"q	c #DF8787",
"r	c #FFBF9B",
"s	c #FFC7A7",
"t	c #F7AB7B",
"u	c #D78B5B",
"v	c #5F4323",
"w	c #6B4727",
"x	c #774F2B",
"y	c #8F5F37",
"z	c #FFBB93",
"A	c #B37347",
"B	c #3F2F17",
"C	c #4B371B",
"D	c #BF7B4B",
"E	c #AB6F43",
"F	c #875733",
"G	c #533F1F",
"H	c #E79B6B",
"I	c #EFA373",
"J	c #FFDBC7",
"K	c #232B0F",
"L	c #9B633B",
"M	c #1F170B",
"N	c #2F371F",
"O	c #171F07",
"                                                                ",
"                                                                ",
"                                                                ",
"                                                                ",
"                                                                ",
"                                                                ",
"                                                                ",
"                                                                ",
"                              .++@                              ",
"                            ##$%%&&#                            ",
"                           *#+.+#**=#                           ",
"                          -;=>>>>>,;;#                          ",
"                         -;*>')!~!{>=;                          ",
"                        -;;=>{]~^~/>=;*                         ",
"                        =;;@${)]]]{'+#=                         ",
"                         *&(*$)++_{$(+                          ",
"                          :=<$@@##[$<=                          ",
"                         }|><&&$$$&%1&22                        ",
"                     3245467||81<<8|:399520                     ",
"                   a09bbcb56>d|e:e|df3299543          g>g|      ",
"                  a3554cb94246>d::>6325354236       g>gd:h      ",
"                  62599493c54543if32224060036   ]]g>>d:hh       ",
"                  f302246455542230222023ii66a {}}]}7:hh         ",
"                  jfa666ja322222303206fjkkk7}}}}','hh           ",
"                  lmnnomjp63333363a6ikkkk:d,]]'>7dd             ",
"                  mqrstuvppa6affiijkkjf{',,,,]7d|wx             ",
"                 xyqrztAxpjjjjjjkk:,{{',>g:BC>BvDDm             ",
"                 xynzzoxviffijkk:a,{'>>g|||xvBvDEFF             ",
"                 xx=@@$<Ciiikk73,{'>g::|||'vxCyyxvG             ",
"                 x;#Hztnx>>{k:{'>>7::||g||<vvvvGGC              ",
"                 <;DIJJzD'{{d'>>7::|||g7j <<vGCC                ",
"                 8dEnrJn'''>d||::||||dkd8                       ",
"                 KdLLA'''7|kk||||||Ckkk88                       ",
"                  KwC''g|kkkkdddddvCkkk88                       ",
"                    kkkkkkkkk:CC:MBekk8<                        ",
"                     kkkkkkCvvxvv:8&e|8<d                       ",
"                      kkkkBGxxvGiiffffifif                      ",
"                       kkiiBvGCijfaaafiif>                      ",
"                       pii66jjjjiifafffifj                      ",
"                       dfffifippiiiafffifj                      ",
"                       ifiia6ippiff66aiiaf                      ",
"                       jiifafjjjiji633aiai                      ",
"                        jiiijijiaff6366fi                       ",
"                        jjfijijfffa6aaaf                        ",
"                        jffiiijiaa6aa6ai                        ",
"                         jfiijjja36f63ai                        ",
"                         jjiijjiff;$;6if                        ",
"                         Njjjjjj&;===;&%                        ",
"                          NjjjjN%&;;;;&%                        ",
"                          NNNNNNf<%%%<j                         ",
"                           NNNNN;iiiji<;                        ",
"                             KOK<;$==$;8                        ",
"                              OO&<<<<<1<                        ",
"                              KO<&<<%&;<                        ",
"                              KO8&&&&&&%                        ",
"                              KKK<&;&&&                         ",
"                             NKKK<&;;&%                         ",
"                             NKKK8$==$%                         ",
"                             NKKK<&;;<1                         ",
"                              KK1;###*&                         ",
"                                ;*#@*=&                         ",
"                                ;;***;&                         ",
"                                g<&;&<g                         ",
"                                 ddeedd                         "};
