/* XPM */
static char * marine_right_2_xpm[] = {
"64 64 76 1",
" 	c #FFFFFF",
".	c #937B63",
"+	c #9B7F6B",
"@	c #9F876F",
"#	c #AF977F",
"$	c #BFA78F",
"%	c #7B634F",
"&	c #2F2F2F",
"*	c #474747",
"=	c #836B57",
"-	c #B79F87",
";	c #636363",
">	c #4F4F4F",
",	c #574333",
"'	c #777777",
")	c #3B3B3B",
"!	c #3F472B",
"~	c #533F2F",
"{	c #6F5743",
"]	c #8B735B",
"^	c #67533F",
"/	c #272727",
"(	c #A78F77",
"_	c #775F4B",
":	c #434343",
"<	c #5B5B5B",
"[	c #9F8363",
"}	c #3F832F",
"|	c #4B9F3F",
"1	c #5BBF4F",
"2	c #5FCF57",
"3	c #53AF47",
"4	c #439337",
"5	c #4F3B23",
"6	c #43331B",
"7	c #67DF5F",
"8	c #1B1B1B",
"9	c #37732B",
"0	c #373737",
"a	c #6FEF67",
"b	c #131313",
"c	c #27531B",
"d	c #2F6323",
"e	c #1F4317",
"f	c #13230B",
"g	c #17330F",
"h	c #5F4323",
"i	c #B37347",
"j	c #E79B6B",
"k	c #8F5F37",
"l	c #9B633B",
"m	c #AB6F43",
"n	c #A36B3F",
"o	c #232323",
"p	c #CB7F4F",
"q	c #7F532F",
"r	c #BF7B4B",
"s	c #332B13",
"t	c #6B4727",
"u	c #774F2B",
"v	c #4B371B",
"w	c #7B7F63",
"x	c #DF9363",
"y	c #875733",
"z	c #3F2F17",
"A	c #5B6347",
"B	c #CF8353",
"C	c #474F33",
"D	c #676B4F",
"E	c #2B230F",
"F	c #6F7357",
"G	c #373F27",
"H	c #1F170B",
"I	c #2F371F",
"J	c #232B0F",
"K	c #53573B",
"                                                                ",
"                                                                ",
"                                                                ",
"                                                                ",
"                                                                ",
"                                                                ",
"                                                                ",
"                                                                ",
"                                                                ",
"                                                                ",
"                                  .+@##@                        ",
"                                 @#$$$@%                        ",
"                                ##$$$$$$@                       ",
"                               @#$$$$#$@&*                      ",
"                              =@$-$$$.#&;>                      ",
"                              ,=.$$$$=#&')                      ",
"                              !,~~{%,]#]>)>                     ",
"                              ^!/,~~/%=#(_-                     ",
"                               :<<>)&,^^.[[.                    ",
"                              }|1234;)566^^=                    ",
"                             }|177214::8/6/                     ",
"                            9|17722139:0       //               ",
"                           9}|37a21|444:      /bb/              ",
"                           c4|32713|494c      /b8/              ",
"                          dc}}4||||49c9de     /b8/              ",
"                          dfgeeffggfgecdc     /b88              ",
"                          efhijklmino&ccc     /bbb              ",
"                          gfhlpipiinq&eee    r>0b/b             ",
"                          gcstkip$$-q&ee    irul6vb             ",
"                          gcs:w$$$(kxxxprn pknkyhzb             ",
"                          edeAwwwwyiippBpppktthv66b             ",
"                           gd!CDD&yuttttvt6EE6666ob             ",
"                         wC@.:&&!&EEEEz66vu   b8/ob             ",
"                         CFAAEE///E/GzzHEvh   bb&o              ",
"                         DDAGEoEEEEo/EGHE6tk noo8o              ",
"                        g99GfE/o/Eo//zC vEtn6o&obo              ",
"                        ed9ff&&EEEEo/G    vyvo&o8o              ",
"                        d}cdedefggg&&c     hooohoo              ",
"                        fc9c}}}cggg))       vvohoh              ",
"                        gee9}9deegeec        hvoo               ",
"                        ee9cqg9cceegg                           ",
"                         c99h99ceeeeee                          ",
"                         999u}ceceeecf                          ",
"                         c9999cdceeece                          ",
"                         fggccddecgecc                          ",
"                        fggfgecccgecce                          ",
"                        dcc9ecceefeecg                          ",
"                       c949eceeefgeece!                         ",
"                       gdce}ceceffgGGC!                         ",
"                      AA!gegcedIIIGGCCG                         ",
"                    (C@:AAGGGG JJJJIIGI                         ",
"                   Kw@CDEGCGGG JIG!C!G                          ",
"                  KDFwFCAfGGG  JIIGC!G                          ",
"                  CDDACIICf    JIGCCCG                          ",
"                  CCCCIIJ      JI!CAKC                          ",
"                 CC!!IJJ        I!CCAC                          ",
"               D#DC!IJ          I!CKAC                          ",
"             CwwC@wCJ            ICCAC                          ",
"             &DDD!DKG            !KADwF                         ",
"              &AAwDw!            CwwFAKDD                       ",
"               &CAww@F           ICKAw@@@wD                     ",
"                0CADwwF          CDFDDDFwwFA                    ",
"                 &!ADDA          ))))//G))))                    ",
"                  &&0)&                                         "};
