/* XPM */
static char * marine_back_1_xpm[] = {
"64 64 71 1",
" 	c #FFFFFF",
".	c #9B7F6B",
"+	c #A78F77",
"@	c #B79F87",
"#	c #AF977F",
"$	c #8B735B",
"%	c #9F876F",
"&	c #BFA78F",
"*	c #9F8363",
"=	c #6F5743",
"-	c #7B634F",
";	c #574333",
">	c #43331B",
",	c #5F4B37",
"'	c #1F170B",
")	c #332B13",
"!	c #533F2F",
"~	c #6F6F6F",
"{	c #8B8B8B",
"]	c #979797",
"^	c #838383",
"/	c #939393",
"(	c #5B5B5B",
"_	c #53AF47",
":	c #67DF5F",
"<	c #6FEF67",
"[	c #5FCF57",
"}	c #5BBF4F",
"|	c #7F7F7F",
"1	c #4B9F3F",
"2	c #232323",
"3	c #439337",
"4	c #37732B",
"5	c #000000",
"6	c #2F2F2F",
"7	c #2F6323",
"8	c #3F832F",
"9	c #1F4317",
"0	c #8F5F37",
"a	c #17330F",
"b	c #27531B",
"c	c #AB6F43",
"d	c #7F532F",
"e	c #D78B5B",
"f	c #675333",
"g	c #13230B",
"h	c #BF7B4B",
"i	c #B37347",
"j	c #4F3B23",
"k	c #533F1F",
"l	c #875733",
"m	c #5F4323",
"n	c #2B230F",
"o	c #6B4727",
"p	c #5B6347",
"q	c #474F33",
"r	c #676B4F",
"s	c #6F7357",
"t	c #373737",
"u	c #3B3B3B",
"v	c #3F472B",
"w	c #373F27",
"x	c #434343",
"y	c #4F4F4F",
"z	c #777777",
"A	c #6B6B6B",
"B	c #7B7F63",
"C	c #937B63",
"D	c #A36B3F",
"E	c #774F2B",
"F	c #53573B",
"                                                                ",
"                                                                ",
"                                                                ",
"                                                                ",
"                                                                ",
"                                                                ",
"                                                                ",
"                                                                ",
"                                                                ",
"                                                                ",
"                                                                ",
"                            .+@@@#$                             ",
"                           %+@&&&++$                            ",
"                          %+%*#&#*$$=                           ",
"                         $*$-$*%**-;>=                          ",
"                         ;==-===,;>>>'                          ",
"                         >;=--=;>>;;)!                          ",
"                          )~{]{^^/{(;                           ",
"                       _:<[<<}}__/||-                           ",
"                     1:<<<<[[<<<<[[}[[}_1                       ",
"           22       3}:<<<_[<<<:<:}}}_}[}_4                     ",
"           5622    3_}}[<[3<<:[}[[__}}1}1317                    ",
"            55622  8__}}[3[[[[}__}11__181889                    ",
"              556207447784[}}}_1__311137aaab                    ",
"                50cde0fg9}}}__11__8331884ga9                    ",
"                h0cici0j21___13111833844b2kkj                   ",
"                id0l0dmn241__11313888844gnjmn                   ",
"               .%@odjjnna888_:}_}_18887bgnjj'                   ",
"               p.%@0jn'n9b484baggga4879agnjjn                   ",
"               qrrrspq'9b8baaattuutaa7bggn>mn                   ",
"                qqqvqwxssgauy(zz~~A(xgagg6vp%r                  ",
"                 vvvv  q+qB%+@&@@@+%Cs66gqBrqv                  ",
"                       sCqsCCCBCCCBBsrpp2>vv6                   ",
"                       wqb1_}}_999b3[}3s>>ww                    ",
"                       8g78818497b31}_349>                      ",
"                       _a7b4b79ab7_88884b                       ",
"                      11}b877ba99b88884b8                       ",
"                      48_bbb99agaa97bb79a                       ",
"                      a47799aaaggaaaa9aaa                       ",
"                     Db88477aaaaa74b9aaa)                       ",
"                     088444ba9ag77477ba9>                       ",
"                     E34434b7ba9778447b8m                       ",
"                      4987bbb9a a44847b[9                       ",
"                      4b97bb999 b4444783a                       ",
"                      7b7b9999b 948831}a                        ",
"                      77877bb9b psppppF6F                       ",
"                      b4778349bbFFprsFv6F                       ",
"                       b84b9a9 qrBBBBpFF                        ",
"                       b44777a qB+###Bv                         ",
"                       pBsppFv vB+@@#Bv                         ",
"                       vssBBp6 v+#@@+BF                         ",
"                       FB%%BBF v++#+BBq                         ",
"                       vBBBBsv  BB++Brw                         ",
"                       wrBrpFw  rB+BBv                          ",
"                       wFFFFvw  rB+BFw                          ",
"                        qrFq2   BFFrv                           ",
"                        rrrFF   Fs&+6                           ",
"                        rB+rq   p+@BFF                          ",
"                        vrB+v   rquuvp                          ",
"                        rBB#q   F6666F                          ",
"                       FrrBFw   q6666q                          ",
"                       Fu6uvw    6666                           ",
"                       666666                                   ",
"                       666666                                   "};
