/* XPM */
static char * marine_face_2_xpm[] = {
"64 64 78 1",
" 	c #FFFFFF",
".	c #9F876F",
"+	c #AF977F",
"@	c #9B7F6B",
"#	c #8B735B",
"$	c #7B634F",
"%	c #9F8363",
"&	c #B79F87",
"*	c #676B4F",
"=	c #3B3B3B",
"-	c #474747",
";	c #4F4F4F",
">	c #272727",
",	c #575757",
"'	c #777777",
")	c #838383",
"!	c #9F9F9F",
"~	c #636363",
"{	c #836B57",
"]	c #937B63",
"^	c #775F4B",
"/	c #BFA78F",
"(	c #6F6F6F",
"_	c #A78F77",
":	c #7B7F63",
"<	c #5F4B37",
"[	c #67533F",
"}	c #6F5743",
"|	c #2B230F",
"1	c #574333",
"2	c #37732B",
"3	c #434343",
"4	c #43331B",
"5	c #474F33",
"6	c #5B6347",
"7	c #6F7357",
"8	c #53573B",
"9	c #1F170B",
"0	c #3F832F",
"a	c #53AF47",
"b	c #5FCF57",
"c	c #67DF5F",
"d	c #6FEF67",
"e	c #2F2F2F",
"f	c #373F27",
"g	c #3F472B",
"h	c #17330F",
"i	c #5BBF4F",
"j	c #439337",
"k	c #27531B",
"l	c #232323",
"m	c #2F6323",
"n	c #373737",
"o	c #4B9F3F",
"p	c #1F4317",
"q	c #13230B",
"r	c #131313",
"s	c #1B1B1B",
"t	c #4B4B4B",
"u	c #5B5B5B",
"v	c #7F532F",
"w	c #A36B3F",
"x	c #BF7B4B",
"y	c #CF8353",
"z	c #DF9363",
"A	c #6B6B6B",
"B	c #4B371B",
"C	c #AB6F43",
"D	c #8F5F37",
"E	c #5F4323",
"F	c #B37347",
"G	c #6B4727",
"H	c #CB7F4F",
"I	c #3F2F17",
"J	c #533F1F",
"K	c #4F3B23",
"L	c #232B0F",
"M	c #2F371F",
"                                                                ",
"                                                                ",
"                                                                ",
"                                                                ",
"                                                                ",
"                                                                ",
"                                                                ",
"                                                                ",
"                               .+++.                            ",
"                              @#$$$#@                           ",
"                             %&++++++.                          ",
"                            %*=-;;-=>*%                         ",
"                           %*=,')!'~;={                         ",
"                          %**=;~))~;;=*%                        ",
"                          ]^/@,~((~;;_:*]                       ",
"                           <+_{;%+%;{/_]                        ",
"                           [}|[{+&_{1%]                         ",
"                         22-34567*85[9]                         ",
"                     0abcdd2e>>fgggf9hiiaj                      ",
"                    0aacdccjkee>|99lhmacccci2        nnn        ",
"                   2jaaoboaaoophqqqpm0ijccbaj2    n=>lll        ",
"                   m0jojmaiiiii0pp0oooaajbaoo2  n>>rsrss        ",
"                   pkm02hjooaaaa22oo0p0a;oj3t,;e>srss           ",
"                   pkpppqp00jjoj02mr>srre3;uu,trlss             ",
"                  vwxyzxkrm2222ksr>j00llA~u;-=ess               ",
"                  BCCxDE|rhhhsrspjkuuu>ent3ellll                ",
"                  fwwE4>4rsqsk2o;uu333rsse>llFFG                ",
"                  6._#8grrs>k;~~;=elleeeesr4wDvEE               ",
"                 6g]HwvFrl>;u;nnllleeeeem>lGEE4|B               ",
"                 sGFzzx(tu;3nelleeeensep23|4B444B               ",
"                 |vD----se>elleeeenn>rhp2 l4|EE4v               ",
"                 r---nelseeeeeeeellssq].*  BI4B                 ",
"                 -nellllsl>eeeellJsssh*55                       ",
"                 ellllllsn333=nBJJsssh55f                       ",
"                  llllls9|B9srsI4|sssp|5                        ",
"                  >llllsJGGGsrs6f5sskms|                        ",
"                   slll>44KGsss5ffshkko2k                       ",
"                    sl2mmJ4Jsss|ee|pmmkmmh                      ",
"                      mkjj0j22jh||pkkpphph                      ",
"                      2p2m2m0mpklq2kpppphq                      ",
"                      kpkkkmkppplqhppphhpq                      ",
"                      kphpppphkhqhqqpphhpq                      ",
"                       kppppppppqqhhhhppph                      ",
"                        hppppppphphhhhhph                       ",
"                       hpppppkkphhphhhhpq                       ",
"                       hppkkm22phhhhhhpph                       ",
"                        eg*:::*5phhhhhphq                       ",
"                        e586*65e lhhhhhhq                       ",
"                         g66868f lhhhffl                        ",
"                         f55555gfLLMfggl                        ",
"                         lhpphh8fLLMfg5e                        ",
"                         e55868gfLLMggef                        ",
"                         lfgggfffgMMMMl                         ",
"                         e55665g Lggg5f                         ",
"                         g55665e Lfgff                          ",
"                          g8666e MLMgg                          ",
"                          g8665g LLMMg                          ",
"                           e775  LLMM8                          ",
"                           5..6  g5ggg                          ",
"                          86*785 g865g                          ",
"                          8:__.8 n===n                          ",
"                          87._:68                               ",
"                          86::768                               ",
"                           55ggf                                "};
