/* XPM */
static char * organic_wall4_xpm[] = {
"64 64 256 2",
"  	c #000000",
". 	c #0000FF",
"+ 	c #00FF00",
"@ 	c #FF0000",
"# 	c #00FFFF",
"$ 	c #FFFF00",
"% 	c #FF00FF",
"& 	c #FFFFFF",
"* 	c #7B7B7B",
"= 	c #7B7B7B",
"- 	c #7B7B7B",
"; 	c #7B7B7B",
"> 	c #7B7B7B",
", 	c #7B7B7B",
"' 	c #7B7B7B",
") 	c #7B7B7B",
"! 	c #7B7B7B",
"~ 	c #7B7B7B",
"{ 	c #7B7B7B",
"] 	c #7B7B7B",
"^ 	c #7B7B7B",
"/ 	c #7B7B7B",
"( 	c #7B7B7B",
"_ 	c #7B7B7B",
": 	c #7B7B7B",
"< 	c #7B7B7B",
"[ 	c #7B7B7B",
"} 	c #7B7B7B",
"| 	c #7B7B7B",
"1 	c #7B7B7B",
"2 	c #7B7B7B",
"3 	c #7B7B7B",
"4 	c #7B7B7B",
"5 	c #7B7B7B",
"6 	c #7B7B7B",
"7 	c #7B7B7B",
"8 	c #7B7B7B",
"9 	c #7B7B7B",
"0 	c #7B7B7B",
"a 	c #7B7B7B",
"b 	c #7B7B7B",
"c 	c #7B7B7B",
"d 	c #7B7B7B",
"e 	c #7B7B7B",
"f 	c #7B7B7B",
"g 	c #7B7B7B",
"h 	c #7B7B7B",
"i 	c #7B7B7B",
"j 	c #7B7B7B",
"k 	c #7B7B7B",
"l 	c #7B7B7B",
"m 	c #7B7B7B",
"n 	c #7B7B7B",
"o 	c #7B7B7B",
"p 	c #7B7B7B",
"q 	c #7B7B7B",
"r 	c #7B7B7B",
"s 	c #7B7B7B",
"t 	c #7B7B7B",
"u 	c #7B7B7B",
"v 	c #7B7B7B",
"w 	c #7B7B7B",
"x 	c #7B7B7B",
"y 	c #7B7B7B",
"z 	c #7B7B7B",
"A 	c #7B7B7B",
"B 	c #7B7B7B",
"C 	c #7B7B7B",
"D 	c #7B7B7B",
"E 	c #7B7B7B",
"F 	c #7B7B7B",
"G 	c #7B7B7B",
"H 	c #7B7B7B",
"I 	c #7B7B7B",
"J 	c #7B7B7B",
"K 	c #7B7B7B",
"L 	c #7B7B7B",
"M 	c #7B7B7B",
"N 	c #7B7B7B",
"O 	c #7B7B7B",
"P 	c #7B7B7B",
"Q 	c #7B7B7B",
"R 	c #7B7B7B",
"S 	c #7B7B7B",
"T 	c #7B7B7B",
"U 	c #7B7B7B",
"V 	c #7B7B7B",
"W 	c #7B7B7B",
"X 	c #7B7B7B",
"Y 	c #7B7B7B",
"Z 	c #7B7B7B",
"` 	c #7B7B7B",
" .	c #7B7B7B",
"..	c #7B7B7B",
"+.	c #7B7B7B",
"@.	c #7B7B7B",
"#.	c #7B7B7B",
"$.	c #7B7B7B",
"%.	c #7B7B7B",
"&.	c #7B7B7B",
"*.	c #7B7B7B",
"=.	c #7B7B7B",
"-.	c #7B7B7B",
";.	c #7B7B7B",
">.	c #7B7B7B",
",.	c #7B7B7B",
"'.	c #7B7B7B",
").	c #7B7B7B",
"!.	c #7B7B7B",
"~.	c #7B7B7B",
"{.	c #7B7B7B",
"].	c #7B7B7B",
"^.	c #7B7B7B",
"/.	c #7B7B7B",
"(.	c #7B7B7B",
"_.	c #7B7B7B",
":.	c #7B7B7B",
"<.	c #7B7B7B",
"[.	c #7B7B7B",
"}.	c #7B7B7B",
"|.	c #7B7B7B",
"1.	c #7B7B7B",
"2.	c #7B7B7B",
"3.	c #7B7B7B",
"4.	c #7B7B7B",
"5.	c #7B7B7B",
"6.	c #7B7B7B",
"7.	c #7B7B7B",
"8.	c #7B7B7B",
"9.	c #7B7B7B",
"0.	c #7B7B7B",
"a.	c #7B7B7B",
"b.	c #7B7B7B",
"c.	c #7B7B7B",
"d.	c #7B7B7B",
"e.	c #7B7B7B",
"f.	c #7B7B7B",
"g.	c #7B7B7B",
"h.	c #7B7B7B",
"i.	c #7B7B7B",
"j.	c #7B7B7B",
"k.	c #7B7B7B",
"l.	c #7B7B7B",
"m.	c #7B7B7B",
"n.	c #7B7B7B",
"o.	c #7B7B7B",
"p.	c #7B7B7B",
"q.	c #7B7B7B",
"r.	c #7B7B7B",
"s.	c #7B7B7B",
"t.	c #7B7B7B",
"u.	c #7B7B7B",
"v.	c #7B7B7B",
"w.	c #7B7B7B",
"x.	c #7B7B7B",
"y.	c #7B7B7B",
"z.	c #7B7B7B",
"A.	c #7B7B7B",
"B.	c #7B7B7B",
"C.	c #7B7B7B",
"D.	c #7B7B7B",
"E.	c #7B7B7B",
"F.	c #7B7B7B",
"G.	c #7B7B7B",
"H.	c #7B7B7B",
"I.	c #7B7B7B",
"J.	c #7B7B7B",
"K.	c #7B7B7B",
"L.	c #7B7B7B",
"M.	c #7B7B7B",
"N.	c #7B7B7B",
"O.	c #7B7B7B",
"P.	c #7B7B7B",
"Q.	c #7B7B7B",
"R.	c #7B7B7B",
"S.	c #7B7B7B",
"T.	c #7B7B7B",
"U.	c #7B7B7B",
"V.	c #7B7B7B",
"W.	c #7B7B7B",
"X.	c #7B7B7B",
"Y.	c #7B7B7B",
"Z.	c #7B7B7B",
"`.	c #7B7B7B",
" +	c #7B7B7B",
".+	c #7B7B7B",
"++	c #7B7B7B",
"@+	c #7B7B7B",
"#+	c #7B7B7B",
"$+	c #7B7B7B",
"%+	c #7B7B7B",
"&+	c #7B7B7B",
"*+	c #7B7B7B",
"=+	c #7B7B7B",
"-+	c #7B7B7B",
";+	c #7B7B7B",
">+	c #7B7B7B",
",+	c #7B7B7B",
"'+	c #7B7B7B",
")+	c #7B7B7B",
"!+	c #7B7B7B",
"~+	c #7B7B7B",
"{+	c #7B7B7B",
"]+	c #7B7B7B",
"^+	c #7B7B7B",
"/+	c #7B7B7B",
"(+	c #7B7B7B",
"_+	c #7B7B7B",
":+	c #7B7B7B",
"<+	c #7B7B7B",
"[+	c #7B7B7B",
"}+	c #7B7B7B",
"|+	c #7B7B7B",
"1+	c #7B7B7B",
"2+	c #7B7B7B",
"3+	c #7B7B7B",
"4+	c #7B7B7B",
"5+	c #7B7B7B",
"6+	c #7B7B7B",
"7+	c #7B7B7B",
"8+	c #7B7B7B",
"9+	c #7B7B7B",
"0+	c #7B7B7B",
"a+	c #7B7B7B",
"b+	c #7B7B7B",
"c+	c #7B7B7B",
"d+	c #7B7B7B",
"e+	c #7B7B7B",
"f+	c #7B7B7B",
"g+	c #7B7B7B",
"h+	c #7B7B7B",
"i+	c #7B7B7B",
"j+	c #7B7B7B",
"k+	c #7B7B7B",
"l+	c #7B7B7B",
"m+	c #7B7B7B",
"n+	c #7B7B7B",
"o+	c #7B7B7B",
"p+	c #7B7B7B",
"q+	c #7B7B7B",
"r+	c #7B7B7B",
"s+	c #9C3131",
"t+	c #730000",
"u+	c #6A0808",
"v+	c #831818",
"w+	c #8B2020",
"x+	c #9C0000",
"y+	c #8B0000",
"z+	c #410000",
"A+	c #620000",
"B+	c #5A0000",
"C+	c #731010",
"D+	c #4A0000",
"E+	c #620808",
"F+	c #7B1818",
"G+	c #7B0000",
"B+D+A+A+D+D+D+D+A+D+A+D+D+D+B+D+D+B+B+A+D+D+D+B+D+D+A+A+D+D+B+B+D+B+A+D+D+A+D+D+B+A+B+A+D+B+D+B+B+D+A+D+D+D+B+D+D+B+B+D+D+A+D+D+",
"A+D+B+A+D+D+D+u+A+D+A+A+D+B+u+D+B+B+D+A+D+D+D+B+A+D+D+A+D+B+D+A+B+B+D+B+D+D+D+A+A+A+B+D+D+B+D+A+B+D+A+A+D+D+B+B+A+B+B+B+D+D+D+B+",
"B+D+D+D+D+B+u+F+u+D+A+B+B+u+u+u+B+A+D+t+D+A+D+D+B+D+D+D+D+B+D+B+B+D+D+u+D+D+D+B+A+A+D+B+D+A+D+D+B+D+t+B+D+B+D+B+A+B+D+t+D+A+D+B+",
"G+D+D+B+D+B+F+F+F+D+B+A+u+F+F+u+A+D+D+A+A+A+D+B+G+D+D+B+D+B+A+D+B+B+u+F+u+B+D+B+G+D+D+A+A+A+D+D+t+D+B+A+D+D+D+D+B+u+D+D+D+A+D+B+",
"y+D+B+B+A+A+F+w+G+D+B+B+u+v+v+u+t+D+D+A+D+A+D+B+y+D+B+A+A+B+D+D+B+D+u+F+F+D+D+B+y+D+D+A+D+A+D+B+A+A+B+B+D+B+D+B+u+F+u+B+B+B+B+B+",
"G+D+D+A+A+A+v+w+v+D+D+B+u+w+w+C+A+D+B+A+D+D+D+B+G+D+D+A+u+B+D+D+B+B+C+v+v+B+D+D+G+D+B+u+D+B+D+D+A+A+D+B+D+D+D+B+F+v+u+A+A+A+D+D+",
"D+D+B+B+B+D+u+v+u+D+B+B+B+F+F+B+D+D+B+B+B+D+D+u+D+D+B+u+F+u+B+D+B+D+v+w+v+B+D+D+D+D+A+F+B+D+D+D+D+u+u+A+D+D+D+D+F+v+F+A+B+A+D+D+",
"t+D+A+A+D+A+D+D+A+D+D+B+D+D+D+D+t+B+B+B+A+t+B+v+t+D+B+F+v+F+D+D+B+A+u+v+u+B+D+D+t+B+u+v+u+B+A+D+D+v+u+A+D+D+D+D+w+w+v+A+B+B+D+D+",
"G+D+B+A+D+G+D+D+A+B+A+B+D+D+B+D+t+D+B+A+D+G+D+v+G+D+D+v+w+v+D+D+B+D+D+D+D+G+D+D+G+D+F+w+F+A+D+A+A+v+F+A+B+G+D+D+u+v+u+D+B+B+D+D+",
"D+D+D+A+D+x+B+B+B+D+D+A+D+B+B+D+D+D+B+A+D+A+D+v+D+D+D+w+s+w+A+D+D+B+B+B+D+x+D+D+D+B+F+s+F+B+B+D+A+v+F+A+D+x+D+B+u+F+u+B+B+B+B+D+",
"D+D+D+A+D+D+D+u+D+D+D+A+D+B+A+B+D+u+u+A+D+D+u+v+u+D+D+u+C+B+D+D+D+D+D+A+D+D+u+D+D+D+w+s+v+B+B+D+A+v+u+D+D+D+B+B+F+F+F+A+B+B+D+B+",
"D+D+D+B+D+B+u+F+u+D+D+A+D+A+B+D+D+F+F+A+D+D+F+F+u+D+D+B+D+B+D+D+D+D+B+A+D+u+F+u+D+D+u+v+u+D+A+B+u+v+v+B+D+A+B+D+F+w+F+A+D+A+B+D+",
"D+D+D+B+D+D+F+F+F+D+B+A+B+D+D+B+D+F+F+A+D+A+F+v+F+D+D+A+D+D+D+B+D+B+D+A+D+F+F+F+D+D+D+D+D+A+B+D+v+v+v+B+A+D+B+D+F+v+F+B+D+D+D+B+",
"D+D+D+A+D+D+F+w+v+D+D+A+D+A+B+B+D+w+w+A+D+D+w+w+v+D+D+B+u+B+D+D+D+B+B+A+D+F+v+F+D+D+B+A+D+B+D+D+v+w+v+A+D+B+B+D+u+v+u+B+B+D+D+D+",
"D+B+D+A+D+D+v+w+v+A+D+A+D+D+A+B+D+u+B+A+D+A+u+v+u+D+D+u+F+u+B+B+D+B+D+A+D+w+w+v+D+D+B+u+D+B+A+D+w+s+w+A+D+D+B+D+u+u+u+B+D+B+B+D+",
"D+D+B+A+B+D+u+w+u+A+D+B+D+B+D+D+D+B+D+D+D+D+D+D+D+D+D+F+v+F+u+B+D+D+D+A+D+u+v+u+D+B+B+u+B+D+D+D+u+w+u+A+D+A+D+D+u+F+u+B+D+B+D+D+",
"D+D+B+A+D+B+D+D+A+B+D+B+B+A+B+D+D+D+D+A+D+D+D+D+D+D+D+F+v+v+u+A+D+B+D+A+D+B+D+B+D+B+u+u+B+u+D+D+B+D+B+A+B+B+A+B+C+F+C+B+D+A+B+D+",
"D+D+B+D+D+D+D+B+D+D+D+A+D+A+B+D+D+D+D+D+D+D+D+D+D+D+D+v+s+w+u+B+D+D+D+B+D+u+D+C+D+B+u+C+u+F+D+D+D+F+D+A+D+A+B+D+B+F+B+A+B+D+A+D+",
"D+D+D+A+D+D+D+A+D+D+B+B+D+D+A+D+D+D+D+B+D+D+D+A+D+D+D+u+v+F+B+A+D+D+D+B+D+F+D+F+D+D+C+F+C+F+D+A+D+v+u+A+D+D+A+D+D+D+D+u+D+A+B+D+",
"D+D+D+B+D+D+D+B+D+D+A+B+B+B+D+B+D+u+u+B+D+D+D+B+D+D+B+B+D+D+D+B+D+D+D+B+D+v+D+v+D+D+B+F+B+v+D+B+D+w+F+A+B+A+D+D+D+D+D+F+B+A+D+D+",
"D+D+B+B+D+B+D+B+D+D+A+A+D+A+B+D+D+u+F+B+D+D+D+B+D+D+A+B+D+D+D+B+D+D+D+B+D+w+A+w+D+D+B+D+D+u+D+B+D+u+v+A+D+B+A+D+D+B+D+v+D+A+D+D+",
"D+B+B+B+D+A+D+B+D+D+D+A+B+B+B+A+D+F+v+u+D+B+D+A+D+D+A+A+D+A+D+D+D+D+D+B+D+s+A+C+D+D+B+B+D+D+D+A+D+D+w+A+B+A+A+A+D+B+D+w+D+B+D+D+",
"D+B+A+B+D+B+B+B+D+B+D+A+B+D+B+A+D+w+w+u+D+D+D+A+D+D+B+A+D+B+B+D+D+C+D+D+D+w+D+D+D+D+D+t+D+D+D+A+D+D+B+A+B+D+B+A+D+D+D+s+D+B+D+D+",
"D+B+A+B+D+B+B+B+D+D+D+B+D+D+D+D+D+F+F+u+D+D+D+B+D+D+D+A+D+B+B+D+C+F+C+B+D+D+B+D+D+D+D+B+D+D+D+B+D+B+B+t+D+D+D+D+D+D+D+w+D+B+D+D+",
"D+D+A+A+B+B+D+B+D+D+u+u+D+D+D+D+D+F+F+C+D+u+D+D+D+D+D+t+D+B+D+D+F+F+F+A+D+A+D+D+D+D+D+t+D+D+D+B+D+u+D+B+D+D+B+D+D+D+B+B+D+B+D+D+",
"B+D+D+u+u+u+D+B+D+D+F+F+B+D+D+B+A+u+F+u+u+F+u+B+B+D+D+A+D+t+B+D+F+v+F+A+u+B+D+D+B+D+A+t+A+D+D+A+D+F+B+A+B+B+u+D+B+D+D+t+D+B+D+D+",
"A+A+B+u+F+u+B+A+t+D+v+v+D+D+B+B+A+B+B+A+F+F+B+D+A+B+A+A+D+B+B+A+w+w+v+u+C+u+D+D+A+D+B+A+D+D+D+B+t+v+u+A+D+u+u+D+A+u+D+D+D+C+D+D+",
"t+D+D+F+F+F+B+A+t+B+w+w+D+D+B+B+A+u+u+A+F+w+B+D+A+D+B+A+D+D+B+A+C+u+C+u+C+C+D+D+A+D+A+A+D+B+A+B+t+v+F+A+D+u+B+B+B+v+u+B+D+F+B+D+",
"t+A+D+F+w+w+D+B+B+A+u+u+D+D+B+B+G+F+F+A+F+u+C+D+t+A+D+D+D+A+D+B+A+D+D+C+F+C+D+D+G+D+u+u+D+B+A+D+A+w+v+A+D+C+u+u+u+v+v+B+D+B+D+D+",
"D+D+D+B+s+w+B+A+B+B+D+D+D+D+u+B+D+v+v+A+u+u+u+D+D+D+B+B+D+A+B+A+B+D+D+v+w+D+D+D+B+D+B+v+D+D+D+D+A+w+w+A+D+D+u+F+u+B+v+A+D+C+D+D+",
"A+D+D+u+F+u+B+A+A+B+D+B+D+u+F+u+B+B+w+A+D+D+F+D+D+D+D+A+D+A+D+B+A+D+A+u+F+B+D+B+A+D+B+v+D+A+B+D+B+u+B+D+D+B+F+F+v+u+B+A+F+u+D+D+",
"D+D+F+A+D+D+B+D+t+B+D+A+F+u+B+u+A+B+B+A+D+F+F+F+B+B+D+A+D+B+B+D+A+u+D+D+D+A+D+D+t+D+C+u+D+A+B+D+B+B+D+B+D+B+F+w+v+C+B+F+F+F+D+D+",
"B+F+F+F+D+D+B+B+t+B+B+F+F+F+B+F+B+D+D+A+D+F+v+F+A+D+D+F+D+D+A+B+D+C+u+B+D+B+D+B+y+B+u+u+D+A+B+D+A+D+D+A+D+B+v+w+v+D+B+F+v+F+D+D+",
"A+F+v+F+D+A+B+A+B+D+u+F+v+w+C+v+A+D+D+t+D+v+w+v+A+D+F+F+F+B+A+A+B+C+C+D+D+F+D+D+D+D+F+A+D+A+B+D+A+B+D+A+D+D+w+s+w+D+D+v+w+v+D+D+",
"A+v+w+v+D+D+D+A+A+D+u+w+w+w+u+D+A+F+D+D+D+w+s+w+A+u+F+v+F+B+D+B+u+B+C+D+F+F+F+D+B+F+F+F+D+A+D+D+B+D+u+F+D+D+F+w+F+D+D+w+s+w+D+D+",
"B+w+s+w+D+D+D+F+D+D+C+w+s+w+D+D+F+F+F+B+D+F+w+F+u+u+w+w+v+A+D+D+u+C+v+B+F+v+F+D+D+F+v+F+D+A+B+D+A+B+F+F+F+B+D+D+B+D+D+F+w+F+B+B+",
"A+F+w+F+D+B+F+F+F+D+u+v+w+F+D+D+F+w+F+A+D+D+D+D+F+u+w+s+w+A+D+B+F+u+D+B+v+w+v+D+A+v+w+w+D+D+B+F+A+B+w+v+F+A+D+B+A+D+D+u+B+u+D+D+",
"G+D+D+B+D+D+F+v+F+D+D+u+D+u+B+D+v+w+w+B+A+D+u+D+F+u+v+w+F+D+D+F+F+F+B+D+w+s+w+D+A+w+s+w+B+B+F+F+F+D+w+w+v+A+D+B+A+B+B+v+w+F+D+D+",
"A+D+B+B+D+u+v+w+v+D+D+w+D+v+D+D+w+s+w+B+A+B+F+D+w+w+u+D+D+D+D+F+w+v+u+B+F+w+F+D+D+F+w+v+A+A+F+v+F+B+w+s+w+A+D+D+A+D+B+v+w+v+D+D+",
"D+B+B+D+D+u+w+s+w+B+B+D+D+w+D+D+F+w+F+D+B+A+v+B+u+w+u+D+D+D+D+w+w+w+B+B+B+D+u+B+D+B+B+C+B+A+v+w+v+u+F+w+F+A+D+D+B+B+D+u+w+u+B+D+",
"D+D+B+D+D+u+F+w+F+B+D+A+D+u+B+D+D+D+u+A+A+A+w+B+D+D+D+B+D+D+D+w+s+w+D+B+u+F+F+u+D+B+u+u+A+A+w+s+w+u+u+D+D+B+B+D+A+B+D+A+u+A+D+D+",
"D+D+D+B+u+w+u+D+D+D+u+u+D+A+D+D+D+F+F+A+B+A+s+B+D+D+D+B+D+D+D+F+w+F+D+B+u+v+v+u+D+B+A+A+B+B+F+w+F+u+F+A+D+A+D+D+B+B+D+u+F+u+B+D+",
"D+D+D+B+F+s+F+u+D+B+v+v+D+A+D+D+D+F+F+A+D+B+w+B+D+B+D+B+D+D+D+u+B+u+D+B+C+s+w+F+D+D+A+t+D+D+D+D+u+w+F+A+D+A+D+D+D+D+B+F+F+F+B+D+",
"D+D+D+A+v+w+v+u+D+A+v+v+D+B+B+B+D+B+B+A+D+D+D+B+u+u+B+A+D+B+D+F+v+F+D+B+F+w+w+u+D+B+A+A+D+D+D+A+v+s+w+A+D+A+A+B+D+D+D+G+v+F+D+B+",
"D+D+D+A+w+w+w+u+D+B+w+w+B+B+D+D+D+B+B+t+B+D+D+B+F+u+u+A+B+B+D+u+F+u+D+B+v+v+C+B+D+D+B+A+D+D+D+B+u+w+C+A+B+B+B+D+D+D+D+v+w+w+D+D+",
"D+B+B+A+F+v+F+u+D+D+u+u+B+B+D+B+D+B+B+A+D+D+D+u+v+v+u+D+D+B+D+u+v+u+B+A+B+B+B+B+D+D+u+u+D+D+D+B+D+B+u+t+B+B+D+B+D+D+D+u+v+u+D+D+",
"D+B+B+A+D+D+B+u+D+D+D+A+B+B+D+D+D+C+C+A+D+B+D+u+w+v+C+B+D+u+D+u+v+u+D+A+B+B+B+B+D+D+v+v+D+B+D+D+D+F+C+A+B+B+D+D+B+A+B+u+F+u+D+B+",
"D+D+D+A+D+B+D+D+D+B+D+A+D+B+D+D+D+F+F+A+D+D+D+C+F+w+B+A+D+F+D+F+v+F+D+B+B+u+B+D+D+B+v+v+D+D+D+A+D+F+C+A+D+B+D+D+A+B+D+F+F+F+D+D+",
"D+D+D+B+B+u+B+D+D+D+D+B+D+B+B+D+D+F+F+B+D+B+D+F+C+u+D+A+D+v+D+v+w+v+D+B+u+F+u+B+B+B+w+w+D+B+D+A+D+C+F+A+D+B+B+D+D+D+D+v+v+F+D+B+",
"D+D+D+B+B+u+B+D+D+D+B+B+D+D+B+D+D+w+w+A+D+A+D+F+w+F+D+u+D+w+D+v+w+v+A+B+F+F+F+B+D+B+u+u+D+A+D+A+D+B+C+B+D+D+B+D+D+D+D+C+v+C+D+B+",
"D+A+D+D+u+F+u+D+D+D+u+u+B+A+D+D+D+C+C+B+D+B+D+F+w+F+B+v+D+u+D+F+v+F+D+B+F+w+F+B+D+A+B+B+D+B+D+B+D+F+D+D+D+A+D+D+D+A+D+u+v+u+B+D+",
"D+B+B+D+F+F+C+D+D+D+u+u+B+A+D+D+D+D+D+D+B+A+D+w+s+w+B+v+D+A+D+F+w+F+D+B+w+s+w+B+D+u+D+D+D+B+D+A+D+F+C+B+D+D+C+D+D+D+D+F+F+F+D+B+",
"D+D+B+D+B+F+B+D+D+A+C+C+D+B+D+D+D+D+D+D+D+t+D+w+s+w+B+w+D+B+D+u+C+u+D+B+F+w+F+B+D+F+D+D+D+A+D+B+D+v+F+D+D+B+v+D+D+B+D+F+v+v+D+D+",
"D+B+A+D+D+A+D+B+D+B+B+B+D+B+B+B+D+D+D+D+B+t+D+F+w+F+A+s+D+B+B+u+u+C+D+D+B+B+B+B+D+F+D+D+D+B+D+B+D+C+F+D+D+A+v+D+D+u+D+B+w+w+D+B+",
"D+A+D+D+B+A+D+D+B+B+D+D+D+B+D+D+D+B+D+D+A+A+D+u+w+u+D+w+D+u+B+C+u+F+D+B+B+u+B+B+D+w+D+D+B+B+D+B+D+D+v+D+B+B+w+D+u+v+u+B+v+u+D+B+",
"D+B+D+A+B+A+D+D+B+B+D+D+u+D+B+D+A+A+D+B+B+A+B+B+D+D+D+D+D+u+u+u+u+u+D+B+u+u+B+B+A+s+u+B+D+B+B+D+D+B+C+B+B+A+s+D+v+v+v+A+D+D+D+D+",
"D+D+D+B+D+A+D+D+D+t+D+B+F+B+D+D+A+A+B+D+B+B+B+u+D+D+D+B+D+u+C+C+u+B+D+B+u+u+u+B+B+w+u+u+D+u+B+B+B+D+D+A+D+A+w+D+v+w+v+A+D+D+B+D+",
"B+A+D+D+D+B+D+D+A+A+D+A+v+D+D+D+t+A+B+D+B+A+D+F+B+A+D+D+D+F+F+C+D+B+D+B+u+F+u+B+A+D+C+u+D+F+D+B+A+A+D+B+B+B+D+D+w+s+w+B+B+D+D+D+",
"D+B+D+t+D+B+D+D+A+B+D+A+w+D+B+D+A+A+B+D+B+A+D+F+D+B+D+D+D+B+C+B+B+B+D+B+F+F+F+D+B+B+F+C+D+v+D+B+B+A+D+B+B+B+D+D+C+w+u+B+D+D+D+D+",
"D+A+D+t+B+D+D+D+A+B+D+B+u+D+B+D+D+A+D+D+D+A+D+v+D+A+D+D+B+D+D+D+B+A+B+D+u+v+u+D+D+A+B+B+D+w+D+D+B+B+D+B+B+B+B+u+B+D+B+D+D+D+B+D+",
"t+D+D+t+B+B+D+D+G+A+D+B+u+B+B+D+t+B+D+D+D+B+D+B+t+B+D+D+D+B+D+D+G+B+B+D+u+v+u+D+t+B+D+D+D+u+D+D+G+B+D+B+B+A+B+u+u+F+B+D+D+B+B+D+",
"G+B+D+B+D+B+D+D+G+t+B+B+D+D+D+D+G+A+D+D+D+D+D+B+G+t+B+D+D+D+D+D+t+A+B+D+v+B+v+B+t+A+D+D+D+B+D+D+G+A+D+B+B+D+B+v+u+B+A+D+D+D+D+B+",
"D+D+D+A+B+D+D+D+B+A+A+D+D+D+D+D+D+D+D+B+D+D+F+D+D+B+D+D+B+D+D+D+D+t+D+D+v+u+v+A+D+D+D+D+D+D+D+D+D+A+A+D+D+B+F+w+F+u+D+D+F+B+D+B+",
"D+A+F+B+D+D+D+D+t+t+D+D+F+A+D+D+D+B+D+D+D+F+F+F+B+t+D+D+B+B+D+D+B+A+D+D+u+C+u+B+B+B+D+D+u+D+D+D+A+A+B+D+B+A+F+w+F+B+B+F+F+F+D+B+"};
