/* XPM */
static char * organic_wall3_xpm[] = {
"64 64 256 2",
"  	c #000000",
". 	c #0000FF",
"+ 	c #00FF00",
"@ 	c #FF0000",
"# 	c #00FFFF",
"$ 	c #FFFF00",
"% 	c #FF00FF",
"& 	c #FFFFFF",
"* 	c #7B7B7B",
"= 	c #7B7B7B",
"- 	c #7B7B7B",
"; 	c #7B7B7B",
"> 	c #7B7B7B",
", 	c #7B7B7B",
"' 	c #7B7B7B",
") 	c #7B7B7B",
"! 	c #7B7B7B",
"~ 	c #7B7B7B",
"{ 	c #7B7B7B",
"] 	c #7B7B7B",
"^ 	c #7B7B7B",
"/ 	c #7B7B7B",
"( 	c #7B7B7B",
"_ 	c #7B7B7B",
": 	c #7B7B7B",
"< 	c #7B7B7B",
"[ 	c #7B7B7B",
"} 	c #7B7B7B",
"| 	c #7B7B7B",
"1 	c #7B7B7B",
"2 	c #7B7B7B",
"3 	c #7B7B7B",
"4 	c #7B7B7B",
"5 	c #7B7B7B",
"6 	c #7B7B7B",
"7 	c #7B7B7B",
"8 	c #7B7B7B",
"9 	c #7B7B7B",
"0 	c #7B7B7B",
"a 	c #7B7B7B",
"b 	c #7B7B7B",
"c 	c #7B7B7B",
"d 	c #7B7B7B",
"e 	c #7B7B7B",
"f 	c #7B7B7B",
"g 	c #7B7B7B",
"h 	c #7B7B7B",
"i 	c #7B7B7B",
"j 	c #7B7B7B",
"k 	c #7B7B7B",
"l 	c #7B7B7B",
"m 	c #7B7B7B",
"n 	c #7B7B7B",
"o 	c #7B7B7B",
"p 	c #7B7B7B",
"q 	c #7B7B7B",
"r 	c #7B7B7B",
"s 	c #7B7B7B",
"t 	c #7B7B7B",
"u 	c #7B7B7B",
"v 	c #7B7B7B",
"w 	c #7B7B7B",
"x 	c #7B7B7B",
"y 	c #7B7B7B",
"z 	c #7B7B7B",
"A 	c #7B7B7B",
"B 	c #7B7B7B",
"C 	c #7B7B7B",
"D 	c #7B7B7B",
"E 	c #7B7B7B",
"F 	c #7B7B7B",
"G 	c #7B7B7B",
"H 	c #7B7B7B",
"I 	c #7B7B7B",
"J 	c #7B7B7B",
"K 	c #7B7B7B",
"L 	c #7B7B7B",
"M 	c #7B7B7B",
"N 	c #7B7B7B",
"O 	c #7B7B7B",
"P 	c #7B7B7B",
"Q 	c #7B7B7B",
"R 	c #7B7B7B",
"S 	c #7B7B7B",
"T 	c #7B7B7B",
"U 	c #7B7B7B",
"V 	c #7B7B7B",
"W 	c #7B7B7B",
"X 	c #7B7B7B",
"Y 	c #7B7B7B",
"Z 	c #7B7B7B",
"` 	c #7B7B7B",
" .	c #7B7B7B",
"..	c #7B7B7B",
"+.	c #7B7B7B",
"@.	c #7B7B7B",
"#.	c #7B7B7B",
"$.	c #7B7B7B",
"%.	c #7B7B7B",
"&.	c #7B7B7B",
"*.	c #7B7B7B",
"=.	c #7B7B7B",
"-.	c #7B7B7B",
";.	c #7B7B7B",
">.	c #7B7B7B",
",.	c #7B7B7B",
"'.	c #7B7B7B",
").	c #7B7B7B",
"!.	c #7B7B7B",
"~.	c #7B7B7B",
"{.	c #7B7B7B",
"].	c #7B7B7B",
"^.	c #7B7B7B",
"/.	c #7B7B7B",
"(.	c #7B7B7B",
"_.	c #7B7B7B",
":.	c #7B7B7B",
"<.	c #7B7B7B",
"[.	c #7B7B7B",
"}.	c #7B7B7B",
"|.	c #7B7B7B",
"1.	c #7B7B7B",
"2.	c #7B7B7B",
"3.	c #7B7B7B",
"4.	c #7B7B7B",
"5.	c #7B7B7B",
"6.	c #7B7B7B",
"7.	c #7B7B7B",
"8.	c #7B7B7B",
"9.	c #7B7B7B",
"0.	c #7B7B7B",
"a.	c #7B7B7B",
"b.	c #7B7B7B",
"c.	c #7B7B7B",
"d.	c #7B7B7B",
"e.	c #7B7B7B",
"f.	c #7B7B7B",
"g.	c #7B7B7B",
"h.	c #7B7B7B",
"i.	c #7B7B7B",
"j.	c #7B7B7B",
"k.	c #7B7B7B",
"l.	c #7B7B7B",
"m.	c #7B7B7B",
"n.	c #7B7B7B",
"o.	c #7B7B7B",
"p.	c #7B7B7B",
"q.	c #7B7B7B",
"r.	c #7B7B7B",
"s.	c #7B7B7B",
"t.	c #7B7B7B",
"u.	c #7B7B7B",
"v.	c #7B7B7B",
"w.	c #7B7B7B",
"x.	c #7B7B7B",
"y.	c #7B7B7B",
"z.	c #7B7B7B",
"A.	c #7B7B7B",
"B.	c #7B7B7B",
"C.	c #7B7B7B",
"D.	c #7B7B7B",
"E.	c #7B7B7B",
"F.	c #7B7B7B",
"G.	c #7B7B7B",
"H.	c #7B7B7B",
"I.	c #7B7B7B",
"J.	c #7B7B7B",
"K.	c #7B7B7B",
"L.	c #7B7B7B",
"M.	c #7B7B7B",
"N.	c #7B7B7B",
"O.	c #7B7B7B",
"P.	c #7B7B7B",
"Q.	c #7B7B7B",
"R.	c #7B7B7B",
"S.	c #7B7B7B",
"T.	c #7B7B7B",
"U.	c #7B7B7B",
"V.	c #7B7B7B",
"W.	c #7B7B7B",
"X.	c #7B7B7B",
"Y.	c #7B7B7B",
"Z.	c #7B7B7B",
"`.	c #7B7B7B",
" +	c #7B7B7B",
".+	c #7B7B7B",
"++	c #7B7B7B",
"@+	c #7B7B7B",
"#+	c #7B7B7B",
"$+	c #7B7B7B",
"%+	c #7B7B7B",
"&+	c #7B7B7B",
"*+	c #7B7B7B",
"=+	c #7B7B7B",
"-+	c #7B7B7B",
";+	c #7B7B7B",
">+	c #7B7B7B",
",+	c #7B7B7B",
"'+	c #7B7B7B",
")+	c #7B7B7B",
"!+	c #7B7B7B",
"~+	c #7B7B7B",
"{+	c #7B7B7B",
"]+	c #7B7B7B",
"^+	c #7B7B7B",
"/+	c #7B7B7B",
"(+	c #7B7B7B",
"_+	c #7B7B7B",
":+	c #7B7B7B",
"<+	c #7B7B7B",
"[+	c #7B7B7B",
"}+	c #7B7B7B",
"|+	c #7B7B7B",
"1+	c #7B7B7B",
"2+	c #7B7B7B",
"3+	c #7B7B7B",
"4+	c #7B7B7B",
"5+	c #7B7B7B",
"6+	c #7B7B7B",
"7+	c #7B7B7B",
"8+	c #7B7B7B",
"9+	c #7B7B7B",
"0+	c #7B7B7B",
"a+	c #7B7B7B",
"b+	c #7B7B7B",
"c+	c #7B7B7B",
"d+	c #7B7B7B",
"e+	c #7B7B7B",
"f+	c #7B7B7B",
"g+	c #7B7B7B",
"h+	c #7B7B7B",
"i+	c #7B7B7B",
"j+	c #7B7B7B",
"k+	c #7B7B7B",
"l+	c #7B7B7B",
"m+	c #7B7B7B",
"n+	c #7B7B7B",
"o+	c #7B7B7B",
"p+	c #7B7B7B",
"q+	c #7B7B7B",
"r+	c #7B7B7B",
"s+	c #9C3131",
"t+	c #730000",
"u+	c #6A0808",
"v+	c #831818",
"w+	c #8B2020",
"x+	c #9C0000",
"y+	c #8B0000",
"z+	c #410000",
"A+	c #620000",
"B+	c #5A0000",
"C+	c #731010",
"D+	c #4A0000",
"E+	c #7B1818",
"F+	c #620808",
"G+	c #7B0000",
"B+D+A+D+D+D+B+D+D+B+B+D+D+A+D+D+B+D+A+A+D+D+D+D+A+D+A+D+D+D+B+D+D+B+B+A+D+D+D+B+D+D+A+A+D+D+B+B+D+B+A+D+D+A+D+D+B+A+B+A+D+B+D+B+",
"B+D+A+A+D+D+B+B+A+B+B+B+D+D+D+B+A+D+B+A+D+B+D+A+A+D+A+B+D+D+B+D+A+B+D+A+D+D+D+B+A+D+D+A+D+B+D+A+B+B+D+B+D+D+D+A+A+A+B+D+D+B+D+A+",
"B+D+t+B+D+B+D+B+A+B+D+t+D+A+D+B+B+D+D+D+D+D+D+u+A+D+A+B+D+B+D+B+A+A+D+t+D+D+D+D+B+D+D+D+D+B+D+B+B+A+D+A+D+A+D+B+A+A+D+B+D+A+D+D+",
"t+D+B+A+D+D+D+B+B+B+D+B+D+A+D+B+G+D+D+B+D+B+u+E+E+D+D+A+u+D+D+D+t+D+D+A+A+B+D+B+G+D+D+A+D+B+A+D+B+u+D+D+D+B+D+B+G+D+D+A+A+A+D+D+",
"A+D+B+B+D+B+D+A+A+D+D+B+B+B+B+B+y+D+B+B+A+A+u+E+E+D+B+u+E+u+D+B+G+D+D+A+D+A+D+B+y+D+B+u+A+D+D+D+u+v+u+D+B+D+D+B+y+D+D+A+D+A+D+B+",
"t+D+B+B+D+D+D+B+A+A+D+A+A+A+D+D+G+D+D+A+A+A+E+w+G+D+D+E+v+E+D+D+t+D+B+A+D+D+D+B+G+D+u+E+u+B+D+D+v+v+E+A+A+B+D+D+G+D+B+u+D+B+D+D+",
"A+D+A+A+D+D+D+D+B+D+B+A+B+A+D+D+D+D+B+B+B+D+v+w+w+D+B+v+w+v+D+D+D+D+B+B+D+E+D+u+D+D+E+v+E+u+B+D+v+w+v+B+D+B+D+D+D+B+A+E+B+B+D+D+",
"t+D+D+A+D+D+D+D+B+B+D+A+B+B+D+D+D+A+D+A+D+A+u+v+E+D+D+w+s+w+D+D+t+B+B+B+B+E+B+v+t+D+E+v+E+u+D+D+w+s+w+A+D+B+D+D+A+u+A+u+A+t+A+D+",
"A+D+t+A+B+B+D+u+A+D+D+B+B+B+D+D+B+A+D+A+D+G+D+D+A+B+A+u+C+u+B+D+t+D+B+A+D+v+D+v+G+D+v+w+w+C+D+D+u+w+u+A+D+G+D+D+G+E+u+C+D+A+D+A+",
"B+D+D+A+D+A+u+E+u+B+B+A+B+B+B+D+D+u+B+A+D+x+B+B+B+D+D+B+D+B+B+D+D+D+B+A+D+D+D+w+D+D+u+v+u+E+A+D+D+D+B+B+D+x+D+D+E+E+E+E+B+B+B+D+",
"D+D+D+B+D+D+E+E+E+B+D+A+B+B+D+B+D+u+C+B+D+D+D+D+D+D+D+A+D+B+A+B+D+D+B+A+D+D+B+E+D+D+D+D+D+u+D+D+D+D+D+A+D+D+D+D+E+v+E+E+D+B+B+D+",
"A+D+D+B+D+A+E+v+E+B+B+A+D+A+B+D+D+C+C+B+D+B+D+D+A+D+D+A+u+A+D+D+D+D+B+A+D+D+B+E+D+D+D+A+D+B+D+D+D+D+B+A+D+A+B+D+C+v+C+D+D+D+A+B+",
"A+D+B+B+A+D+w+w+v+D+D+A+D+D+D+B+D+E+v+B+D+D+D+B+A+D+B+u+E+u+D+B+D+B+D+A+D+D+B+D+D+D+D+u+D+D+D+B+D+B+D+A+D+D+D+B+u+v+u+B+D+A+B+D+",
"A+B+B+A+D+B+u+v+u+D+B+A+B+D+D+D+D+u+E+u+D+D+D+B+A+D+D+E+E+E+B+B+D+B+D+B+D+D+B+E+D+D+B+E+B+D+D+B+D+u+D+A+D+D+D+D+E+E+E+A+D+B+D+D+",
"D+A+D+A+u+D+D+D+D+B+D+B+D+B+B+D+D+E+E+E+D+u+D+D+D+A+D+E+v+E+A+B+D+B+D+A+D+A+B+E+D+D+u+E+B+D+D+B+D+u+u+A+D+B+B+D+E+w+E+A+D+A+A+D+",
"A+A+B+u+E+u+D+D+D+B+D+B+D+B+D+D+D+E+w+E+u+E+u+B+A+A+D+v+w+v+D+D+D+D+D+D+u+D+D+D+D+D+u+E+u+D+D+B+D+E+u+A+D+A+D+D+v+w+v+D+D+D+D+D+",
"B+B+B+E+E+E+A+B+D+B+D+B+D+A+B+D+D+v+s+v+u+E+E+A+A+B+D+u+v+u+B+D+D+D+D+u+E+u+D+E+D+D+C+E+C+B+D+A+D+v+E+A+D+B+A+B+u+w+u+B+D+u+D+D+",
"D+D+D+E+E+E+B+D+D+B+D+A+B+D+A+D+D+u+w+u+u+E+E+B+D+D+D+A+D+A+B+D+D+D+D+E+E+E+D+D+D+D+B+C+B+D+D+B+D+w+E+A+D+D+u+D+D+D+B+D+D+v+D+D+",
"D+D+A+w+w+E+A+D+D+D+D+u+D+A+B+D+D+u+B+A+E+w+B+A+D+D+B+B+D+D+A+D+D+D+D+E+w+E+D+A+D+D+D+D+D+D+D+A+D+u+v+B+D+u+u+B+D+D+D+B+D+v+D+A+",
"D+D+D+u+w+u+D+D+D+D+D+E+D+A+D+D+D+v+v+B+u+E+B+B+D+D+A+B+B+B+D+D+D+C+D+u+s+w+D+B+D+D+B+B+D+D+D+B+D+D+w+B+D+E+B+B+D+u+D+D+D+w+D+B+",
"D+D+B+A+D+B+A+D+D+B+D+u+D+A+D+D+D+w+w+B+D+D+D+B+D+D+A+D+D+A+B+D+C+C+C+B+w+u+D+B+D+D+A+B+D+D+D+B+D+D+B+B+D+E+u+u+u+v+u+B+D+B+D+B+",
"D+D+D+B+B+A+A+A+D+B+D+B+D+B+D+D+D+u+B+B+D+A+D+B+D+D+D+B+B+B+B+A+C+E+E+B+D+D+D+A+D+D+D+A+D+A+D+D+D+D+D+B+D+D+u+E+u+B+v+B+D+D+D+A+",
"D+B+B+A+B+D+B+A+D+D+u+u+D+B+u+D+D+D+B+A+D+A+E+B+D+B+D+A+B+D+B+A+E+v+E+A+D+D+D+A+D+D+B+A+D+B+B+D+D+u+D+D+D+B+E+E+v+u+B+A+E+D+D+A+",
"D+D+E+B+D+D+D+D+D+D+D+u+E+u+B+u+D+B+A+A+D+E+E+E+D+D+D+B+D+D+D+D+v+E+E+u+D+D+D+B+D+D+D+B+D+B+B+D+D+E+D+D+D+A+E+v+w+C+u+E+E+E+D+B+",
"D+E+E+E+D+D+D+D+D+D+B+E+E+E+B+u+D+D+B+A+D+E+v+E+D+D+D+E+D+D+D+D+D+B+C+E+B+D+D+B+D+D+D+A+D+B+D+D+D+v+B+B+D+A+v+w+w+C+u+E+v+E+D+B+",
"D+E+w+E+B+D+D+D+B+D+u+w+v+v+u+E+B+u+A+A+D+v+w+v+D+D+E+E+E+D+D+B+B+D+E+D+u+E+D+D+D+D+E+A+D+t+B+D+B+w+u+A+D+B+w+s+w+D+A+v+w+v+D+A+",
"A+v+w+v+D+D+D+B+A+D+u+v+w+w+C+B+A+v+u+D+D+w+s+w+A+D+E+v+E+D+B+B+B+B+u+B+E+E+E+D+B+E+E+E+D+B+B+A+B+B+u+E+D+D+E+w+E+D+B+w+s+w+D+B+",
"A+w+s+w+D+D+D+E+A+D+D+w+s+w+u+B+E+v+v+B+D+E+w+E+A+B+v+w+v+D+B+B+A+B+E+u+v+v+E+D+A+E+w+E+D+D+B+A+A+B+v+E+E+D+D+D+A+D+A+E+w+E+A+B+",
"B+E+w+E+D+B+E+E+E+B+B+E+w+E+D+D+E+w+w+A+B+A+D+B+B+A+w+s+w+D+D+D+E+u+D+u+w+w+v+D+A+v+w+w+D+D+D+E+A+D+E+v+E+D+D+D+G+D+D+A+D+B+A+D+",
"B+D+D+A+D+u+E+w+E+B+B+A+D+C+D+D+v+w+w+A+D+A+B+A+B+B+E+w+E+D+D+E+E+E+B+D+w+s+w+D+D+w+s+w+D+B+E+E+E+B+v+w+v+D+D+D+B+D+D+A+D+D+D+D+",
"A+B+D+A+D+C+v+w+v+B+u+u+D+C+D+D+w+s+w+A+D+D+u+D+A+B+D+D+D+D+D+E+w+E+u+A+E+w+E+D+A+E+w+E+D+A+E+v+E+D+w+s+w+D+D+B+A+D+A+A+D+A+B+D+",
"A+D+D+A+D+C+w+s+w+B+v+v+D+B+D+D+E+w+E+A+D+D+E+D+t+B+D+A+D+B+D+v+w+w+u+A+D+D+u+D+D+B+D+A+D+B+v+w+v+D+E+w+E+A+D+D+t+D+A+A+D+A+B+D+",
"A+D+B+A+D+C+E+w+E+B+v+v+D+A+D+D+A+D+B+A+D+D+v+D+A+u+B+D+D+B+B+w+s+w+u+A+D+u+E+u+A+D+D+A+D+D+w+s+w+u+u+D+D+B+D+B+y+B+D+A+D+A+B+D+",
"A+D+A+A+D+D+D+D+A+D+w+w+D+B+D+D+y+u+u+t+D+A+w+B+u+E+u+B+D+B+D+E+w+v+u+A+D+E+E+E+t+D+D+A+D+A+E+w+E+u+v+B+D+A+D+D+G+D+D+A+u+A+D+D+",
"A+D+A+B+D+B+D+B+A+D+u+u+D+B+D+D+G+E+E+A+D+A+s+A+E+E+E+A+D+B+D+D+D+D+D+t+B+E+w+E+A+B+u+u+D+B+u+D+u+w+v+A+D+A+D+D+t+D+D+u+u+u+D+D+",
"D+D+A+B+D+B+D+B+B+D+D+A+B+A+B+B+B+v+v+A+D+A+w+D+E+v+E+C+D+A+D+D+D+D+D+A+B+w+w+v+D+D+v+E+D+B+E+D+v+w+E+B+D+A+B+D+D+D+D+E+E+E+B+D+",
"B+D+D+A+D+A+D+B+A+D+D+t+B+t+D+D+A+B+B+A+D+A+D+D+w+w+v+E+D+u+D+D+A+D+D+B+B+u+w+u+B+D+v+E+D+A+E+D+v+w+w+B+D+A+D+D+A+D+D+v+v+v+B+D+",
"A+D+D+A+D+A+D+B+A+B+B+A+B+B+D+D+G+B+B+B+D+D+D+D+u+v+u+E+D+E+B+D+B+D+B+B+u+u+D+B+A+D+w+E+D+B+v+D+u+v+u+B+D+D+B+D+A+D+B+w+w+w+B+D+",
"B+D+D+D+D+u+D+D+A+D+B+A+D+A+D+D+A+D+B+B+D+B+D+D+D+D+D+w+D+v+D+D+D+D+D+B+E+E+E+B+A+B+u+u+D+B+w+D+A+D+D+D+D+A+D+D+D+B+D+u+v+u+D+D+",
"D+B+B+B+u+E+u+D+B+B+u+u+B+A+B+D+D+C+C+D+D+B+D+D+D+B+B+D+D+w+D+D+B+D+D+B+E+s+E+B+D+B+D+D+D+B+v+D+D+u+A+B+D+A+B+D+D+B+B+u+E+u+D+B+",
"D+D+B+A+E+v+E+D+A+B+E+E+D+A+D+D+D+E+E+A+D+B+D+D+D+u+D+D+D+u+D+D+u+D+D+B+v+s+v+B+D+B+D+B+D+D+D+D+A+E+A+A+D+A+B+D+D+B+B+E+v+E+D+A+",
"D+D+D+A+v+w+v+D+B+B+v+v+D+A+B+D+D+B+B+A+D+B+D+B+u+E+u+B+D+A+D+B+u+B+B+B+u+w+v+B+D+D+D+B+D+D+D+D+B+B+u+A+D+A+B+D+D+B+A+v+w+E+D+B+",
"D+D+D+A+w+s+w+D+D+D+w+w+D+A+B+D+D+u+u+B+D+B+D+u+v+E+E+A+D+A+D+u+u+u+B+A+B+B+B+A+D+D+D+A+D+D+D+D+B+u+E+B+D+t+A+D+D+D+A+v+w+v+D+A+",
"D+B+B+A+u+C+u+B+D+D+u+u+D+B+D+B+D+u+u+A+D+B+B+u+v+w+E+A+D+B+B+u+u+u+A+A+B+B+B+A+D+D+u+t+D+B+D+D+B+u+B+A+D+A+B+B+D+B+A+E+v+u+D+A+",
"D+B+B+t+B+D+B+D+D+D+B+A+B+B+D+D+D+u+u+t+B+B+D+u+w+s+v+A+B+B+D+u+E+u+D+t+B+B+B+B+D+D+v+t+B+B+D+D+D+u+u+A+D+B+u+D+D+D+D+A+u+D+D+B+",
"D+B+B+A+B+B+D+B+D+D+B+A+D+B+D+D+D+E+E+A+D+D+D+C+E+w+u+A+D+B+B+u+C+u+D+B+B+u+B+B+D+D+v+E+D+B+D+D+B+E+u+t+D+B+v+B+D+D+B+u+E+u+D+B+",
"D+B+D+D+B+u+D+D+B+A+B+A+D+A+D+B+D+E+E+A+D+D+B+E+u+B+D+A+B+u+u+E+C+E+B+B+u+E+u+B+D+D+w+E+D+u+B+D+A+E+u+A+D+A+v+D+D+u+B+D+E+E+D+D+",
"D+B+D+B+u+E+u+D+A+B+u+u+D+D+D+D+D+E+E+t+D+D+D+E+w+E+D+A+D+u+u+v+v+v+D+B+E+E+E+B+D+D+u+u+D+E+D+D+A+B+E+A+D+B+w+B+u+v+u+B+v+E+D+A+",
"D+D+B+B+u+E+E+D+D+B+E+E+B+D+D+B+D+B+B+A+D+B+D+E+w+E+D+B+D+u+E+v+v+v+D+B+E+w+E+B+D+D+D+A+D+v+D+D+B+C+B+A+D+B+s+B+v+v+v+u+v+C+D+A+",
"D+D+D+D+E+v+E+D+D+B+C+C+B+D+D+B+D+D+D+B+D+A+D+w+s+w+D+D+D+C+E+v+E+E+D+B+w+s+w+B+D+D+D+B+D+w+D+D+D+E+B+A+D+B+w+D+v+w+v+u+v+u+D+A+",
"D+B+D+B+v+w+v+D+D+B+B+B+B+A+B+D+D+C+B+D+B+A+D+w+s+w+D+A+B+u+C+E+v+E+B+B+E+s+E+B+D+B+B+E+D+u+D+B+D+C+C+B+D+A+B+D+w+s+w+u+B+E+D+B+",
"D+D+D+D+B+v+u+D+D+D+B+B+D+A+D+B+D+C+C+D+B+A+D+u+w+u+D+D+B+A+D+u+C+u+D+D+B+B+B+B+D+B+B+E+D+A+D+B+D+v+C+B+B+A+D+B+B+w+u+u+B+E+D+A+",
"D+A+D+D+D+D+D+D+D+B+D+B+D+A+D+D+D+B+C+D+D+B+D+B+w+u+D+D+D+B+D+C+C+C+D+D+D+E+B+B+D+D+B+E+D+B+D+D+D+C+E+D+D+A+D+D+D+D+D+B+C+B+D+B+",
"D+D+D+D+D+B+B+D+D+B+D+D+B+B+D+B+D+E+E+D+D+A+D+B+D+B+D+D+D+B+B+E+E+C+D+D+B+B+B+D+D+D+D+w+D+B+D+B+D+D+E+D+B+D+D+E+D+D+D+u+u+u+D+B+",
"D+B+D+B+B+B+D+D+D+B+D+A+D+D+D+B+D+D+B+D+D+A+E+D+D+B+D+D+D+B+D+B+C+u+D+B+u+B+u+B+D+A+B+s+D+B+D+D+D+D+C+D+D+B+E+E+E+B+D+D+E+B+D+B+",
"D+D+E+A+D+A+D+D+D+A+D+A+E+D+D+D+D+B+D+A+B+E+E+E+B+B+D+A+D+B+B+B+E+u+D+B+B+u+B+B+D+D+u+B+D+D+D+D+B+B+D+B+A+B+E+v+E+A+B+E+E+E+B+D+",
"B+E+E+E+B+u+D+D+D+B+D+E+E+E+B+D+D+D+D+D+D+E+v+E+D+D+D+E+D+D+D+D+D+A+D+B+u+C+u+u+D+D+u+u+D+B+D+D+B+A+D+A+D+D+v+w+w+A+D+E+v+E+B+B+",
"A+E+v+E+u+u+B+D+B+A+D+E+v+E+D+D+B+A+D+D+B+w+w+v+A+B+E+E+E+D+D+D+B+A+B+D+C+v+C+D+D+A+E+B+D+B+D+D+B+B+D+B+A+D+w+s+w+u+B+v+w+w+D+B+",
"B+v+w+w+u+u+D+D+B+u+B+v+w+v+D+D+D+E+D+D+u+w+s+w+A+B+E+v+E+D+B+D+A+B+B+B+E+w+E+B+D+E+E+E+D+D+D+D+B+D+D+E+D+D+E+w+v+u+A+w+s+w+D+B+",
"B+w+s+w+u+B+B+E+B+B+B+w+s+w+B+D+E+E+E+B+u+E+w+E+A+B+v+w+v+D+B+D+D+A+D+u+E+v+E+u+D+E+v+E+u+D+D+D+B+B+E+E+E+D+D+B+u+v+D+E+w+v+D+D+",
"A+E+w+E+u+B+E+E+E+B+B+E+w+E+B+D+E+v+E+A+E+u+B+D+G+A+w+s+w+B+D+D+E+B+D+u+w+w+v+u+A+v+w+v+u+D+D+E+A+D+E+v+E+B+B+w+E+w+D+D+D+u+D+D+",
"G+A+D+B+D+B+E+v+E+C+A+D+D+D+D+B+w+w+v+A+B+E+w+D+G+A+E+w+E+u+D+E+G+E+D+u+w+s+w+B+A+w+s+w+u+D+E+E+E+B+v+w+v+D+D+B+E+B+D+D+D+B+D+D+",
"D+A+A+B+D+B+v+w+v+C+B+D+D+B+D+u+w+s+w+A+A+D+w+D+B+A+A+D+u+E+u+E+v+E+D+u+E+w+E+D+D+E+w+E+C+u+E+v+E+A+w+s+w+A+D+A+D+D+D+D+D+D+D+D+",
"A+A+B+D+B+A+w+s+w+C+A+D+B+D+D+u+E+w+E+A+B+D+w+D+t+t+B+D+E+v+u+v+w+v+D+E+u+D+D+D+A+A+D+u+s+u+v+w+v+A+E+w+E+D+D+B+C+A+D+D+D+B+D+D+"};
