/* XPM */
static char * organic_wall2_xpm[] = {
"64 64 256 2",
"  	c #000000",
". 	c #0000FF",
"+ 	c #00FF00",
"@ 	c #FF0000",
"# 	c #00FFFF",
"$ 	c #FFFF00",
"% 	c #FF00FF",
"& 	c #FFFFFF",
"* 	c #7B7B7B",
"= 	c #7B7B7B",
"- 	c #7B7B7B",
"; 	c #7B7B7B",
"> 	c #7B7B7B",
", 	c #7B7B7B",
"' 	c #7B7B7B",
") 	c #7B7B7B",
"! 	c #7B7B7B",
"~ 	c #7B7B7B",
"{ 	c #7B7B7B",
"] 	c #7B7B7B",
"^ 	c #7B7B7B",
"/ 	c #7B7B7B",
"( 	c #7B7B7B",
"_ 	c #7B7B7B",
": 	c #7B7B7B",
"< 	c #7B7B7B",
"[ 	c #7B7B7B",
"} 	c #7B7B7B",
"| 	c #7B7B7B",
"1 	c #7B7B7B",
"2 	c #7B7B7B",
"3 	c #7B7B7B",
"4 	c #7B7B7B",
"5 	c #7B7B7B",
"6 	c #7B7B7B",
"7 	c #7B7B7B",
"8 	c #7B7B7B",
"9 	c #7B7B7B",
"0 	c #7B7B7B",
"a 	c #7B7B7B",
"b 	c #7B7B7B",
"c 	c #7B7B7B",
"d 	c #7B7B7B",
"e 	c #7B7B7B",
"f 	c #7B7B7B",
"g 	c #7B7B7B",
"h 	c #7B7B7B",
"i 	c #7B7B7B",
"j 	c #7B7B7B",
"k 	c #7B7B7B",
"l 	c #7B7B7B",
"m 	c #7B7B7B",
"n 	c #7B7B7B",
"o 	c #7B7B7B",
"p 	c #7B7B7B",
"q 	c #7B7B7B",
"r 	c #7B7B7B",
"s 	c #7B7B7B",
"t 	c #7B7B7B",
"u 	c #7B7B7B",
"v 	c #7B7B7B",
"w 	c #7B7B7B",
"x 	c #7B7B7B",
"y 	c #7B7B7B",
"z 	c #7B7B7B",
"A 	c #7B7B7B",
"B 	c #7B7B7B",
"C 	c #7B7B7B",
"D 	c #7B7B7B",
"E 	c #7B7B7B",
"F 	c #7B7B7B",
"G 	c #7B7B7B",
"H 	c #7B7B7B",
"I 	c #7B7B7B",
"J 	c #7B7B7B",
"K 	c #7B7B7B",
"L 	c #7B7B7B",
"M 	c #7B7B7B",
"N 	c #7B7B7B",
"O 	c #7B7B7B",
"P 	c #7B7B7B",
"Q 	c #7B7B7B",
"R 	c #7B7B7B",
"S 	c #7B7B7B",
"T 	c #7B7B7B",
"U 	c #7B7B7B",
"V 	c #7B7B7B",
"W 	c #7B7B7B",
"X 	c #7B7B7B",
"Y 	c #7B7B7B",
"Z 	c #7B7B7B",
"` 	c #7B7B7B",
" .	c #7B7B7B",
"..	c #7B7B7B",
"+.	c #7B7B7B",
"@.	c #7B7B7B",
"#.	c #7B7B7B",
"$.	c #7B7B7B",
"%.	c #7B7B7B",
"&.	c #7B7B7B",
"*.	c #7B7B7B",
"=.	c #7B7B7B",
"-.	c #7B7B7B",
";.	c #7B7B7B",
">.	c #7B7B7B",
",.	c #7B7B7B",
"'.	c #7B7B7B",
").	c #7B7B7B",
"!.	c #7B7B7B",
"~.	c #7B7B7B",
"{.	c #7B7B7B",
"].	c #7B7B7B",
"^.	c #7B7B7B",
"/.	c #7B7B7B",
"(.	c #7B7B7B",
"_.	c #7B7B7B",
":.	c #7B7B7B",
"<.	c #7B7B7B",
"[.	c #7B7B7B",
"}.	c #7B7B7B",
"|.	c #7B7B7B",
"1.	c #7B7B7B",
"2.	c #7B7B7B",
"3.	c #7B7B7B",
"4.	c #7B7B7B",
"5.	c #7B7B7B",
"6.	c #7B7B7B",
"7.	c #7B7B7B",
"8.	c #7B7B7B",
"9.	c #7B7B7B",
"0.	c #7B7B7B",
"a.	c #7B7B7B",
"b.	c #7B7B7B",
"c.	c #7B7B7B",
"d.	c #7B7B7B",
"e.	c #7B7B7B",
"f.	c #7B7B7B",
"g.	c #7B7B7B",
"h.	c #7B7B7B",
"i.	c #7B7B7B",
"j.	c #7B7B7B",
"k.	c #7B7B7B",
"l.	c #7B7B7B",
"m.	c #7B7B7B",
"n.	c #7B7B7B",
"o.	c #7B7B7B",
"p.	c #7B7B7B",
"q.	c #7B7B7B",
"r.	c #7B7B7B",
"s.	c #7B7B7B",
"t.	c #7B7B7B",
"u.	c #7B7B7B",
"v.	c #7B7B7B",
"w.	c #7B7B7B",
"x.	c #7B7B7B",
"y.	c #7B7B7B",
"z.	c #7B7B7B",
"A.	c #7B7B7B",
"B.	c #7B7B7B",
"C.	c #7B7B7B",
"D.	c #7B7B7B",
"E.	c #7B7B7B",
"F.	c #7B7B7B",
"G.	c #7B7B7B",
"H.	c #7B7B7B",
"I.	c #7B7B7B",
"J.	c #7B7B7B",
"K.	c #7B7B7B",
"L.	c #7B7B7B",
"M.	c #7B7B7B",
"N.	c #7B7B7B",
"O.	c #7B7B7B",
"P.	c #7B7B7B",
"Q.	c #7B7B7B",
"R.	c #7B7B7B",
"S.	c #7B7B7B",
"T.	c #7B7B7B",
"U.	c #7B7B7B",
"V.	c #7B7B7B",
"W.	c #7B7B7B",
"X.	c #7B7B7B",
"Y.	c #7B7B7B",
"Z.	c #7B7B7B",
"`.	c #7B7B7B",
" +	c #7B7B7B",
".+	c #7B7B7B",
"++	c #7B7B7B",
"@+	c #7B7B7B",
"#+	c #7B7B7B",
"$+	c #7B7B7B",
"%+	c #7B7B7B",
"&+	c #7B7B7B",
"*+	c #7B7B7B",
"=+	c #7B7B7B",
"-+	c #7B7B7B",
";+	c #7B7B7B",
">+	c #7B7B7B",
",+	c #7B7B7B",
"'+	c #7B7B7B",
")+	c #7B7B7B",
"!+	c #7B7B7B",
"~+	c #7B7B7B",
"{+	c #7B7B7B",
"]+	c #7B7B7B",
"^+	c #7B7B7B",
"/+	c #7B7B7B",
"(+	c #7B7B7B",
"_+	c #7B7B7B",
":+	c #7B7B7B",
"<+	c #7B7B7B",
"[+	c #7B7B7B",
"}+	c #7B7B7B",
"|+	c #7B7B7B",
"1+	c #7B7B7B",
"2+	c #7B7B7B",
"3+	c #7B7B7B",
"4+	c #7B7B7B",
"5+	c #7B7B7B",
"6+	c #7B7B7B",
"7+	c #7B7B7B",
"8+	c #7B7B7B",
"9+	c #7B7B7B",
"0+	c #7B7B7B",
"a+	c #7B7B7B",
"b+	c #7B7B7B",
"c+	c #7B7B7B",
"d+	c #7B7B7B",
"e+	c #7B7B7B",
"f+	c #7B7B7B",
"g+	c #7B7B7B",
"h+	c #7B7B7B",
"i+	c #7B7B7B",
"j+	c #7B7B7B",
"k+	c #7B7B7B",
"l+	c #7B7B7B",
"m+	c #7B7B7B",
"n+	c #7B7B7B",
"o+	c #7B7B7B",
"p+	c #7B7B7B",
"q+	c #7B7B7B",
"r+	c #7B7B7B",
"s+	c #730000",
"t+	c #6A0808",
"u+	c #9C3131",
"v+	c #831818",
"w+	c #8B2020",
"x+	c #9C0000",
"y+	c #8B0000",
"z+	c #410000",
"A+	c #620000",
"B+	c #5A0000",
"C+	c #731010",
"D+	c #4A0000",
"E+	c #620808",
"F+	c #7B1818",
"G+	c #7B0000",
"D+B+A+D+D+A+D+D+B+A+B+A+D+B+D+B+B+D+D+D+D+D+B+D+D+B+B+D+D+A+D+D+B+D+A+A+D+D+D+D+A+D+A+D+D+D+B+D+D+B+B+A+D+D+D+B+D+D+A+A+D+D+B+B+",
"B+B+D+B+D+D+D+A+A+A+B+D+D+B+D+A+B+D+B+A+D+D+B+B+A+B+B+B+D+D+D+B+A+D+B+A+D+B+D+A+A+D+A+F+D+D+B+D+A+B+D+A+D+D+D+B+A+D+D+A+D+B+D+A+",
"B+A+D+B+D+B+D+B+A+A+D+B+D+A+D+D+B+D+A+B+D+B+D+B+A+B+D+s+D+A+D+B+B+D+D+D+D+B+D+B+A+D+t+F+t+B+D+B+A+A+D+s+D+A+D+D+B+D+D+D+D+B+D+B+",
"B+A+D+B+D+B+D+B+G+D+D+A+A+A+D+D+s+D+B+A+D+D+D+B+B+B+D+B+D+A+D+B+G+D+D+B+D+B+A+D+s+D+F+v+F+D+B+D+s+D+D+A+A+A+D+B+G+D+D+A+D+B+A+D+",
"B+D+D+D+t+D+D+B+y+D+D+A+D+A+D+B+D+A+t+D+D+t+D+D+A+D+D+B+B+B+B+B+y+D+B+B+A+A+D+B+s+D+F+w+F+B+D+B+G+D+D+A+D+A+D+B+y+D+B+A+A+B+D+D+",
"B+B+D+t+F+t+D+D+G+D+B+t+D+B+D+D+B+t+v+t+B+F+t+B+A+A+D+A+A+A+D+D+G+D+D+A+t+A+D+B+s+D+v+w+v+B+D+D+s+D+B+A+D+D+D+B+G+D+D+A+A+B+D+D+",
"B+D+D+F+F+B+D+t+D+D+A+F+B+B+D+D+D+v+v+v+t+F+F+D+B+D+B+A+B+A+D+D+D+D+B+t+F+t+B+D+B+D+t+w+t+B+D+D+D+D+B+B+B+D+D+D+D+t+A+D+B+t+B+D+",
"B+A+D+F+F+t+t+F+F+B+A+v+A+s+A+D+D+v+w+v+t+w+F+D+B+B+D+B+B+B+D+D+s+D+A+F+F+F+D+D+s+D+D+D+D+B+D+D+s+B+B+B+A+s+B+t+F+F+t+B+B+F+D+D+",
"B+D+D+w+w+F+F+F+G+D+B+w+D+A+D+A+A+w+u+w+C+u+w+D+A+B+D+B+B+B+D+D+G+D+B+F+w+F+D+D+A+B+A+B+D+D+B+D+s+D+B+A+D+s+B+t+A+F+F+A+B+v+D+D+",
"D+B+B+t+F+t+F+v+F+B+B+u+B+B+B+D+A+v+w+t+t+x+t+B+B+A+D+A+t+B+D+D+D+D+D+w+u+x+B+B+B+D+D+A+D+B+B+D+D+D+B+A+D+y+t+B+C+v+F+A+D+w+A+D+",
"D+D+D+A+D+D+v+w+v+D+B+w+D+B+B+D+A+t+D+B+D+D+D+B+B+B+D+t+F+t+D+B+D+D+D+t+w+t+D+D+D+D+D+t+D+D+A+B+D+t+t+A+D+B+t+B+t+v+C+D+D+t+D+D+",
"D+D+D+A+D+A+t+v+t+D+D+D+D+D+A+B+B+D+B+B+D+A+B+D+B+B+B+F+v+F+B+D+D+D+D+B+D+B+D+D+A+D+B+F+B+B+B+D+D+F+F+A+D+t+B+t+B+v+t+B+D+B+D+D+",
"D+B+D+A+D+D+D+D+D+D+D+A+D+A+B+D+A+D+B+A+A+D+B+B+D+D+D+B+w+v+D+B+D+D+D+B+D+D+D+B+A+D+t+F+t+D+D+B+D+F+F+A+D+F+t+D+t+F+t+D+D+D+D+B+",
"D+B+B+B+D+D+D+D+D+D+B+B+D+B+D+D+A+B+B+A+D+B+B+D+D+D+B+t+u+w+D+D+D+D+D+A+D+D+D+B+A+D+D+F+t+A+B+B+D+F+F+A+D+D+t+F+t+B+F+B+D+D+D+B+",
"D+B+D+A+D+D+B+B+D+D+B+A+D+A+A+D+D+D+D+s+D+D+F+D+D+B+D+t+t+t+B+D+D+B+D+A+D+D+D+B+D+A+B+F+C+D+A+B+D+w+F+D+D+B+F+F+v+B+B+B+F+D+D+B+",
"D+D+F+A+D+B+B+D+B+B+D+D+F+D+D+D+D+B+t+A+D+F+F+F+D+B+D+B+D+B+D+D+D+C+B+D+B+D+D+B+A+B+B+B+B+B+D+D+D+t+w+B+D+D+F+v+v+C+B+F+F+F+D+B+",
"D+F+F+F+D+B+F+B+t+B+D+F+F+F+B+t+B+t+B+A+B+F+v+F+D+D+D+F+D+D+B+D+D+t+t+t+D+D+D+A+A+B+D+D+B+A+B+D+D+B+t+D+D+D+v+w+w+C+C+F+v+F+D+A+",
"D+F+v+F+D+t+B+t+B+B+B+F+v+v+t+F+D+t+t+A+D+v+w+v+D+B+F+F+F+D+A+D+B+t+F+D+B+F+D+D+D+D+F+A+D+A+B+D+D+D+B+A+D+D+w+u+w+C+t+v+w+v+D+B+",
"D+v+w+v+D+t+t+t+t+D+D+v+w+w+C+B+D+v+C+D+D+w+u+w+D+D+F+w+F+A+B+D+t+B+F+B+F+F+F+B+D+F+F+F+D+D+B+D+D+D+D+F+D+D+F+w+F+B+t+w+u+w+D+A+",
"D+w+u+w+D+B+B+v+B+D+D+w+u+w+C+t+F+F+F+B+B+F+w+F+D+D+v+w+v+A+D+D+t+t+v+t+F+v+F+B+D+F+v+F+B+B+D+B+D+D+F+F+F+D+D+B+C+w+t+F+w+F+D+B+",
"D+F+w+F+D+t+F+v+F+D+B+F+w+F+C+t+F+v+F+A+D+B+D+D+D+B+w+u+w+A+D+D+F+t+B+t+w+w+v+B+D+v+w+v+D+D+B+F+D+D+F+v+F+B+D+t+F+B+A+B+D+D+D+B+",
"D+D+D+B+D+C+F+w+F+D+B+B+D+D+D+A+v+w+v+A+B+A+A+A+D+B+F+w+F+B+D+F+F+F+B+t+w+u+w+B+D+w+u+w+B+B+F+F+F+B+v+w+v+B+D+A+D+D+A+A+D+A+D+D+",
"D+D+D+D+D+C+v+w+v+D+D+s+D+D+D+A+w+u+w+A+B+D+B+t+D+D+D+t+D+B+D+F+v+F+A+B+F+w+F+B+D+F+w+F+B+D+F+v+F+t+w+u+w+D+D+A+D+D+B+A+D+B+B+D+",
"D+D+B+B+D+D+w+u+w+D+D+B+D+D+D+B+F+w+F+B+D+D+B+t+B+D+D+w+D+B+D+v+w+v+A+A+D+D+B+B+D+D+D+B+D+D+v+w+v+t+F+w+F+D+D+B+D+D+D+A+D+B+B+D+",
"D+B+A+A+D+A+F+w+F+D+D+s+D+D+D+B+D+D+t+A+D+D+t+t+t+D+B+B+D+B+D+w+u+w+B+A+D+B+t+B+D+D+t+t+D+D+w+u+w+t+t+D+D+D+D+B+D+D+D+s+D+B+D+D+",
"B+B+A+A+D+B+D+D+B+D+A+s+A+D+D+A+D+v+v+A+B+D+t+C+t+D+D+s+D+B+D+F+w+F+A+A+D+t+F+t+D+D+F+F+B+D+F+w+F+t+v+B+A+D+D+B+B+D+D+A+D+s+B+D+",
"s+B+B+A+D+D+D+D+A+D+B+A+D+D+D+B+s+w+w+A+D+D+C+F+F+D+D+s+D+C+D+D+D+t+A+D+D+F+F+F+A+D+v+v+D+D+t+D+t+v+v+A+B+D+D+D+A+B+A+A+D+B+B+A+",
"s+D+B+A+D+D+D+D+A+D+A+A+D+B+A+B+A+t+B+A+D+D+t+F+F+B+D+A+D+F+B+D+C+F+C+B+D+F+w+v+A+B+w+w+D+B+F+B+v+w+v+A+B+A+B+D+A+D+B+A+D+D+B+A+",
"y+D+D+A+D+D+D+D+G+D+t+t+D+B+A+D+B+B+D+A+D+D+D+D+A+A+B+A+D+v+D+D+F+F+F+A+B+v+w+w+B+A+t+t+D+B+F+B+w+u+w+A+D+A+A+D+s+A+D+A+D+A+D+B+",
"s+D+D+A+D+D+D+D+B+D+v+v+D+D+D+D+B+D+D+A+D+B+D+t+A+B+B+A+D+w+D+D+F+v+F+A+D+t+w+t+B+B+D+D+D+B+v+B+t+w+t+A+D+D+D+D+D+D+B+A+D+A+B+A+",
"A+D+A+A+D+D+D+B+A+D+v+v+D+A+B+D+A+B+D+A+D+B+B+t+A+t+A+D+D+C+D+D+v+w+v+A+D+B+D+A+A+B+D+B+D+B+w+D+A+D+t+A+D+A+B+D+A+D+D+A+D+A+D+A+",
"s+D+D+A+D+A+D+D+s+D+w+w+D+A+B+D+A+t+t+A+D+B+D+t+F+F+t+B+D+B+D+D+C+v+C+A+B+B+B+D+s+B+D+A+D+B+v+D+A+F+F+A+D+A+B+D+A+B+D+A+D+B+B+D+",
"A+D+A+A+D+B+D+B+y+B+t+t+D+A+B+D+A+F+F+A+D+B+B+F+F+F+F+B+D+A+D+D+A+D+B+A+B+B+B+A+s+B+C+C+D+B+B+B+A+v+v+A+D+B+B+D+y+D+D+A+D+D+A+A+",
"A+D+A+s+D+A+D+D+G+D+B+A+D+A+B+D+A+w+w+A+D+D+D+t+v+v+F+A+D+B+D+D+A+B+D+B+B+t+B+B+s+D+F+F+D+B+D+D+s+w+w+A+D+A+B+D+y+D+D+A+D+A+A+A+",
"A+D+A+B+D+A+D+D+s+D+D+A+D+A+D+D+A+t+B+B+D+B+D+B+v+w+v+A+D+B+D+D+A+B+D+B+t+C+t+B+s+D+v+w+D+B+D+D+G+t+B+s+D+A+D+D+G+B+D+A+D+B+D+A+",
"A+D+A+B+D+A+B+D+D+D+D+B+D+A+B+D+D+B+B+B+D+B+D+B+t+v+t+A+B+A+B+B+B+B+D+B+F+v+C+B+D+D+w+w+D+A+D+D+G+D+D+s+D+A+D+D+D+D+D+A+D+A+D+D+",
"B+D+B+B+D+A+D+D+A+D+t+t+D+A+B+D+B+D+D+A+D+A+D+B+A+D+D+s+B+s+D+D+A+D+B+B+C+F+C+B+B+D+C+v+D+t+D+D+A+D+D+A+D+D+B+D+B+D+A+A+D+A+D+D+",
"A+D+D+D+D+D+B+D+A+D+F+F+B+B+B+D+A+D+D+A+D+A+D+B+A+B+B+A+B+B+D+D+B+D+B+B+v+F+v+B+A+D+D+C+D+F+B+D+D+D+D+s+A+D+t+D+A+D+D+A+t+D+D+D+",
"A+D+B+B+D+A+D+D+D+B+v+v+A+A+D+D+B+t+t+B+D+A+D+D+A+t+B+D+D+A+t+D+D+D+D+B+F+F+F+B+D+D+D+w+D+v+D+D+A+t+t+B+A+B+F+D+A+B+B+t+F+t+D+D+",
"D+D+D+A+D+A+B+D+D+B+w+w+B+A+D+B+D+C+C+B+D+A+D+D+t+F+t+B+B+t+t+t+B+B+D+D+B+B+B+D+D+B+B+D+D+w+D+D+B+F+F+B+B+A+v+A+D+B+D+F+F+F+D+D+",
"A+D+D+A+D+A+B+D+D+B+t+t+A+A+D+A+D+C+C+s+D+B+B+D+F+F+F+A+D+F+F+F+t+B+B+A+D+B+D+D+D+B+D+A+D+t+B+D+D+t+t+D+A+A+w+D+D+t+D+D+v+F+D+D+",
"B+D+D+B+D+A+B+D+D+B+A+A+B+B+D+B+D+C+C+A+D+B+D+D+F+w+F+A+D+v+w+v+t+t+D+A+D+t+B+B+D+D+t+t+D+A+D+D+D+t+t+A+B+A+u+D+t+v+t+t+w+v+D+D+",
"B+D+D+A+D+B+A+D+D+D+A+s+D+D+D+A+D+C+C+A+D+B+D+D+v+w+w+A+D+v+w+w+t+t+D+B+D+t+B+t+D+B+v+v+D+A+D+D+D+t+t+A+D+B+w+B+F+v+v+t+B+t+D+D+",
"B+D+D+B+D+B+B+B+D+B+A+A+D+D+D+A+D+F+F+A+D+A+B+B+t+v+t+A+D+t+v+t+t+t+D+B+B+B+B+B+D+A+v+v+D+B+B+B+D+t+t+A+D+D+D+A+B+w+v+A+B+B+D+D+",
"D+B+D+A+D+B+D+D+D+D+B+A+D+D+D+B+D+F+F+s+B+B+B+D+D+D+D+D+B+B+D+t+v+t+D+B+t+B+t+B+D+B+w+w+B+B+D+D+D+F+F+A+B+D+D+B+C+u+w+B+t+B+D+D+",
"B+B+B+D+B+t+D+D+D+D+t+B+D+D+D+B+D+C+C+B+B+t+D+D+D+D+B+B+D+B+D+F+v+F+D+B+t+D+D+t+D+D+D+t+B+B+D+B+D+F+F+s+D+D+D+F+t+B+t+t+t+t+D+D+",
"A+A+B+t+F+F+B+B+D+D+v+t+D+B+D+D+D+D+t+B+D+t+F+D+D+A+B+A+D+A+D+v+w+v+D+t+F+B+D+t+D+D+D+A+B+B+D+D+D+B+B+D+D+B+F+F+F+D+D+t+v+t+D+D+",
"D+B+F+t+B+F+t+D+D+B+B+t+F+D+D+A+D+B+D+A+B+F+F+F+B+B+D+A+D+D+D+v+w+v+D+D+B+t+B+D+D+B+D+B+D+B+D+D+D+B+B+B+D+D+F+v+F+D+D+F+v+F+D+D+",
"B+F+F+F+B+w+t+B+B+B+t+v+F+F+D+A+D+t+B+B+t+v+w+F+B+D+D+F+D+D+D+F+B+F+D+B+t+t+t+B+D+D+D+B+D+B+B+D+D+B+B+A+D+B+v+w+v+D+D+F+w+v+D+D+",
"D+F+v+v+C+w+B+B+D+B+t+F+v+F+D+A+D+t+t+D+t+w+w+v+t+B+F+F+F+D+D+F+t+F+D+D+t+v+t+D+D+D+F+B+D+D+B+D+D+C+t+B+D+A+w+u+w+D+D+w+w+w+D+D+",
"D+v+w+w+t+F+t+D+D+A+B+v+w+v+D+D+D+F+t+D+B+w+u+w+B+t+F+v+F+A+B+B+t+B+D+B+v+w+v+D+D+F+F+F+B+A+D+D+D+B+t+F+D+D+F+w+F+B+B+w+u+w+D+B+",
"D+w+u+w+D+D+D+F+D+D+D+w+u+w+D+B+F+v+v+D+D+F+w+F+t+t+v+w+v+A+D+t+t+t+B+t+w+u+w+D+D+F+w+F+B+A+D+D+D+B+F+F+F+B+D+D+D+B+B+v+w+v+D+B+",
"D+F+w+C+D+B+F+F+F+B+D+F+w+F+D+B+F+w+F+D+D+B+B+t+t+t+w+u+w+A+D+t+F+t+D+B+w+w+w+B+D+v+w+w+D+D+D+F+D+D+w+v+F+A+D+B+D+D+B+t+B+t+D+D+",
"D+D+D+D+B+A+F+v+F+t+D+D+D+B+D+B+v+w+v+D+D+A+F+t+C+t+F+w+F+B+D+F+F+F+B+B+w+u+w+B+D+w+u+w+D+B+F+F+F+B+w+w+v+A+D+B+D+D+A+t+D+B+D+B+",
"D+B+D+B+D+B+v+w+v+C+D+D+B+B+D+B+w+u+w+B+B+B+F+t+C+t+D+D+D+D+D+F+w+F+D+B+F+w+F+B+B+F+w+F+D+B+F+v+F+t+w+u+w+A+D+B+D+D+D+v+D+D+D+D+",
"B+A+D+A+A+B+w+u+w+C+t+B+D+B+B+D+F+w+F+A+B+A+w+C+F+v+B+D+B+t+D+v+w+v+D+B+t+B+t+B+B+B+D+D+t+D+v+w+w+t+F+w+F+A+B+B+D+D+t+v+t+D+D+D+",
"B+D+D+A+D+B+F+w+F+C+t+t+D+t+B+B+B+D+D+B+D+A+F+C+F+F+D+B+t+F+t+w+u+w+D+B+t+w+t+B+D+s+D+B+F+B+w+u+w+t+t+D+B+B+B+t+D+D+v+v+v+B+D+D+",
"B+B+D+B+A+B+D+D+A+D+C+t+D+F+D+B+A+A+D+B+B+B+D+B+F+t+D+B+F+F+t+F+w+F+D+D+B+B+B+D+A+A+D+A+v+D+F+w+F+t+F+D+B+A+D+F+B+A+v+w+v+B+D+D+",
"A+B+D+D+D+t+D+D+B+B+F+C+D+v+D+B+B+B+D+B+B+B+D+B+F+t+B+B+F+v+F+D+D+B+D+B+B+B+D+D+A+B+D+A+w+D+B+D+t+F+t+D+B+A+D+F+D+B+w+u+w+D+D+D+",
"B+A+B+D+B+F+B+D+D+A+B+B+D+w+D+D+B+B+D+B+B+B+B+D+D+A+A+D+v+w+w+D+D+A+D+t+t+B+D+D+A+B+D+B+u+D+B+D+D+B+D+D+D+A+D+v+D+A+t+w+t+D+D+D+",
"G+B+B+D+B+v+B+D+s+B+D+D+D+t+D+D+G+B+D+B+B+A+B+D+A+A+B+D+t+w+t+D+s+D+D+t+F+t+D+D+G+A+D+B+w+B+B+D+s+B+D+D+D+B+D+B+A+B+D+D+D+B+D+D+",
"s+A+B+D+B+w+B+B+s+A+D+D+D+B+D+D+G+A+D+B+D+B+B+D+s+s+A+D+D+D+D+B+G+A+D+F+v+F+D+D+G+s+B+B+D+D+D+D+G+A+D+D+D+B+D+B+A+A+B+D+D+D+D+D+",
"D+s+D+D+B+u+B+A+D+D+D+D+D+D+D+D+D+A+A+B+D+B+D+B+D+B+B+D+D+B+D+B+D+D+D+v+C+v+D+D+B+A+A+D+D+D+D+D+D+D+D+B+D+D+D+D+C+B+D+D+B+D+D+D+",
"B+A+A+D+B+w+B+B+B+A+D+D+t+D+D+D+A+A+B+D+B+B+B+D+B+B+A+D+B+D+D+B+B+A+D+C+v+t+D+D+s+s+B+D+B+A+B+D+D+A+D+D+D+D+D+C+B+C+D+D+B+B+D+D+"};
