/* XPM */
static char * organic_wall_xpm[] = {
"64 64 256 2",
"  	c #000000",
". 	c #0000FF",
"+ 	c #00FF00",
"@ 	c #FF0000",
"# 	c #00FFFF",
"$ 	c #FFFF00",
"% 	c #FF00FF",
"& 	c #FFFFFF",
"* 	c #7B7B7B",
"= 	c #7B7B7B",
"- 	c #7B7B7B",
"; 	c #7B7B7B",
"> 	c #7B7B7B",
", 	c #7B7B7B",
"' 	c #7B7B7B",
") 	c #7B7B7B",
"! 	c #7B7B7B",
"~ 	c #7B7B7B",
"{ 	c #7B7B7B",
"] 	c #7B7B7B",
"^ 	c #7B7B7B",
"/ 	c #7B7B7B",
"( 	c #7B7B7B",
"_ 	c #7B7B7B",
": 	c #7B7B7B",
"< 	c #7B7B7B",
"[ 	c #7B7B7B",
"} 	c #7B7B7B",
"| 	c #7B7B7B",
"1 	c #7B7B7B",
"2 	c #7B7B7B",
"3 	c #7B7B7B",
"4 	c #7B7B7B",
"5 	c #7B7B7B",
"6 	c #7B7B7B",
"7 	c #7B7B7B",
"8 	c #7B7B7B",
"9 	c #7B7B7B",
"0 	c #7B7B7B",
"a 	c #7B7B7B",
"b 	c #7B7B7B",
"c 	c #7B7B7B",
"d 	c #7B7B7B",
"e 	c #7B7B7B",
"f 	c #7B7B7B",
"g 	c #7B7B7B",
"h 	c #7B7B7B",
"i 	c #7B7B7B",
"j 	c #7B7B7B",
"k 	c #7B7B7B",
"l 	c #7B7B7B",
"m 	c #7B7B7B",
"n 	c #7B7B7B",
"o 	c #7B7B7B",
"p 	c #7B7B7B",
"q 	c #7B7B7B",
"r 	c #7B7B7B",
"s 	c #7B7B7B",
"t 	c #7B7B7B",
"u 	c #7B7B7B",
"v 	c #7B7B7B",
"w 	c #7B7B7B",
"x 	c #7B7B7B",
"y 	c #7B7B7B",
"z 	c #7B7B7B",
"A 	c #7B7B7B",
"B 	c #7B7B7B",
"C 	c #7B7B7B",
"D 	c #7B7B7B",
"E 	c #7B7B7B",
"F 	c #7B7B7B",
"G 	c #7B7B7B",
"H 	c #7B7B7B",
"I 	c #7B7B7B",
"J 	c #7B7B7B",
"K 	c #7B7B7B",
"L 	c #7B7B7B",
"M 	c #7B7B7B",
"N 	c #7B7B7B",
"O 	c #7B7B7B",
"P 	c #7B7B7B",
"Q 	c #7B7B7B",
"R 	c #7B7B7B",
"S 	c #7B7B7B",
"T 	c #7B7B7B",
"U 	c #7B7B7B",
"V 	c #7B7B7B",
"W 	c #7B7B7B",
"X 	c #7B7B7B",
"Y 	c #7B7B7B",
"Z 	c #7B7B7B",
"` 	c #7B7B7B",
" .	c #7B7B7B",
"..	c #7B7B7B",
"+.	c #7B7B7B",
"@.	c #7B7B7B",
"#.	c #7B7B7B",
"$.	c #7B7B7B",
"%.	c #7B7B7B",
"&.	c #7B7B7B",
"*.	c #7B7B7B",
"=.	c #7B7B7B",
"-.	c #7B7B7B",
";.	c #7B7B7B",
">.	c #7B7B7B",
",.	c #7B7B7B",
"'.	c #7B7B7B",
").	c #7B7B7B",
"!.	c #7B7B7B",
"~.	c #7B7B7B",
"{.	c #7B7B7B",
"].	c #7B7B7B",
"^.	c #7B7B7B",
"/.	c #7B7B7B",
"(.	c #7B7B7B",
"_.	c #7B7B7B",
":.	c #7B7B7B",
"<.	c #7B7B7B",
"[.	c #7B7B7B",
"}.	c #7B7B7B",
"|.	c #7B7B7B",
"1.	c #7B7B7B",
"2.	c #7B7B7B",
"3.	c #7B7B7B",
"4.	c #7B7B7B",
"5.	c #7B7B7B",
"6.	c #7B7B7B",
"7.	c #7B7B7B",
"8.	c #7B7B7B",
"9.	c #7B7B7B",
"0.	c #7B7B7B",
"a.	c #7B7B7B",
"b.	c #7B7B7B",
"c.	c #7B7B7B",
"d.	c #7B7B7B",
"e.	c #7B7B7B",
"f.	c #7B7B7B",
"g.	c #7B7B7B",
"h.	c #7B7B7B",
"i.	c #7B7B7B",
"j.	c #7B7B7B",
"k.	c #7B7B7B",
"l.	c #7B7B7B",
"m.	c #7B7B7B",
"n.	c #7B7B7B",
"o.	c #7B7B7B",
"p.	c #7B7B7B",
"q.	c #7B7B7B",
"r.	c #7B7B7B",
"s.	c #7B7B7B",
"t.	c #7B7B7B",
"u.	c #7B7B7B",
"v.	c #7B7B7B",
"w.	c #7B7B7B",
"x.	c #7B7B7B",
"y.	c #7B7B7B",
"z.	c #7B7B7B",
"A.	c #7B7B7B",
"B.	c #7B7B7B",
"C.	c #7B7B7B",
"D.	c #7B7B7B",
"E.	c #7B7B7B",
"F.	c #7B7B7B",
"G.	c #7B7B7B",
"H.	c #7B7B7B",
"I.	c #7B7B7B",
"J.	c #7B7B7B",
"K.	c #7B7B7B",
"L.	c #7B7B7B",
"M.	c #7B7B7B",
"N.	c #7B7B7B",
"O.	c #7B7B7B",
"P.	c #7B7B7B",
"Q.	c #7B7B7B",
"R.	c #7B7B7B",
"S.	c #7B7B7B",
"T.	c #7B7B7B",
"U.	c #7B7B7B",
"V.	c #7B7B7B",
"W.	c #7B7B7B",
"X.	c #7B7B7B",
"Y.	c #7B7B7B",
"Z.	c #7B7B7B",
"`.	c #7B7B7B",
" +	c #7B7B7B",
".+	c #7B7B7B",
"++	c #7B7B7B",
"@+	c #7B7B7B",
"#+	c #7B7B7B",
"$+	c #7B7B7B",
"%+	c #7B7B7B",
"&+	c #7B7B7B",
"*+	c #7B7B7B",
"=+	c #7B7B7B",
"-+	c #7B7B7B",
";+	c #7B7B7B",
">+	c #7B7B7B",
",+	c #7B7B7B",
"'+	c #7B7B7B",
")+	c #7B7B7B",
"!+	c #7B7B7B",
"~+	c #7B7B7B",
"{+	c #7B7B7B",
"]+	c #7B7B7B",
"^+	c #7B7B7B",
"/+	c #7B7B7B",
"(+	c #7B7B7B",
"_+	c #7B7B7B",
":+	c #7B7B7B",
"<+	c #7B7B7B",
"[+	c #7B7B7B",
"}+	c #7B7B7B",
"|+	c #7B7B7B",
"1+	c #7B7B7B",
"2+	c #7B7B7B",
"3+	c #7B7B7B",
"4+	c #7B7B7B",
"5+	c #7B7B7B",
"6+	c #7B7B7B",
"7+	c #7B7B7B",
"8+	c #7B7B7B",
"9+	c #7B7B7B",
"0+	c #7B7B7B",
"a+	c #7B7B7B",
"b+	c #7B7B7B",
"c+	c #7B7B7B",
"d+	c #7B7B7B",
"e+	c #7B7B7B",
"f+	c #7B7B7B",
"g+	c #7B7B7B",
"h+	c #7B7B7B",
"i+	c #7B7B7B",
"j+	c #7B7B7B",
"k+	c #7B7B7B",
"l+	c #7B7B7B",
"m+	c #7B7B7B",
"n+	c #7B7B7B",
"o+	c #7B7B7B",
"p+	c #7B7B7B",
"q+	c #7B7B7B",
"r+	c #7B7B7B",
"s+	c #9C3131",
"t+	c #6A0808",
"u+	c #730000",
"v+	c #831818",
"w+	c #8B2020",
"x+	c #9C0000",
"y+	c #8B0000",
"z+	c #410000",
"A+	c #620000",
"B+	c #5A0000",
"C+	c #731010",
"D+	c #4A0000",
"E+	c #620808",
"F+	c #7B1818",
"G+	c #7B0000",
"D+B+B+A+D+D+D+B+D+D+A+A+D+D+B+B+D+B+A+D+D+A+D+D+B+A+B+A+D+B+D+B+B+D+A+D+D+D+B+D+D+B+B+D+D+A+D+D+B+D+A+A+D+D+D+D+A+D+A+D+D+D+B+D+",
"A+B+D+A+D+D+D+B+A+D+D+A+D+B+D+A+B+B+D+B+D+D+D+A+A+A+B+D+D+B+D+A+B+D+A+A+D+D+B+B+A+B+B+B+D+D+D+B+A+D+B+A+D+B+D+D+D+D+A+u+D+D+B+D+",
"A+A+D+u+D+D+D+D+B+D+D+D+D+B+D+B+B+A+D+A+D+A+D+B+A+A+D+B+D+A+D+D+B+D+u+B+D+B+D+B+A+B+D+u+D+A+D+B+B+D+D+D+D+B+D+B+B+D+A+B+D+B+D+B+",
"u+D+D+A+A+B+D+B+G+D+D+A+D+B+A+D+B+A+D+B+D+B+D+B+G+D+D+A+A+A+D+D+u+D+B+A+D+D+D+B+B+B+D+B+D+A+D+B+G+D+D+B+D+B+B+D+B+D+B+A+D+D+B+D+",
"G+D+D+A+D+D+D+t+u+D+B+A+B+B+D+D+B+D+D+D+B+D+D+B+y+D+D+D+D+A+D+B+A+D+B+B+D+B+D+A+A+D+D+B+B+B+B+B+y+D+B+B+A+A+D+B+A+D+B+B+B+B+D+B+",
"u+D+B+B+D+D+t+F+G+D+D+B+A+B+D+D+B+B+D+A+A+B+D+D+G+D+B+B+D+B+D+D+u+D+B+B+D+D+D+B+A+A+D+A+A+A+D+D+G+D+D+A+A+D+D+F+t+D+D+D+D+B+D+D+",
"D+D+B+B+D+t+F+v+F+D+A+A+B+t+B+D+B+D+D+B+D+B+F+D+D+B+B+t+B+B+D+D+A+D+A+A+D+D+D+D+B+D+B+A+B+A+D+D+D+D+B+D+B+D+F+F+F+B+D+D+F+B+D+D+",
"D+B+F+B+D+t+F+B+G+D+D+A+F+t+D+D+B+B+D+A+D+F+F+F+B+B+D+t+t+A+D+D+u+D+D+A+D+D+D+D+B+B+D+B+B+B+D+D+D+A+D+B+D+A+F+v+v+t+B+F+F+F+D+D+",
"B+F+F+F+D+C+v+t+v+D+D+F+F+F+B+D+D+D+D+A+D+G+v+F+A+D+B+v+t+D+D+A+D+D+u+A+B+A+D+D+A+D+D+t+B+D+D+D+B+A+D+A+D+A+v+w+w+C+t+F+v+F+B+D+",
"D+F+v+F+D+u+B+C+B+D+D+F+v+v+t+t+D+B+B+B+D+x+w+v+D+B+F+w+v+B+B+D+B+D+D+D+D+F+D+D+D+B+F+t+D+B+B+D+D+t+D+A+D+A+w+s+w+C+t+v+w+v+B+D+",
"D+v+w+v+D+s+B+D+D+D+D+v+w+w+t+B+D+F+D+D+D+w+s+w+D+D+F+w+w+t+B+D+D+D+t+B+F+F+F+B+B+F+F+F+B+B+D+B+D+D+t+F+D+D+F+w+v+C+C+w+s+w+A+B+",
"D+w+s+w+D+B+B+F+D+D+D+w+s+w+C+B+F+F+F+B+D+F+w+F+D+D+v+w+s+C+A+B+A+D+F+t+F+v+F+D+B+F+w+F+t+A+B+D+D+B+F+F+F+B+D+D+t+w+t+F+w+F+B+D+",
"D+F+w+F+D+D+F+F+F+D+D+F+w+v+C+C+F+v+F+A+D+D+D+B+D+D+w+s+w+t+D+D+F+D+B+t+w+w+v+B+D+v+w+w+t+D+D+F+D+B+v+v+F+D+D+B+t+B+t+A+D+D+D+B+",
"D+B+D+A+D+D+F+w+F+D+D+A+D+t+w+t+v+w+w+A+D+D+D+D+D+D+F+w+F+B+D+F+F+F+B+t+w+s+w+D+D+w+s+w+t+D+F+F+F+B+w+w+v+D+D+D+F+v+F+B+D+A+B+B+",
"D+B+D+A+D+A+w+w+w+D+D+A+D+D+D+B+w+s+w+A+D+B+B+D+D+B+B+D+D+A+A+F+v+F+t+t+F+w+F+D+D+F+w+F+D+B+F+v+F+t+w+s+w+D+D+B+t+v+t+B+D+D+A+B+",
"D+B+D+D+D+D+w+s+w+D+D+B+B+D+D+B+F+w+v+A+D+A+D+D+D+B+D+D+B+D+D+v+w+v+B+D+D+D+D+D+D+B+D+B+D+B+v+w+v+C+v+w+F+D+D+B+F+t+t+B+D+B+D+D+",
"D+D+D+A+D+D+F+w+F+D+D+B+D+B+D+A+D+B+C+A+D+D+A+t+D+D+D+t+B+t+D+w+s+w+B+A+B+B+A+B+D+B+D+B+D+A+w+s+w+t+B+D+D+B+D+A+F+F+t+B+B+A+B+D+",
"D+D+D+D+D+D+B+D+B+D+D+D+D+D+D+B+D+t+B+B+D+D+t+v+t+B+B+t+t+v+D+F+w+F+D+A+D+A+t+D+D+D+D+t+B+D+F+w+F+t+B+D+D+D+D+B+C+F+C+A+D+A+B+D+",
"D+D+D+A+D+D+D+B+D+D+D+B+D+D+D+A+D+D+D+B+D+A+F+v+t+D+D+t+C+v+D+A+D+D+A+A+D+t+F+t+D+D+B+F+B+B+B+D+t+v+t+D+D+D+D+A+B+C+t+B+D+D+A+D+",
"D+D+D+B+D+D+D+B+D+D+B+B+D+D+D+B+D+D+D+B+D+A+F+w+F+D+D+F+C+w+D+B+D+D+A+A+B+F+F+F+D+D+t+v+t+A+D+D+F+v+v+A+D+D+D+B+D+D+A+B+B+B+D+B+",
"D+D+D+B+D+B+D+B+D+D+A+B+D+D+D+B+D+D+D+B+D+A+v+s+v+D+B+t+C+t+D+B+D+D+B+A+D+F+v+F+D+B+t+v+t+B+t+D+v+w+v+B+D+B+D+B+D+D+A+A+D+A+B+D+",
"D+B+D+B+D+B+D+A+D+D+A+A+D+A+D+D+D+t+t+B+D+A+t+w+t+D+B+B+D+D+D+A+D+D+D+A+B+v+w+v+D+B+C+v+C+B+F+D+w+s+w+B+D+A+D+B+D+D+D+A+B+B+B+A+",
"D+D+B+A+D+D+D+A+D+D+B+A+D+B+B+D+D+F+F+D+D+A+D+D+D+D+D+u+D+D+D+A+D+B+B+u+B+t+w+t+D+D+t+w+B+B+F+D+t+w+v+B+D+A+B+B+D+B+D+A+B+D+B+A+",
"D+D+A+B+D+D+D+B+D+D+D+A+D+B+B+D+D+v+v+B+D+A+B+D+D+D+D+B+D+D+D+B+D+D+A+B+D+D+D+D+D+D+t+C+D+B+v+D+D+B+C+A+D+A+B+B+D+D+D+B+D+D+D+D+",
"D+B+u+A+D+D+D+B+D+D+D+A+D+B+D+D+D+w+w+A+D+A+D+D+D+D+D+u+D+D+D+D+D+C+A+D+D+D+D+D+D+D+F+F+D+B+w+D+D+t+B+A+D+B+D+B+D+D+D+A+D+D+D+D+",
"A+B+G+A+A+D+D+B+B+D+D+A+D+u+B+D+B+t+B+A+D+B+D+D+B+D+A+u+A+D+D+B+C+F+F+B+B+D+D+D+B+D+w+w+D+B+v+D+D+B+B+A+D+A+B+B+D+D+D+A+B+D+D+B+",
"A+B+A+A+B+D+D+D+A+B+t+t+D+B+B+A+u+B+B+A+D+D+D+D+A+D+B+u+D+D+D+B+F+F+F+A+D+D+D+B+u+D+t+u+D+C+D+D+D+B+A+A+D+B+B+A+u+D+B+u+D+D+B+B+",
"A+B+A+A+B+A+B+D+A+D+F+F+D+D+B+A+u+D+B+A+D+D+D+D+A+t+A+D+D+B+A+B+F+v+F+A+D+B+D+B+u+B+D+A+D+F+B+D+B+D+A+A+D+D+B+A+u+B+D+u+D+D+B+B+",
"G+B+D+A+D+A+A+D+u+A+v+v+D+A+D+B+y+D+D+A+D+D+D+D+G+F+t+B+D+B+A+D+v+w+v+A+B+t+B+D+u+A+B+A+D+v+D+D+A+t+G+u+B+A+D+B+B+A+B+u+D+D+B+B+",
"A+B+D+A+D+D+D+D+D+D+w+w+D+A+B+A+u+t+t+A+D+D+D+D+F+F+F+A+D+D+D+D+C+C+C+A+B+t+B+t+A+B+B+A+D+w+D+D+u+v+v+u+D+A+B+A+B+B+D+D+D+D+D+B+",
"A+B+B+A+D+A+B+D+A+D+t+t+D+A+D+A+A+v+v+A+D+D+D+B+v+v+v+A+D+A+B+D+B+D+D+B+B+F+B+t+A+B+t+t+D+C+D+D+u+v+v+A+D+D+t+D+A+B+D+B+D+D+D+D+",
"u+D+A+A+D+A+B+D+A+B+D+A+D+B+B+D+u+w+w+A+D+D+D+D+v+w+v+A+D+A+t+D+D+D+D+B+D+F+t+t+u+B+v+v+D+B+D+D+D+w+w+A+D+D+F+D+A+B+D+A+D+B+D+D+",
"G+D+D+A+D+B+B+D+y+D+D+A+D+D+A+A+A+t+B+A+D+B+D+B+G+w+t+A+D+t+F+t+B+D+B+B+B+v+F+F+A+B+v+v+D+A+D+D+A+t+B+A+D+B+v+t+A+B+B+B+D+B+B+B+",
"G+D+D+B+D+B+B+D+y+D+D+A+D+A+A+A+A+B+B+u+D+A+D+D+A+D+B+A+D+F+F+F+A+B+A+D+B+t+t+t+A+D+w+w+D+B+D+D+A+D+D+A+D+F+w+D+A+t+A+D+D+B+D+D+",
"A+D+D+A+D+A+D+D+G+B+t+t+D+B+D+A+A+D+A+B+D+A+D+D+u+D+D+A+D+v+v+F+t+t+C+B+t+t+C+B+A+D+t+t+D+B+D+D+y+D+B+u+D+F+s+B+t+v+t+B+D+B+D+D+",
"D+D+D+A+t+A+D+D+D+D+v+v+D+A+B+D+B+D+A+D+D+t+B+D+D+D+D+B+D+v+w+v+t+t+t+D+t+t+D+D+B+D+D+A+B+A+B+B+y+D+B+A+D+F+t+t+B+v+v+t+D+A+D+D+",
"A+D+D+t+F+t+B+D+B+D+v+v+D+t+t+B+B+t+t+B+t+B+t+D+A+t+D+D+D+t+v+t+t+C+t+B+C+C+t+B+A+D+D+u+B+u+D+D+G+t+t+A+D+t+t+B+t+w+v+B+t+B+D+D+",
"B+D+B+B+F+F+D+D+A+D+w+t+D+B+t+t+A+F+F+D+F+t+t+D+t+F+t+B+B+B+D+D+F+F+C+t+F+D+t+B+A+B+D+A+B+B+D+D+B+F+F+A+D+D+D+F+C+t+w+t+t+t+B+D+",
"D+D+D+t+w+F+D+D+A+B+t+t+D+t+C+t+A+D+B+B+B+C+F+D+B+F+B+B+B+A+D+B+C+F+B+t+v+B+t+D+A+D+B+A+D+A+D+D+A+v+v+D+D+B+F+F+F+t+D+t+F+t+D+D+",
"D+D+F+t+B+w+D+D+D+B+D+D+F+t+B+C+D+B+t+A+B+v+w+F+B+w+t+D+B+A+D+B+t+D+B+v+t+C+B+D+B+B+t+B+B+A+B+D+G+B+B+B+D+B+F+v+F+D+B+F+v+v+D+D+",
"D+F+F+F+t+t+B+B+D+B+D+F+F+F+B+B+B+t+B+A+t+w+w+F+t+B+t+F+A+D+D+t+D+t+B+t+t+t+t+D+A+B+t+t+D+A+D+D+A+B+B+D+D+B+v+w+v+B+D+v+w+w+B+D+",
"D+F+v+F+D+A+D+B+D+D+D+F+v+F+D+D+B+t+t+B+D+v+w+v+t+B+F+F+F+B+D+t+B+t+D+D+D+F+B+D+D+B+v+t+D+A+B+D+D+D+B+A+D+B+w+s+w+D+D+w+w+w+D+D+",
"D+v+w+v+D+B+D+A+D+D+D+v+w+v+D+D+B+F+t+D+D+w+s+w+D+D+F+v+F+D+D+B+t+B+D+B+F+F+F+B+D+F+w+v+D+A+B+D+D+D+t+F+D+D+F+w+F+B+D+w+s+w+D+D+",
"D+w+s+w+D+D+D+F+D+D+t+w+s+w+D+D+F+v+F+B+D+F+w+F+D+B+v+w+v+D+D+t+t+t+D+B+F+w+F+B+D+F+w+F+D+B+D+B+D+B+F+F+F+B+B+B+D+A+D+F+w+F+B+B+",
"D+F+w+F+t+B+F+F+F+D+t+F+w+F+D+D+F+w+F+A+D+B+D+D+D+D+w+s+w+D+D+t+v+t+D+B+w+s+w+B+D+v+w+v+B+D+D+F+D+D+F+v+F+B+D+F+D+D+D+t+B+t+D+D+",
"D+B+D+A+F+t+F+v+F+D+v+t+D+B+D+D+v+w+w+A+D+B+v+B+D+D+F+w+F+D+D+v+w+v+B+B+s+s+s+B+D+w+s+w+D+B+C+F+F+B+w+w+v+D+D+w+D+D+t+G+w+F+D+B+",
"D+B+B+A+F+t+w+w+v+D+w+w+D+t+B+D+w+s+w+A+D+A+C+B+B+D+D+D+D+B+D+F+w+F+D+B+F+w+F+B+B+F+w+F+D+A+F+v+F+t+w+s+w+D+B+t+D+D+D+F+v+C+D+D+",
"D+A+D+A+v+C+w+s+w+D+t+t+D+F+D+D+F+w+F+A+D+B+F+B+B+B+D+A+D+D+D+w+w+w+D+A+B+D+B+D+A+B+D+t+D+D+v+w+w+t+F+w+F+D+D+D+D+B+B+v+v+t+D+D+",
"D+B+D+B+t+C+F+w+F+D+D+A+D+v+D+D+B+B+t+A+D+B+w+t+t+t+D+A+D+B+D+w+s+w+B+B+B+B+B+D+D+D+F+F+D+D+w+s+w+t+t+D+D+B+D+D+D+D+C+v+v+F+B+D+",
"D+B+D+A+D+B+D+D+D+D+D+B+D+w+D+D+D+C+F+B+D+B+F+t+t+t+D+A+D+A+D+F+w+F+D+D+B+t+B+D+D+D+v+v+B+D+F+w+F+t+v+A+D+A+D+D+D+D+t+v+w+F+B+D+",
"D+A+B+B+D+v+D+D+D+B+B+F+D+t+D+B+D+v+F+B+D+A+B+t+t+t+B+B+D+B+D+t+B+t+D+B+t+F+t+B+D+A+w+w+D+A+B+D+t+w+F+B+B+A+D+D+D+D+D+v+w+v+D+D+",
"D+D+D+D+B+w+D+B+D+B+B+F+D+A+D+B+D+C+C+D+B+A+D+t+t+t+D+D+D+B+D+v+w+v+D+B+F+F+F+B+D+D+t+t+A+A+D+B+B+F+t+D+B+A+D+D+D+D+D+t+w+t+D+D+",
"D+D+D+D+D+s+D+B+D+D+B+F+D+B+D+D+D+D+D+D+D+A+D+t+C+t+D+D+D+A+D+t+v+t+D+B+F+w+F+B+D+B+D+D+D+A+D+D+D+D+t+D+D+A+D+D+D+A+D+D+D+B+D+D+",
"D+D+D+D+B+w+D+B+D+D+F+w+D+B+D+B+D+D+D+D+B+A+D+t+C+t+D+D+D+B+D+t+v+t+D+B+w+s+w+B+D+B+D+D+B+B+D+B+D+C+F+D+D+u+D+B+D+B+D+D+D+B+B+B+",
"D+B+D+D+A+D+D+B+D+A+F+s+D+B+D+D+D+B+D+B+D+B+D+F+F+F+D+D+B+B+D+B+D+B+D+B+F+s+F+B+D+B+D+A+D+D+D+B+D+F+B+D+B+A+D+D+B+B+D+D+D+B+D+D+",
"A+A+D+B+B+A+B+B+D+D+C+C+D+D+D+D+B+A+D+A+A+B+D+F+v+v+B+D+D+B+B+D+D+D+D+A+B+B+B+D+D+A+B+A+B+D+D+D+D+B+D+A+B+A+D+D+B+B+D+A+D+B+B+D+",
"A+A+B+D+B+B+B+t+D+D+C+F+D+B+D+D+B+D+D+A+D+D+B+B+F+t+A+D+D+t+B+B+B+A+D+B+D+A+D+D+D+B+D+A+D+D+B+D+D+D+D+B+D+A+D+D+D+u+D+A+D+B+D+D+",
"u+A+B+D+B+A+D+F+B+A+B+B+D+B+D+D+B+B+D+B+B+D+D+B+v+t+B+D+D+F+D+B+A+A+D+B+B+B+B+D+B+A+D+B+B+D+D+D+B+A+D+D+D+B+D+D+B+A+D+A+D+D+D+D+",
"A+A+B+D+B+A+D+F+D+B+D+D+D+D+D+D+A+B+D+D+D+D+D+D+D+B+A+D+D+v+D+B+B+B+D+B+B+B+D+D+B+t+B+B+D+D+D+D+D+B+t+A+D+D+t+D+A+B+D+A+D+D+B+D+",
"D+A+D+D+D+A+D+v+D+A+D+D+t+D+D+D+B+A+B+D+D+D+D+D+D+A+D+D+D+w+D+D+B+B+D+B+B+B+B+D+B+F+B+D+D+D+B+D+D+t+t+F+B+D+F+D+A+B+D+B+D+D+B+D+",
"u+B+D+D+D+B+D+t+u+B+D+D+F+B+D+D+G+B+D+D+C+B+D+D+u+B+D+D+D+t+D+D+G+B+D+B+B+A+B+D+A+F+B+D+D+B+B+D+A+F+F+F+B+B+B+D+t+t+D+D+D+B+B+D+",
"G+A+D+D+D+B+D+B+G+u+B+D+v+D+D+D+u+A+B+C+F+C+D+B+u+A+D+D+D+B+D+D+G+A+D+B+B+B+B+D+A+w+A+D+D+D+D+B+A+v+v+G+D+B+t+B+F+v+t+B+D+D+D+D+",
"D+D+D+B+D+D+D+D+D+B+D+D+w+D+D+D+D+u+D+F+F+F+D+A+D+D+D+D+D+D+D+D+D+A+A+B+D+B+D+B+B+s+B+D+D+B+D+B+D+v+w+v+A+D+F+t+v+v+v+D+D+D+D+D+",
"D+A+D+D+D+D+D+D+A+u+D+D+s+B+D+D+B+A+A+F+v+F+D+B+B+A+D+D+D+B+D+D+B+B+B+D+B+A+B+D+B+w+A+D+B+D+D+B+B+t+v+t+B+D+C+t+v+w+v+D+B+A+B+D+"};
