/* XPM */
static char * stone_wall5_xpm[] = {
"64 64 256 2",
"  	c #000000",
". 	c #0000FF",
"+ 	c #00FF00",
"@ 	c #FF0000",
"# 	c #00FFFF",
"$ 	c #FFFF00",
"% 	c #FF00FF",
"& 	c #FFFFFF",
"* 	c #7B7B7B",
"= 	c #7B7B7B",
"- 	c #7B7B7B",
"; 	c #7B7B7B",
"> 	c #7B7B7B",
", 	c #7B7B7B",
"' 	c #7B7B7B",
") 	c #7B7B7B",
"! 	c #7B7B7B",
"~ 	c #7B7B7B",
"{ 	c #7B7B7B",
"] 	c #7B7B7B",
"^ 	c #7B7B7B",
"/ 	c #7B7B7B",
"( 	c #7B7B7B",
"_ 	c #7B7B7B",
": 	c #7B7B7B",
"< 	c #7B7B7B",
"[ 	c #7B7B7B",
"} 	c #7B7B7B",
"| 	c #7B7B7B",
"1 	c #7B7B7B",
"2 	c #7B7B7B",
"3 	c #7B7B7B",
"4 	c #7B7B7B",
"5 	c #7B7B7B",
"6 	c #7B7B7B",
"7 	c #7B7B7B",
"8 	c #7B7B7B",
"9 	c #7B7B7B",
"0 	c #7B7B7B",
"a 	c #7B7B7B",
"b 	c #7B7B7B",
"c 	c #7B7B7B",
"d 	c #7B7B7B",
"e 	c #7B7B7B",
"f 	c #7B7B7B",
"g 	c #7B7B7B",
"h 	c #7B7B7B",
"i 	c #7B7B7B",
"j 	c #7B7B7B",
"k 	c #7B7B7B",
"l 	c #7B7B7B",
"m 	c #7B7B7B",
"n 	c #7B7B7B",
"o 	c #7B7B7B",
"p 	c #7B7B7B",
"q 	c #7B7B7B",
"r 	c #7B7B7B",
"s 	c #7B7B7B",
"t 	c #7B7B7B",
"u 	c #7B7B7B",
"v 	c #7B7B7B",
"w 	c #7B7B7B",
"x 	c #7B7B7B",
"y 	c #7B7B7B",
"z 	c #7B7B7B",
"A 	c #7B7B7B",
"B 	c #7B7B7B",
"C 	c #7B7B7B",
"D 	c #7B7B7B",
"E 	c #7B7B7B",
"F 	c #7B7B7B",
"G 	c #7B7B7B",
"H 	c #7B7B7B",
"I 	c #7B7B7B",
"J 	c #7B7B7B",
"K 	c #7B7B7B",
"L 	c #7B7B7B",
"M 	c #7B7B7B",
"N 	c #7B7B7B",
"O 	c #7B7B7B",
"P 	c #7B7B7B",
"Q 	c #7B7B7B",
"R 	c #7B7B7B",
"S 	c #7B7B7B",
"T 	c #7B7B7B",
"U 	c #7B7B7B",
"V 	c #7B7B7B",
"W 	c #7B7B7B",
"X 	c #7B7B7B",
"Y 	c #7B7B7B",
"Z 	c #7B7B7B",
"` 	c #7B7B7B",
" .	c #7B7B7B",
"..	c #7B7B7B",
"+.	c #7B7B7B",
"@.	c #7B7B7B",
"#.	c #7B7B7B",
"$.	c #7B7B7B",
"%.	c #7B7B7B",
"&.	c #7B7B7B",
"*.	c #7B7B7B",
"=.	c #7B7B7B",
"-.	c #7B7B7B",
";.	c #7B7B7B",
">.	c #7B7B7B",
",.	c #7B7B7B",
"'.	c #7B7B7B",
").	c #7B7B7B",
"!.	c #7B7B7B",
"~.	c #7B7B7B",
"{.	c #7B7B7B",
"].	c #7B7B7B",
"^.	c #7B7B7B",
"/.	c #7B7B7B",
"(.	c #7B7B7B",
"_.	c #7B7B7B",
":.	c #7B7B7B",
"<.	c #7B7B7B",
"[.	c #7B7B7B",
"}.	c #7B7B7B",
"|.	c #7B7B7B",
"1.	c #7B7B7B",
"2.	c #7B7B7B",
"3.	c #7B7B7B",
"4.	c #7B7B7B",
"5.	c #7B7B7B",
"6.	c #7B7B7B",
"7.	c #7B7B7B",
"8.	c #7B7B7B",
"9.	c #7B7B7B",
"0.	c #7B7B7B",
"a.	c #7B7B7B",
"b.	c #7B7B7B",
"c.	c #7B7B7B",
"d.	c #7B7B7B",
"e.	c #7B7B7B",
"f.	c #7B7B7B",
"g.	c #7B7B7B",
"h.	c #7B7B7B",
"i.	c #7B7B7B",
"j.	c #7B7B7B",
"k.	c #7B7B7B",
"l.	c #7B7B7B",
"m.	c #7B7B7B",
"n.	c #7B7B7B",
"o.	c #7B7B7B",
"p.	c #7B7B7B",
"q.	c #7B7B7B",
"r.	c #7B7B7B",
"s.	c #7B7B7B",
"t.	c #7B7B7B",
"u.	c #7B7B7B",
"v.	c #7B7B7B",
"w.	c #7B7B7B",
"x.	c #7B7B7B",
"y.	c #7B7B7B",
"z.	c #7B7B7B",
"A.	c #7B7B7B",
"B.	c #7B7B7B",
"C.	c #7B7B7B",
"D.	c #7B7B7B",
"E.	c #7B7B7B",
"F.	c #7B7B7B",
"G.	c #7B7B7B",
"H.	c #7B7B7B",
"I.	c #7B7B7B",
"J.	c #7B7B7B",
"K.	c #7B7B7B",
"L.	c #7B7B7B",
"M.	c #7B7B7B",
"N.	c #7B7B7B",
"O.	c #7B7B7B",
"P.	c #7B7B7B",
"Q.	c #7B7B7B",
"R.	c #7B7B7B",
"S.	c #7B7B7B",
"T.	c #7B7B7B",
"U.	c #7B7B7B",
"V.	c #7B7B7B",
"W.	c #7B7B7B",
"X.	c #7B7B7B",
"Y.	c #7B7B7B",
"Z.	c #7B7B7B",
"`.	c #7B7B7B",
" +	c #7B7B7B",
".+	c #7B7B7B",
"++	c #7B7B7B",
"@+	c #7B7B7B",
"#+	c #7B7B7B",
"$+	c #7B7B7B",
"%+	c #7B7B7B",
"&+	c #7B7B7B",
"*+	c #7B7B7B",
"=+	c #7B7B7B",
"-+	c #7B7B7B",
";+	c #7B7B7B",
">+	c #7B7B7B",
",+	c #7B7B7B",
"'+	c #7B7B7B",
")+	c #7B7B7B",
"!+	c #7B7B7B",
"~+	c #7B7B7B",
"{+	c #7B7B7B",
"]+	c #7B7B7B",
"^+	c #7B7B7B",
"/+	c #7B7B7B",
"(+	c #7B7B7B",
"_+	c #7B7B7B",
":+	c #7B7B7B",
"<+	c #7B7B7B",
"[+	c #7B7B7B",
"}+	c #7B7B7B",
"|+	c #7B7B7B",
"1+	c #7B7B7B",
"2+	c #7B7B7B",
"3+	c #7B7B7B",
"4+	c #7B7B7B",
"5+	c #7B7B7B",
"6+	c #7B7B7B",
"7+	c #7B7B7B",
"8+	c #7B7B7B",
"9+	c #7B7B7B",
"0+	c #7B7B7B",
"a+	c #7B7B7B",
"b+	c #7B7B7B",
"c+	c #181818",
"d+	c #410000",
"e+	c #202020",
"f+	c #392918",
"g+	c #293118",
"h+	c #394129",
"i+	c #520000",
"j+	c #392910",
"k+	c #312010",
"l+	c #313131",
"m+	c #292008",
"n+	c #181008",
"o+	c #412918",
"p+	c #292929",
"q+	c #414A31",
"r+	c #313920",
"s+	c #5A4129",
"t+	c #4A3118",
"u+	c #4A3929",
"v+	c #413120",
"w+	c #202908",
"x+	c #414141",
"y+	c #625231",
"z+	c #524131",
"A+	c #6A4120",
"B+	c #4A3920",
"C+	c #413118",
"D+	c #625239",
"E+	c #525252",
"F+	c #525239",
"G+	c #832000",
"l+o+l+l+o+d+d+d+d+d+d+d+d+d+k+l+n+k+v+d+d+d+d+d+d+d+d+d+d+d+d+d+d+d+d+d+d+d+d+d+d+d+d+d+d+d+d+d+l+j+k+l+l+k+j+u+o+l+l+j+l+l+k+l+",
"l+j+l+l+k+l+d+d+d+d+d+d+d+d+d+d+d+d+d+d+d+d+d+d+d+d+d+d+d+d+d+d+d+k+o+z+u+k+d+d+d+d+d+d+d+d+d+d+l+k+l+l+k+j+l+l+j+l+l+l+k+o+l+k+",
"l+l+o+j+l+l+q+d+d+d+d+d+d+d+j+z+z+z+j+j+d+d+d+d+d+d+d+d+d+d+k+k+o+z+l+v+o+l+v+k+d+d+d+d+d+d+j+l+k+l+l+k+l+l+w+l+l+l+k+l+u+j+l+k+",
"l+l+u+j+l+u+l+l+d+d+d+d+l+q+l+l+l+o+j+v+o+j+j+d+d+d+d+d+k+l+u+z+j+u+j+k+j+l+l+z+k+d+d+d+d+d+k+k+l+l+l+l+l+r+k+l+k+l+k+v+j+l+l+c+",
"k+l+j+u+o+k+k+z+d+d+d+j+k+k+v+k+l+j+z+B+o+j+j+d+d+d+d+k+l+l+k+l+l+k+l+k+l+k+k+o+u+k+d+d+d+k+l+k+o+k+l+k+l+k+u+j+l+k+l+l+k+l+l+k+",
"j+l+u+k+j+j+j+l+l+d+d+j+j+l+o+u+s+o+v+j+j+d+d+d+d+k+j+l+u+k+k+l+k+l+l+j+l+j+l+u+j+o+d+d+d+k+l+k+r+l+k+j+k+l+j+v+u+j+l+k+k+l+l+j+",
"l+l+l+l+k+q+v+k+z+d+d+j+j+j+v+o+j+j+d+d+d+d+d+d+k+l+u+k+l+k+k+k+l+j+l+l+j+v+j+u+j+u+d+d+d+v+o+l+k+v+p+l+k+k+l+j+o+v+k+l+k+l+k+j+",
"l+l+l+k+j+l+j+j+l+l+d+d+j+j+j+d+d+d+d+d+d+k+l+k+l+j+v+k+k+l+v+k+l+l+k+v+j+l+j+j+l+k+d+d+d+l+j+l+n+k+p+k+v+k+h+v+k+o+k+l+l+l+l+v+",
"l+k+l+k+j+u+j+B+o+z+d+d+d+d+d+d+d+d+k+k+k+l+u+j+k+C+j+l+k+l+k+k+l+k+l+j+q+o+j+v+j+k+d+d+d+k+l+k+k+l+p+k+l+j+l+o+v+j+v+k+k+l+l+k+",
"j+v+k+l+j+l+u+v+k+z+l+d+d+d+d+d+k+l+l+j+l+k+o+q+l+k+j+l+j+k+l+k+k+l+k+v+v+l+l+k+k+d+d+d+d+j+k+k+l+k+k+l+h+k+l+q+k+o+k+j+l+l+r+v+",
"k+l+l+k+l+j+j+j+k+u+j+d+d+d+d+k+l+v+z+l+l+q+j+l+j+k+k+C+j+l+k+l+k+j+l+o+z+o+j+k+d+d+d+d+d+j+k+k+k+l+k+k+k+l+l+l+l+k+B+o+l+l+j+j+",
"o+l+k+k+u+k+j+B+l+l+u+j+d+d+d+k+k+l+k+j+l+k+u+j+j+j+k+v+k+l+k+l+j+j+j+o+k+k+k+d+d+d+d+d+d+l+o+n+l+k+l+k+j+k+l+l+k+v+o+k+j+n+j+l+",
"j+k+r+l+j+k+v+j+l+l+l+l+l+d+d+d+d+u+k+u+l+h+C+q+k+k+v+j+l+k+u+v+o+j+k+k+d+d+d+d+d+d+d+d+d+l+j+u+v+v+k+l+l+k+B+l+l+l+l+k+k+k+C+k+",
"B+j+l+k+l+o+v+k+l+k+k+j+D+l+d+d+d+d+d+l+j+v+j+o+k+l+k+o+v+j+C+C+k+k+d+d+d+d+d+j+u+B+o+d+d+d+v+k+v+o+k+j+k+l+l+v+j+v+l+k+l+r+k+l+",
"j+l+k+l+l+l+k+v+l+k+j+j+u+l+k+d+d+d+d+d+l+k+u+o+v+B+u+v+u+C+j+k+d+d+d+d+d+o+k+C+z+l+z+l+j+d+d+d+v+j+v+k+v+k+l+j+l+j+l+l+k+v+k+k+",
"l+k+k+v+l+j+k+j+l+k+k+u+o+v+j+d+d+d+d+d+d+d+l+j+l+j+B+v+k+k+d+d+d+d+d+j+u+B+u+C+l+z+z+z+j+k+d+d+d+j+u+u+k+l+k+l+j+v+j+l+k+r+u+k+",
"B+j+l+k+o+C+k+j+j+B+o+v+u+u+j+i+d+d+d+k+d+d+d+d+d+d+k+k+d+d+d+d+d+o+u+o+l+l+j+B+l+j+l+C+l+u+j+d+d+d+k+j+v+A+B+v+k+k+j+l+k+l+q+l+",
"j+l+l+k+l+j+k+v+j+z+u+o+j+j+d+d+d+d+j+k+k+v+o+d+d+d+d+d+d+d+d+k+u+o+q+u+j+u+k+j+h+l+r+l+l+l+l+j+d+d+d+j+k+v+A+o+v+q+r+k+k+C+l+k+",
"l+j+k+l+o+v+o+z+u+B+j+j+d+d+d+d+d+d+o+k+j+l+j+j+d+d+d+d+d+d+d+l+k+l+k+l+j+o+u+o+l+l+l+j+v+l+o+l+k+d+d+d+d+v+o+y+B+v+v+k+j+j+l+l+",
"k+u+j+j+o+z+C+l+j+d+d+d+d+d+d+d+d+d+d+d+d+d+d+d+d+d+d+d+d+d+d+l+l+k+j+v+o+u+l+l+k+u+k+j+o+k+j+o+v+d+d+d+d+d+d+j+z+B+v+k+j+l+l+v+",
"l+r+o+u+B+B+d+d+d+d+d+d+d+l+B+k+k+j+u+o+o+u+u+o+o+o+j+d+d+d+d+d+l+l+l+C+l+l+l+l+l+j+j+l+l+k+l+k+k+d+d+d+d+d+d+d+o+v+o+v+k+n+o+k+",
"v+C+u+j+j+d+d+d+d+d+d+d+l+u+l+l+o+u+l+v+z+z+v+z+v+u+o+j+k+d+d+d+d+d+j+B+l+l+j+u+u+j+l+j+l+k+k+k+k+d+d+j+j+d+d+d+d+k+v+B+B+o+k+k+",
"j+v+j+d+d+d+d+d+d+d+d+l+l+u+l+l+l+l+v+o+u+j+o+u+o+z+x+z+u+j+j+d+d+d+d+o+l+o+u+j+l+k+k+k+k+k+k+k+d+d+j+C+u+j+o+d+d+d+i+o+o+j+j+v+",
"l+d+d+d+d+d+d+d+d+d+d+l+v+k+l+k+k+p+l+l+l+o+u+u+o+l+v+x+D+z+v+j+d+d+d+d+l+l+k+u+v+o+q+k+k+j+k+k+d+k+k+u+u+z+v+l+o+d+d+d+k+u+o+j+",
"d+d+d+l+l+k+l+l+d+d+d+p+l+C+k+u+n+j+l+k+l+v+o+o+C+j+j+u+z+u+z+s+v+j+d+d+d+k+q+o+j+v+k+u+j+k+k+d+d+l+k+l+l+j+o+F+j+o+k+d+d+d+d+d+",
"u+j+C+l+u+z+l+l+d+d+d+k+k+l+l+k+k+v+l+k+l+o+o+z+l+C+v+l+l+o+v+z+z+v+j+d+d+d+l+l+B+z+v+v+k+k+d+d+d+o+u+l+k+l+l+u+v+z+u+l+B+l+u+k+",
"j+u+u+v+z+l+l+D+k+d+d+d+p+l+k+l+l+u+j+u+k+u+u+j+u+j+l+k+k+l+k+o+u+x+z+j+d+d+d+B+l+o+o+k+k+d+d+d+d+l+l+k+k+j+k+u+l+l+o+u+z+o+l+o+",
"k+v+l+j+o+q+j+z+u+d+d+d+l+v+r+l+l+l+k+l+l+l+l+o+l+j+o+o+k+k+k+B+j+z+u+l+j+d+d+d+l+l+k+d+d+d+d+d+d+j+z+l+l+l+k+l+o+l+j+l+o+u+u+l+",
"k+l+k+v+j+k+j+u+u+k+d+d+d+l+u+j+l+k+l+k+l+k+u+o+o+u+o+l+k+l+k+l+l+l+z+z+z+j+d+d+d+d+d+d+d+d+d+d+d+k+u+k+l+p+l+k+v+j+B+l+n+u+l+k+",
"k+j+l+l+k+r+l+j+z+j+d+d+d+u+C+j+l+j+p+k+l+l+j+l+l+u+k+l+l+k+l+l+k+C+u+v+z+o+k+d+d+d+d+d+d+d+d+d+d+u+l+j+l+l+o+C+v+j+o+k+l+l+l+k+",
"l+v+l+l+k+v+B+k+u+z+k+d+d+d+v+j+l+l+k+l+j+u+v+u+o+l+l+k+k+k+l+k+l+j+l+l+v+x+j+d+d+d+d+d+d+d+d+d+d+u+l+z+l+l+l+r+l+u+c+l+k+l+k+k+",
"l+l+k+k+k+j+l+k+u+z+k+d+d+d+l+v+j+k+k+l+j+j+v+l+l+k+l+k+k+j+l+k+v+l+j+j+j+z+j+d+d+d+d+n+n+d+d+d+d+d+l+l+z+l+l+j+k+k+k+k+k+l+l+l+",
"u+k+v+k+k+k+j+h+o+l+k+d+d+d+l+o+o+k+l+j+j+q+l+l+l+u+j+l+k+j+j+k+q+j+q+k+u+C+j+d+d+d+n+w+u+l+n+d+d+d+d+k+k+j+l+k+l+l+l+k+k+l+l+k+",
"j+l+o+l+k+k+l+l+o+l+l+d+d+d+k+z+k+l+l+j+l+j+o+s+u+j+l+l+l+l+l+j+k+q+j+v+l+o+j+d+d+d+k+l+w+p+r+j+n+d+d+d+d+j+o+l+k+l+l+k+l+k+l+l+",
"k+l+v+p+v+j+l+k+k+l+d+d+d+d+k+v+v+k+q+l+u+u+o+j+l+l+k+B+l+r+k+v+l+j+v+j+j+j+k+d+d+k+l+l+l+n+l+l+o+z+d+d+d+d+o+o+v+l+u+l+j+l+k+k+",
"k+l+j+r+v+j+k+h+k+k+d+d+d+d+k+o+v+l+j+o+u+l+z+C+l+l+c+l+k+v+k+l+l+k+j+B+j+n+d+d+n+j+k+k+k+l+k+k+u+o+z+i+d+d+d+l+o+l+j+k+v+k+k+k+",
"j+l+l+v+l+k+k+j+l+l+o+d+d+d+d+v+j+u+l+l+u+l+l+l+l+j+l+k+l+l+l+o+k+j+u+o+n+d+d+d+l+l+l+l+k+l+k+l+o+u+l+F+i+d+d+d+l+u+v+k+k+k+l+n+",
"v+j+l+C+u+l+l+k+k+l+l+k+l+d+d+d+u+o+l+l+l+l+r+l+C+u+p+l+l+j+l+o+o+u+o+n+d+d+d+j+l+u+k+l+k+l+l+k+k+k+o+z+u+i+d+d+d+l+u+j+l+l+k+l+",
"j+l+j+l+o+o+k+l+c+l+l+o+u+k+d+d+d+o+k+j+u+l+l+l+l+k+l+k+l+u+o+v+n+n+d+d+d+d+j+o+l+j+u+l+k+l+l+j+p+k+j+k+F+u+i+d+d+j+o+z+j+l+k+k+",
"l+k+l+u+u+k+k+l+l+k+j+u+o+l+d+d+d+o+o+q+C+C+l+j+v+j+l+B+j+v+o+n+d+d+d+d+d+k+v+l+l+l+u+l+k+l+l+p+k+c+l+l+l+z+B+d+d+d+k+v+o+l+l+k+",
"s+l+u+l+u+B+k+k+k+k+j+k+l+u+n+d+d+d+u+v+u+j+C+C+C+C+k+k+B+o+d+d+d+d+d+d+l+v+l+l+p+k+k+k+k+u+k+u+k+l+p+k+l+s+u+i+d+d+d+l+o+u+l+l+",
"r+l+u+r+p+l+k+k+k+l+l+j+o+l+l+d+d+d+d+o+B+C+j+C+C+j+C+z+j+d+d+d+d+d+l+q+j+u+r+o+z+k+k+u+k+k+l+k+u+l+k+l+k+k+u+l+d+d+d+d+k+u+u+k+",
"l+k+o+v+k+k+k+l+k+l+l+l+o+z+l+k+d+d+d+d+v+A+B+k+C+C+z+o+d+d+d+d+l+l+j+l+j+o+l+o+l+l+l+j+l+r+k+l+j+u+l+l+k+l+j+q+o+d+d+d+d+l+B+j+",
"k+l+l+l+j+l+k+l+j+j+v+u+u+u+v+d+d+d+d+d+d+v+z+B+z+z+u+d+d+d+j+j+l+k+k+u+j+B+u+u+l+l+k+k+k+k+k+k+l+k+k+l+r+o+l+j+l+o+d+d+d+d+j+z+",
"o+k+l+u+k+o+v+o+u+v+u+j+o+j+d+d+d+d+d+d+d+d+d+u+z+v+d+d+d+d+k+j+v+k+l+B+l+j+l+o+l+l+k+v+p+k+l+k+l+k+k+l+l+r+l+l+z+u+d+d+d+d+j+j+",
"u+C+u+o+o+z+o+u+v+o+d+d+d+d+d+d+d+d+d+d+d+d+d+d+d+d+d+d+d+d+d+v+j+z+o+u+v+o+k+l+u+k+l+k+l+k+k+l+k+l+k+k+r+v+k+k+j+o+l+d+d+d+d+k+",
"o+z+o+o+o+j+o+d+d+d+d+d+d+d+d+u+l+u+z+v+D+u+v+z+j+d+d+d+d+d+d+d+v+k+v+v+z+o+s+j+l+k+j+j+k+l+j+k+l+q+k+k+k+k+v+o+l+k+d+d+d+d+d+d+",
"k+C+o+l+d+d+d+d+d+d+o+d+d+d+v+o+o+o+l+u+v+l+z+u+v+z+o+u+d+d+d+d+d+d+d+v+l+v+C+z+v+l+u+j+o+k+l+k+l+l+k+v+v+q+l+l+l+d+d+d+d+d+d+d+",
"d+d+d+d+d+d+d+j+u+l+d+d+d+d+v+k+l+j+l+k+l+l+l+j+u+l+F+z+o+d+d+d+d+d+d+d+d+d+k+u+u+v+B+l+v+k+l+k+k+l+p+l+k+v+l+k+d+d+d+d+d+d+d+d+",
"d+d+d+d+d+k+l+z+v+z+l+d+d+d+k+l+l+l+h+k+B+C+j+l+l+l+l+z+z+d+d+d+F+l+u+d+d+d+d+d+l+v+o+C+v+k+l+l+v+j+C+j+o+h+k+d+d+d+u+v+d+d+d+d+",
"d+d+d+l+o+q+u+l+u+o+h+d+d+z+k+k+l+k+l+l+j+l+j+u+o+k+o+q+o+d+d+z+j+s+z+x+F+d+d+d+d+j+u+z+v+o+j+o+C+j+v+k+k+d+d+d+k+l+u+l+l+d+d+d+",
"d+v+C+F+v+o+j+k+l+z+j+d+d+j+l+j+k+k+u+k+B+u+o+u+l+l+u+o+d+d+D+j+l+l+u+u+D+z+u+d+d+d+l+o+u+u+j+o+B+k+k+d+d+d+d+l+u+u+j+u+j+d+d+d+",
"l+l+u+q+j+u+k+l+l+j+d+d+d+l+k+n+k+k+j+C+l+l+u+j+u+j+l+d+d+d+s+l+l+l+l+u+l+x+E+z+z+d+d+d+j+q+l+d+d+d+d+d+d+u+l+u+o+l+j+u+d+d+d+d+",
"l+j+j+l+k+l+k+l+l+k+d+d+u+u+l+n+l+l+k+u+v+j+l+l+v+k+d+d+d+u+l+l+k+k+o+B+C+v+z+x+u+v+d+d+d+d+d+d+d+d+l+v+k+l+u+j+l+j+u+d+d+d+q+l+",
"j+l+j+l+k+l+l+l+k+l+d+d+v+k+k+k+l+j+j+v+j+z+l+l+j+k+d+d+u+z+k+p+v+o+v+j+u+v+u+j+u+u+l+d+d+d+d+d+o+u+z+o+o+u+k+v+u+j+d+d+d+q+k+k+",
"k+l+l+u+n+w+n+k+p+d+d+u+C+r+k+o+k+u+j+j+u+j+l+k+j+u+d+d+z+l+k+k+k+l+v+j+l+l+q+j+l+o+v+j+d+d+d+k+l+l+v+l+l+j+v+k+d+d+d+d+k+z+o+o+",
"l+u+j+l+l+n+w+j+l+d+d+j+l+k+k+l+p+k+l+l+j+l+j+q+l+d+d+v+j+k+k+j+l+k+k+v+v+o+l+v+j+l+o+z+j+d+d+l+p+l+k+u+B+j+d+d+d+d+k+l+l+k+o+j+",
"v+k+j+l+k+p+l+j+l+d+G+l+k+l+v+k+j+l+k+l+l+j+v+v+o+d+d+l+k+l+k+k+k+l+l+v+l+j+l+j+l+l+l+z+o+B+d+d+k+j+j+v+r+d+d+d+d+j+z+l+o+v+l+k+",
"l+k+j+j+l+n+j+l+d+d+o+l+l+l+l+l+l+l+r+l+j+l+v+j+d+d+u+k+j+k+j+p+k+v+k+k+j+k+k+l+k+l+v+j+z+l+u+d+d+d+l+d+d+d+d+d+k+z+k+l+l+j+j+o+",
"k+l+l+j+l+j+o+l+d+d+o+k+l+c+l+l+l+k+B+l+q+v+k+j+d+d+j+l+k+p+k+j+l+j+j+j+l+l+l+l+l+k+v+j+l+o+l+d+d+d+d+d+d+d+d+k+v+j+B+l+k+l+n+k+",
"o+l+l+k+u+C+B+d+d+d+k+l+l+c+l+k+l+k+l+l+l+v+v+d+d+l+j+l+l+l+k+l+l+l+q+j+l+k+l+v+r+u+l+l+k+j+u+d+d+d+d+d+d+d+d+j+j+u+j+j+v+k+l+j+",
"v+u+s+B+o+z+k+d+d+B+l+k+k+l+j+l+k+l+k+k+j+q+d+d+d+j+u+k+j+l+j+k+k+l+k+j+k+q+l+k+u+j+q+l+k+q+l+d+d+d+d+d+d+d+d+d+r+j+k+o+j+j+B+B+",
"l+l+p+l+p+k+d+d+d+B+k+q+n+k+l+v+k+l+k+l+v+o+d+d+d+d+j+B+j+j+u+v+u+u+o+v+v+v+u+v+j+u+o+B+u+o+d+d+d+d+d+k+l+l+d+d+d+d+d+k+k+r+l+j+",
"d+d+d+d+d+d+d+d+d+d+u+j+j+j+j+l+l+k+l+k+d+d+d+d+d+d+d+k+k+k+k+v+k+l+k+k+l+k+k+k+k+k+C+k+j+d+d+d+d+k+u+z+l+u+B+u+k+d+d+d+d+d+d+d+"};
