/* XPM */
static char * stone_wall3_xpm[] = {
"64 64 256 2",
"  	c #000000",
". 	c #0000FF",
"+ 	c #00FF00",
"@ 	c #FF0000",
"# 	c #00FFFF",
"$ 	c #FFFF00",
"% 	c #FF00FF",
"& 	c #FFFFFF",
"* 	c #7B7B7B",
"= 	c #7B7B7B",
"- 	c #7B7B7B",
"; 	c #7B7B7B",
"> 	c #7B7B7B",
", 	c #7B7B7B",
"' 	c #7B7B7B",
") 	c #7B7B7B",
"! 	c #7B7B7B",
"~ 	c #7B7B7B",
"{ 	c #7B7B7B",
"] 	c #7B7B7B",
"^ 	c #7B7B7B",
"/ 	c #7B7B7B",
"( 	c #7B7B7B",
"_ 	c #7B7B7B",
": 	c #7B7B7B",
"< 	c #7B7B7B",
"[ 	c #7B7B7B",
"} 	c #7B7B7B",
"| 	c #7B7B7B",
"1 	c #7B7B7B",
"2 	c #7B7B7B",
"3 	c #7B7B7B",
"4 	c #7B7B7B",
"5 	c #7B7B7B",
"6 	c #7B7B7B",
"7 	c #7B7B7B",
"8 	c #7B7B7B",
"9 	c #7B7B7B",
"0 	c #7B7B7B",
"a 	c #7B7B7B",
"b 	c #7B7B7B",
"c 	c #7B7B7B",
"d 	c #7B7B7B",
"e 	c #7B7B7B",
"f 	c #7B7B7B",
"g 	c #7B7B7B",
"h 	c #7B7B7B",
"i 	c #7B7B7B",
"j 	c #7B7B7B",
"k 	c #7B7B7B",
"l 	c #7B7B7B",
"m 	c #7B7B7B",
"n 	c #7B7B7B",
"o 	c #7B7B7B",
"p 	c #7B7B7B",
"q 	c #7B7B7B",
"r 	c #7B7B7B",
"s 	c #7B7B7B",
"t 	c #7B7B7B",
"u 	c #7B7B7B",
"v 	c #7B7B7B",
"w 	c #7B7B7B",
"x 	c #7B7B7B",
"y 	c #7B7B7B",
"z 	c #7B7B7B",
"A 	c #7B7B7B",
"B 	c #7B7B7B",
"C 	c #7B7B7B",
"D 	c #7B7B7B",
"E 	c #7B7B7B",
"F 	c #7B7B7B",
"G 	c #7B7B7B",
"H 	c #7B7B7B",
"I 	c #7B7B7B",
"J 	c #7B7B7B",
"K 	c #7B7B7B",
"L 	c #7B7B7B",
"M 	c #7B7B7B",
"N 	c #7B7B7B",
"O 	c #7B7B7B",
"P 	c #7B7B7B",
"Q 	c #7B7B7B",
"R 	c #7B7B7B",
"S 	c #7B7B7B",
"T 	c #7B7B7B",
"U 	c #7B7B7B",
"V 	c #7B7B7B",
"W 	c #7B7B7B",
"X 	c #7B7B7B",
"Y 	c #7B7B7B",
"Z 	c #7B7B7B",
"` 	c #7B7B7B",
" .	c #7B7B7B",
"..	c #7B7B7B",
"+.	c #7B7B7B",
"@.	c #7B7B7B",
"#.	c #7B7B7B",
"$.	c #7B7B7B",
"%.	c #7B7B7B",
"&.	c #7B7B7B",
"*.	c #7B7B7B",
"=.	c #7B7B7B",
"-.	c #7B7B7B",
";.	c #7B7B7B",
">.	c #7B7B7B",
",.	c #7B7B7B",
"'.	c #7B7B7B",
").	c #7B7B7B",
"!.	c #7B7B7B",
"~.	c #7B7B7B",
"{.	c #7B7B7B",
"].	c #7B7B7B",
"^.	c #7B7B7B",
"/.	c #7B7B7B",
"(.	c #7B7B7B",
"_.	c #7B7B7B",
":.	c #7B7B7B",
"<.	c #7B7B7B",
"[.	c #7B7B7B",
"}.	c #7B7B7B",
"|.	c #7B7B7B",
"1.	c #7B7B7B",
"2.	c #7B7B7B",
"3.	c #7B7B7B",
"4.	c #7B7B7B",
"5.	c #7B7B7B",
"6.	c #7B7B7B",
"7.	c #7B7B7B",
"8.	c #7B7B7B",
"9.	c #7B7B7B",
"0.	c #7B7B7B",
"a.	c #7B7B7B",
"b.	c #7B7B7B",
"c.	c #7B7B7B",
"d.	c #7B7B7B",
"e.	c #7B7B7B",
"f.	c #7B7B7B",
"g.	c #7B7B7B",
"h.	c #7B7B7B",
"i.	c #7B7B7B",
"j.	c #7B7B7B",
"k.	c #7B7B7B",
"l.	c #7B7B7B",
"m.	c #7B7B7B",
"n.	c #7B7B7B",
"o.	c #7B7B7B",
"p.	c #7B7B7B",
"q.	c #7B7B7B",
"r.	c #7B7B7B",
"s.	c #7B7B7B",
"t.	c #7B7B7B",
"u.	c #7B7B7B",
"v.	c #7B7B7B",
"w.	c #7B7B7B",
"x.	c #7B7B7B",
"y.	c #7B7B7B",
"z.	c #7B7B7B",
"A.	c #7B7B7B",
"B.	c #7B7B7B",
"C.	c #7B7B7B",
"D.	c #7B7B7B",
"E.	c #7B7B7B",
"F.	c #7B7B7B",
"G.	c #7B7B7B",
"H.	c #7B7B7B",
"I.	c #7B7B7B",
"J.	c #7B7B7B",
"K.	c #7B7B7B",
"L.	c #7B7B7B",
"M.	c #7B7B7B",
"N.	c #7B7B7B",
"O.	c #7B7B7B",
"P.	c #7B7B7B",
"Q.	c #7B7B7B",
"R.	c #7B7B7B",
"S.	c #7B7B7B",
"T.	c #7B7B7B",
"U.	c #7B7B7B",
"V.	c #7B7B7B",
"W.	c #7B7B7B",
"X.	c #7B7B7B",
"Y.	c #7B7B7B",
"Z.	c #7B7B7B",
"`.	c #7B7B7B",
" +	c #7B7B7B",
".+	c #7B7B7B",
"++	c #7B7B7B",
"@+	c #7B7B7B",
"#+	c #7B7B7B",
"$+	c #7B7B7B",
"%+	c #7B7B7B",
"&+	c #7B7B7B",
"*+	c #7B7B7B",
"=+	c #7B7B7B",
"-+	c #7B7B7B",
";+	c #7B7B7B",
">+	c #7B7B7B",
",+	c #7B7B7B",
"'+	c #7B7B7B",
")+	c #7B7B7B",
"!+	c #7B7B7B",
"~+	c #7B7B7B",
"{+	c #7B7B7B",
"]+	c #7B7B7B",
"^+	c #7B7B7B",
"/+	c #7B7B7B",
"(+	c #7B7B7B",
"_+	c #7B7B7B",
":+	c #7B7B7B",
"<+	c #7B7B7B",
"[+	c #7B7B7B",
"}+	c #7B7B7B",
"|+	c #7B7B7B",
"1+	c #7B7B7B",
"2+	c #7B7B7B",
"3+	c #7B7B7B",
"4+	c #7B7B7B",
"5+	c #525239",
"6+	c #524131",
"7+	c #292929",
"8+	c #BD0000",
"9+	c #312910",
"0+	c #832000",
"a+	c #4A3929",
"b+	c #A40000",
"c+	c #523929",
"d+	c #392910",
"e+	c #413120",
"f+	c #392918",
"g+	c #D50000",
"h+	c #414A31",
"i+	c #291808",
"j+	c #181008",
"k+	c #9C0000",
"l+	c #E60000",
"m+	c #8B0000",
"n+	c #625239",
"o+	c #EE0000",
"p+	c #5A4129",
"q+	c #525252",
"r+	c #414141",
"s+	c #6A4120",
"t+	c #181818",
"u+	c #7B0000",
"v+	c #202020",
"w+	c #313131",
"x+	c #312010",
"y+	c #394129",
"z+	c #B40000",
"A+	c #4A3118",
"B+	c #293118",
"C+	c #292008",
"D+	c #CD0000",
"E+	c #4A3920",
"F+	c #202908",
"G+	c #313920",
"w+f+w+w+f+z+z+8+8+8+D+z+z+b+x+w+j+x+e+b+z+8+D+D+D+z+z+b+b+z+D+D+8+D+8+8+D+8+D+D+8+D+8+D+D+8+D+z+w+9+x+w+w+x+d+c+f+w+w+d+w+w+x+w+",
"w+9+w+w+x+w+z+z+8+D+8+D+8+z+z+z+z+b+8+8+8+8+D+D+l+o+l+D+D+8+8+b+b+w+f+6+c+f+b+b+z+D+D+D+8+8+z+b+w+x+w+w+x+d+w+w+d+w+w+w+x+f+w+x+",
"w+w+f+d+w+w+h+b+z+D+8+D+z+b+9+6+6+6+9+c+b+b+z+8+o+o+g+8+8+b+x+w+f+6+w+e+f+w+e+6+b+z+8+D+8+z+d+w+x+w+w+x+w+w+F+w+w+w+x+w+c+9+w+x+",
"w+w+c+d+w+c+w+w+b+8+z+b+w+h+w+w+w+f+9+e+f+e+e+b+g+o+l+b+x+w+c+6+9+c+d+x+d+w+w+6+c+b+8+D+z+b+x+x+w+w+w+w+w+G+x+w+x+w+x+e+9+w+w+t+",
"x+w+d+c+f+x+x+6+b+z+b+E+x+x+e+x+w+d+6+E+f+d+w+b+8+8+b+w+w+w+x+w+w+x+w+x+w+x+x+f+c+b+D+D+b+x+w+x+f+x+w+x+w+x+c+d+w+x+w+w+x+w+w+x+",
"9+w+c+x+d+9+d+w+w+b+b+x+d+w+f+c+p+f+e+d+x+b+8+8+8+e+9+w+c+x+x+w+x+w+w+9+w+9+w+c+9+f+8+D+b+x+w+x+G+w+x+9+x+w+d+e+c+9+w+i+x+w+w+9+",
"w+w+w+w+x+h+e+x+6+b+z+f+d+d+e+f+x+w+b+8+8+D+8+z+G+w+c+x+w+x+x+x+w+d+w+w+9+e+9+c+9+c+8+D+b+e+f+w+x+e+7+w+x+x+w+d+f+e+x+w+x+w+x+9+",
"w+w+w+x+d+w+d+d+w+w+b+b+w+x+c+b+z+D+D+8+b+x+w+x+w+9+e+x+x+w+e+x+w+w+x+e+9+w+9+9+w+f+z+D+b+w+d+w+j+x+7+x+e+x+y+e+x+f+x+w+w+w+w+e+",
"w+x+w+x+9+c+d+E+f+6+b+z+z+8+8+8+D+8+c+x+x+w+c+d+x+e+9+w+x+w+x+x+w+x+w+d+h+f+9+e+9+G+b+8+b+x+w+x+x+w+7+x+w+d+w+f+e+d+e+x+x+w+w+x+",
"d+e+x+w+d+w+c+e+x+6+w+z+D+z+D+b+i+w+w+d+w+x+f+h+w+x+9+w+9+x+w+x+x+w+x+e+e+w+w+x+9+b+z+8+b+9+x+i+w+i+i+w+y+x+w+h+x+f+x+9+w+w+G+e+",
"i+w+w+x+w+9+9+9+x+c+9+b+D+z+b+x+w+e+6+w+w+h+d+w+d+x+x+e+9+w+x+w+x+9+w+f+6+f+d+e+b+D+l+D+z+d+x+x+x+w+x+x+x+w+w+w+w+x+E+f+w+w+9+9+",
"f+w+x+x+c+x+9+E+w+w+c+9+b+D+z+x+x+w+x+d+w+x+c+d+d+9+x+e+x+w+x+w+d+d+d+c+x+x+b+z+D+l+l+l+8+w+f+j+w+x+w+x+9+x+w+w+x+e+f+x+9+j+9+w+",
"9+x+G+w+9+x+e+9+w+w+w+w+w+b+D+b+b+c+x+c+w+y+e+h+x+x+e+d+w+x+c+e+f+d+w+z+z+8+8+8+8+D+l+D+8+w+d+c+e+e+x+w+w+x+E+w+w+w+w+x+x+i+e+x+",
"E+9+w+x+w+f+e+i+w+x+x+d+n+w+b+D+b+b+b+w+d+e+d+f+x+w+x+f+e+d+c+e+w+b+z+8+8+b+b+E+c+E+f+z+8+b+e+x+e+f+x+9+x+w+w+e+9+e+w+x+w+G+x+w+",
"9+w+x+w+w+w+x+e+w+x+9+d+c+w+x+8+D+8+z+b+w+x+c+f+e+E+c+e+c+c+d+w+b+8+b+b+b+w+x+e+6+w+6+w+c+D+z+b+e+9+e+x+e+x+w+9+w+9+w+w+x+e+x+i+",
"w+x+x+e+w+9+x+d+w+x+x+c+f+e+d+z+z+8+8+D+z+b+w+d+w+9+E+e+x+w+z+8+8+b+b+f+c+E+c+e+w+6+6+6+9+b+D+8+z+d+c+c+x+w+x+w+d+e+d+w+x+G+c+x+",
"E+9+w+x+f+e+x+9+9+E+f+e+c+c+b+0+8+D+b+x+b+8+D+D+z+b+h+x+z+z+z+z+b+h+c+f+w+w+d+E+w+d+w+e+w+c+d+D+8+b+i+d+e+s+E+e+x+x+9+w+i+w+h+w+",
"9+w+w+x+w+d+x+e+d+6+c+f+e+x+z+g+8+b+9+x+x+e+f+b+D+b+z+z+z+D+b+x+c+f+h+c+d+c+x+9+y+w+G+w+w+w+w+b+8+D+z+9+x+e+s+f+e+h+G+i+x+e+w+x+",
"w+d+x+w+f+e+f+6+c+E+d+w+b+b+D+D+D+b+f+x+d+w+d+d+b+8+8+8+D+8+b+w+x+w+x+w+d+f+c+f+w+w+w+d+e+w+f+w+b+D+D+8+b+e+f+n+E+e+e+x+9+9+w+w+",
"x+c+9+9+f+6+e+w+d+b+b+z+z+z+8+z+z+z+z+8+D+z+8+8+D+8+8+z+8+D+z+w+w+x+9+e+f+c+w+w+x+c+x+d+f+x+9+f+e+z+8+8+D+8+b+d+6+E+e+x+9+w+w+e+",
"w+G+f+c+E+E+b+z+8+z+b+b+b+w+E+x+i+d+c+f+f+c+c+f+c+f+f+b+8+D+8+b+w+w+w+e+w+w+w+w+w+9+9+w+w+x+w+x+x+b+z+z+z+8+D+b+c+e+f+e+x+j+f+x+",
"e+e+c+d+d+b+z+8+8+8+z+b+w+c+w+w+f+c+w+e+6+6+e+6+e+c+6+9+b+8+D+8+b+b+9+E+w+w+d+c+c+d+w+d+w+x+x+t+m+b+b+9+9+b+8+D+8+b+e+E+E+f+x+x+",
"d+e+d+b+z+8+8+z+8+b+b+w+w+c+w+w+w+w+e+f+c+9+f+c+f+6+r+f+c+b+b+b+D+8+b+f+w+f+c+9+w+x+x+x+x+x+x+x+b+b+9+e+c+9+c+z+D+8+b+f+f+d+d+e+",
"w+b+z+z+D+b+e+b+8+z+x+w+e+x+w+x+i+7+w+w+w+f+c+c+f+w+e+r+n+f+w+m+m+8+8+b+w+w+x+c+e+f+h+x+x+d+x+m+b+b+x+c+c+6+e+w+6+z+D+b+b+c+f+d+",
"z+z+z+w+w+x+w+w+z+8+b+7+w+e+x+c+j+d+w+x+w+e+f+f+e+d+9+c+6+c+6+p+w+m+8+8+b+x+h+f+d+e+x+c+9+x+w+b+b+w+x+w+w+d+f+5+d+f+b+z+b+8+8+z+",
"c+9+e+w+c+6+w+w+b+8+z+x+x+w+w+x+x+e+w+x+w+f+f+6+w+e+e+w+w+f+e+6+6+w+m+z+8+b+w+w+E+6+e+e+x+w+b+z+z+f+c+w+x+w+w+c+e+6+c+w+E+w+c+x+",
"9+c+c+e+6+w+w+n+x+z+z+b+7+w+x+w+w+c+d+c+x+c+c+d+c+9+w+x+x+w+x+f+c+r+6+m+8+D+b+E+w+f+f+w+w+b+z+D+z+w+w+x+i+d+x+c+w+w+f+c+6+f+w+f+",
"x+e+w+9+f+h+d+6+c+b+z+z+w+e+G+w+w+w+x+w+w+w+w+f+w+d+f+f+x+x+x+E+9+6+c+w+m+D+8+b+w+w+x+b+b+8+D+D+z+9+6+w+w+w+x+w+f+w+9+w+f+c+c+w+",
"x+w+x+e+d+x+d+c+c+x+8+8+b+w+c+d+w+x+w+x+w+x+c+f+f+c+f+w+x+w+x+w+w+w+6+6+6+m+z+D+g+z+z+z+8+l+D+D+z+i+c+x+w+7+w+x+e+d+E+w+j+c+w+x+",
"i+9+w+w+x+G+w+9+6+9+b+z+z+c+e+9+w+d+7+x+w+w+9+w+w+c+x+w+w+x+w+w+x+e+c+e+6+f+b+b+D+D+8+8+l+o+l+D+z+c+w+9+w+w+f+e+e+d+f+x+w+w+w+x+",
"w+e+w+w+x+e+E+x+c+6+x+z+z+b+e+d+w+w+x+w+9+c+e+c+f+w+w+x+x+x+w+x+w+9+w+w+e+r+m+b+D+D+8+8+8+l+D+D+z+u+w+6+w+w+w+G+w+c+t+w+x+w+x+x+",
"w+w+x+x+x+9+w+x+c+6+x+b+8+z+w+e+d+x+x+w+9+9+e+w+w+x+w+x+x+9+w+x+e+w+d+9+9+6+9+b+D+z+b+w+d+b+b+8+z+b+u+w+6+w+w+9+x+x+x+x+x+w+w+w+",
"c+x+e+x+x+x+d+y+f+w+x+b+z+b+w+f+f+x+w+d+9+h+w+w+w+c+d+w+x+9+9+x+h+d+h+x+c+f+9+b+8+b+w+F+c+w+w+b+z+b+b+u+x+d+w+x+w+w+w+x+x+w+w+x+",
"d+w+f+w+x+x+w+w+f+w+w+z+8+z+x+6+x+w+w+9+w+d+f+p+c+d+w+w+w+w+w+9+x+h+9+e+w+f+6+b+b+b+x+w+F+7+G+9+b+z+z+k+u+d+f+w+x+w+w+x+w+x+w+w+",
"i+w+e+7+e+9+w+x+x+w+m+8+D+8+x+e+e+x+h+w+c+c+f+9+w+w+x+E+w+G+x+e+w+9+e+9+E+9+b+b+b+x+w+w+w+j+w+w+f+6+b+z+z+k+f+f+e+w+c+w+9+w+i+x+",
"x+w+9+G+e+d+x+y+x+x+m+8+D+8+x+f+e+w+d+f+c+w+6+e+w+w+t+w+x+e+x+w+w+x+d+E+f+9+b+b+c+d+x+x+x+w+x+x+c+f+6+c+b+8+k+w+f+w+9+x+e+x+x+x+",
"d+w+w+e+w+x+x+d+w+w+f+m+z+8+z+e+d+c+w+w+c+w+w+w+w+9+w+x+w+w+w+f+x+d+c+f+e+z+b+b+w+w+w+w+x+w+x+w+f+c+w+6+6+z+8+k+w+c+e+x+x+x+w+j+",
"e+9+w+e+c+w+w+x+x+w+w+x+w+m+z+z+c+f+w+w+w+w+G+w+e+c+7+w+w+9+w+f+f+c+f+e+z+b+b+d+w+c+x+w+x+w+w+x+x+x+f+6+c+6+z+D+k+w+c+d+w+w+x+w+",
"9+w+9+w+f+f+x+w+t+w+w+f+c+x+z+8+z+f+x+9+c+w+w+w+w+x+w+x+w+c+f+e+f+E+b+z+b+b+9+f+w+d+c+w+x+w+w+9+7+x+d+x+6+c+6+z+b+d+f+6+d+w+x+x+",
"w+x+w+c+c+x+x+w+w+x+d+c+f+w+m+8+D+f+f+h+x+w+w+d+e+d+w+E+d+e+f+e+b+z+8+b+b+x+e+w+w+w+c+w+x+w+w+7+x+t+w+w+w+6+E+b+8+b+x+e+f+w+w+x+",
"p+w+c+w+c+E+x+x+x+x+d+x+w+c+j+b+8+b+c+e+c+w+c+e+x+i+E+E+E+f+b+z+z+b+b+k+w+e+w+w+7+x+x+x+x+c+x+c+x+w+7+x+w+6+c+6+b+8+z+w+f+c+w+w+",
"G+w+c+G+7+w+x+x+x+w+w+d+f+w+w+m+8+8+z+f+E+s+f+f+w+d+e+6+9+b+z+z+z+b+w+h+d+c+G+f+6+x+x+c+x+x+w+x+c+w+x+w+x+x+c+w+b+b+z+b+i+c+c+x+",
"w+x+f+e+x+x+x+w+x+w+w+w+f+6+w+m+8+D+D+z+e+s+E+E+E+6+6+f+b+z+b+b+w+w+d+w+d+f+w+f+w+w+w+9+w+G+x+w+d+c+w+w+x+w+d+h+f+b+8+z+b+w+E+d+",
"x+w+w+w+d+w+x+w+d+d+e+c+c+c+e+b+8+g+g+z+b+e+6+E+6+6+c+z+8+z+d+9+w+x+x+c+d+E+c+c+w+w+x+x+x+x+x+x+w+x+x+w+G+f+w+d+w+f+b+z+8+b+9+6+",
"f+x+w+c+x+f+e+f+c+e+c+d+f+d+b+8+g+o+g+8+8+8+b+c+6+e+z+D+g+D+x+d+e+x+w+E+w+9+w+f+w+w+x+e+7+x+w+x+w+x+x+w+w+G+w+w+6+c+b+8+8+b+9+d+",
"c+e+c+f+f+6+f+c+e+f+b+8+D+D+z+8+8+g+8+8+D+D+8+D+D+D+D+g+@ g+b+e+d+6+f+c+e+f+x+w+c+x+w+x+w+x+x+w+x+w+x+x+G+e+x+x+9+f+w+8+8+z+b+x+",
"f+6+f+f+f+d+f+b+z+b+8+8+8+8+b+c+w+c+6+e+n+c+e+6+9+b+8+8+g+D+b+b+e+x+e+e+6+f+p+d+w+x+9+9+x+w+d+x+w+h+x+x+x+x+e+f+w+x+k+z+D+z+z+b+",
"x+e+f+w+z+z+b+z+z+b+f+z+z+z+e+f+f+f+w+c+e+w+6+c+e+6+f+c+b+g+g+8+z+z+b+e+w+e+e+6+e+w+c+9+f+x+w+x+w+w+x+e+e+h+w+w+w+k+b+b+8+8+D+z+",
"z+z+z+z+z+b+b+d+c+w+b+b+8+b+e+x+w+d+w+x+w+w+w+d+c+w+5+6+f+z+g+g+D+8+z+z+z+b+x+c+c+e+E+w+e+x+w+x+x+w+7+w+x+e+w+x+k+b+b+b+z+D+g+z+",
"z+z+z+b+b+x+w+6+e+6+w+b+8+b+x+w+w+w+y+x+E+e+d+w+w+w+w+6+6+z+g+8+5+w+c+z+z+8+z+b+w+e+f+e+e+x+w+w+e+d+e+d+f+y+x+b+z+b+c+e+b+b+D+z+",
"z+b+b+w+f+h+c+w+c+f+y+b+8+6+x+x+w+i+w+w+d+w+d+c+f+x+f+h+f+D+8+6+9+p+6+r+5+b+b+z+b+d+c+6+e+f+d+f+e+d+e+x+x+b+b+b+x+w+c+w+w+b+z+b+",
"b+e+e+5+e+f+9+x+w+6+9+z+b+d+w+d+x+x+c+x+E+c+f+c+w+w+c+f+z+D+n+9+w+w+c+c+n+6+c+b+z+b+w+f+c+c+d+f+E+x+x+b+z+b+b+w+c+c+9+c+9+b+z+z+",
"w+w+c+h+d+c+x+w+w+9+b+8+b+w+x+j+x+x+9+f+w+w+c+9+c+d+w+z+D+8+p+w+w+w+w+c+w+r+q+6+6+z+z+b+9+h+w+k+b+b+z+z+b+c+w+c+f+w+d+c+b+b+z+b+",
"w+d+d+w+x+w+x+w+w+x+b+8+c+c+w+j+w+w+x+c+e+9+w+w+e+x+b+D+8+c+w+w+x+x+f+E+e+e+6+r+c+e+8+D+8+D+D+D+b+b+w+e+x+w+c+9+w+9+c+u+z+z+h+w+",
"d+w+d+w+x+w+w+w+x+w+z+b+e+x+x+x+w+d+d+e+9+6+w+w+9+x+8+8+c+6+x+7+e+f+e+9+c+e+c+9+c+c+w+z+D+D+D+b+f+c+6+f+f+c+x+e+c+d+u+z+z+h+x+x+",
"x+w+w+c+j+F+j+x+7+b+8+c+e+G+x+f+x+c+9+d+c+9+w+x+9+c+8+z+6+w+x+x+x+w+e+9+w+w+h+9+w+f+e+9+z+D+b+x+w+w+e+w+w+9+e+x+u+8+z+b+x+6+f+f+",
"w+c+9+w+w+j+F+d+w+z+z+d+w+x+x+w+7+x+w+w+9+w+d+h+w+z+8+e+9+x+x+d+w+x+x+e+e+f+w+e+d+w+f+6+9+z+z+u+7+w+x+c+E+d+u+8+8+z+x+w+w+i+f+d+",
"e+x+9+w+x+7+w+9+w+8+0+w+x+w+e+x+9+w+x+w+w+9+e+e+f+8+b+w+x+w+x+x+x+w+w+e+w+9+w+d+w+w+w+6+f+E+b+z+u+9+d+e+u+b+8+8+b+d+6+w+f+e+w+x+",
"w+x+9+d+w+j+d+w+b+8+f+w+w+w+w+w+w+w+G+w+d+w+e+d+z+8+c+x+9+x+9+7+x+e+x+x+d+x+x+w+x+w+e+9+6+w+c+8+D+u+w+u+8+D+D+b+x+6+x+w+w+d+d+f+",
"x+w+w+d+w+d+f+w+8+z+f+x+w+t+w+w+w+x+E+w+h+e+x+9+8+b+d+w+x+7+x+9+w+9+d+d+w+w+w+w+w+x+e+9+w+f+w+b+8+D+D+D+D+D+b+x+e+d+E+w+x+w+j+x+",
"f+w+w+x+c+e+E+b+8+b+x+w+w+t+w+x+w+x+w+w+w+e+e+b+8+w+d+w+w+w+x+w+w+w+h+9+w+x+w+e+G+c+w+w+x+9+c+b+z+z+8+D+D+8+b+d+d+c+d+d+e+x+w+9+",
"e+c+p+E+f+6+x+8+z+E+w+x+x+w+d+w+x+w+x+x+d+h+b+z+z+d+c+x+9+w+9+x+x+w+x+9+x+h+w+x+c+9+h+w+x+h+w+b+z+8+D+D+z+z+z+b+G+d+x+f+d+d+E+E+",
"w+w+7+w+7+x+8+z+z+E+x+h+j+x+w+e+x+w+x+w+e+f+b+z+b+b+d+E+9+9+c+e+c+c+f+e+e+e+c+e+9+c+f+E+c+f+b+z+8+b+b+x+w+w+b+z+z+b+b+x+x+G+w+9+",
"8+8+z+8+8+8+8+D+z+b+c+d+9+9+d+w+w+x+w+x+b+b+z+D+z+b+b+x+x+x+x+e+x+w+x+x+w+x+x+x+x+x+e+x+9+z+8+D+z+x+c+6+w+c+E+c+x+b+b+z+z+z+z+b+"};
