/* XPM */
static char * stone_wall4_xpm[] = {
"64 64 256 2",
"  	c #000000",
". 	c #0000FF",
"+ 	c #00FF00",
"@ 	c #FF0000",
"# 	c #00FFFF",
"$ 	c #FFFF00",
"% 	c #FF00FF",
"& 	c #FFFFFF",
"* 	c #7B7B7B",
"= 	c #7B7B7B",
"- 	c #7B7B7B",
"; 	c #7B7B7B",
"> 	c #7B7B7B",
", 	c #7B7B7B",
"' 	c #7B7B7B",
") 	c #7B7B7B",
"! 	c #7B7B7B",
"~ 	c #7B7B7B",
"{ 	c #7B7B7B",
"] 	c #7B7B7B",
"^ 	c #7B7B7B",
"/ 	c #7B7B7B",
"( 	c #7B7B7B",
"_ 	c #7B7B7B",
": 	c #7B7B7B",
"< 	c #7B7B7B",
"[ 	c #7B7B7B",
"} 	c #7B7B7B",
"| 	c #7B7B7B",
"1 	c #7B7B7B",
"2 	c #7B7B7B",
"3 	c #7B7B7B",
"4 	c #7B7B7B",
"5 	c #7B7B7B",
"6 	c #7B7B7B",
"7 	c #7B7B7B",
"8 	c #7B7B7B",
"9 	c #7B7B7B",
"0 	c #7B7B7B",
"a 	c #7B7B7B",
"b 	c #7B7B7B",
"c 	c #7B7B7B",
"d 	c #7B7B7B",
"e 	c #7B7B7B",
"f 	c #7B7B7B",
"g 	c #7B7B7B",
"h 	c #7B7B7B",
"i 	c #7B7B7B",
"j 	c #7B7B7B",
"k 	c #7B7B7B",
"l 	c #7B7B7B",
"m 	c #7B7B7B",
"n 	c #7B7B7B",
"o 	c #7B7B7B",
"p 	c #7B7B7B",
"q 	c #7B7B7B",
"r 	c #7B7B7B",
"s 	c #7B7B7B",
"t 	c #7B7B7B",
"u 	c #7B7B7B",
"v 	c #7B7B7B",
"w 	c #7B7B7B",
"x 	c #7B7B7B",
"y 	c #7B7B7B",
"z 	c #7B7B7B",
"A 	c #7B7B7B",
"B 	c #7B7B7B",
"C 	c #7B7B7B",
"D 	c #7B7B7B",
"E 	c #7B7B7B",
"F 	c #7B7B7B",
"G 	c #7B7B7B",
"H 	c #7B7B7B",
"I 	c #7B7B7B",
"J 	c #7B7B7B",
"K 	c #7B7B7B",
"L 	c #7B7B7B",
"M 	c #7B7B7B",
"N 	c #7B7B7B",
"O 	c #7B7B7B",
"P 	c #7B7B7B",
"Q 	c #7B7B7B",
"R 	c #7B7B7B",
"S 	c #7B7B7B",
"T 	c #7B7B7B",
"U 	c #7B7B7B",
"V 	c #7B7B7B",
"W 	c #7B7B7B",
"X 	c #7B7B7B",
"Y 	c #7B7B7B",
"Z 	c #7B7B7B",
"` 	c #7B7B7B",
" .	c #7B7B7B",
"..	c #7B7B7B",
"+.	c #7B7B7B",
"@.	c #7B7B7B",
"#.	c #7B7B7B",
"$.	c #7B7B7B",
"%.	c #7B7B7B",
"&.	c #7B7B7B",
"*.	c #7B7B7B",
"=.	c #7B7B7B",
"-.	c #7B7B7B",
";.	c #7B7B7B",
">.	c #7B7B7B",
",.	c #7B7B7B",
"'.	c #7B7B7B",
").	c #7B7B7B",
"!.	c #7B7B7B",
"~.	c #7B7B7B",
"{.	c #7B7B7B",
"].	c #7B7B7B",
"^.	c #7B7B7B",
"/.	c #7B7B7B",
"(.	c #7B7B7B",
"_.	c #7B7B7B",
":.	c #7B7B7B",
"<.	c #7B7B7B",
"[.	c #7B7B7B",
"}.	c #7B7B7B",
"|.	c #7B7B7B",
"1.	c #7B7B7B",
"2.	c #7B7B7B",
"3.	c #7B7B7B",
"4.	c #7B7B7B",
"5.	c #7B7B7B",
"6.	c #7B7B7B",
"7.	c #7B7B7B",
"8.	c #7B7B7B",
"9.	c #7B7B7B",
"0.	c #7B7B7B",
"a.	c #7B7B7B",
"b.	c #7B7B7B",
"c.	c #7B7B7B",
"d.	c #7B7B7B",
"e.	c #7B7B7B",
"f.	c #7B7B7B",
"g.	c #7B7B7B",
"h.	c #7B7B7B",
"i.	c #7B7B7B",
"j.	c #7B7B7B",
"k.	c #7B7B7B",
"l.	c #7B7B7B",
"m.	c #7B7B7B",
"n.	c #7B7B7B",
"o.	c #7B7B7B",
"p.	c #7B7B7B",
"q.	c #7B7B7B",
"r.	c #7B7B7B",
"s.	c #7B7B7B",
"t.	c #7B7B7B",
"u.	c #7B7B7B",
"v.	c #7B7B7B",
"w.	c #7B7B7B",
"x.	c #7B7B7B",
"y.	c #7B7B7B",
"z.	c #7B7B7B",
"A.	c #7B7B7B",
"B.	c #7B7B7B",
"C.	c #7B7B7B",
"D.	c #7B7B7B",
"E.	c #7B7B7B",
"F.	c #7B7B7B",
"G.	c #7B7B7B",
"H.	c #7B7B7B",
"I.	c #7B7B7B",
"J.	c #7B7B7B",
"K.	c #7B7B7B",
"L.	c #7B7B7B",
"M.	c #7B7B7B",
"N.	c #7B7B7B",
"O.	c #7B7B7B",
"P.	c #7B7B7B",
"Q.	c #7B7B7B",
"R.	c #7B7B7B",
"S.	c #7B7B7B",
"T.	c #7B7B7B",
"U.	c #7B7B7B",
"V.	c #7B7B7B",
"W.	c #7B7B7B",
"X.	c #7B7B7B",
"Y.	c #7B7B7B",
"Z.	c #7B7B7B",
"`.	c #7B7B7B",
" +	c #7B7B7B",
".+	c #7B7B7B",
"++	c #7B7B7B",
"@+	c #7B7B7B",
"#+	c #7B7B7B",
"$+	c #7B7B7B",
"%+	c #7B7B7B",
"&+	c #7B7B7B",
"*+	c #7B7B7B",
"=+	c #7B7B7B",
"-+	c #7B7B7B",
";+	c #7B7B7B",
">+	c #7B7B7B",
",+	c #7B7B7B",
"'+	c #7B7B7B",
")+	c #7B7B7B",
"!+	c #7B7B7B",
"~+	c #7B7B7B",
"{+	c #7B7B7B",
"]+	c #7B7B7B",
"^+	c #7B7B7B",
"/+	c #7B7B7B",
"(+	c #7B7B7B",
"_+	c #7B7B7B",
":+	c #7B7B7B",
"<+	c #7B7B7B",
"[+	c #7B7B7B",
"}+	c #7B7B7B",
"|+	c #7B7B7B",
"1+	c #7B7B7B",
"2+	c #7B7B7B",
"3+	c #7B7B7B",
"4+	c #7B7B7B",
"5+	c #523929",
"6+	c #414141",
"7+	c #312910",
"8+	c #832000",
"9+	c #8B0000",
"0+	c #4A3929",
"a+	c #392910",
"b+	c #413120",
"c+	c #392918",
"d+	c #B40000",
"e+	c #625231",
"f+	c #625239",
"g+	c #524131",
"h+	c #6A4120",
"i+	c #BD0000",
"j+	c #202908",
"k+	c #7B0000",
"l+	c #5A4129",
"m+	c #CD0000",
"n+	c #414A31",
"o+	c #525252",
"p+	c #525239",
"q+	c #E60000",
"r+	c #D50000",
"s+	c #EE0000",
"t+	c #181818",
"u+	c #730000",
"v+	c #202020",
"w+	c #394129",
"x+	c #312010",
"y+	c #9C0000",
"z+	c #313131",
"A+	c #4A3118",
"B+	c #293118",
"C+	c #292008",
"D+	c #181008",
"E+	c #A40000",
"F+	c #4A3920",
"G+	c #292929",
"z+c+z+z+c+y+y+y+y+y+E+y+y+9+x+z+D+x+b+9+y+y+E+E+E+y+y+9+9+y+E+E+y+E+y+y+E+y+E+E+y+E+y+E+E+y+E+y+z+7+x+z+z+x+a+5+c+z+z+a+z+z+x+z+",
"z+7+z+z+x+z+y+y+y+E+y+E+y+y+y+y+y+9+y+y+y+y+E+E+E+y+E+E+E+y+y+9+9+z+c+g+5+c+9+9+y+E+d+i+d+y+y+9+z+x+z+z+x+a+z+z+a+z+z+z+x+c+z+x+",
"z+z+c+a+z+z+n+9+y+E+y+E+y+9+7+g+g+g+7+5+9+9+y+y+E+y+E+y+y+9+x+z+c+g+z+b+c+z+b+g+9+y+i+q+i+y+a+z+x+z+z+x+z+z+j+z+z+z+x+z+5+7+z+x+",
"z+z+5+a+z+5+z+z+9+y+y+9+z+n+z+z+z+c+7+b+c+b+b+9+E+E+y+9+x+z+5+g+7+5+a+x+a+z+z+g+5+9+d+r+y+9+x+x+z+z+z+z+z+B+x+z+x+z+x+b+7+z+z+t+",
"x+z+a+5+c+x+x+g+9+y+9+F+x+x+b+x+z+a+g+F+c+a+z+9+y+y+9+z+z+z+x+z+z+x+z+x+z+x+x+c+5+9+E+i+9+x+z+x+c+x+z+x+z+x+5+a+z+x+z+z+x+z+z+x+",
"7+z+5+x+a+7+a+z+z+9+9+x+a+z+c+5+l+c+b+a+x+9+y+y+y+b+7+z+5+x+x+z+x+z+z+7+z+7+z+5+7+c+y+E+9+x+z+x+B+z+x+7+x+z+a+b+5+7+z+x+x+z+z+7+",
"z+z+z+z+x+n+b+x+g+9+y+c+a+a+b+c+x+z+9+y+y+E+y+y+B+z+5+x+z+x+x+x+z+a+z+z+7+b+7+5+7+5+y+E+9+b+c+z+x+b+G+z+x+x+z+a+c+b+x+z+x+z+x+7+",
"z+z+z+x+a+z+a+a+z+z+9+9+z+x+5+9+y+E+E+y+9+x+z+x+z+7+b+x+x+z+b+x+z+z+x+b+7+z+7+7+z+c+y+E+9+z+a+z+D+x+G+x+b+x+w+b+x+c+x+z+z+z+z+b+",
"z+x+z+x+7+5+a+F+c+g+9+y+y+y+y+y+E+y+5+x+x+z+5+a+x+b+7+z+x+z+x+x+z+x+z+a+n+c+7+b+7+B+9+y+9+x+z+x+x+z+G+x+z+a+z+c+b+a+b+x+x+z+z+x+",
"a+b+x+z+a+z+5+b+x+g+z+y+E+y+E+9+x+z+z+a+z+x+c+n+z+x+7+z+7+x+z+x+x+z+x+b+b+z+z+x+7+9+y+y+9+7+x+x+z+x+x+z+w+x+z+n+x+c+x+7+z+z+B+b+",
"x+z+z+x+z+7+7+7+x+5+7+9+E+y+9+x+z+b+g+z+z+n+a+z+a+x+x+b+7+z+x+z+x+7+z+c+g+c+a+b+9+y+d+y+y+a+x+x+x+z+x+x+x+z+z+z+z+x+F+c+z+z+7+7+",
"c+z+x+x+5+x+7+F+z+z+5+7+9+E+y+x+x+z+x+a+z+x+5+a+a+7+x+b+x+z+x+z+a+a+a+5+x+x+9+y+y+d+i+d+y+z+c+D+z+x+z+x+7+x+z+z+x+b+c+x+7+D+7+z+",
"7+x+B+z+7+x+b+7+z+z+z+z+z+9+E+9+9+5+x+5+z+w+b+n+x+x+b+a+z+x+5+b+c+a+z+y+y+y+y+y+y+y+d+E+y+z+a+5+b+b+x+z+z+x+F+z+z+z+z+x+x+x+b+x+",
"F+7+z+x+z+c+b+x+z+x+x+a+f+z+9+E+9+9+9+z+a+b+a+c+x+z+x+c+b+a+5+b+z+9+y+y+y+9+9+F+5+F+c+y+y+9+b+x+b+c+x+7+x+z+z+b+7+b+z+x+z+B+x+z+",
"7+z+x+z+z+z+x+b+z+x+7+a+5+z+x+y+E+y+y+9+z+x+5+c+b+F+5+b+5+5+a+z+9+y+9+9+9+z+x+b+g+z+g+z+5+E+y+9+b+7+b+x+b+x+z+7+z+7+z+z+x+b+x+x+",
"z+x+x+b+z+7+x+a+z+x+x+5+c+b+a+y+y+y+y+E+y+9+z+a+z+7+F+b+x+z+y+y+y+9+9+c+5+F+5+b+z+g+g+g+7+9+E+y+y+a+5+5+x+z+x+z+a+b+a+z+x+B+5+x+",
"F+7+z+x+c+b+x+7+7+F+c+b+5+5+9+8+y+E+9+x+9+y+E+E+y+9+n+x+y+y+y+y+9+n+5+c+z+z+a+F+z+a+z+b+z+5+a+E+y+9+x+a+b+h+F+b+x+x+7+z+x+z+n+z+",
"7+z+z+x+z+a+x+b+a+g+5+c+b+x+y+d+y+9+7+x+x+b+c+9+E+9+y+y+y+E+9+x+5+c+n+5+a+5+x+7+w+z+B+z+z+z+z+9+y+E+y+7+x+b+h+c+b+n+B+x+x+b+z+x+",
"z+a+x+z+c+b+c+g+5+F+a+z+9+9+E+E+E+9+c+x+a+z+a+a+9+y+y+y+E+y+9+z+x+z+x+z+a+c+5+c+z+z+z+a+b+z+c+z+9+E+E+y+9+b+c+e+F+b+b+x+7+7+z+z+",
"x+5+7+7+c+g+b+z+a+9+9+y+y+y+y+y+y+y+y+y+E+y+y+y+E+y+y+y+y+E+y+z+z+x+7+b+c+5+z+z+x+5+x+a+c+x+7+c+b+y+y+y+E+y+9+a+g+F+b+x+7+z+z+b+",
"z+B+c+5+F+F+9+y+y+d+E+9+9+z+F+x+x+a+5+c+c+5+5+c+5+c+c+9+y+E+y+9+z+z+z+b+z+z+z+z+z+7+7+z+z+x+z+x+x+9+y+y+y+y+E+9+5+b+c+b+x+D+c+x+",
"b+b+5+a+a+9+y+E+d+E+y+9+z+5+z+z+c+5+z+b+g+g+b+g+b+5+g+7+9+y+E+y+9+9+7+F+z+z+a+5+5+a+z+a+z+x+x+t+9+9+9+7+7+9+y+E+y+9+b+F+F+c+x+x+",
"a+b+a+9+y+y+y+E+d+E+9+z+z+5+z+z+z+z+b+c+5+7+c+5+c+g+6+c+5+9+9+9+E+y+9+c+z+c+5+7+z+x+x+x+x+x+x+x+9+9+7+b+5+7+5+y+E+y+9+c+c+a+a+b+",
"z+9+y+y+E+9+b+9+y+y+x+z+b+x+z+x+x+G+z+z+z+c+5+5+c+z+b+6+f+c+z+z+5+y+y+9+z+z+x+5+b+c+n+x+x+a+x+9+9+9+x+5+5+g+b+z+g+y+E+9+9+5+c+a+",
"y+y+y+z+z+x+z+z+y+y+9+G+z+b+x+5+D+a+z+x+z+b+c+c+b+a+7+5+g+5+g+l+z+5+y+y+9+x+n+c+a+b+x+5+7+x+z+9+9+z+x+z+z+a+c+p+a+c+9+y+9+y+y+y+",
"5+7+b+z+5+g+z+z+9+y+y+x+x+z+z+x+x+b+z+x+z+c+c+g+z+b+b+z+z+c+b+g+g+z+c+y+y+9+z+z+F+g+b+b+x+z+9+y+y+c+5+z+x+z+z+5+b+g+5+z+F+z+5+x+",
"7+5+5+b+g+z+z+f+x+y+y+9+G+z+x+z+z+5+a+5+x+5+5+a+5+7+z+x+x+z+x+c+5+6+g+5+y+E+9+F+z+c+c+z+z+9+y+E+y+z+z+x+x+a+x+5+z+z+c+5+g+c+z+c+",
"x+b+z+7+c+n+a+g+5+9+y+y+z+b+B+z+z+z+x+z+z+z+z+c+z+a+c+c+x+x+x+F+7+g+5+z+9+E+y+9+z+z+x+9+9+y+E+E+y+7+g+z+z+z+x+z+c+z+7+z+c+5+5+z+",
"x+z+x+b+a+x+a+5+5+x+y+y+9+z+5+a+z+x+z+x+z+x+5+c+c+5+c+z+x+z+x+z+z+z+g+g+g+a+y+E+d+y+y+y+d+d+d+E+y+x+5+x+z+G+z+x+b+a+F+z+D+5+z+x+",
"x+7+z+z+x+B+z+7+g+7+9+y+y+5+b+7+z+a+G+x+z+z+7+z+z+5+x+z+z+x+z+z+x+b+5+b+g+c+9+9+E+d+y+d+m+s+m+E+y+5+z+7+z+z+c+b+b+a+c+x+z+z+z+x+",
"z+b+z+z+x+b+F+x+5+g+x+y+y+9+b+a+z+z+x+z+7+5+b+5+c+z+z+x+x+x+z+x+z+7+z+z+b+6+7+9+d+d+y+y+d+m+d+E+y+5+z+g+z+z+z+B+z+5+t+z+x+z+x+x+",
"z+z+x+x+x+7+z+x+5+g+x+9+y+y+z+b+a+x+x+z+7+7+b+z+z+x+z+x+x+7+z+x+b+z+a+7+7+g+7+9+d+y+9+u+u+9+9+y+y+9+z+z+g+z+z+7+x+x+x+x+x+z+z+z+",
"5+x+b+x+x+x+a+w+c+z+x+9+y+9+z+c+c+x+z+a+7+n+z+z+z+5+a+z+x+7+7+x+n+a+n+x+5+c+7+9+y+9+u+j+5+z+z+9+y+9+9+x+x+a+z+x+z+z+z+x+x+z+z+x+",
"a+z+c+z+x+x+z+z+c+z+z+y+y+y+x+g+x+z+z+7+z+a+c+l+5+a+z+z+z+z+z+7+x+n+7+b+z+c+g+9+9+9+x+z+j+G+B+7+u+y+y+9+9+a+c+z+x+z+z+x+z+x+z+z+",
"x+z+b+G+b+7+z+x+x+z+9+y+E+y+x+b+b+x+n+z+5+5+c+7+z+z+x+F+z+B+x+b+z+7+b+7+F+7+9+9+9+u+z+z+z+D+z+z+c+g+9+y+y+9+c+c+b+z+5+z+7+z+x+x+",
"x+z+7+B+b+a+x+w+x+x+y+y+E+y+x+c+b+z+a+c+5+z+g+b+z+z+t+z+x+b+x+z+z+x+a+F+c+7+9+9+u+a+x+x+x+z+x+x+5+c+g+5+9+y+9+z+c+z+7+x+b+x+x+x+",
"a+z+z+b+z+x+x+a+z+z+c+9+y+y+y+b+a+5+z+z+5+z+z+z+z+7+z+x+z+z+z+c+x+a+5+c+b+y+9+u+z+z+z+z+x+z+x+z+c+5+z+z+p+y+y+y+z+5+b+x+x+x+z+D+",
"b+7+z+b+5+z+z+x+x+z+z+x+z+9+y+y+5+c+z+z+z+z+B+z+b+5+G+z+z+7+z+c+c+5+c+b+y+9+u+a+z+5+x+z+x+z+z+x+x+x+c+z+5+p+y+E+9+z+5+a+z+z+x+z+",
"7+z+7+z+c+c+x+z+t+z+z+c+5+x+y+y+y+c+x+7+5+z+z+z+z+x+z+x+z+5+c+b+c+F+9+y+9+u+7+c+z+a+5+z+x+z+z+7+G+x+a+x+z+5+g+y+9+a+c+g+a+z+x+x+",
"z+x+z+5+5+x+x+z+z+x+a+5+c+z+9+y+E+c+c+n+x+z+z+a+b+a+z+F+a+b+c+b+9+y+y+9+u+x+b+z+z+z+5+z+x+z+z+G+x+t+z+z+z+z+F+9+y+9+x+b+c+z+z+x+",
"l+z+5+z+5+F+x+x+x+x+a+x+z+5+D+9+y+9+5+b+5+z+5+b+x+x+F+F+F+c+9+y+y+9+9+u+z+b+z+z+G+x+x+x+x+5+x+5+x+z+G+x+z+z+5+g+9+y+y+z+c+5+z+z+",
"B+z+5+B+G+z+x+x+x+z+z+a+c+z+z+9+y+y+y+c+F+h+c+c+z+a+b+g+7+9+y+y+y+u+z+n+a+5+B+c+g+x+x+5+x+x+z+x+5+z+x+z+x+x+z+z+9+9+y+9+x+5+5+x+",
"z+x+c+b+x+x+x+z+x+z+z+z+c+g+z+x+9+E+E+y+b+h+F+F+F+g+g+c+9+y+9+9+z+z+a+z+a+c+z+c+z+z+z+7+z+B+x+z+a+5+z+z+x+z+a+z+c+9+y+y+9+z+F+a+",
"x+z+z+z+a+z+x+z+a+a+b+5+5+5+b+9+y+d+E+y+9+b+g+F+g+g+5+y+y+y+9+7+z+x+x+5+a+F+5+5+z+z+x+x+x+x+x+x+z+x+x+z+B+c+z+a+z+c+9+y+y+9+7+g+",
"c+x+z+5+x+c+b+c+5+b+5+a+c+a+9+y+d+i+d+E+E+y+9+5+g+b+y+E+d+E+9+a+b+x+z+F+z+7+z+c+z+z+x+b+G+x+z+x+z+x+x+z+z+B+z+z+g+5+k+y+y+9+7+a+",
"5+b+5+c+c+g+c+5+b+c+9+y+E+E+y+y+y+E+y+y+E+E+y+E+E+E+E+d+d+d+9+b+a+g+c+5+b+c+x+z+5+x+z+x+z+x+x+z+x+z+x+x+B+b+x+x+7+c+k+y+y+y+9+x+",
"c+g+c+c+c+a+c+9+y+9+y+y+y+y+9+5+z+5+g+b+f+5+b+g+7+9+y+y+d+E+9+9+b+x+b+b+g+c+l+a+z+x+7+7+x+z+a+x+z+n+x+x+x+x+b+c+z+k+9+y+E+y+y+9+",
"x+b+c+z+y+y+9+y+y+9+9+y+y+y+b+c+c+c+z+5+b+z+g+5+b+g+c+5+9+E+E+y+y+k+k+b+z+b+b+g+b+z+5+7+c+x+z+x+z+z+x+b+b+n+z+z+k+9+9+9+y+y+y+y+",
"y+y+y+y+y+9+9+a+5+z+9+9+y+9+b+x+z+a+z+x+z+z+z+a+5+z+p+g+c+y+E+E+E+y+y+y+k+k+x+5+5+b+F+z+b+x+z+x+x+z+G+z+x+b+z+k+9+9+9+9+y+y+y+y+",
"y+y+y+9+9+x+z+g+b+g+z+9+y+9+x+z+z+z+w+x+F+b+a+z+z+z+z+g+g+y+d+y+p+z+5+y+y+y+y+k+z+b+c+b+b+x+z+z+b+a+b+a+c+w+k+9+y+9+5+b+9+9+y+y+",
"y+9+9+z+c+n+5+z+5+c+w+9+y+g+x+x+z+x+z+z+a+z+a+5+c+x+c+n+c+E+y+g+7+l+g+6+p+9+9+y+k+a+5+g+b+c+a+c+b+a+b+x+x+k+9+9+x+z+5+z+z+9+y+9+",
"9+b+b+p+b+c+7+x+z+g+7+y+9+a+z+a+x+x+5+x+F+5+c+5+z+z+5+c+y+E+f+7+z+z+5+5+f+g+5+9+y+k+z+c+5+5+a+c+F+x+x+k+9+9+9+z+5+5+7+5+7+9+y+y+",
"z+z+5+n+a+5+x+z+z+7+9+y+9+z+x+D+x+x+7+c+z+z+5+7+5+a+z+y+E+y+l+z+z+z+z+5+z+6+o+g+g+y+y+k+7+n+z+k+k+9+y+y+9+5+z+5+c+z+a+5+9+9+y+9+",
"z+a+a+z+x+z+x+z+z+x+9+y+5+5+z+D+z+z+x+5+b+7+z+z+b+x+9+E+y+5+z+z+x+x+c+F+b+b+g+6+5+b+y+E+y+E+E+E+9+9+z+b+x+z+5+7+z+7+5+9+y+y+n+z+",
"a+z+a+z+x+z+z+z+x+z+y+9+b+x+x+x+z+a+a+b+7+g+z+z+7+x+y+y+5+g+x+G+b+c+b+7+5+b+5+7+5+5+z+y+E+E+E+9+c+5+g+c+c+5+x+b+5+a+9+y+y+n+x+x+",
"x+z+z+5+D+j+D+x+G+9+y+5+b+B+x+c+x+5+7+a+5+7+z+x+7+5+y+y+g+z+x+x+x+z+b+7+z+z+n+7+z+c+b+7+y+E+9+x+z+z+b+z+z+7+b+x+9+y+y+9+x+g+c+c+",
"z+5+7+z+z+D+j+a+z+y+y+a+z+x+x+z+G+x+z+z+7+z+a+n+z+y+y+b+7+x+x+a+z+x+x+b+b+c+z+b+a+z+c+g+7+y+y+z+G+z+x+5+F+a+9+y+y+y+x+z+z+x+c+a+",
"b+x+7+z+x+G+z+7+z+y+8+z+x+z+b+x+7+z+x+z+z+7+b+b+c+y+9+z+x+z+x+x+x+z+z+b+z+7+z+a+z+z+z+g+c+F+9+y+x+7+a+b+B+9+y+y+9+a+g+z+c+b+z+x+",
"z+x+7+a+z+D+a+z+9+y+c+z+z+z+z+z+z+z+B+z+a+z+b+a+y+y+5+x+7+x+7+G+x+b+x+x+a+x+x+z+x+z+b+7+g+z+5+y+E+9+z+9+y+E+E+9+x+g+x+z+z+a+a+c+",
"x+z+z+a+z+a+c+z+y+y+c+x+z+t+z+z+z+x+F+z+n+b+x+7+y+9+a+z+x+G+x+7+z+7+a+a+z+z+z+z+z+x+b+7+z+c+z+9+y+E+E+E+E+E+9+x+b+a+F+z+x+z+D+x+",
"c+z+z+x+5+b+F+9+y+9+x+z+z+t+z+x+z+x+z+z+z+b+b+9+y+z+a+z+z+z+x+z+z+z+n+7+z+x+z+b+B+5+z+z+x+7+5+9+y+y+y+E+E+y+9+a+a+5+a+a+b+x+z+7+",
"b+5+l+F+c+g+x+y+y+F+z+x+x+z+a+z+x+z+x+x+a+n+9+y+y+a+5+x+7+z+7+x+x+z+x+7+x+n+z+x+5+7+n+z+x+n+z+9+y+y+E+E+y+y+y+9+B+a+x+c+a+a+F+F+",
"z+z+G+z+G+x+y+y+y+F+x+n+D+x+z+b+x+z+x+z+b+c+9+y+9+9+a+F+7+7+5+b+5+5+c+b+b+b+5+b+7+5+c+F+5+c+9+y+y+9+9+x+z+z+9+y+y+9+9+x+x+B+z+7+",
"y+y+y+y+y+y+y+E+y+9+5+a+7+7+a+z+z+x+z+x+9+9+y+E+y+9+9+x+x+x+x+b+x+z+x+x+z+x+x+x+x+x+b+x+7+y+y+E+y+x+5+g+z+5+F+5+x+9+9+y+y+y+y+9+"};
