/* XPM */
static char * stone_wall_xpm[] = {
"64 64 256 2",
"  	c #000000",
". 	c #0000FF",
"+ 	c #00FF00",
"@ 	c #FF0000",
"# 	c #00FFFF",
"$ 	c #FFFF00",
"% 	c #FF00FF",
"& 	c #FFFFFF",
"* 	c #7B7B7B",
"= 	c #7B7B7B",
"- 	c #7B7B7B",
"; 	c #7B7B7B",
"> 	c #7B7B7B",
", 	c #7B7B7B",
"' 	c #7B7B7B",
") 	c #7B7B7B",
"! 	c #7B7B7B",
"~ 	c #7B7B7B",
"{ 	c #7B7B7B",
"] 	c #7B7B7B",
"^ 	c #7B7B7B",
"/ 	c #7B7B7B",
"( 	c #7B7B7B",
"_ 	c #7B7B7B",
": 	c #7B7B7B",
"< 	c #7B7B7B",
"[ 	c #7B7B7B",
"} 	c #7B7B7B",
"| 	c #7B7B7B",
"1 	c #7B7B7B",
"2 	c #7B7B7B",
"3 	c #7B7B7B",
"4 	c #7B7B7B",
"5 	c #7B7B7B",
"6 	c #7B7B7B",
"7 	c #7B7B7B",
"8 	c #7B7B7B",
"9 	c #7B7B7B",
"0 	c #7B7B7B",
"a 	c #7B7B7B",
"b 	c #7B7B7B",
"c 	c #7B7B7B",
"d 	c #7B7B7B",
"e 	c #7B7B7B",
"f 	c #7B7B7B",
"g 	c #7B7B7B",
"h 	c #7B7B7B",
"i 	c #7B7B7B",
"j 	c #7B7B7B",
"k 	c #7B7B7B",
"l 	c #7B7B7B",
"m 	c #7B7B7B",
"n 	c #7B7B7B",
"o 	c #7B7B7B",
"p 	c #7B7B7B",
"q 	c #7B7B7B",
"r 	c #7B7B7B",
"s 	c #7B7B7B",
"t 	c #7B7B7B",
"u 	c #7B7B7B",
"v 	c #7B7B7B",
"w 	c #7B7B7B",
"x 	c #7B7B7B",
"y 	c #7B7B7B",
"z 	c #7B7B7B",
"A 	c #7B7B7B",
"B 	c #7B7B7B",
"C 	c #7B7B7B",
"D 	c #7B7B7B",
"E 	c #7B7B7B",
"F 	c #7B7B7B",
"G 	c #7B7B7B",
"H 	c #7B7B7B",
"I 	c #7B7B7B",
"J 	c #7B7B7B",
"K 	c #7B7B7B",
"L 	c #7B7B7B",
"M 	c #7B7B7B",
"N 	c #7B7B7B",
"O 	c #7B7B7B",
"P 	c #7B7B7B",
"Q 	c #7B7B7B",
"R 	c #7B7B7B",
"S 	c #7B7B7B",
"T 	c #7B7B7B",
"U 	c #7B7B7B",
"V 	c #7B7B7B",
"W 	c #7B7B7B",
"X 	c #7B7B7B",
"Y 	c #7B7B7B",
"Z 	c #7B7B7B",
"` 	c #7B7B7B",
" .	c #7B7B7B",
"..	c #7B7B7B",
"+.	c #7B7B7B",
"@.	c #7B7B7B",
"#.	c #7B7B7B",
"$.	c #7B7B7B",
"%.	c #7B7B7B",
"&.	c #7B7B7B",
"*.	c #7B7B7B",
"=.	c #7B7B7B",
"-.	c #7B7B7B",
";.	c #7B7B7B",
">.	c #7B7B7B",
",.	c #7B7B7B",
"'.	c #7B7B7B",
").	c #7B7B7B",
"!.	c #7B7B7B",
"~.	c #7B7B7B",
"{.	c #7B7B7B",
"].	c #7B7B7B",
"^.	c #7B7B7B",
"/.	c #7B7B7B",
"(.	c #7B7B7B",
"_.	c #7B7B7B",
":.	c #7B7B7B",
"<.	c #7B7B7B",
"[.	c #7B7B7B",
"}.	c #7B7B7B",
"|.	c #7B7B7B",
"1.	c #7B7B7B",
"2.	c #7B7B7B",
"3.	c #7B7B7B",
"4.	c #7B7B7B",
"5.	c #7B7B7B",
"6.	c #7B7B7B",
"7.	c #7B7B7B",
"8.	c #7B7B7B",
"9.	c #7B7B7B",
"0.	c #7B7B7B",
"a.	c #7B7B7B",
"b.	c #7B7B7B",
"c.	c #7B7B7B",
"d.	c #7B7B7B",
"e.	c #7B7B7B",
"f.	c #7B7B7B",
"g.	c #7B7B7B",
"h.	c #7B7B7B",
"i.	c #7B7B7B",
"j.	c #7B7B7B",
"k.	c #7B7B7B",
"l.	c #7B7B7B",
"m.	c #7B7B7B",
"n.	c #7B7B7B",
"o.	c #7B7B7B",
"p.	c #7B7B7B",
"q.	c #7B7B7B",
"r.	c #7B7B7B",
"s.	c #7B7B7B",
"t.	c #7B7B7B",
"u.	c #7B7B7B",
"v.	c #7B7B7B",
"w.	c #7B7B7B",
"x.	c #7B7B7B",
"y.	c #7B7B7B",
"z.	c #7B7B7B",
"A.	c #7B7B7B",
"B.	c #7B7B7B",
"C.	c #7B7B7B",
"D.	c #7B7B7B",
"E.	c #7B7B7B",
"F.	c #7B7B7B",
"G.	c #7B7B7B",
"H.	c #7B7B7B",
"I.	c #7B7B7B",
"J.	c #7B7B7B",
"K.	c #7B7B7B",
"L.	c #7B7B7B",
"M.	c #7B7B7B",
"N.	c #7B7B7B",
"O.	c #7B7B7B",
"P.	c #7B7B7B",
"Q.	c #7B7B7B",
"R.	c #7B7B7B",
"S.	c #7B7B7B",
"T.	c #7B7B7B",
"U.	c #7B7B7B",
"V.	c #7B7B7B",
"W.	c #7B7B7B",
"X.	c #7B7B7B",
"Y.	c #7B7B7B",
"Z.	c #7B7B7B",
"`.	c #7B7B7B",
" +	c #7B7B7B",
".+	c #7B7B7B",
"++	c #7B7B7B",
"@+	c #7B7B7B",
"#+	c #7B7B7B",
"$+	c #7B7B7B",
"%+	c #7B7B7B",
"&+	c #7B7B7B",
"*+	c #7B7B7B",
"=+	c #7B7B7B",
"-+	c #7B7B7B",
";+	c #7B7B7B",
">+	c #7B7B7B",
",+	c #7B7B7B",
"'+	c #7B7B7B",
")+	c #7B7B7B",
"!+	c #7B7B7B",
"~+	c #7B7B7B",
"{+	c #7B7B7B",
"]+	c #7B7B7B",
"^+	c #7B7B7B",
"/+	c #7B7B7B",
"(+	c #7B7B7B",
"_+	c #7B7B7B",
":+	c #7B7B7B",
"<+	c #7B7B7B",
"[+	c #7B7B7B",
"}+	c #7B7B7B",
"|+	c #7B7B7B",
"1+	c #7B7B7B",
"2+	c #7B7B7B",
"3+	c #7B7B7B",
"4+	c #7B7B7B",
"5+	c #7B7B7B",
"6+	c #7B7B7B",
"7+	c #7B7B7B",
"8+	c #7B7B7B",
"9+	c #7B7B7B",
"0+	c #7B7B7B",
"a+	c #7B7B7B",
"b+	c #7B7B7B",
"c+	c #101800",
"d+	c #392910",
"e+	c #202020",
"f+	c #293118",
"g+	c #312010",
"h+	c #394129",
"i+	c #313131",
"j+	c #291808",
"k+	c #292008",
"l+	c #412918",
"m+	c #292929",
"n+	c #313920",
"o+	c #414A31",
"p+	c #4A3118",
"q+	c #5A4129",
"r+	c #4A3929",
"s+	c #413120",
"t+	c #202908",
"u+	c #392918",
"v+	c #414141",
"w+	c #524131",
"x+	c #5A4A31",
"y+	c #6A4120",
"z+	c #4A3920",
"A+	c #413118",
"B+	c #181818",
"C+	c #181008",
"D+	c #080808",
"E+	c #625239",
"F+	c #525252",
"G+	c #525239",
"i+l+i+i+l+                  g+i+C+g+s+                                                          i+d+g+i+i+g+d+r+l+i+i+d+i+i+g+i+",
"i+d+i+i+g+i+                                                      g+l+w+r+l+                    i+g+i+i+g+d+i+i+d+i+i+i+g+l+i+g+",
"i+i+l+d+i+i+o+            g+d+w+w+w+d+r+                    g+i+l+w+i+s+l+i+s+w+            d+i+g+i+i+g+i+i+t+i+i+i+g+i+r+d+i+g+",
"i+i+r+d+i+i+i+i+        g+o+i+i+i+l+d+s+l+s+s+          g+i+r+w+d+r+d+g+d+i+i+w+r+          g+g+i+i+i+i+i+n+g+i+g+i+g+s+d+i+i+B+",
"g+i+d+r+l+g+g+r+      r+g+g+s+g+i+d+w+r+l+d+g+        g+i+i+g+i+i+g+i+g+i+g+g+l+i+g+      g+i+g+l+g+i+g+i+g+i+d+i+g+i+i+g+i+i+g+",
"d+i+r+g+d+d+d+i+i+    g+d+i+l+r+q+l+s+d+g+        g+d+i+r+g+g+i+g+i+i+d+i+d+i+i+d+l+      g+i+g+n+i+g+d+g+i+d+s+r+d+i+g+g+i+i+d+",
"i+i+i+i+g+o+s+g+r+    l+d+d+s+l+g+g+          g+n+i+r+g+i+g+g+g+i+d+i+i+d+s+d+i+d+r+      s+l+i+g+s+m+i+g+g+i+d+l+s+g+i+g+i+g+d+",
"i+i+i+g+d+i+d+d+i+i+    g+g+r+            g+i+g+i+d+s+g+g+i+s+g+i+i+g+s+d+i+d+d+i+g+      i+d+i+C+g+m+g+s+g+h+s+g+l+g+i+i+i+i+s+",
"i+g+i+g+d+r+d+A+l+r+                r+g+g+i+r+d+g+A+d+i+g+i+g+g+i+g+i+d+o+l+d+A+d+g+      g+i+g+g+i+m+g+i+d+i+l+s+d+s+g+g+i+i+g+",
"d+s+g+i+d+i+s+s+g+w+i+          g+i+i+d+i+g+l+o+i+g+d+i+d+g+i+g+g+i+g+s+s+i+i+g+g+        d+g+g+i+g+g+i+h+g+i+o+g+l+g+d+i+i+n+s+",
"g+i+i+g+i+d+d+d+g+r+d+        g+g+s+w+i+i+o+d+i+d+g+g+A+d+i+g+i+g+d+i+l+r+l+d+g+          d+g+g+g+i+g+g+g+i+i+i+i+g+z+l+i+i+d+d+",
"l+i+g+g+i+g+d+r+i+i+r+d+      g+g+i+g+d+i+g+r+d+d+d+g+s+g+i+g+i+d+d+d+s+g+g+              i+l+C+i+g+i+g+d+g+i+i+g+s+l+g+d+C+d+i+",
"d+g+n+i+d+g+s+d+i+i+i+i+i+        g+g+r+i+h+A+o+g+g+s+d+i+g+s+s+l+d+g+                    i+d+r+s+i+g+i+i+g+z+i+i+i+i+g+g+g+h+g+",
"r+d+i+g+i+l+s+g+i+g+g+d+x+i+          g+d+s+d+l+g+i+g+l+s+d+r+g+g+          g+z+r+r+l+d+    s+g+s+l+g+d+g+i+i+A+d+s+i+g+i+n+g+i+",
"d+i+g+i+i+i+g+s+i+g+d+d+r+i+g+          g+g+s+l+s+z+r+s+r+r+d+g+        g+i+A+A+w+i+w+w+d+      s+d+s+g+n+g+i+d+i+d+i+i+g+s+g+g+",
"i+g+g+s+i+d+g+d+i+g+g+r+l+s+d+              g+d+s+d+r+s+g+g+        g+l+r+r+i+A+i+i+w+w+w+d+      d+r+r+g+i+g+i+d+s+d+i+g+n+r+g+",
"r+d+i+g+l+A+g+d+d+r+l+s+r+r+          g+            g+g+          g+r+l+i+i+d+r+i+d+i+A+i+w+d+      g+A+w+w+z+s+g+g+d+i+g+i+o+i+",
"d+i+i+g+i+d+g+s+d+w+r+g+s+g+        d+g+g+s+l+                g+r+l+o+r+d+i+g+d+h+i+n+i+i+i+w+        g+g+A+w+l+s+i+n+g+g+A+i+g+",
"i+d+g+i+l+s+l+r+r+z+d+g+            l+g+d+i+d+d+              i+g+i+g+i+d+l+i+l+i+i+i+d+s+i+l+i+          g+l+w+z+s+s+g+d+d+i+i+",
"g+r+d+d+l+w+A+g+d+                                            i+i+g+d+s+l+r+i+i+g+r+g+d+l+g+d+l+s+            g+w+r+s+g+d+i+i+s+",
"i+n+l+r+z+g+g+            i+r+g+g+d+r+l+l+r+r+l+r+l+c+          i+i+i+A+i+i+i+i+i+d+d+i+i+g+i+g+g+              g+g+l+s+g+C+l+g+",
"s+A+r+d+d+              i+r+i+i+l+r+i+s+w+w+s+w+s+r+w+d+c+          d+r+i+i+d+r+i+d+i+d+i+g+g+B+g+    d+g+          g+z+r+l+g+g+",
"d+s+d+                i+i+i+i+i+i+i+s+l+r+d+l+r+l+w+w+l+r+c+          l+i+l+r+d+i+g+g+g+g+g+g+g+    d+A+r+d+g+        g+l+d+d+s+",
"g+        g+g+      g+i+s+g+i+g+g+m+i+i+i+l+r+r+l+i+s+w+E+w+A+          i+i+g+i+s+l+o+g+g+d+g+    g+g+r+r+w+s+i+g+        g+l+d+",
"      g+i+g+i+g+    c+m+i+A+g+i+C+d+i+g+i+s+l+l+A+d+d+r+w+r+w+w+A+        g+i+l+d+s+g+r+d+g+      i+g+i+i+d+l+G+d+g+            ",
"i+d+A+i+r+w+i+i+      g+g+i+i+g+g+s+i+g+i+l+l+w+i+A+s+i+i+l+s+w+w+A+        i+i+r+w+s+g+g+        l+r+i+g+i+i+r+s+w+r+g+g+g+g+g+",
"d+r+r+s+w+i+i+x+g+    c+m+i+g+i+i+r+d+r+g+r+r+d+s+d+i+g+g+i+g+l+r+w+A+        r+i+l+g+g+          i+i+g+g+d+g+r+i+i+l+r+w+l+i+l+",
"g+s+i+d+l+i+d+w+r+      i+s+n+i+i+i+g+i+i+i+i+l+i+d+l+l+g+g+g+r+d+w+r+A+        i+g+g+            d+w+i+i+i+g+i+l+i+d+i+l+r+r+i+",
"g+i+g+s+d+g+d+r+r+g+    c+i+r+d+i+g+i+g+i+g+r+l+l+r+l+i+g+i+g+i+i+i+w+w+A+g+                      g+r+g+i+m+i+g+s+d+r+i+C+r+i+g+",
"g+d+i+i+g+n+i+d+w+d+      r+A+d+i+d+m+g+i+i+d+i+i+r+g+i+i+g+i+i+g+A+r+s+w+l+                      r+i+d+i+i+l+A+A+d+d+g+i+i+i+g+",
"i+s+i+i+g+s+r+g+r+w+g+    c+s+d+i+i+g+i+d+r+s+r+l+i+i+g+g+g+i+g+i+d+i+i+s+v+d+                    g+i+w+i+i+i+n+i+i+B+i+g+i+g+g+",
"i+i+g+g+g+d+i+g+r+w+g+      i+s+d+g+g+i+d+d+s+i+i+g+i+g+g+d+i+g+s+i+d+d+d+w+d+                      g+i+w+i+i+d+g+g+g+g+g+i+i+i+",
"r+g+s+g+g+g+d+h+l+i+g+      i+l+l+g+i+d+d+A+i+i+i+r+d+i+g+d+d+g+o+d+o+g+i+l+d+        g+g+g+g+        g+g+d+i+g+i+i+i+g+g+i+i+g+",
"d+i+l+i+g+g+i+i+l+i+g+      g+w+g+i+i+d+i+d+l+q+r+d+i+i+i+i+i+d+g+o+d+s+i+l+g+      g+i+t+m+n+g+          g+l+i+g+i+i+g+i+g+i+i+",
"g+i+s+m+A+d+i+g+g+g+        g+s+s+g+o+i+r+r+l+d+i+i+g+r+i+n+g+s+i+d+s+d+s+d+      g+i+i+i+C+i+i+l+g+        g+l+s+i+r+i+d+i+g+g+",
"g+i+d+n+s+d+g+h+g+g+        g+l+s+i+d+l+r+i+r+A+i+i+B+i+g+s+g+i+i+g+d+r+l+d+      d+g+g+g+i+g+g+r+l+g+        g+l+i+d+g+s+g+g+g+",
"d+i+i+s+i+g+g+d+i+i+g+        s+d+r+i+i+r+i+i+i+i+d+i+g+i+i+i+l+g+d+r+l+A+      i+i+i+i+g+i+g+i+l+r+i+g+        g+r+s+g+g+g+i+C+",
"s+d+i+A+r+i+i+g+g+i+i+g+g+    c+r+l+i+i+i+i+n+i+A+r+m+i+i+d+i+l+l+r+l+t+      d+i+r+g+i+g+i+i+g+g+g+l+w+g+        g+r+d+i+i+g+i+",
"d+i+d+i+l+l+g+i+B+i+i+l+r+g+    c+l+g+d+r+i+i+i+i+g+i+g+i+r+l+s+l+z+t+      d+l+i+d+r+i+g+i+i+d+m+g+d+g+o+g+      g+l+w+d+i+g+g+",
"i+g+i+r+r+g+g+i+i+g+d+r+l+i+      l+l+o+g+i+i+d+s+d+i+z+d+s+l+s+t+        g+s+i+i+i+r+i+g+i+i+m+g+B+i+i+i+w+g+      g+s+l+i+i+g+",
"q+i+r+i+r+r+g+g+g+g+d+g+i+r+C+      r+s+r+i+r+A+g+g+r+z+r+l+t+          i+s+i+i+m+g+g+g+g+r+g+i+g+i+m+g+i+q+r+g+      g+l+r+i+i+",
"n+i+r+n+m+i+g+g+g+i+i+d+l+i+i+g+      l+z+y+l+l+i+d+s+w+d+c+        i+o+d+r+n+l+o+g+g+r+g+g+i+g+r+i+g+i+g+g+r+i+        g+r+r+g+",
"i+g+l+s+g+g+g+i+g+i+i+i+l+w+i+g+        s+y+r+r+z+r+w+l+c+      i+i+d+i+d+l+i+l+i+i+i+d+i+n+g+i+d+r+i+i+g+i+d+o+g+        g+z+d+",
"g+i+i+i+d+i+g+i+d+d+s+r+r+r+s+g+          s+w+r+w+w+r+c+    d+d+i+g+g+i+d+z+r+r+i+i+g+g+g+g+g+g+i+g+g+i+n+l+i+d+i+          d+w+",
"l+g+i+r+g+l+s+l+r+s+r+d+l+d+                c+r+w+s+        g+d+s+g+i+r+i+d+i+l+i+i+g+s+m+g+i+g+i+g+g+i+i+n+i+i+r+g+        g+d+",
"r+A+r+l+l+r+l+r+s+l+                                          s+d+w+l+r+s+l+g+i+r+g+i+g+i+g+g+i+g+i+g+g+n+s+g+g+d+g+          g+",
"l+w+l+l+l+d+l+                g+i+r+w+s+E+r+s+l+d+c+            s+g+s+s+w+l+r+d+i+g+d+d+g+i+d+g+i+o+g+g+g+g+A+l+i+g+            ",
"g+A+l+i+                    g+l+l+l+i+r+s+i+w+r+s+w+l+C+              s+i+s+A+w+s+i+r+d+l+g+i+g+i+i+g+s+n+i+i+i+i+              ",
"              d+r+i+c+    c+s+g+i+d+i+g+i+i+i+d+i+i+G+l+C+                  g+r+r+s+r+i+s+g+i+g+g+i+m+i+g+s+i+g+                ",
"          g+i+w+s+w+i+    c+g+i+i+i+h+g+A+A+d+i+i+i+i+w+l+    C+g+i+r+g+B+      i+s+l+A+s+g+i+i+s+d+A+d+l+h+g+    g+g+s+        ",
"      i+l+o+r+i+r+l+g+    w+g+g+i+g+i+i+d+i+d+r+l+g+l+w+l+  C+w+d+q+w+v+G+g+      d+r+w+s+l+d+l+A+d+s+g+g+      g+i+r+i+i+      ",
"  s+A+G+s+l+d+g+i+w+d+  g+d+i+d+g+g+i+g+z+r+l+r+i+i+r+l+g+  A+d+i+i+r+r+x+w+r+C+    i+l+r+r+d+l+r+g+g+      g+g+r+r+d+r+d+      ",
"i+i+r+o+d+r+g+i+i+d+    c+i+g+C+g+g+d+A+i+i+r+d+r+d+i+g+  A+q+i+i+i+i+r+i+v+F+w+g+      d+o+i+          g+r+i+r+l+i+d+r+        ",
"i+d+d+i+g+i+g+i+i+g+    r+r+i+C+i+i+g+r+s+d+i+i+s+g+g+  C+r+i+i+g+g+l+z+A+s+w+v+r+g+                g+s+g+i+r+d+i+d+r+    g+g+i+",
"d+i+d+i+g+i+i+i+g+g+  c+s+g+g+g+i+d+d+s+d+w+i+i+d+g+    A+w+g+m+s+l+s+d+r+s+r+d+r+r+g+          l+r+w+l+l+r+g+s+r+d+    g+i+g+g+",
"g+i+i+r+C+t+C+g+m+    r+A+n+g+l+g+r+d+d+r+d+i+g+d+g+  C+w+i+g+g+g+i+s+d+i+i+w+d+i+l+s+d+      g+i+i+s+i+i+d+s+g+      g+g+r+l+l+",
"i+i+d+i+i+C+t+d+g+    d+i+g+g+i+m+g+i+i+d+i+d+o+i+    s+d+g+g+d+i+g+g+A+s+l+i+s+d+i+l+w+d+    g+m+i+g+r+r+d+        g+i+i+g+d+d+",
"n+g+d+i+g+m+i+d+g+    i+g+i+s+g+d+i+g+i+i+d+s+s+l+D+  i+g+i+g+g+g+i+i+s+i+d+i+d+i+i+i+w+l+r+    g+d+d+s+n+        d+w+i+l+s+i+g+",
"i+g+d+d+i+C+d+g+    l+i+i+i+i+i+i+i+n+i+d+i+s+d+    C+g+d+g+d+m+g+s+g+g+d+g+g+i+g+i+s+d+w+i+r+                  g+r+g+i+i+d+d+l+",
"g+i+i+d+i+d+l+g+    l+g+i+B+i+i+i+g+r+i+o+s+g+d+    d+i+g+m+g+d+i+d+d+d+i+i+i+i+i+g+s+d+i+l+i+                g+s+d+r+i+g+i+C+g+",
"l+i+i+g+r+A+r+      g+i+i+B+i+g+i+g+i+i+i+s+d+    C+d+i+i+i+g+i+i+i+o+d+i+g+i+s+n+r+i+i+g+d+r+                d+d+r+d+d+s+g+i+d+",
"s+r+q+z+l+w+g+    z+i+g+g+i+d+i+g+i+g+g+d+d+      d+r+g+d+i+d+g+g+i+g+d+g+o+i+g+r+d+o+i+g+o+i+                  n+d+g+l+d+d+z+r+",
"i+i+m+i+g+g+      z+g+o+C+g+i+s+g+i+g+i+d+          d+z+d+d+r+s+r+r+l+s+s+s+r+s+d+r+l+r+s+l+          g+i+i+          g+g+n+i+d+",
"                    r+d+d+d+d+i+i+g+i+g+              g+g+g+g+s+g+i+g+g+i+g+g+g+g+g+A+g+d+        g+r+w+i+r+r+i+g+              "};
