/* XPM */
static char * stone_wall2_xpm[] = {
"64 64 256 2",
"  	c #000000",
". 	c #0000FF",
"+ 	c #00FF00",
"@ 	c #FF0000",
"# 	c #00FFFF",
"$ 	c #FFFF00",
"% 	c #FF00FF",
"& 	c #FFFFFF",
"* 	c #7B7B7B",
"= 	c #7B7B7B",
"- 	c #7B7B7B",
"; 	c #7B7B7B",
"> 	c #7B7B7B",
", 	c #7B7B7B",
"' 	c #7B7B7B",
") 	c #7B7B7B",
"! 	c #7B7B7B",
"~ 	c #7B7B7B",
"{ 	c #7B7B7B",
"] 	c #7B7B7B",
"^ 	c #7B7B7B",
"/ 	c #7B7B7B",
"( 	c #7B7B7B",
"_ 	c #7B7B7B",
": 	c #7B7B7B",
"< 	c #7B7B7B",
"[ 	c #7B7B7B",
"} 	c #7B7B7B",
"| 	c #7B7B7B",
"1 	c #7B7B7B",
"2 	c #7B7B7B",
"3 	c #7B7B7B",
"4 	c #7B7B7B",
"5 	c #7B7B7B",
"6 	c #7B7B7B",
"7 	c #7B7B7B",
"8 	c #7B7B7B",
"9 	c #7B7B7B",
"0 	c #7B7B7B",
"a 	c #7B7B7B",
"b 	c #7B7B7B",
"c 	c #7B7B7B",
"d 	c #7B7B7B",
"e 	c #7B7B7B",
"f 	c #7B7B7B",
"g 	c #7B7B7B",
"h 	c #7B7B7B",
"i 	c #7B7B7B",
"j 	c #7B7B7B",
"k 	c #7B7B7B",
"l 	c #7B7B7B",
"m 	c #7B7B7B",
"n 	c #7B7B7B",
"o 	c #7B7B7B",
"p 	c #7B7B7B",
"q 	c #7B7B7B",
"r 	c #7B7B7B",
"s 	c #7B7B7B",
"t 	c #7B7B7B",
"u 	c #7B7B7B",
"v 	c #7B7B7B",
"w 	c #7B7B7B",
"x 	c #7B7B7B",
"y 	c #7B7B7B",
"z 	c #7B7B7B",
"A 	c #7B7B7B",
"B 	c #7B7B7B",
"C 	c #7B7B7B",
"D 	c #7B7B7B",
"E 	c #7B7B7B",
"F 	c #7B7B7B",
"G 	c #7B7B7B",
"H 	c #7B7B7B",
"I 	c #7B7B7B",
"J 	c #7B7B7B",
"K 	c #7B7B7B",
"L 	c #7B7B7B",
"M 	c #7B7B7B",
"N 	c #7B7B7B",
"O 	c #7B7B7B",
"P 	c #7B7B7B",
"Q 	c #7B7B7B",
"R 	c #7B7B7B",
"S 	c #7B7B7B",
"T 	c #7B7B7B",
"U 	c #7B7B7B",
"V 	c #7B7B7B",
"W 	c #7B7B7B",
"X 	c #7B7B7B",
"Y 	c #7B7B7B",
"Z 	c #7B7B7B",
"` 	c #7B7B7B",
" .	c #7B7B7B",
"..	c #7B7B7B",
"+.	c #7B7B7B",
"@.	c #7B7B7B",
"#.	c #7B7B7B",
"$.	c #7B7B7B",
"%.	c #7B7B7B",
"&.	c #7B7B7B",
"*.	c #7B7B7B",
"=.	c #7B7B7B",
"-.	c #7B7B7B",
";.	c #7B7B7B",
">.	c #7B7B7B",
",.	c #7B7B7B",
"'.	c #7B7B7B",
").	c #7B7B7B",
"!.	c #7B7B7B",
"~.	c #7B7B7B",
"{.	c #7B7B7B",
"].	c #7B7B7B",
"^.	c #7B7B7B",
"/.	c #7B7B7B",
"(.	c #7B7B7B",
"_.	c #7B7B7B",
":.	c #7B7B7B",
"<.	c #7B7B7B",
"[.	c #7B7B7B",
"}.	c #7B7B7B",
"|.	c #7B7B7B",
"1.	c #7B7B7B",
"2.	c #7B7B7B",
"3.	c #7B7B7B",
"4.	c #7B7B7B",
"5.	c #7B7B7B",
"6.	c #7B7B7B",
"7.	c #7B7B7B",
"8.	c #7B7B7B",
"9.	c #7B7B7B",
"0.	c #7B7B7B",
"a.	c #7B7B7B",
"b.	c #7B7B7B",
"c.	c #7B7B7B",
"d.	c #7B7B7B",
"e.	c #7B7B7B",
"f.	c #7B7B7B",
"g.	c #7B7B7B",
"h.	c #7B7B7B",
"i.	c #7B7B7B",
"j.	c #7B7B7B",
"k.	c #7B7B7B",
"l.	c #7B7B7B",
"m.	c #7B7B7B",
"n.	c #7B7B7B",
"o.	c #7B7B7B",
"p.	c #7B7B7B",
"q.	c #7B7B7B",
"r.	c #7B7B7B",
"s.	c #7B7B7B",
"t.	c #7B7B7B",
"u.	c #7B7B7B",
"v.	c #7B7B7B",
"w.	c #7B7B7B",
"x.	c #7B7B7B",
"y.	c #7B7B7B",
"z.	c #7B7B7B",
"A.	c #7B7B7B",
"B.	c #7B7B7B",
"C.	c #7B7B7B",
"D.	c #7B7B7B",
"E.	c #7B7B7B",
"F.	c #7B7B7B",
"G.	c #7B7B7B",
"H.	c #7B7B7B",
"I.	c #7B7B7B",
"J.	c #7B7B7B",
"K.	c #7B7B7B",
"L.	c #7B7B7B",
"M.	c #7B7B7B",
"N.	c #7B7B7B",
"O.	c #7B7B7B",
"P.	c #7B7B7B",
"Q.	c #7B7B7B",
"R.	c #7B7B7B",
"S.	c #7B7B7B",
"T.	c #7B7B7B",
"U.	c #7B7B7B",
"V.	c #7B7B7B",
"W.	c #7B7B7B",
"X.	c #7B7B7B",
"Y.	c #7B7B7B",
"Z.	c #7B7B7B",
"`.	c #7B7B7B",
" +	c #7B7B7B",
".+	c #7B7B7B",
"++	c #7B7B7B",
"@+	c #7B7B7B",
"#+	c #7B7B7B",
"$+	c #7B7B7B",
"%+	c #7B7B7B",
"&+	c #7B7B7B",
"*+	c #7B7B7B",
"=+	c #7B7B7B",
"-+	c #7B7B7B",
";+	c #7B7B7B",
">+	c #7B7B7B",
",+	c #7B7B7B",
"'+	c #7B7B7B",
")+	c #7B7B7B",
"!+	c #7B7B7B",
"~+	c #7B7B7B",
"{+	c #7B7B7B",
"]+	c #7B7B7B",
"^+	c #7B7B7B",
"/+	c #7B7B7B",
"(+	c #7B7B7B",
"_+	c #7B7B7B",
":+	c #7B7B7B",
"<+	c #7B7B7B",
"[+	c #7B7B7B",
"}+	c #7B7B7B",
"|+	c #7B7B7B",
"1+	c #7B7B7B",
"2+	c #7B7B7B",
"3+	c #7B7B7B",
"4+	c #7B7B7B",
"5+	c #7B7B7B",
"6+	c #7B7B7B",
"7+	c #7B7B7B",
"8+	c #625239",
"9+	c #8B0000",
"0+	c #6A4120",
"a+	c #625231",
"b+	c #181818",
"c+	c #4A0000",
"d+	c #202020",
"e+	c #5A0000",
"f+	c #293118",
"g+	c #313920",
"h+	c #312010",
"i+	c #832000",
"j+	c #730000",
"k+	c #4A3929",
"l+	c #620000",
"m+	c #292008",
"n+	c #181008",
"o+	c #292929",
"p+	c #392910",
"q+	c #313131",
"r+	c #4A3920",
"s+	c #393939",
"t+	c #524131",
"u+	c #412918",
"v+	c #523929",
"w+	c #202908",
"x+	c #392918",
"y+	c #7B0000",
"z+	c #525239",
"A+	c #414A31",
"B+	c #394129",
"C+	c #9C0000",
"D+	c #5A4A31",
"E+	c #525252",
"F+	c #5A4129",
"G+	c #414141",
"s+u+s+s+u+e+l+l+l+l+j+e+e+e+h+q+n+h+r+c+e+l+j+j+j+l+e+e+e+l+j+j+l+j+l+l+j+l+j+j+l+j+l+j+j+l+j+l+q+p+h+q+q+h+p+v+u+q+s+p+s+q+h+q+",
"s+p+s+q+h+s+e+e+l+j+l+j+l+e+e+e+e+e+l+l+l+l+j+j+j+l+j+j+j+l+l+e+c+q+u+t+v+u+c+c+j+j+j+j+l+l+e+c+q+h+q+s+h+p+q+s+p+s+s+q+h+u+s+h+",
"q+s+u+p+q+s+A+e+l+j+l+j+l+c+p+t+t+t+p+v+c+e+e+l+j+l+j+l+l+e+h+q+u+t+q+r+u+s+r+t+c+l+l+j+l+e+p+s+h+q+s+h+q+q+w+s+q+s+h+q+v+p+s+h+",
"q+s+v+p+q+v+s+s+e+l+l+e+s+A+s+s+s+u+p+r+u+r+r+e+j+j+l+e+h+q+v+t+p+v+p+h+p+q+s+t+v+e+l+j+l+c+h+h+s+q+q+q+s+g+h+s+h+q+h+r+p+q+q+b+",
"h+q+p+v+u+h+h+t+c+e+e+r+h+h+r+h+s+p+t+r+u+p+q+e+l+l+e+s+q+s+h+s+s+h+s+h+s+h+h+u+v+c+j+j+e+h+q+h+u+h+s+h+q+h+v+p+s+h+s+q+h+q+q+h+",
"p+s+v+h+p+p+p+s+s+e+e+h+p+q+u+v+F+u+r+p+h+e+l+l+l+r+p+s+v+h+h+q+h+q+s+p+s+p+q+v+p+u+l+j+c+h+q+h+g+s+h+p+h+s+p+r+v+p+q+h+h+q+s+p+",
"s+q+q+s+h+A+r+h+t+e+e+u+p+p+r+u+h+s+e+l+l+j+l+e+g+s+v+h+q+h+h+h+q+p+q+s+p+r+p+v+p+v+l+j+c+r+u+s+h+r+o+s+h+h+q+p+u+r+h+q+h+q+h+p+",
"q+q+q+h+p+q+p+p+s+q+e+e+q+h+v+e+l+j+j+l+e+h+q+h+s+p+r+h+h+s+r+h+q+q+h+r+p+s+p+p+s+u+e+j+c+q+p+q+n+h+o+h+r+h+B+r+h+u+h+q+q+s+s+r+",
"s+h+q+h+p+v+p+r+u+t+c+e+e+l+l+l+j+l+v+h+h+s+v+p+h+r+p+s+h+q+h+h+q+h+s+p+A+u+p+r+p+g+e+l+e+h+s+h+h+s+o+h+q+p+s+u+r+p+r+h+h+s+q+h+",
"p+r+h+s+p+s+v+r+h+t+q+l+j+l+j+e+h+s+s+p+s+h+u+A+s+h+p+q+p+h+s+h+h+q+h+r+r+q+q+h+p+e+l+j+e+p+h+h+s+h+h+s+B+h+q+A+h+u+h+p+q+q+g+r+",
"h+q+q+h+q+p+p+p+h+v+p+e+j+e+e+h+s+r+t+q+q+A+p+q+p+h+h+r+p+q+h+q+h+p+q+u+t+u+p+r+c+l+y+j+e+p+h+h+h+q+h+h+h+s+q+q+q+h+r+u+q+q+p+p+",
"u+s+h+h+v+h+p+r+q+q+v+p+e+j+e+h+h+s+h+p+q+h+v+p+p+p+h+r+h+q+h+q+p+p+p+v+h+h+e+e+l+j+y+j+l+s+u+n+s+h+s+h+p+h+s+q+h+r+u+h+p+n+p+q+",
"p+h+g+q+p+h+r+p+q+q+q+s+q+e+j+c+c+v+h+v+q+B+r+A+h+h+r+p+q+h+v+r+u+p+q+l+e+l+l+l+l+l+l+l+l+q+p+v+r+r+h+s+s+h+r+s+s+q+s+h+h+h+r+h+",
"r+p+s+h+s+u+r+h+s+h+h+p+8+s+e+j+e+e+e+q+p+r+p+u+h+q+h+u+r+p+v+r+s+e+l+l+l+e+c+r+v+r+u+e+l+e+r+h+r+u+h+p+h+s+q+r+p+r+q+h+q+g+h+q+",
"p+s+h+q+q+q+h+r+q+h+p+p+v+s+h+l+j+l+e+c+s+h+v+u+r+r+v+r+v+v+p+s+e+l+e+e+c+s+h+r+t+s+t+p+l+j+e+e+r+p+r+h+r+h+s+p+q+p+q+s+h+r+h+h+",
"s+h+h+r+s+p+h+p+s+h+h+v+u+r+p+e+e+j+l+j+e+c+q+p+s+p+r+r+h+q+e+l+l+e+c+u+v+r+v+r+s+t+t+t+p+e+j+l+e+p+v+v+h+q+h+q+p+r+p+q+h+g+v+h+",
"r+p+s+h+u+r+h+p+p+r+u+r+v+v+c+j+j+j+e+h+e+l+j+j+l+e+A+h+e+e+l+l+c+A+v+u+s+s+p+r+s+p+q+r+s+v+p+j+l+e+h+p+r+0+r+r+h+h+p+s+h+q+A+q+",
"p+s+q+h+q+p+h+r+p+t+v+u+r+h+l+j+l+e+p+h+h+r+u+e+j+e+e+e+l+j+l+h+v+u+A+v+p+v+h+p+B+q+g+s+q+s+s+c+l+j+l+p+h+r+0+u+r+A+g+h+h+r+s+h+",
"q+p+h+q+u+r+u+t+v+r+p+q+c+e+j+j+j+e+u+h+p+q+p+p+e+l+j+y+y+j+l+q+h+q+h+s+p+u+v+u+s+q+s+p+r+s+u+q+c+j+j+l+e+r+u+a+r+r+r+h+p+p+q+q+",
"h+v+p+p+u+t+r+q+p+c+e+e+e+e+l+l+e+e+e+l+j+l+l+l+j+l+l+j+y+j+l+q+s+h+p+r+u+v+s+q+h+v+h+p+u+h+p+u+r+e+l+l+j+l+e+p+t+r+r+h+p+q+q+r+",
"q+g+u+v+r+r+e+l+l+l+e+e+c+q+r+h+h+p+v+u+u+v+v+u+v+u+p+e+l+y+j+l+q+q+q+r+s+s+s+q+q+p+p+s+s+h+q+h+h+e+l+e+e+l+j+e+v+r+u+r+h+n+u+h+",
"r+r+v+p+p+e+l+l+l+l+e+c+q+v+q+q+u+v+s+r+t+t+r+t+r+v+s+p+p+l+j+l+l+e+p+r+s+s+p+v+v+p+s+p+s+h+h+b+c+e+c+p+p+e+l+j+l+e+r+r+r+u+h+h+",
"p+r+p+e+l+l+l+l+l+e+c+q+s+v+q+s+q+q+r+u+v+p+u+v+u+t+G+s+v+p+e+e+j+l+e+u+s+u+v+p+q+h+h+h+h+h+h+h+e+e+p+r+v+p+v+l+j+l+e+u+u+p+p+r+",
"q+e+l+e+c+e+c+c+l+e+h+s+r+h+q+h+h+o+s+s+s+u+v+v+u+q+r+G+8+G+s+q+p+l+l+e+q+q+h+v+r+u+A+h+h+p+h+c+e+c+h+v+v+t+r+s+t+e+j+e+e+v+u+p+",
"l+l+c+q+q+h+q+q+l+l+e+o+s+r+h+v+n+p+s+h+s+r+u+u+r+p+p+v+t+v+t+F+q+u+l+l+e+h+A+u+p+r+h+v+p+h+s+e+e+q+h+s+s+p+u+z+p+u+e+e+e+l+l+e+",
"v+p+r+s+v+t+q+s+c+l+e+h+h+q+q+h+h+r+s+h+s+u+u+t+s+r+r+q+s+u+r+t+t+s+p+e+l+e+q+q+r+t+r+r+h+s+e+l+e+u+v+s+h+q+s+v+r+t+v+q+r+s+v+h+",
"p+v+v+r+t+s+s+8+h+l+l+e+o+q+h+s+q+v+p+v+h+v+v+p+v+p+q+h+h+s+h+u+v+G+t+p+l+j+e+r+q+u+u+q+s+e+l+j+l+s+s+h+h+p+h+v+q+q+u+v+t+u+s+u+",
"h+r+s+p+u+A+p+t+v+e+l+e+q+r+g+q+q+q+h+s+s+q+s+u+s+p+u+u+h+h+h+r+p+t+v+s+p+j+l+e+q+q+h+c+e+l+j+j+e+p+t+s+s+s+h+q+u+q+p+s+u+v+v+q+",
"h+s+h+r+p+h+p+v+v+h+l+l+c+q+v+p+q+h+s+h+q+h+v+u+u+v+u+q+h+q+h+q+q+q+t+t+t+p+l+j+j+l+e+l+l+l+y+j+e+h+v+h+q+o+s+h+r+p+r+q+n+v+s+h+",
"h+p+s+q+h+g+q+p+t+p+c+l+l+v+r+p+s+p+o+h+s+q+p+q+s+v+h+q+q+h+q+s+h+r+v+r+t+u+c+e+j+j+l+l+j+y+y+j+e+v+s+p+q+s+u+r+r+p+u+h+q+q+s+h+",
"s+r+q+s+h+r+r+h+v+t+h+l+l+c+r+p+q+s+h+s+p+v+r+v+u+s+q+h+h+h+q+h+s+p+s+s+r+G+h+e+j+j+l+l+l+l+j+j+l+v+s+t+s+q+s+g+q+v+b+q+h+q+h+h+",
"q+s+h+h+h+p+q+h+v+t+h+e+l+l+s+r+p+h+h+q+p+p+r+q+s+h+q+h+h+p+q+h+r+q+p+p+p+t+p+c+j+e+e+q+p+c+e+l+l+c+s+q+t+q+s+p+h+h+h+h+h+s+q+s+",
"v+h+r+h+h+h+p+B+u+s+h+c+l+e+s+u+u+h+s+p+p+A+s+s+q+v+p+s+h+p+p+h+A+p+A+h+v+u+p+e+l+c+q+w+v+q+s+e+l+e+c+h+h+p+s+h+s+q+s+h+h+s+q+h+",
"p+q+u+s+h+h+q+q+u+q+q+l+l+l+h+t+h+q+s+p+q+p+u+F+v+p+s+q+q+q+s+p+h+A+p+r+q+u+p+e+e+c+h+s+w+o+g+p+e+l+l+e+c+p+u+s+h+q+q+h+s+h+q+q+",
"h+q+r+o+r+p+q+h+h+s+e+l+j+l+h+r+r+h+A+q+v+v+u+p+q+q+h+r+s+g+h+r+s+p+r+p+r+p+h+e+c+h+s+q+q+n+q+s+u+t+e+e+l+c+u+u+r+q+v+q+p+s+h+h+",
"h+q+p+g+r+p+h+B+h+h+e+l+j+l+h+u+r+s+p+u+v+q+t+r+s+s+b+q+h+r+h+q+q+h+p+r+u+p+e+e+v+p+h+h+h+s+h+h+v+u+t+v+e+l+e+q+u+s+p+h+r+h+h+h+",
"p+q+s+r+q+h+h+p+s+q+u+e+e+l+e+r+p+v+q+s+v+s+q+s+q+p+q+h+q+q+s+u+h+p+v+u+r+l+e+c+q+s+s+s+h+q+h+s+u+v+s+z+z+l+l+e+s+v+r+h+h+h+q+n+",
"r+p+s+r+v+s+s+h+h+s+q+h+s+e+l+e+v+u+s+q+q+s+g+s+r+v+o+q+s+p+q+u+u+v+u+r+l+e+e+p+s+v+h+q+h+s+q+h+h+h+u+t+v+z+e+j+c+s+v+p+s+q+h+q+",
"p+s+p+s+u+u+h+q+b+q+s+u+v+h+l+l+e+u+h+p+v+s+s+q+q+h+q+h+q+v+u+r+u+r+e+e+e+c+p+u+s+p+v+s+h+s+q+p+o+h+p+h+z+v+t+e+e+p+u+t+p+s+h+h+",
"s+h+q+v+v+h+h+s+s+h+p+v+u+q+e+l+j+u+u+A+h+s+s+p+r+p+q+r+p+r+u+r+e+l+l+e+c+h+r+q+q+s+v+s+h+s+q+o+h+b+q+s+q+t+r+e+l+e+h+r+u+s+s+h+",
"F+q+v+q+v+r+h+h+h+h+p+h+s+v+n+e+l+e+v+r+v+q+v+r+h+h+r+r+r+u+e+l+l+e+c+c+q+r+q+s+o+h+h+h+h+v+h+v+h+s+o+h+q+F+v+t+e+l+e+s+u+v+q+q+",
"g+q+v+g+o+s+h+h+h+q+s+p+u+q+q+e+l+l+l+u+r+0+u+u+s+p+r+t+p+e+e+l+e+c+q+A+p+v+g+u+t+h+h+v+h+h+s+h+v+s+h+q+h+h+v+s+e+e+l+e+h+v+v+h+",
"s+h+u+r+h+h+h+q+h+q+q+s+u+t+q+h+e+j+j+e+r+0+r+r+r+t+t+u+e+l+e+e+q+q+p+q+p+u+q+u+s+s+q+p+q+g+h+q+p+v+q+s+h+q+p+A+u+e+l+e+e+q+r+p+",
"h+s+q+q+p+s+h+q+p+p+r+v+v+v+r+c+l+j+y+l+e+r+t+r+t+t+v+l+l+l+p+p+s+h+h+v+p+r+v+v+q+s+h+h+h+h+h+h+s+h+h+q+g+u+s+p+s+u+e+l+l+e+p+t+",
"u+h+q+v+h+u+r+u+v+r+v+p+u+p+e+l+l+y+y+y+l+l+e+v+t+r+l+j+l+j+h+p+r+h+q+r+q+p+s+u+q+q+h+r+o+h+q+h+q+h+h+s+q+g+s+s+t+v+c+l+l+e+p+p+",
"v+r+v+u+u+t+u+v+r+u+c+l+j+j+l+l+l+j+l+l+j+j+l+j+j+j+j+j+j+j+c+r+p+t+u+v+r+u+h+s+v+h+s+h+s+h+h+q+h+s+h+h+g+r+h+h+p+u+s+l+l+e+c+h+",
"u+t+u+u+u+p+u+e+e+e+l+l+l+l+e+v+s+v+t+r+8+v+r+t+p+e+l+l+j+j+e+c+r+h+r+r+t+u+F+p+s+h+p+p+h+q+p+h+s+A+h+h+h+h+r+u+s+h+c+l+j+l+e+c+",
"h+r+u+s+e+l+e+e+e+c+u+e+l+l+r+u+u+u+s+v+r+q+t+v+r+t+u+v+e+j+j+l+l+e+c+r+q+r+u+t+r+q+v+p+u+h+q+h+q+q+h+r+r+A+q+q+q+c+e+e+l+y+l+l+",
"e+e+e+e+l+e+c+p+v+q+e+c+l+e+r+h+q+p+q+h+s+s+q+p+v+q+z+t+u+e+j+j+j+l+e+l+e+e+h+v+v+r+r+s+r+h+q+h+h+s+o+q+h+r+s+h+c+c+e+e+j+y+y+l+",
"e+e+e+e+e+h+q+t+r+t+q+c+l+c+h+q+q+q+B+h+r+r+p+q+s+q+s+t+t+l+j+l+z+s+v+e+l+l+l+c+q+r+u+r+r+h+q+s+r+p+r+p+u+B+h+c+e+c+v+r+e+e+y+e+",
"e+e+c+s+u+A+v+q+v+u+B+e+l+t+h+h+s+h+s+q+p+q+p+v+u+h+u+A+u+j+l+t+p+F+t+G+z+e+e+e+e+p+v+t+r+u+p+u+r+p+r+h+h+c+e+c+h+s+v+q+s+c+j+e+",
"e+r+r+z+r+u+p+h+q+t+p+l+e+p+s+p+h+h+v+h+r+v+u+v+q+s+v+u+l+j+8+p+s+q+v+v+8+t+v+e+e+e+s+u+v+v+p+u+r+h+h+c+e+e+c+s+v+v+p+v+p+c+l+l+",
"s+s+v+A+p+v+h+q+s+p+e+l+c+s+h+n+h+h+p+u+s+q+v+p+v+p+q+e+j+l+F+s+q+q+s+v+s+G+E+t+t+j+j+e+p+A+q+c+c+e+l+e+c+v+q+v+u+q+p+v+c+e+e+c+",
"q+p+p+q+h+q+h+s+q+h+e+l+v+v+q+n+q+q+h+v+r+p+q+q+r+h+e+j+l+v+s+q+h+h+u+r+r+r+t+G+v+r+l+y+j+j+j+j+e+e+s+r+h+s+v+p+s+p+v+c+e+l+A+q+",
"p+s+p+s+h+q+q+q+h+s+l+e+r+h+h+h+q+p+p+r+p+t+q+s+p+h+l+l+v+t+h+o+r+u+r+p+v+r+v+p+v+v+s+e+y+C+y+e+u+v+t+u+u+v+h+r+v+p+e+l+e+A+h+h+",
"h+s+s+v+n+w+n+h+o+e+l+v+r+g+h+u+h+v+p+p+v+p+s+h+p+v+l+l+t+q+h+h+h+s+r+p+q+s+A+p+q+u+r+p+e+y+e+h+s+s+r+q+q+p+r+h+c+l+l+e+h+t+u+u+",
"q+v+p+q+s+n+w+p+s+l+e+p+s+h+h+q+o+h+q+s+p+s+p+A+s+e+l+r+p+h+h+p+s+h+h+r+r+u+q+r+p+q+u+t+p+e+l+s+o+q+h+v+r+p+e+l+l+e+h+s+q+h+u+p+",
"r+h+p+s+h+o+s+p+q+l+i+q+h+q+r+h+p+s+h+s+q+p+r+r+u+l+e+q+h+s+h+h+h+s+q+r+q+p+q+p+q+s+q+t+u+r+e+e+h+p+p+r+g+c+l+l+e+p+t+s+u+r+q+h+",
"q+h+p+p+s+n+p+s+c+l+u+s+q+s+s+q+s+s+g+s+p+q+r+p+e+l+v+h+p+h+p+o+h+r+h+h+p+h+h+s+h+q+r+p+t+s+v+l+j+e+q+c+l+j+j+e+h+t+h+q+q+p+p+u+",
"h+s+s+p+s+p+u+q+l+e+u+h+q+b+s+q+q+h+r+q+A+r+h+p+l+e+p+q+h+o+h+p+s+p+p+p+s+s+q+q+s+h+r+p+s+u+s+e+l+j+j+j+j+j+e+h+r+p+r+s+h+s+n+h+",
"u+s+q+h+v+u+r+e+l+e+h+q+q+b+q+h+q+h+s+q+s+r+r+e+l+s+p+q+q+q+h+q+q+q+A+p+q+h+q+r+g+v+q+s+h+p+v+e+l+9+9+9+j+j+c+p+p+v+p+p+r+h+s+p+",
"r+v+F+r+u+t+h+l+e+r+s+h+h+q+p+q+h+q+h+h+p+A+c+l+e+p+v+h+p+s+p+h+h+s+h+p+h+A+q+h+v+p+A+q+h+A+s+e+e+9+9+j+l+e+e+e+g+p+h+u+p+p+r+r+",
"q+s+o+q+o+h+l+l+e+r+h+A+n+h+s+r+h+q+h+q+r+u+e+l+e+c+p+r+p+p+v+r+v+v+u+r+r+r+v+r+p+v+u+r+v+u+e+l+l+e+c+h+s+q+e+l+e+e+c+h+h+g+s+p+",
"l+l+l+l+l+l+l+j+l+e+v+p+p+p+p+q+q+h+q+h+e+e+l+j+e+e+e+h+h+h+h+r+h+q+h+h+s+h+h+h+h+h+r+h+p+e+l+j+l+h+v+t+s+v+r+v+h+c+e+e+l+e+l+c+"};
