/* XPM */
static char * wall_torch_xpm[] = {
"64 64 22 1",
" 	c None",
".	c #613C27",
"+	c #75472F",
"@	c #885437",
"#	c #955C3E",
"$	c #CEC400",
"%	c #E8DC00",
"&	c #ECE000",
"*	c #F0E400",
"=	c #EBE010",
"-	c #EEE320",
";	c #FFF424",
">	c #FFF984",
",	c #FBFA8B",
"'	c #F9F891",
")	c #FCFB93",
"!	c #F9F894",
"~	c #FBFDB0",
"{	c #F3F0BF",
"]	c #F6F3C2",
"^	c #F6F4CF",
"/	c #F9F8DF",
"                                                                ",
"                                                                ",
"                                                                ",
"                                                                ",
"                            $$                                  ",
"                            $$                                  ",
"                          $$**$$                                ",
"                          $$**$$                                ",
"                  $$      $$;;~~$$                              ",
"                  $$      $$;;~~$$                              ",
"                  $$$$    $$**~~$$                              ",
"                  $$$$    $$**~~$$                              ",
"                  $$$$  $$$$$$;;$$        $$                    ",
"                  $$$$  $$$$$$;;$$        $$                    ",
"                  $$%%$$$$****~~>>$$      $$                    ",
"                  $$%%$$$$****~~>>$$      $$                    ",
"                    $$--**;;;;~~;;**$$  $$$$                    ",
"                    $$--**;;;;~~;;**$$  $$$$                    ",
"                    $$**;;;;>>~~;;;;$$$$$$$$                    ",
"                    $$**;;;;>>~~;;;;$$$$$$$$                    ",
"                    $$****;;~~~~~~;;;;****$$                    ",
"                    $$****;;~~~~~~;;;;****$$                    ",
"                    $$$$****>>>>~~>>;;**$$$$                    ",
"                    $$$$****>>>>~~>>;;**$$$$                    ",
"                    $$$$**;;;;~~~~~~;;**$$$$                    ",
"                    $$$$**;;;;~~~~~~;;**$$$$                    ",
"                      $$$$**;;~~~~~~****$$                      ",
"                      $$$$**;;~~~~~~****$$                      ",
"                      $$$$**;;>>~~>>**$$$$                      ",
"                      $$$$**;;>>~~>>**$$$$                      ",
"                        $$$$**;;;;**$$$$                        ",
"                        $$$$**;;;;**$$$$                        ",
"                          $$$$****$$$$                          ",
"                          $$$$****$$$$                          ",
"                            $$$$$$$$                            ",
"                            $$$$$$$$                            ",
"                          ..++@@##++..                          ",
"                          ..++@@##++..                          ",
"                          ..++@@##++..                          ",
"                          ..++@@##++..                          ",
"                          ..++@@##++..                          ",
"                          ..++@@##++..                          ",
"                          ..++@@##++..                          ",
"                          ..++@@##++..                          ",
"                            ..++@@..                            ",
"                            ..++@@..                            ",
"                            ..++@@..                            ",
"                            ..++@@..                            ",
"                            ..++@@..                            ",
"                            ..++@@..                            ",
"                            ..++@@..                            ",
"                            ..++@@..                            ",
"                            ..++@@..                            ",
"                            ..++@@..                            ",
"                            ..++@@..                            ",
"                            ..++@@..                            ",
"                            ..++@@..                            ",
"                            ..++@@..                            ",
"                              ..@@                              ",
"                              ..@@                              ",
"                              ..++                              ",
"                              ..++                              ",
"                              ....                              ",
"                              ....                              "};
