/* XPM */
static char * w_guard1_xpm[] = {
"64 64 44 1",
" 	c #FFFFFF",
".	c #A8A8A8",
"+	c #B4B4B4",
"@	c #989898",
"#	c #8C8C8C",
"$	c #646464",
"%	c #484848",
"&	c #383838",
"*	c #D0D0D0",
"=	c #707070",
"-	c #5C5C5C",
";	c #2C2C2C",
">	c #545454",
",	c #4C4C4C",
"'	c #343434",
")	c #C0C0C0",
"!	c #000000",
"~	c #9C6038",
"{	c #403018",
"]	c #A0643C",
"^	c #905C34",
"/	c #202020",
"(	c #FCA470",
"_	c #FCBC9C",
":	c #B47044",
"<	c #E88C58",
"[	c #744C28",
"}	c #7C7C7C",
"|	c #6C4824",
"1	c #DC8854",
"2	c #FC9C60",
"3	c #F0945C",
"4	c #D08050",
"5	c #483818",
"6	c #A86840",
"7	c #C87C4C",
"8	c #80502C",
"9	c #FCB080",
"0	c #543C1C",
"a	c #885830",
"b	c #1C1C1C",
"c	c #DCDCDC",
"d	c #BC7848",
"e	c #282828",
"                                                                ",
"                                                                ",
"                                                                ",
"                                                                ",
"                                                                ",
"                                                                ",
"                                                                ",
"                                                                ",
"                                                                ",
"                                                                ",
"                                                                ",
"                                                                ",
"                                                                ",
"                            .+@#$%&%                            ",
"                           .#*#=$-%;%                           ",
"                           ##.#=$>%;&                           ",
"                           ##@#=$-,;'                           ",
"                          =@**).#=>>-,                          ",
"                          #+!~{]^{^!=$                          ",
"                          ./~(_(:_<[/=                          ",
"                          }/|1233245/$                          ",
"                            5617:1~5                            ",
"                            !849<:5!                            ",
"                           !!!|]]8!!!                           ",
"                        ~~!!@!!:]!!=!!!0                        ",
"                       ~6~!!!@!!!!=!0!!|a                       ",
"                       66a!!!!ba[b![[!!666                      ",
"                      ~66~!!6~a~[~~6~!!666[                     ",
"                      ~66a!!cc+6[6666!!~~~[                     ",
"                      ~6~[!!+6~[0666~!!a~~[                     ",
"                      ~6~[!![[6a06[[[!![~~[                     ",
"                      ~6a0!!6[~[06[6~!!|a~[                     ",
"                      ~6a0!![[a|0~[[[!!0[~[                     ",
"                      ~a|0!!a[a[00[[|!!0[a[                     ",
"                      ~6[!!![[a|0000!!!!a~a                     ",
"                      ~a0!!!>'!+.#!!!!!!0a[                     ",
"                      66a!!!%'!#>-!!!!!!|~[                     ",
"                      ~6|!!![[[[[[[[[!!!|a[                     ",
"                      ~6[!!!~~66[66~a!!!aa[                     ",
"                      ~6[0|~6666[666~[|0aa[                     ",
"                      ~~|0[~6666[6666a|0aa[                     ",
"                       6:0[~6666[6666~[|~6                      ",
"                       9400[~a[|00[aa0001d                      ",
"                       48|[666~[0|~66~0087                      ",
"                        :|a666~|00a666[07                       ",
"                         |a666a000a666[0                        ",
"                         0a66~[000a666[0                        ",
"                         0|~6~[000a66~[0                        ",
"                          0a~6[000a6~a|                         ",
"                          [aa~|000a~a|0                         ",
"                         aaaaa|00|a~a||0                        ",
"                         ~~~~~~[0a~~~a[0                        ",
"                         [6a00!00[6a00!0                        ",
"                          bbbb!! !bb!!!                         ",
"                          /''/b! be;b!!                         ",
"                          e&&/b! b;'b!!                         ",
"                          /&'b!! !e'b!!                         ",
"                          b''b!! !/;/!!                         ",
"                          be'b!! !b;/!!                         ",
"                          !beb!   beb!!                         ",
"                           bbb!   bbb!                          ",
"                          bbbb!! !b/b!!                         ",
"                         b;';b!! !e&'/bb                        ",
"                         e&'eb!   /&&;bb                        "};
