/* XPM */
static char * w_guard3_xpm[] = {
"64 64 46 1",
" 	c #FFFFFF",
".	c #A8A8A8",
"+	c #B4B4B4",
"@	c #989898",
"#	c #8C8C8C",
"$	c #646464",
"%	c #484848",
"&	c #383838",
"*	c #D0D0D0",
"=	c #707070",
"-	c #5C5C5C",
";	c #2C2C2C",
">	c #545454",
",	c #4C4C4C",
"'	c #343434",
")	c #C0C0C0",
"!	c #000000",
"~	c #9C6038",
"{	c #403018",
"]	c #A0643C",
"^	c #905C34",
"/	c #202020",
"(	c #FCA470",
"_	c #FCBC9C",
":	c #B47044",
"<	c #E88C58",
"[	c #744C28",
"}	c #7C7C7C",
"|	c #6C4824",
"1	c #DC8854",
"2	c #FC9C60",
"3	c #F0945C",
"4	c #D08050",
"5	c #483818",
"6	c #A86840",
"7	c #C87C4C",
"8	c #80502C",
"9	c #FCB080",
"0	c #543C1C",
"a	c #885830",
"b	c #1C1C1C",
"c	c #DCDCDC",
"d	c #FCB890",
"e	c #BC7848",
"f	c #282828",
"g	c #404040",
"                                                                ",
"                                                                ",
"                                                                ",
"                                                                ",
"                                                                ",
"                                                                ",
"                                                                ",
"                                                                ",
"                                                                ",
"                                                                ",
"                                                                ",
"                                                                ",
"                                                                ",
"                                                                ",
"                           .+@#$%&%                             ",
"                          .#*#=$-%;%                            ",
"                          ##.#=$>%;&                            ",
"                          ##@#=$-,;'                            ",
"                         =@**).#=>>-,                           ",
"                         #+!~{]^{^!=$                           ",
"                         ./~(_(:_<[/=                           ",
"                         }/|1233245/$                           ",
"                           5617:1~5                             ",
"                           !849<:5!                             ",
"                          !!!|]]8!!!                            ",
"                        ~!!@!!:]!!=!!!0                         ",
"                       6~!!!@!!!!=!0!!||                        ",
"                      66a!!!!ba[b![[!!66[                       ",
"                      66~!!6~a~[~~6~!!66a                       ",
"                     666a!!cc+6[6666!!~6~a                      ",
"                     66~[!!+6~[0666~!!a6~[                      ",
"                     6a[[!![[6a06[[[!![6~a                      ",
"                     ~[[0!!6[~[06[6~!!|6~a                      ",
"                     a[[0!![[a|0~[[[!!06~a                      ",
"                     a|00!!a[a[00[[|!!0a~a                      ",
"                     a[0!!![[a|0000!!!!6~a                      ",
"                     a||!!!>'!+.#!!!!!!6~a                      ",
"                     a[[!!!%'!#>-!!!!!!6[a                      ",
"                     aa[!!![[[[[[[[[!!!(:0                      ",
"                     ~~a!!!~~66[66~a!!4d30                      ",
"                      44|0[~~6~|a|[|00479[                      ",
"                      76[[~666a|[||[|0ee9                       ",
"                         |~~~[||0||[00|                         ",
"                        ~~66~a|000000|[                         ",
"                        ~~666~|00||||[a                         ",
"                        ~~666~|00|||||[                         ",
"                        a~666a000|000|a                         ",
"                        [[~66[|00|000|a                         ",
"                         [a66a|00|000|                          ",
"                         [a~6~|00|000|                          ",
"                        ~~~~~a|00||||||                         ",
"                        ~a[|[[|[000|00|                         ",
"                        |00000|0!!!!!![                         ",
"                         !bb!!! !bb!!!                          ",
"                         !ffb!! !ffb!!                          ",
"                         b'&b!! !/fb!!                          ",
"                         !;&/!! !bfb!!                          ",
"                          /'/!!  bbb!                           ",
"                          bff!   !b!!                           ",
"                          bff!  !b/bb!                          ",
"                          bf/b  /''fb!                          ",
"                         b;&&fb f;fbbb                          ",
"                         ;gg&fb                                 ",
"                         'g&/b!                                 "};
