/* XPM */
static char * w_guard4_xpm[] = {
"64 64 34 1",
" 	c #FFFFFF",
".	c #8C8C8C",
"+	c #989898",
"@	c #7C7C7C",
"#	c #707070",
"$	c #646464",
"%	c #545454",
"&	c #A8A8A8",
"*	c #484848",
"=	c #383838",
"-	c #282828",
";	c #1C1C1C",
">	c #303030",
",	c #6C4824",
"'	c #744C28",
")	c #885830",
"!	c #A86840",
"~	c #9C6038",
"{	c #000000",
"]	c #B4B4B4",
"^	c #543C1C",
"/	c #FC9C60",
"(	c #BC7848",
"_	c #FCA470",
":	c #700000",
"<	c #A0643C",
"[	c #DC8854",
"}	c #880000",
"|	c #FC0000",
"1	c #D40000",
"2	c #B00000",
"3	c #980000",
"4	c #202020",
"5	c #640000",
"                                                                ",
"                                                                ",
"                                                                ",
"                                                                ",
"                                                                ",
"                                                                ",
"                                                                ",
"                                                                ",
"                                                                ",
"                                                                ",
"                                                                ",
"                                                                ",
"                                                                ",
"                                                                ",
"                                                                ",
"                                                                ",
"                                                                ",
"                                                                ",
"                                                                ",
"                                                                ",
"                                                                ",
"                                                                ",
"                                                                ",
"                                                                ",
"                                                                ",
"                                                                ",
"                                                                ",
"                                                                ",
"                                                                ",
"                                                                ",
"                                                                ",
"                                                                ",
"                                                                ",
"                                                                ",
"                                                                ",
"                                                                ",
"                                                                ",
"                                                                ",
"                                                                ",
"                                                                ",
"                                                                ",
"                                                                ",
"                                                                ",
"                                                                ",
"                                                                ",
"                                                                ",
"                                                                ",
"                                                                ",
"                                                                ",
"                                                                ",
"                           .+@##$$%                             ",
"                          +.&..$*=-*                            ",
"                      ;>  ++&#%**=,')!!!!~''{{                  ",
"                     {{{{+]+.%%*',^^^>+@${;{^{{^^               ",
"                     {{{{{.'')~!!!~~~~!!!),^^^{{{^              ",
"                     {{{{{^!!!~~~~~)))~!!~~',{{{{{~~!           ",
"                     {{{{{{^!)'''',,,'~~~)~!,{{{{{')~!!!!!      ",
"                     {{{{{{{^^,^^^^^^,)~))~,{{{{{{^^^,''))/(    ",
"                      {{{{{{{{^^^^^^^^'))),{{{{{{{^^^^^^^^___~  ",
"                      {{{{{{{{{^^^^^^^^,'){{{{{{{{::::::::<<<[  ",
"                       {{{{{{{{,,,')',^^^{{{{{{{{}|||1222|::%%  ",
"                        {{{{{{)))%%%%%'''{{{{{{{:2221333211:    ",
"                         {{{4%%%%%%%    '{{{{{{::::::3355::     ",
"                                         {{{{{==%%%%%52:        "};
