/* XPM */
static char * w_guard2_xpm[] = {
"64 64 45 1",
" 	c #FFFFFF",
".	c #A8A8A8",
"+	c #B4B4B4",
"@	c #989898",
"#	c #8C8C8C",
"$	c #646464",
"%	c #484848",
"&	c #383838",
"*	c #D0D0D0",
"=	c #707070",
"-	c #5C5C5C",
";	c #2C2C2C",
">	c #545454",
",	c #4C4C4C",
"'	c #343434",
")	c #C0C0C0",
"!	c #000000",
"~	c #9C6038",
"{	c #403018",
"]	c #A0643C",
"^	c #905C34",
"/	c #202020",
"(	c #FCA470",
"_	c #FCBC9C",
":	c #B47044",
"<	c #E88C58",
"[	c #744C28",
"}	c #7C7C7C",
"|	c #6C4824",
"1	c #DC8854",
"2	c #FC9C60",
"3	c #F0945C",
"4	c #D08050",
"5	c #483818",
"6	c #A86840",
"7	c #C87C4C",
"8	c #80502C",
"9	c #FCB080",
"0	c #543C1C",
"a	c #885830",
"b	c #1C1C1C",
"c	c #DCDCDC",
"d	c #BC7848",
"e	c #FCB890",
"f	c #282828",
"                                                                ",
"                                                                ",
"                                                                ",
"                                                                ",
"                                                                ",
"                                                                ",
"                                                                ",
"                                                                ",
"                                                                ",
"                                                                ",
"                                                                ",
"                                                                ",
"                                                                ",
"                                                                ",
"                                                                ",
"                           .+@#$%&%                             ",
"                          .#*#=$-%;%                            ",
"                          ##.#=$>%;&                            ",
"                          ##@#=$-,;'                            ",
"                         =@**).#=>>-,                           ",
"                         #+!~{]^{^!=$                           ",
"                         ./~(_(:_<[/=                           ",
"                         }/|1233245/$                           ",
"                           5617:1~5                             ",
"                           !849<:5!                             ",
"                          !!!|]]8!!!                            ",
"                       [~!!@!!:]!!=!!!0[                        ",
"                      [~~!!!@!!!!=!0!!|~a                       ",
"                      ~6a!!!!ba[b![[!!66a                       ",
"                     a~6~!!6~a~[~~6~!!6~aa                      ",
"                     ~~aa!!cc+6[6666!!~[[a                      ",
"                     ~a[[!!+6~[0666~!!a|[a                      ",
"                     a[[[!![[6a06[[[!![0[[                      ",
"                     [[|0!!6[~[06[6~!!|0[[                      ",
"                     [|00!![[a|0~[[[!!00|[                      ",
"                     a|00!!a[a[00[[|!!00|[                      ",
"                     ~~a!!![[a|0000!!!!0||                      ",
"                     666!!!>'!+.#!!!!!!00|                      ",
"                     6(d!!!%'!#>-!!!!!!0|[                      ",
"                     6e(d!![[[[[[[[[!!!0[                       ",
"                     697d!!~~66[66~a!!!44                       ",
"                      1dd00|[[a0aa~a||087                       ",
"                        00000000[666~00                         ",
"                        a[[||000~666~[                          ",
"                        ~[00000|a666a[                          ",
"                        ~[00000|~666a||                         ",
"                        ~[000000~666[0|                         ",
"                        a[000000a66~[0|                         ",
"                         |000000a66a|0                          ",
"                         |00000|~~a[00                          ",
"                        a[00000a~~a||||                         ",
"                        ~a|0000~[0000|[                         ",
"                        [|0||00[00!!0!|                         ",
"                         b!!!!! bbbb!!                          ",
"                         f!!!!! b;;b!!                          ",
"                         f!!!!! b''bb!                          ",
"                         /!!!!! bf&/b!                          ",
"                          !!!!  !/'/!!                          ",
"                          !!!!  !bfb!!                          ",
"                         bb/bb!  bbb!                           ",
"                         f';/b!  !b!!!                          ",
"                         f;bb!! !b/bbb                          ",
"                                /&&'/b                          ",
"                                /'fb!!                          "};
