/* XPM */
static char * wood_and_greenlight_xpm[] = {
"64 64 121 2",
"  	c #403018",
". 	c #3C2D16",
"+ 	c #3F2F18",
"@ 	c #312411",
"# 	c #392B15",
"$ 	c #524C45",
"% 	c #646464",
"& 	c #3D2D16",
"* 	c #3E2F17",
"= 	c #2C200E",
"- 	c #3B2C15",
"; 	c #372914",
"> 	c #3D2E17",
", 	c #382914",
"' 	c #3E2E17",
") 	c #6C4824",
"! 	c #6B4724",
"~ 	c #4D3217",
"{ 	c #54371A",
"] 	c #5A3B1C",
"^ 	c #7C7C7C",
"/ 	c #8C8C8C",
"( 	c #614020",
"_ 	c #6B4824",
": 	c #6A4723",
"< 	c #634120",
"[ 	c #593A1C",
"} 	c #684522",
"| 	c #905C34",
"1 	c #8F5B34",
"2 	c #8E5B33",
"3 	c #7E502D",
"4 	c #82532E",
"5 	c #895831",
"6 	c #684123",
"7 	c #044C00",
"8 	c #046400",
"9 	c #8D5A33",
"0 	c #8A5832",
"a 	c #895731",
"b 	c #784C2A",
"c 	c #734928",
"d 	c #543C1C",
"e 	c #382C14",
"f 	c #28200C",
"g 	c #4B3518",
"h 	c #047000",
"i 	c #047C00",
"j 	c #045800",
"k 	c #50391A",
"l 	c #493417",
"m 	c #4F381A",
"n 	c #271F0C",
"o 	c #342912",
"p 	c #483818",
"q 	c #744C28",
"r 	c #5C4020",
"s 	c #674422",
"t 	c #436213",
"u 	c #048800",
"v 	c #049800",
"w 	c #04B000",
"x 	c #04C800",
"y 	c #523B1B",
"z 	c #251D0A",
"A 	c #473718",
"B 	c #423315",
"C 	c #04A400",
"D 	c #04BC00",
"E 	c #00EC00",
"F 	c #00E000",
"G 	c #00A800",
"H 	c #533B1C",
"I 	c #1E1707",
"J 	c #6A4623",
"K 	c #413215",
"L 	c #1F5D06",
"M 	c #00FC00",
"N 	c #654222",
"O 	c #80FC7C",
"P 	c #BCFCB8",
"Q 	c #D8FCD8",
"R 	c #FCFCB8",
"S 	c #FCFCFC",
"T 	c #FCFC54",
"U 	c #FCFC9C",
"V 	c #603E20",
"W 	c #27200C",
"X 	c #5B3B1E",
"Y 	c #271F0B",
"Z 	c #372A11",
"` 	c #3B2D12",
" .	c #258C08",
"..	c #43B913",
"+.	c #6B4624",
"@.	c #4B3618",
"#.	c #53391C",
"$.	c #694423",
"%.	c #231C0A",
"&.	c #6F4826",
"*.	c #704926",
"=.	c #261F0B",
"-.	c #403215",
";.	c #463617",
">.	c #533B1B",
",.	c #6F4926",
"'.	c #85552F",
").	c #51391B",
"!.	c #6D4725",
"~.	c #734B27",
"{.	c #734C28",
"].	c #473818",
"^.	c #5B4020",
"/.	c #533C1C",
"(.	c #8F5C34",
"_.	c #674522",
":.	c #6E4826",
"<.	c #6E4825",
"[.	c #734B28",
"}.	c #443516",
"|.	c #583D1E",
"                                      .               + @ # # $   % & * *   = - - ; > = =     , '                               ",
") ) ) ) ) ) ) ) ) ) ) ) ) ) ) ) ) ) ) ) ) ) ) ) ) ) ! ~ { ] { ^ / ^ ( ! _ : ) : : : ) : ) < [ } ) ) ) ) ) ) ) ) ) ) ) ) ) ) ) ) ",
"| | | | | | | | | | | | | | | | | | | 1 2 | | 3 | | | | 4 5 6 7 8 7 6 3 3 9 0 a 3 4 | b 9 c b 1 | | | | | | | | | | | | | | | | ",
"d d d d d d d e d f e d d d d d d d d d d d d g d e d f 8 h i i i h h 8 j k d d d d l e m n o d d d d d d d d d d d e d f e d d ",
"p p ) q q q q d | f d | r p p p p q q p ) p s p p k t u v w x x w v v u i 8 j p p p r y | z d | p q p p q p q p q q d | f d | ) ",
"p p ) q q q r d | f d | ) p p p d q q p ) A ) p B 8 C D E E E E F x G v u i 8 j p r q H | I d | p q p p q p q p q q d | f d | ) ",
"p p r q q q d d | f d | q d p p d q q p ) p J K L w x F M M M M F F x w C u i 8 j N q H | f d | p q p p q p q p q q d | f d | ) ",
"d p d ) q q d d | f d | q d p p r q ) p ) p ) 8 C F M O P Q R S T U R Q P O M F v 8 V d | W d | p q p p q p q p q q d | f d | ) ",
") p p r q r p d | f d | q r p d ) q ) p ) p ) i v E O O O P Q R R R Q P O O O E v i X d | Y d | p q p p q p q p ) q d | f d | d ",
") p d p r d p d | f d | q ) p r q q r p ) p ) Z `  ...F M O O O O O O O M F x v +.+.q d | n d | p q p p q p q p ) q d | f d | d ",
"q d p p d p p d | f d | q q r ) q q r p ) p ) p A y 9 f @.4 #.K $.@.4 %.@.4 +.&.*.q q d | =.d | p q p p q p q p r q d | f d | d ",
"q d p p p p d d | f d | q q ) q q q d p ) p ) -.;.>.1 f d | A ;.,.k '.n ).'.!.*.q ~.{.d | f d | p q p p q p q p r q d | f d | p ",
") q p p p d q d | f d | q q ) q q q d p ) ].) p p d | f d | p ^.q d 0 f /.(._.:.<.[.q d | f d | p q p p q p q d p q d | f d | p ",
") q d p p d q d | f d | q q q q q ) p p ) A ) p p d | f >.9 }.|.{.d | f d | ) q q q ) d | f d | p q p p q p q d p q d | f d | p ",
"r q q p d q q d | f d | q q q q q ) p p ) p } }.;.H | f d | p q q d | f d | r q q q ) d | f d | p q p p q p q d p q d | f d | p ",
"d q q q d q r d | f d | ) q q q q ) p p ) p ) p p d | f d | r q q d | f d | p ) q ) r d | f d | p q p p q p q d p q d | f d | d ",
"p ) q q r q d d | f d | ) q q q q r p p ) p ) p p d | f d | r q ) d | f d | p r ) r p d | f d | p q p p q p q r p q d | f d | d ",
"p ) q q q q d d | f d | r q q q q r p p ) p ) p p d | f d | q q ) d | f d | p p r p p d | f d | p q p p q p q r p ) d | f d | d ",
"p r ) q q q p d | f d | r q q q q d p p ) p ) p p d | f d | q q r d | f d | p p p p p d | f d | p q p p q p q ) p ) d | f d | ) ",
"p d ) q q r p d | f d | d ) q q q d p d ) p ) p p d | f d | q ) r d | f d | p p p p p d | f d | p q p p q p q ) p ) d | f d | ) ",
"p p r q q d p d | f d | d ) q q ) p p d ) p ) p p d | f d | q ) p d | f d | p p p p p d | f d | p q p p q p q ) p r d | f d | ) ",
"p p d q q d p d | f d | p r q q ) p p d ) p ) p p d | f d | q r p d | f d | r p p p r d | f d | p q p p q p q q p r d | f d | ) ",
"d p d r d p p d | f d | p r q q r p p r ) p ) p p d | f d | ) p p d | f d | ) r p r ) d | f d | p q p p q p ) q p p d | f d | ) ",
"d p p d p p d d | f d | p d ) ) r p p r ) p ) p p d | f d | r p p d | f d | q ) r ) q d | f d | p q p p q p ) q d p d | f d | ) ",
"d p p p p p d d | f d | p d r r d p p r r p ) p p d | f d | p p p d | f d | q q ) q q d | f d | p q p p q p r q d p d | f d | r ",
") p p p p p ) d | f d | p p d d p p p ) d p ) p p d | f d | p p p d | f d | q q q q q d | f d | p q p p q p r q r p d | f d | d ",
") p p p p p ) d | f d | p p p p p p p ) d p ) p p d | f d | p p d d | f d | q q q q q d | f d | p q p p q p d q r p d | f d | d ",
") d p p p d r d | f d | p p p p p p d q p p ) p p d | f d | p p d d | f d | q q q q q d | f d | p q p p q p d q ) d d | f d | p ",
"r d p p p d d d | f d | p p p p p p r q p p ) p p d | f d | p p r d | f d | ) q q q q d | f d | p q p p q p d q ) d d | f d | p ",
"d ) p p p ) d d | f d | p p p p p p r q p p ) p p d | f d | p p ) d | f d | ) q q q q d | f d | p q p p q p p q q r p | f d | p ",
"d ) d p p ) p d | f d | p p p p p p ) q p p ) p p d | f d | p d ) d | f d | r q q q ) d | f d | p q p p q p p q q r d | f d | p ",
"p r d p ) r p d | f d | d p p p p p ) q p p ) p p d | f d | p r q d | f d | r ) q q ) d | f d | p q p p q p p ) q ) d | f d | p ",
"p d ) d ) d p d | f d | r p p p p d q ) p d ) p p d | f d | d ) q d | f d | p ) q q r d | f d | p q p p q p p ) q ) d | f d | p ",
"p d ) d ) d p d | f d | ) d p p p r q ) p d ) p p d | f d | r q q d | f d | p r q ) p d | f d | p q p p q d p r q q d | f d | p ",
"p p r ) r p p d | f d | q r p p d r q r p r ) p p d | f d | ) q q d | f d | p p ) r p d | f d | p q p p q d p r q q d | f d | d ",
"p p d r d p p d | f d | q ) d p d q q d p r ) p p d | f d | q q q d | f d | p p r p p d | f d | p q p p q d p d q q d | f d | d ",
"p p p d p p p d | f d | q q r p r q q d p r ) p p d | f d | q q ) d | f d | p p p p p d | f d | p q p p q d p d q q d | f d | r ",
"p p p p p p p d | f d | q q q r q q q p p ) ) p p d | f d | q q ) d | f d | p p p p p d | f d | p q p p q r p d q q d | f d | ) ",
"p p p p p p d d | f d | q q q q q q ) p p ) ) p p d | f d | q q r d | f d | p p p p p d | f d | p q p p q r p p ) q d | f d | ) ",
"d p p p p p d d | f d | ) q q q q q ) p p q ) p p d | f d | q ) r d | f d | r p p p p d | f d | p q p p q ) p p ) q d | f d | ) ",
"d p p p p p r d | f d | ) q q q q q r p p q ) p p d | f d | q ) p d | f d | r p p p p d | f d | p q p p ) ) p p r q d | f d | d ",
") d p p p d r d | f d | r q q q q q d p p q r p p d | f d | q r p d | f d | ) r p p r d | f d | p q p p ) q p p r q d | f d | d ",
") d p p p d ) d | f d | d q q q q q p p p q r p p d | f d | ) r p d | f d | q r p r r d | f d | p q p p r q d p d ) d | f d | p ",
") r d p d r ) d | f d | p ) q q q ) p p d q p p p d | f d | ) p p d | f d | q ) r r ) d | f d | p q p p r q d p d ) d | f d | p ",
") ) d d d ) r d | f d | p r q q q r p p r q p p p d | f d | r p p d | f d | q q r ) q d | f d | p q p p d q d p d r d | f d | p ",
"r ) r d r ) d d | f d | p d ) q ) d p p ) q p p p d | f d | p p p d | f d | q q ) q q d | f d | p q p p d q r p p r d | f d | p ",
"d ) ) r ) ) d d | f d | p p d ) r p p p ) q p p p d | f d | p p d d | f d | q q q q q d | f d | p q p p d q r d p d d | f d | p ",
"d ) ) r ) ) p d | f d | p p p d d p p p q ) p p p d | f d | p p d d | f d | q q q q q d | f d | p q p p d q ) d p d d | f d | p ",
"p ) q q q ) p d | f d | d p p p p p p d q ) p p p d | f d | p p r d | f d | q q q q ) d | f d | p q p p p q ) d p d d | f d | p ",
"p r q q q ) p d | f d | d p p p p p p r q r p p p d | f d | p d ) d | f d | ) q q q ) d | f d | p q p p p ) q r p p d | f d | p ",
"p d ) q q ) p d | f d | r p p p p p p ) q r p p p d | f d | p r q d | f d | ) q q q r d | f d | p q p p p ) q r d p d | f d | p ",
"p d ) q q r p d | f d | ) d p p p p p ) q p p p p d | f d | d ) q d | f d | r q q q r d | f d | p q p p p r q ) d p d | f d | d ",
"p p r q ) r p d | f d | q d p p p p d q ) p p p p d | f d | ) q q d | f d | r q q ) d d | f d | p q p p p r q ) r p d | f d | d ",
"p p d ) ) d p d | f d | q r p p p p r q ) p p r p d | f d | q q q d | f d | d ) q ) d d | f d | p q d p p d ) q r d d | f d | r ",
"p p d ) r d p d | f d | ) ) d p p p ) q r p p r p d | f d | q q q d | f d | d ) q r p d | f d | p q d p p d r q ) d d | f d | r ",
"p p p r r p p d | f d | ) q d p p d ) q p p p ) p d | f d | q q q d | f d | p r ) d p d | f d | p q d p p p r q ) d d | f d | ) ",
"p p p d d p p d | f d | r q ) d p d q q p p p ) p d | f d | q q q d | f d | p d r p p d | f d | p q d p p p d ) q d d | f d | ) ",
"d p p p p p d d | f d | p ) q ) d q q ) p p p ) p d | f d | q q q d | f d | p p d p p d | f d | p ) r p p p d r q ) d | f d | q ",
"d p p p p p d d | f d | p r q q q q q r p p p q p d | f d | q q ) d | f d | p p p p p d | f d | p ) ) p p p p r q ) d | f d | q ",
"r p p p p p ) d | f d | p p q q q q ) p p p r q p d | f d | q q ) d | f d | p p p p p d | f d | p r ) d p p p d ) ) d | f d | q ",
"r d p p p d ) d | f d | p p r ) q ) r p p p ) q p d | f d | q ) r d | f d | p p p p p d | f d | p r q d p p p p r r d | f d | q ",
") d p p p d ) d | f d | p p p r ) r p p p p ) q p d | f d | q ) r d | f d | p p p p p d | f d | p p q d p p p p p d d | f d | q ",
") r p p p d ) d | f d | p p p p r p p p p ) q q r d | f d | ) r p d | f d | p p p p p d | f d | r p q r p p p p p p d | f d | q ",
"r r r r r r r d | f d | r p p p p p p p r r r r r d | f d | r p p d | f d | r p p p r d | f d | r p r r p p p p p p d | f d | r "};
